<svg width="32" height="32" viewBox="0 0 32 32" fill="none" xmlns="http://www.w3.org/2000/svg">
  <mask
    id="mask0_438_5392"
    style="mask-type: alpha"
    mask-units="userSpaceOnUse"
    x="0"
    y="0"
    width="32"
    height="26"
  >
    <path fill-rule="evenodd" clip-rule="evenodd" d="M0 0H31.8843V25.6857H0V0Z" fill="white" />
  </mask>
  <g mask="url(#mask0_438_5392)">
    <path
      fill-rule="evenodd"
      clip-rule="evenodd"
      d="M3.73344 24.7318C2.78596 22.7034 2.25674 20.4405 2.25674 18.054C2.25674 9.3294 9.3294 2.25677 18.054 2.25677C22.912 2.25677 27.2576 4.44975 30.1555 7.89961L31.8843 6.44902C28.5725 2.50628 23.606 0 18.054 0C8.08305 0 0 8.08305 0 18.054C0 20.7814 0.604807 23.3676 1.68765 25.6858L3.73344 24.7318Z"
      fill="black"
    />
  </g>
  <path
    fill-rule="evenodd"
    clip-rule="evenodd"
    d="M18.054 28.7735C12.1337 28.7735 7.33444 23.9742 7.33444 18.054C7.33444 12.1337 12.1337 7.33437 18.054 7.33437C21.3505 7.33437 24.2989 8.82286 26.2653 11.1638L27.9945 9.71286C25.6142 6.87904 22.0445 5.07764 18.054 5.07764C10.8874 5.07764 5.07767 10.8873 5.07767 18.054C5.07767 25.2205 10.8874 31.0302 18.054 31.0302V28.7735Z"
    fill="black"
  />
  <path
    fill-rule="evenodd"
    clip-rule="evenodd"
    d="M21.9435 21.3178C21.0121 22.4267 19.6155 23.1317 18.054 23.1317C15.2496 23.1317 12.9763 20.8584 12.9763 18.054C12.9763 15.2497 15.2496 12.9763 18.054 12.9763C19.6155 12.9763 21.0121 13.6814 21.9435 14.7903L23.8883 13.1584C22.4912 11.4951 20.3962 10.4375 18.054 10.4375C13.8475 10.4375 10.4374 13.8475 10.4374 18.054C10.4374 22.2605 13.8475 25.6706 18.054 25.6706C20.2005 25.6706 22.1389 24.7819 23.5233 23.3532L21.9435 21.3178Z"
    fill="black"
  />
</svg>