<svg width="28" height="28" fill="none" xmlns="http://www.w3.org/2000/svg">
  <circle cx="14" cy="14" r="14" fill="#0052FF"/>
  <path d="M23.852 14A9.834 9.834 0 0 1 14 23.852 9.834 9.834 0 0 1 4.148 14 9.834 9.834 0 0 1 14 4.148 9.834 9.834 0 0 1 23.852 14Z" fill="#fff"/><path d="M11.185 12.504c0-.456 0-.71.098-.862.098-.152.196-.304.343-.355.196-.102.392-.102.881-.102h2.986c.49 0 .686 0 .882.102.146.101.293.203.342.355.098.203.098.406.098.862v2.992c0 .457 0 .71-.098.863-.098.152-.195.304-.342.355-.196.101-.392.101-.882.101h-2.986c-.49 0-.685 0-.88-.101-.148-.102-.295-.203-.344-.355-.098-.203-.098-.406-.098-.863v-2.992Z" fill="#0052FF"/>
</svg>