<svg width="249" height="248" viewBox="0 0 249 248" fill="none" xmlns="http://www.w3.org/2000/svg">
  <path fill-rule="evenodd" clip-rule="evenodd" d="M42.13 0C19.1384 0 0.5 18.6384 0.5 41.63V206.37C0.5 229.362 19.1384 248 42.13 248H206.87C229.862 248 248.5 229.362 248.5 206.37V41.63C248.5 18.6384 229.862 0 206.87 0H42.13ZM100.843 157.604C100.843 170.546 111.39 181.094 124.351 181.094C137.307 181.094 147.846 170.546 147.846 157.604C147.846 151.651 145.624 145.99 141.595 141.637L124.351 124.399L124.346 124.404L110.269 110.332L110.278 110.323L84.5657 84.6129C91.681 77.4865 98.8051 70.3688 105.931 63.2531L126.646 42.5435L140.004 55.896L111.994 83.8913L124.351 96.2308L147.174 73.8125L154.598 81.2106L161.279 87.8682L138.423 110.311L155.943 127.836V127.84C163.677 136.155 167.773 146.623 167.773 157.608C167.773 181.54 148.287 201.006 124.351 201.006C100.401 201.006 80.9279 181.54 80.9279 157.608C80.9279 146.64 85.0243 136.184 92.4712 128.132L102.154 118.448L116.231 132.521L106.832 141.924C103.064 145.998 100.843 151.663 100.843 157.604Z" fill="#32C6A1" />
</svg>