<svg width="24" height="24" viewBox="0 0 24 24" fill="none" xmlns="http://www.w3.org/2000/svg">
  <path d="M11.4641 11.5401V16.8772C11.2803 17.1442 10.9877 17.4446 10.5861 17.7784C10.1846 18.1055 9.62995 18.3925 8.92216 18.6395C8.22118 18.8798 7.31604 19 6.20672 19C5.30157 19 4.46789 18.8465 3.70566 18.5394C2.95023 18.2256 2.29349 17.7717 1.73543 17.1776C1.18418 16.5768 0.755423 15.8491 0.449171 14.9947C0.149724 14.1335 0 13.1589 0 12.0708V10.9393C0 9.85113 0.129307 8.87984 0.38792 8.02537C0.653339 7.17089 1.04126 6.4466 1.55168 5.85247C2.0621 5.25167 2.68822 4.79773 3.43003 4.49065C4.17184 4.1769 5.02254 4.02003 5.98214 4.02003C7.11867 4.02003 8.06806 4.21362 8.83029 4.6008C9.59932 4.98131 10.1982 5.50868 10.627 6.18291C11.0625 6.85714 11.3416 7.62483 11.4641 8.48598H9.49383C9.40536 7.95861 9.22841 7.47797 8.96299 7.04406C8.70438 6.61015 8.33348 6.26302 7.85028 6.00267C7.36708 5.73565 6.74436 5.60214 5.98214 5.60214C5.29477 5.60214 4.69928 5.72563 4.19566 5.97263C3.69205 6.21963 3.2769 6.57343 2.95023 7.03405C2.62356 7.49466 2.37856 8.05207 2.21523 8.70628C2.0587 9.36048 1.98043 10.0981 1.98043 10.9192V12.0708C1.98043 12.9119 2.07912 13.6629 2.27648 14.3238C2.48065 14.9846 2.76989 15.5487 3.14419 16.016C3.5185 16.4766 3.96427 16.8271 4.4815 17.0674C5.00553 17.3077 5.58401 17.4279 6.21693 17.4279C6.91791 17.4279 7.48618 17.3712 7.92174 17.2577C8.3573 17.1375 8.69758 16.9973 8.94258 16.8371C9.18758 16.6702 9.37473 16.5134 9.50404 16.3665V13.1021H6.0638V11.5401H11.4641Z" fill="black"/>
  <path d="M13.9447 13.5027V13.2724C13.9447 12.4913 14.0604 11.767 14.2918 11.0995C14.5232 10.4252 14.8567 9.84112 15.2922 9.34713C15.7278 8.84646 16.2552 8.45928 16.8745 8.18558C17.4938 7.90521 18.188 7.76502 18.957 7.76502C19.7329 7.76502 20.4305 7.90521 21.0498 8.18558C21.6759 8.45928 22.2067 8.84646 22.6423 9.34713C23.0846 9.84112 23.4215 10.4252 23.6529 11.0995C23.8843 11.767 24 12.4913 24 13.2724V13.5027C24 14.2837 23.8843 15.008 23.6529 15.6756C23.4215 16.3431 23.0846 16.9272 22.6423 17.4279C22.2067 17.9219 21.6793 18.3091 21.06 18.5895C20.4475 18.8632 19.7533 19 18.9775 19C18.2016 19 17.504 18.8632 16.8847 18.5895C16.2654 18.3091 15.7346 17.9219 15.2922 17.4279C14.8567 16.9272 14.5232 16.3431 14.2918 15.6756C14.0604 15.008 13.9447 14.2837 13.9447 13.5027ZM15.8333 13.2724V13.5027C15.8333 14.0434 15.8979 14.5541 16.0272 15.0347C16.1565 15.5087 16.3505 15.9292 16.6091 16.2964C16.8745 16.6636 17.2046 16.9539 17.5993 17.1676C17.994 17.3745 18.4534 17.478 18.9775 17.478C19.4947 17.478 19.9473 17.3745 20.3352 17.1676C20.7299 16.9539 21.0566 16.6636 21.3152 16.2964C21.5738 15.9292 21.7678 15.5087 21.8971 15.0347C22.0332 14.5541 22.1012 14.0434 22.1012 13.5027V13.2724C22.1012 12.7383 22.0332 12.2343 21.8971 11.7603C21.7678 11.2797 21.5704 10.8558 21.305 10.4887C21.0464 10.1148 20.7197 9.82109 20.325 9.60748C19.937 9.39386 19.4811 9.28705 18.957 9.28705C18.4398 9.28705 17.9838 9.39386 17.5891 9.60748C17.2012 9.82109 16.8745 10.1148 16.6091 10.4887C16.3505 10.8558 16.1565 11.2797 16.0272 11.7603C15.8979 12.2343 15.8333 12.7383 15.8333 13.2724ZM15.5883 5.07143C15.5883 4.77103 15.6835 4.51736 15.8741 4.31041C16.0647 4.10347 16.3403 4 16.701 4C17.0685 4 17.3475 4.10347 17.5381 4.31041C17.7286 4.51736 17.8239 4.77103 17.8239 5.07143C17.8239 5.35848 17.7286 5.60547 17.5381 5.81242C17.3475 6.01268 17.0685 6.11282 16.701 6.11282C16.3403 6.11282 16.0647 6.01268 15.8741 5.81242C15.6835 5.60547 15.5883 5.35848 15.5883 5.07143ZM19.9881 5.09146C19.9881 4.79105 20.08 4.53738 20.2637 4.33044C20.4543 4.1235 20.7333 4.02003 21.1008 4.02003C21.4615 4.02003 21.7371 4.1235 21.9277 4.33044C22.1251 4.53738 22.2237 4.79105 22.2237 5.09146C22.2237 5.3785 22.1251 5.6255 21.9277 5.83244C21.7371 6.03271 21.4615 6.13284 21.1008 6.13284C20.7333 6.13284 20.4543 6.03271 20.2637 5.83244C20.08 5.6255 19.9881 5.3785 19.9881 5.09146Z" fill="black"/>
</svg>
