<svg width="32" height="24" viewBox="0 0 32 24" fill="none" xmlns="http://www.w3.org/2000/svg">
    <path
        d="M26.0077 3.81231C24.3202 2.04472 21.73 1.553 20.1866 1.50981C19.8178 1.49949 19.5246 1.79357 19.4985 2.16154C19.4664 2.61463 19.0365 2.93047 18.589 2.85281C16.3899 2.47124 14.4175 2.61884 13.2097 2.83505C12.7645 2.91474 12.3154 2.62912 12.2431 2.18269C12.182 1.80529 11.8458 1.53182 11.4657 1.57297C8.65558 1.87719 6.62399 3.10796 5.83626 3.79556C5.77353 3.85032 5.72154 3.91349 5.67742 3.98411C3.26243 7.84946 2.00468 14.5543 1.61303 17.9178C1.5743 18.2504 1.70998 18.5776 1.97634 18.7804C4.56258 20.7503 7.68832 21.8695 9.48834 22.326C9.92636 22.4371 10.3712 22.2108 10.5679 21.804L11.1514 20.5967C11.3497 20.1864 11.7999 19.9644 12.2495 20.0379C15.3451 20.544 18.059 20.3295 19.5608 20.0622C20.0076 19.9827 20.4699 20.1744 20.6951 20.5685L21.4601 21.9072C21.6625 22.2614 22.061 22.46 22.4625 22.3875C26.1956 21.7135 28.9611 19.8394 30.1574 18.7304C30.3475 18.5542 30.4443 18.3032 30.4371 18.0441C30.2691 12.0437 27.5369 6.22937 26.1176 3.95425C26.0855 3.90267 26.0496 3.85628 26.0077 3.81231Z"
        stroke="#333333" stroke-width="2" stroke-linecap="round" stroke-linejoin="round" />
    <path
        d="M7.84173 17.7871C7.32131 17.6022 6.74954 17.8742 6.56466 18.3946C6.37977 18.9151 6.65177 19.4868 7.17219 19.6717L7.84173 17.7871ZM24.7974 19.6663C25.3148 19.4732 25.5778 18.8972 25.3847 18.3798C25.1916 17.8624 24.6156 17.5994 24.0982 17.7925L24.7974 19.6663ZM7.17219 19.6717C10.9525 21.0147 16.707 22.6851 24.7974 19.6663L24.0982 17.7925C16.6355 20.5771 11.4124 19.0556 7.84173 17.7871L7.17219 19.6717Z"
        fill="#333333" />
    <path
        d="M13.2529 13.8198C13.2529 14.9565 12.4515 15.6839 11.6896 15.6839C10.9276 15.6839 10.1263 14.9565 10.1263 13.8198C10.1263 12.6831 10.9276 11.9558 11.6896 11.9558C12.4515 11.9558 13.2529 12.6831 13.2529 13.8198Z"
        stroke="#333333" stroke-width="2" />
    <path
        d="M21.8737 13.8199C21.8737 14.9566 21.0724 15.6839 20.3104 15.6839C19.5485 15.6839 18.7471 14.9566 18.7471 13.8199C18.7471 12.6832 19.5485 11.9558 20.3104 11.9558C21.0724 11.9558 21.8737 12.6832 21.8737 13.8199Z"
        stroke="#333333" stroke-width="2" />
</svg>