<svg fill="none" xmlns="http://www.w3.org/2000/svg" width="160" viewBox="300 20 160 87" height="87">
<path d="M336.77 63.39V64.62C337.029 64.2025 337.39 63.8583 337.82 63.62C338.247 63.3894 338.725 63.2723 339.21 63.28C339.7 63.223 340.194 63.336 340.61 63.6C341.022 63.8672 341.326 64.2708 341.47 64.74C341.731 64.2828 342.116 63.9084 342.58 63.66C343.035 63.406 343.549 63.275 344.07 63.28C345.68 63.28 346.51 64.16 346.54 65.92V70.92H345.74V65.92C345.778 65.3865 345.621 64.8574 345.3 64.43C345.115 64.2556 344.898 64.1196 344.66 64.03C344.419 63.9464 344.164 63.9124 343.91 63.93C343.348 63.9306 342.806 64.141 342.39 64.52C342.194 64.6962 342.032 64.9062 341.91 65.14C341.792 65.3774 341.72 65.6355 341.7 65.9V70.9H340.86V65.9C340.904 65.3796 340.742 64.8628 340.41 64.46C340.227 64.2883 340.008 64.1587 339.77 64.08C339.533 63.9967 339.281 63.9626 339.03 63.98C338.542 63.9724 338.066 64.1311 337.68 64.43C337.277 64.7824 336.985 65.2445 336.84 65.76V70.93H336V63.39H336.77ZM362.67 70.93C362.576 70.5873 362.523 70.235 362.51 69.88C362.217 70.2637 361.832 70.5665 361.39 70.76C360.939 70.9676 360.447 71.0734 359.95 71.07C359.31 71.0983 358.684 70.88 358.2 70.46C357.986 70.2685 357.815 70.0332 357.7 69.77C357.588 69.504 357.53 69.2185 357.53 68.93C357.518 68.5823 357.598 68.2376 357.76 67.93C357.923 67.6289 358.156 67.3717 358.44 67.18C359.207 66.7175 360.095 66.4947 360.99 66.54H362.5V65.68C362.517 65.4487 362.483 65.2165 362.4 65C362.311 64.7793 362.178 64.5787 362.01 64.41C361.606 64.0716 361.085 63.9063 360.56 63.95C360.045 63.9383 359.54 64.0926 359.12 64.39C358.95 64.5181 358.81 64.682 358.71 64.87C358.612 65.0552 358.557 65.2604 358.55 65.47H357.71C357.725 65.1658 357.807 64.8686 357.95 64.6C358.094 64.3267 358.299 64.0905 358.55 63.91C359.125 63.4756 359.829 63.2467 360.55 63.26C361.27 63.2132 361.982 63.434 362.55 63.88C362.799 64.0995 362.994 64.3732 363.12 64.68C363.256 64.995 363.318 65.3372 363.3 65.68V69.25C363.277 69.8053 363.352 70.3602 363.52 70.89V70.97L362.67 70.93ZM360.05 70.33C360.576 70.3426 361.094 70.2 361.54 69.92C361.981 69.6812 362.332 69.3056 362.54 68.85V67.19H361.01C360.315 67.1584 359.624 67.3138 359.01 67.64C358.797 67.7656 358.622 67.9449 358.5 68.16C358.374 68.3714 358.308 68.6136 358.31 68.86C358.318 69.0499 358.362 69.2367 358.44 69.41C358.518 69.5834 358.635 69.7371 358.78 69.86C359.124 70.1474 359.562 70.2971 360.01 70.28L360.05 70.33ZM378.3 64.08C378.111 64.0599 377.919 64.0599 377.73 64.08C377.257 64.0702 376.795 64.2219 376.42 64.51C376.041 64.8459 375.773 65.2886 375.65 65.78V70.98H374.82V63.44H375.64V64.64C375.817 64.2274 376.116 63.8789 376.497 63.6412C376.877 63.4035 377.322 63.2879 377.77 63.31C377.958 63.2992 378.146 63.3299 378.32 63.4L378.3 64.08ZM390.67 67.08L389.67 68V70.88H388.91V60.2H389.74V67.08L390.53 66.23L393.41 63.39H394.41L391.23 66.57L394.7 70.93H393.7L390.67 67.08ZM407.91 71.08C407.299 71.0878 406.699 70.9212 406.18 70.6C405.658 70.2903 405.237 69.835 404.97 69.29C404.678 68.6996 404.531 68.0484 404.54 67.39V67.08C404.524 66.3898 404.667 65.7052 404.96 65.08C405.219 64.5258 405.623 64.0524 406.13 63.71C406.615 63.3927 407.181 63.2225 407.76 63.22C408.171 63.2077 408.58 63.2827 408.96 63.44C409.342 63.5992 409.684 63.8418 409.96 64.15C410.531 64.8764 410.816 65.7874 410.76 66.71V67.18H405.39V67.34C405.358 68.1193 405.619 68.8825 406.12 69.48C406.345 69.753 406.629 69.9718 406.95 70.12C407.263 70.2657 407.605 70.3376 407.95 70.33C408.357 70.3476 408.761 70.2657 409.129 70.0914C409.497 69.9172 409.816 69.6558 410.06 69.33L410.58 69.73C410.286 70.1538 409.891 70.4975 409.43 70.73C408.962 70.9755 408.438 71.0961 407.91 71.08ZM407.76 63.98C407.464 63.9753 407.169 64.0336 406.897 64.1508C406.625 64.268 406.38 64.4415 406.18 64.66C405.727 65.1814 405.451 65.8323 405.39 66.52H409.91V66.43C409.919 65.7852 409.699 65.1582 409.29 64.66C409.107 64.4381 408.874 64.2632 408.61 64.15C408.344 64.0261 408.053 63.9646 407.76 63.97V63.98ZM422.91 61.51V63.43H424.47V64.08H422.91V69.08C422.889 69.4062 422.97 69.731 423.14 70.01C423.234 70.1213 423.354 70.2072 423.49 70.26C423.619 70.3147 423.76 70.3354 423.9 70.32C424.126 70.3313 424.352 70.3077 424.57 70.25V70.93C424.282 71.0201 423.981 71.0607 423.68 71.05C423.449 71.0701 423.217 71.0394 423 70.96C422.781 70.8728 422.586 70.7359 422.43 70.56C422.143 70.1258 422.006 69.6094 422.04 69.09V64.08H420.65V63.39H422.04V61.5L422.91 61.51Z" fill="black"/>
<path d="M392.758 36.9156L392.271 38.4409C391.166 41.9621 389.996 45.5969 388.858 49.183C388.354 50.8057 387.834 52.3148 387.33 53.8563L386.973 54.9597C386.88 55.2583 386.695 55.5197 386.443 55.7063C386.192 55.8929 385.888 55.9952 385.575 55.9983C385.307 55.992 385.045 55.9195 384.811 55.7873C384.427 55.5505 384.152 55.1712 384.048 54.7326L383.121 51.9253C382.666 50.4974 382.195 49.0694 381.724 47.6415C381.252 49.0694 380.797 50.4974 380.326 51.9253C380.017 52.8503 379.725 53.7914 379.416 54.7326C379.298 55.1695 379.019 55.5461 378.636 55.7873C378.402 55.9195 378.14 55.992 377.872 55.9983C377.56 55.9995 377.256 55.8986 377.006 55.7111C376.757 55.5235 376.576 55.2597 376.491 54.9597L376.117 53.8563C375.613 52.2337 375.093 50.7408 374.589 49.183L371.16 38.4409L370.672 36.9156C370.593 36.6982 370.569 36.465 370.6 36.236C370.631 36.0069 370.717 35.7888 370.852 35.6005C370.986 35.4122 371.164 35.2592 371.371 35.1547C371.577 35.0503 371.806 34.9975 372.038 35.0008C372.351 35.0039 372.655 35.1061 372.906 35.2928C373.157 35.4794 373.342 35.7408 373.435 36.0393C373.63 36.6073 373.809 37.1914 373.988 37.7431C374.085 38.0352 374.183 38.3273 374.264 38.6356C375.483 42.384 376.686 46.1486 377.904 49.9944L378.197 49.0694L378.506 48.177C379.091 46.4245 379.708 44.5908 380.326 42.8059C380.419 42.528 380.599 42.287 380.838 42.1178C381.078 41.9485 381.365 41.8599 381.659 41.8647H381.789C382.084 41.8614 382.372 41.9504 382.614 42.1192C382.856 42.288 383.039 42.5281 383.137 42.8059L384.941 48.177L385.25 49.0694C385.348 49.3777 385.445 49.6698 385.559 49.9944C386.762 46.2297 387.98 42.4651 389.183 38.7167C389.281 38.4084 389.362 38.1164 389.459 37.8243C389.638 37.2726 389.817 36.6884 390.012 36.1205C390.09 35.8068 390.269 35.5275 390.522 35.3252C390.774 35.123 391.086 35.009 391.41 35.0008C391.64 35.0001 391.867 35.0549 392.071 35.1604C392.275 35.266 392.451 35.4193 392.584 35.6072C392.716 35.7952 392.801 36.0123 392.832 36.24C392.862 36.4678 392.837 36.6995 392.758 36.9156ZM415.04 54.6352C415.049 54.9964 414.915 55.3466 414.666 55.6088C414.528 55.7413 414.365 55.8442 414.186 55.9111C414.007 55.9781 413.816 56.0078 413.626 55.9983C413.34 55.9972 413.061 55.9064 412.829 55.7386C412.578 55.5778 412.38 55.3463 412.261 55.0733L404.801 37.7107L402.038 44.0878H403.355C403.714 44.079 404.062 44.2121 404.324 44.4582C404.586 44.7043 404.74 45.0435 404.752 45.4022C404.748 45.5805 404.708 45.7562 404.636 45.919C404.563 46.0819 404.459 46.2288 404.329 46.351C404.199 46.4733 404.045 46.5686 403.878 46.6313C403.711 46.6941 403.533 46.723 403.355 46.7165H400.949L397.39 55.0409C397.265 55.3105 397.068 55.5406 396.821 55.7062C396.588 55.8711 396.311 55.9616 396.025 55.9658C395.834 55.9773 395.643 55.9486 395.464 55.8815C395.284 55.8144 395.121 55.7104 394.985 55.5764C394.859 55.4487 394.76 55.2963 394.696 55.1287C394.632 54.9611 394.603 54.782 394.611 54.6028C394.587 54.4305 394.587 54.2557 394.611 54.0835L397.862 46.7165H396.496C396.135 46.7254 395.785 46.5928 395.521 46.3472C395.257 46.1015 395.099 45.7623 395.082 45.4022C395.099 45.0421 395.257 44.7028 395.521 44.4572C395.785 44.2115 396.135 44.0789 396.496 44.0878H399.113L402.51 36.3639C402.656 35.9647 402.921 35.62 403.27 35.3763C403.619 35.1325 404.034 35.0015 404.46 35.0008H405.142C405.57 35.0027 405.986 35.1341 406.338 35.3774C406.689 35.6208 406.958 35.9647 407.109 36.3639L414.893 54.0997C414.977 54.2668 415.027 54.4488 415.04 54.6352ZM360.271 46.6354H358.159L365.813 53.5318C365.949 53.662 366.057 53.8182 366.13 53.9911C366.204 54.164 366.242 54.35 366.242 54.5379C366.242 54.7258 366.204 54.9117 366.13 55.0846C366.057 55.2575 365.949 55.4137 365.813 55.5439C365.532 55.8098 365.16 55.9581 364.773 55.9581C364.386 55.9581 364.014 55.8098 363.733 55.5439L354.079 46.8464L353.949 46.7003C353.949 49.4264 353.949 51.4872 353.949 54.3594C353.968 54.6758 353.881 54.9895 353.701 55.2509C353.522 55.5124 353.26 55.7068 352.958 55.8035C352.821 55.8476 352.679 55.8749 352.536 55.8847C352.345 55.8914 352.155 55.8605 351.977 55.7936C351.798 55.7268 351.635 55.6254 351.495 55.4952C351.348 55.3524 351.231 55.1807 351.153 54.9909C351.074 54.801 351.036 54.5971 351.04 54.3918C351.04 49.1181 351.04 44.8342 351.04 39.5605V37.1103C351.04 36.8831 351.04 36.6397 351.04 36.3963C351.049 36.1834 351.109 35.9758 351.217 35.7919C351.325 35.6079 351.476 35.4533 351.658 35.3416C351.919 35.1265 352.246 35.0064 352.584 35.0008H360.271C361.05 34.9879 361.823 35.1285 362.546 35.4145C363.27 35.7005 363.93 36.1263 364.489 36.6674C365.047 37.2086 365.494 37.8545 365.802 38.5682C366.11 39.2818 366.274 40.0492 366.284 40.8262C366.272 41.6019 366.106 42.3675 365.797 43.0793C365.488 43.791 365.041 44.4351 364.483 44.9745C363.925 45.514 363.265 45.9383 362.543 46.2233C361.82 46.5083 361.048 46.6483 360.271 46.6354ZM360.271 43.7795C360.67 43.7859 361.067 43.7138 361.438 43.5673C361.809 43.4207 362.148 43.2025 362.435 42.9253C362.721 42.648 362.951 42.3171 363.109 41.9513C363.268 41.5856 363.353 41.1923 363.359 40.7938C363.353 40.3953 363.268 40.0019 363.109 39.6362C362.951 39.2705 362.721 38.9395 362.435 38.6623C362.148 38.385 361.809 38.1669 361.438 38.0203C361.067 37.8737 360.67 37.8016 360.271 37.808H353.949V43.7795H360.271Z" fill="black"/>
<path d="M392.758 36.9156L392.271 38.4409C391.166 41.9621 389.996 45.5969 388.858 49.183C388.354 50.8057 387.834 52.3148 387.33 53.8563L386.973 54.9597C386.88 55.2583 386.695 55.5197 386.443 55.7063C386.192 55.8929 385.888 55.9952 385.575 55.9983C385.307 55.992 385.045 55.9195 384.811 55.7873C384.427 55.5505 384.152 55.1712 384.048 54.7326L383.121 51.9253C382.666 50.4974 382.195 49.0694 381.724 47.6415C381.252 49.0694 380.797 50.4974 380.326 51.9253C380.017 52.8503 379.725 53.7914 379.416 54.7326C379.298 55.1695 379.019 55.5461 378.636 55.7873C378.402 55.9195 378.14 55.992 377.872 55.9983C377.56 55.9995 377.256 55.8986 377.006 55.7111C376.757 55.5235 376.576 55.2597 376.491 54.9597L376.117 53.8563C375.613 52.2337 375.093 50.7408 374.589 49.183L371.16 38.4409L370.672 36.9156C370.593 36.6982 370.569 36.465 370.6 36.236C370.631 36.0069 370.717 35.7888 370.852 35.6005C370.986 35.4122 371.164 35.2592 371.371 35.1547C371.577 35.0503 371.806 34.9975 372.038 35.0008C372.351 35.0039 372.655 35.1061 372.906 35.2928C373.157 35.4794 373.342 35.7408 373.435 36.0393C373.63 36.6073 373.809 37.1914 373.988 37.7431C374.085 38.0352 374.183 38.3273 374.264 38.6356C375.483 42.384 376.686 46.1486 377.904 49.9944L378.197 49.0694L378.506 48.177C379.091 46.4245 379.708 44.5908 380.326 42.8059C380.419 42.528 380.599 42.287 380.838 42.1178C381.078 41.9485 381.365 41.8599 381.659 41.8647H381.789C382.084 41.8614 382.372 41.9504 382.614 42.1192C382.856 42.288 383.039 42.5281 383.137 42.8059L384.941 48.177L385.25 49.0694C385.348 49.3777 385.445 49.6698 385.559 49.9944C386.762 46.2297 387.98 42.4651 389.183 38.7167C389.281 38.4084 389.362 38.1164 389.459 37.8243C389.638 37.2726 389.817 36.6884 390.012 36.1205C390.09 35.8068 390.269 35.5275 390.522 35.3252C390.774 35.123 391.086 35.009 391.41 35.0008C391.64 35.0001 391.867 35.0549 392.071 35.1604C392.275 35.266 392.451 35.4193 392.584 35.6072C392.716 35.7952 392.801 36.0123 392.832 36.24C392.862 36.4678 392.837 36.6995 392.758 36.9156ZM415.04 54.6352C415.049 54.9964 414.915 55.3466 414.666 55.6088C414.528 55.7413 414.365 55.8442 414.186 55.9111C414.007 55.9781 413.816 56.0078 413.626 55.9983C413.34 55.9972 413.061 55.9064 412.829 55.7386C412.578 55.5778 412.38 55.3463 412.261 55.0733L404.801 37.7107L402.038 44.0878H403.355C403.714 44.079 404.062 44.2121 404.324 44.4582C404.586 44.7043 404.74 45.0435 404.752 45.4022C404.748 45.5805 404.708 45.7562 404.636 45.919C404.563 46.0819 404.459 46.2288 404.329 46.351C404.199 46.4733 404.045 46.5686 403.878 46.6313C403.711 46.6941 403.533 46.723 403.355 46.7165H400.949L397.39 55.0409C397.265 55.3105 397.068 55.5406 396.821 55.7062C396.588 55.8711 396.311 55.9616 396.025 55.9658C395.834 55.9773 395.643 55.9486 395.464 55.8815C395.284 55.8144 395.121 55.7104 394.985 55.5764C394.859 55.4487 394.76 55.2963 394.696 55.1287C394.632 54.9611 394.603 54.782 394.611 54.6028C394.587 54.4305 394.587 54.2557 394.611 54.0835L397.862 46.7165H396.496C396.135 46.7254 395.785 46.5928 395.521 46.3472C395.257 46.1015 395.099 45.7623 395.082 45.4022C395.099 45.0421 395.257 44.7028 395.521 44.4572C395.785 44.2115 396.135 44.0789 396.496 44.0878H399.113L402.51 36.3639C402.656 35.9647 402.921 35.62 403.27 35.3763C403.619 35.1325 404.034 35.0015 404.46 35.0008H405.142C405.57 35.0027 405.986 35.1341 406.338 35.3774C406.689 35.6208 406.958 35.9647 407.109 36.3639L414.893 54.0997C414.977 54.2668 415.027 54.4488 415.04 54.6352ZM360.271 46.6354H358.159L365.813 53.5318C365.949 53.662 366.057 53.8182 366.13 53.9911C366.204 54.164 366.242 54.35 366.242 54.5379C366.242 54.7258 366.204 54.9117 366.13 55.0846C366.057 55.2575 365.949 55.4137 365.813 55.5439C365.532 55.8098 365.16 55.9581 364.773 55.9581C364.386 55.9581 364.014 55.8098 363.733 55.5439L354.079 46.8464L353.949 46.7003C353.949 49.4264 353.949 51.4872 353.949 54.3594C353.968 54.6758 353.881 54.9895 353.701 55.2509C353.522 55.5124 353.26 55.7068 352.958 55.8035C352.821 55.8476 352.679 55.8749 352.536 55.8847C352.345 55.8914 352.155 55.8605 351.977 55.7936C351.798 55.7268 351.635 55.6254 351.495 55.4952C351.348 55.3524 351.231 55.1807 351.153 54.9909C351.074 54.801 351.036 54.5971 351.04 54.3918C351.04 49.1181 351.04 44.8342 351.04 39.5605V37.1103C351.04 36.8831 351.04 36.6397 351.04 36.3963C351.049 36.1834 351.109 35.9758 351.217 35.7919C351.325 35.6079 351.476 35.4533 351.658 35.3416C351.919 35.1265 352.246 35.0064 352.584 35.0008H360.271C361.05 34.9879 361.823 35.1285 362.546 35.4145C363.27 35.7005 363.93 36.1263 364.489 36.6674C365.047 37.2086 365.494 37.8545 365.802 38.5682C366.11 39.2818 366.274 40.0492 366.284 40.8262C366.272 41.6019 366.106 42.3675 365.797 43.0793C365.488 43.791 365.041 44.4351 364.483 44.9745C363.925 45.514 363.265 45.9383 362.543 46.2233C361.82 46.5083 361.048 46.6483 360.271 46.6354ZM360.271 43.7795C360.67 43.7859 361.067 43.7138 361.438 43.5673C361.809 43.4207 362.148 43.2025 362.435 42.9253C362.721 42.648 362.951 42.3171 363.109 41.9513C363.268 41.5856 363.353 41.1923 363.359 40.7938C363.353 40.3953 363.268 40.0019 363.109 39.6362C362.951 39.2705 362.721 38.9395 362.435 38.6623C362.148 38.385 361.809 38.1669 361.438 38.0203C361.067 37.8737 360.67 37.8016 360.271 37.808H353.949V43.7795H360.271Z" fill="black" fill-opacity="0.2"/>
<path d="M318.689 95V86.4688H321.479C322.404 86.4688 323.1 86.6602 323.564 87.043C324.033 87.4258 324.268 87.9922 324.268 88.7422C324.268 89.1406 324.154 89.4941 323.928 89.8027C323.701 90.1074 323.393 90.3438 323.002 90.5117C323.463 90.6406 323.826 90.8867 324.092 91.25C324.361 91.6094 324.496 92.0391 324.496 92.5391C324.496 93.3047 324.248 93.9062 323.752 94.3438C323.256 94.7812 322.555 95 321.648 95H318.689ZM319.814 91.0098V94.0801H321.672C322.195 94.0801 322.607 93.9453 322.908 93.6758C323.213 93.4023 323.365 93.0273 323.365 92.5508C323.365 91.5234 322.807 91.0098 321.689 91.0098H319.814ZM319.814 90.1074H321.514C322.006 90.1074 322.398 89.9844 322.691 89.7383C322.988 89.4922 323.137 89.1582 323.137 88.7363C323.137 88.2676 323 87.9277 322.727 87.7168C322.453 87.502 322.037 87.3945 321.479 87.3945H319.814V90.1074ZM329.91 94.373C329.488 94.8691 328.869 95.1172 328.053 95.1172C327.377 95.1172 326.861 94.9219 326.506 94.5312C326.154 94.1367 325.977 93.5547 325.973 92.7852V88.6602H327.057V92.7559C327.057 93.7168 327.447 94.1973 328.229 94.1973C329.057 94.1973 329.607 93.8887 329.881 93.2715V88.6602H330.965V95H329.934L329.91 94.373ZM333.795 95H332.711V88.6602H333.795V95ZM332.623 86.9785C332.623 86.8027 332.676 86.6543 332.781 86.5332C332.891 86.4121 333.051 86.3516 333.262 86.3516C333.473 86.3516 333.633 86.4121 333.742 86.5332C333.852 86.6543 333.906 86.8027 333.906 86.9785C333.906 87.1543 333.852 87.3008 333.742 87.418C333.633 87.5352 333.473 87.5938 333.262 87.5938C333.051 87.5938 332.891 87.5352 332.781 87.418C332.676 87.3008 332.623 87.1543 332.623 86.9785ZM336.713 95H335.629V86H336.713V95ZM339.924 87.125V88.6602H341.107V89.498H339.924V93.4297C339.924 93.6836 339.977 93.875 340.082 94.0039C340.188 94.1289 340.367 94.1914 340.621 94.1914C340.746 94.1914 340.918 94.168 341.137 94.1211V95C340.852 95.0781 340.574 95.1172 340.305 95.1172C339.82 95.1172 339.455 94.9707 339.209 94.6777C338.963 94.3848 338.84 93.9688 338.84 93.4297V89.498H337.686V88.6602H338.84V87.125H339.924ZM345.068 91.7715C345.068 91.1504 345.189 90.5918 345.432 90.0957C345.678 89.5996 346.018 89.2168 346.451 88.9473C346.889 88.6777 347.387 88.543 347.945 88.543C348.809 88.543 349.506 88.8418 350.037 89.4395C350.572 90.0371 350.84 90.832 350.84 91.8242V91.9004C350.84 92.5176 350.721 93.0723 350.482 93.5645C350.248 94.0527 349.91 94.4336 349.469 94.707C349.031 94.9805 348.527 95.1172 347.957 95.1172C347.098 95.1172 346.4 94.8184 345.865 94.2207C345.334 93.623 345.068 92.832 345.068 91.8477V91.7715ZM346.158 91.9004C346.158 92.6035 346.32 93.168 346.645 93.5938C346.973 94.0195 347.41 94.2324 347.957 94.2324C348.508 94.2324 348.945 94.0176 349.27 93.5879C349.594 93.1543 349.756 92.5488 349.756 91.7715C349.756 91.0762 349.59 90.5137 349.258 90.084C348.93 89.6504 348.492 89.4336 347.945 89.4336C347.41 89.4336 346.979 89.6465 346.65 90.0723C346.322 90.498 346.158 91.1074 346.158 91.9004ZM353.225 88.6602L353.26 89.457C353.744 88.8477 354.377 88.543 355.158 88.543C356.498 88.543 357.174 89.2988 357.186 90.8105V95H356.102V90.8047C356.098 90.3477 355.992 90.0098 355.785 89.791C355.582 89.5723 355.264 89.4629 354.83 89.4629C354.479 89.4629 354.17 89.5566 353.904 89.7441C353.639 89.9316 353.432 90.1777 353.283 90.4824V95H352.199V88.6602H353.225Z" fill="black"/>
<mask id="mask0" style="mask-type:alpha" maskUnits="userSpaceOnUse" x="412" y="85" width="11" height="9">
<path fill-rule="evenodd" clip-rule="evenodd" d="M412 85.1882H422.649V93.7961H412V85.1882Z" fill="white"/>
</mask>
<g mask="url(#mask0)">
<path fill-rule="evenodd" clip-rule="evenodd" d="M413.247 93.4765C412.93 92.7967 412.754 92.0383 412.754 91.2386C412.754 88.3147 415.116 85.9445 418.03 85.9445C419.652 85.9445 421.104 86.6795 422.071 87.8356L422.649 87.3495C421.543 86.0281 419.884 85.1882 418.03 85.1882C414.7 85.1882 412 87.8971 412 91.2386C412 92.1526 412.202 93.0193 412.564 93.7961L413.247 93.4765Z" fill="black"/>
</g>
<path fill-rule="evenodd" clip-rule="evenodd" d="M418.03 94.8309C416.052 94.8309 414.45 93.2226 414.45 91.2386C414.45 89.2546 416.052 87.6462 418.03 87.6462C419.131 87.6462 420.115 88.145 420.772 88.9295L421.35 88.4433C420.555 87.4936 419.362 86.8899 418.03 86.8899C415.636 86.8899 413.696 88.8369 413.696 91.2386C413.696 93.6403 415.636 95.5872 418.03 95.5872V94.8309Z" fill="black"/>
<path fill-rule="evenodd" clip-rule="evenodd" d="M419.329 92.3323C419.018 92.7039 418.551 92.9402 418.03 92.9402C417.093 92.9402 416.334 92.1783 416.334 91.2385C416.334 90.2987 417.093 89.5369 418.03 89.5369C418.551 89.5369 419.018 89.7732 419.329 90.1448L419.978 89.5979C419.512 89.0405 418.812 88.686 418.03 88.686C416.625 88.686 415.486 89.8288 415.486 91.2385C415.486 92.6482 416.625 93.791 418.03 93.791C418.747 93.791 419.394 93.4932 419.856 93.0144L419.329 92.3323Z" fill="black"/>
<path fill-rule="evenodd" clip-rule="evenodd" d="M423.914 90.4103H424.689V90.9355H424.703C424.775 90.7718 424.901 90.6275 425.08 90.5024C425.259 90.3774 425.471 90.3148 425.715 90.3148C425.928 90.3148 426.111 90.3523 426.263 90.4274C426.414 90.5024 426.539 90.6013 426.637 90.7241C426.734 90.8469 426.805 90.9879 426.851 91.147C426.896 91.3062 426.919 91.4699 426.919 91.6381V93.6844H426.103V91.87C426.103 91.7745 426.096 91.6745 426.083 91.5699C426.069 91.4654 426.039 91.371 425.994 91.2868C425.949 91.2027 425.886 91.1333 425.807 91.0788C425.728 91.0242 425.623 90.9969 425.491 90.9969C425.36 90.9969 425.246 91.0232 425.151 91.0754C425.056 91.1277 424.978 91.1947 424.917 91.2766C424.856 91.3584 424.809 91.4529 424.777 91.5597C424.746 91.6666 424.73 91.7745 424.73 91.8837V93.6844H423.914V90.4103Z" fill="black"/>
<path fill-rule="evenodd" clip-rule="evenodd" d="M427.265 91.0651V90.4103H427.836V89.4622H428.639V90.4103H429.454V91.0651H428.639V92.5862C428.639 92.7318 428.665 92.8522 428.717 92.9477C428.769 93.0432 428.885 93.091 429.067 93.091C429.121 93.091 429.18 93.0853 429.244 93.0739C429.307 93.0626 429.364 93.0456 429.414 93.0227L429.441 93.6639C429.368 93.6912 429.282 93.7127 429.182 93.7287C429.083 93.7446 428.987 93.7526 428.897 93.7526C428.679 93.7526 428.503 93.7219 428.367 93.6605C428.231 93.5991 428.123 93.515 428.044 93.4081C427.964 93.3014 427.91 93.1785 427.881 93.0398C427.851 92.9011 427.836 92.7522 427.836 92.593V91.0651H427.265Z" fill="black"/>
<path fill-rule="evenodd" clip-rule="evenodd" d="M429.944 90.4103H430.726V90.956H430.739C430.83 90.765 430.957 90.6105 431.12 90.4922C431.283 90.374 431.473 90.3148 431.691 90.3148C431.723 90.3148 431.757 90.316 431.793 90.3182C431.829 90.3206 431.861 90.3262 431.888 90.3353V91.0856C431.834 91.072 431.787 91.0629 431.749 91.0583C431.71 91.0538 431.673 91.0515 431.636 91.0515C431.451 91.0515 431.301 91.0856 431.188 91.1538C431.074 91.222 430.986 91.3039 430.923 91.3994C430.859 91.4949 430.816 91.5927 430.794 91.6927C430.771 91.7927 430.76 91.8723 430.76 91.9314V93.6844H429.944V90.4103Z" fill="black"/>
<path fill-rule="evenodd" clip-rule="evenodd" d="M432.262 93.6844H433.077V90.4103H432.262V93.6844ZM432.146 89.2985C432.146 89.1666 432.195 89.0518 432.292 88.954C432.39 88.8563 432.513 88.8074 432.663 88.8074C432.812 88.8074 432.938 88.854 433.04 88.9472C433.142 89.0404 433.193 89.1576 433.193 89.2985C433.193 89.4395 433.142 89.5566 433.04 89.6497C432.938 89.743 432.812 89.7896 432.663 89.7896C432.513 89.7896 432.39 89.7408 432.292 89.6429C432.195 89.5452 432.146 89.4304 432.146 89.2985Z" fill="black"/>
<path fill-rule="evenodd" clip-rule="evenodd" d="M434.131 91.0651H433.513V90.4103H434.131V90.1654C434.131 89.97 434.153 89.7824 434.196 89.6027C434.239 89.4231 434.311 89.265 434.413 89.1286C434.515 88.9922 434.65 88.8842 434.818 88.8046C434.985 88.7251 435.196 88.6852 435.45 88.6852C435.541 88.6852 435.617 88.6887 435.678 88.6955C435.739 88.7023 435.801 88.7149 435.865 88.733L435.81 89.4287C435.765 89.4151 435.716 89.4038 435.664 89.3946C435.612 89.3856 435.556 89.381 435.498 89.381C435.38 89.381 435.285 89.4038 435.212 89.4492C435.14 89.4947 435.084 89.5539 435.046 89.6266C435.007 89.6993 434.981 89.779 434.967 89.8653C434.954 89.9517 434.947 90.0358 434.947 90.1176V90.4103H435.702V91.0651H434.947V93.6843H434.131V91.0651Z" fill="black"/>
<path fill-rule="evenodd" clip-rule="evenodd" d="M439.114 93.6844H438.339V93.1592H438.325C438.253 93.3229 438.127 93.4673 437.948 93.5923C437.769 93.7173 437.557 93.7799 437.313 93.7799C437.1 93.7799 436.917 93.7424 436.765 93.6673C436.613 93.5923 436.489 93.4934 436.391 93.3706C436.294 93.2478 436.223 93.1069 436.177 92.9477C436.132 92.7886 436.109 92.6249 436.109 92.4566V90.4103H436.925V92.2247C436.925 92.3202 436.932 92.4202 436.946 92.5248C436.959 92.6295 436.989 92.7238 437.034 92.8079C437.079 92.8921 437.141 92.9613 437.221 93.0159C437.3 93.0705 437.405 93.0978 437.537 93.0978C437.664 93.0978 437.776 93.0717 437.873 93.0193C437.971 92.9671 438.05 92.9 438.111 92.8181C438.173 92.7363 438.219 92.6419 438.251 92.535C438.282 92.4282 438.298 92.3202 438.298 92.211V90.4103H439.114V93.6844Z" fill="black"/>
<path fill-rule="evenodd" clip-rule="evenodd" d="M421.192 91.1504C421.362 91.0027 421.569 90.9287 421.814 90.9287C421.945 90.9287 422.06 90.9504 422.157 90.9935C422.255 91.0368 422.335 91.0948 422.399 91.1674C422.462 91.2403 422.509 91.3243 422.538 91.4198C422.567 91.5153 422.582 91.6154 422.582 91.7199H420.91C420.928 91.4881 421.022 91.2982 421.192 91.1504ZM422.705 92.6886C422.614 92.8205 422.498 92.9239 422.358 92.9989C422.217 93.0739 422.045 93.1114 421.841 93.1114C421.723 93.1114 421.61 93.091 421.501 93.0501C421.393 93.0091 421.295 92.9535 421.209 92.8829C421.123 92.8125 421.054 92.7284 421.002 92.6306C420.95 92.5328 420.919 92.4249 420.91 92.3066H423.391C423.396 92.2702 423.398 92.2339 423.398 92.1974V92.0883C423.398 91.7928 423.358 91.5347 423.279 91.3141C423.2 91.0936 423.09 90.9094 422.949 90.7616C422.809 90.6139 422.642 90.5024 422.45 90.4274C422.257 90.3523 422.047 90.3148 421.821 90.3148C421.576 90.3148 421.348 90.3569 421.138 90.441C420.927 90.5252 420.744 90.6434 420.59 90.7957C420.436 90.9481 420.315 91.1323 420.227 91.3482C420.138 91.5642 420.094 91.8042 420.094 92.0678C420.094 92.3362 420.138 92.576 420.227 92.7874C420.315 92.9989 420.438 93.1774 420.594 93.3229C420.75 93.4685 420.935 93.581 421.148 93.6605C421.361 93.74 421.594 93.7799 421.848 93.7799C422.396 93.7799 422.827 93.6048 423.143 93.2548L422.705 92.6886Z" fill="black"/>
<path fill-rule="evenodd" clip-rule="evenodd" d="M444.703 91.1504C444.873 91.0027 445.081 90.9287 445.325 90.9287C445.457 90.9287 445.571 90.9504 445.669 90.9935C445.766 91.0368 445.846 91.0948 445.91 91.1674C445.973 91.2403 446.02 91.3243 446.049 91.4198C446.079 91.5153 446.094 91.6154 446.094 91.7199H444.421C444.439 91.4881 444.533 91.2982 444.703 91.1504ZM446.216 92.6886C446.125 92.8205 446.01 92.9239 445.869 92.9989C445.729 93.0739 445.556 93.1114 445.352 93.1114C445.235 93.1114 445.121 93.091 445.013 93.0501C444.904 93.0091 444.806 92.9535 444.72 92.8829C444.634 92.8125 444.565 92.7284 444.513 92.6306C444.461 92.5328 444.43 92.4249 444.421 92.3066H446.902C446.907 92.2702 446.909 92.2339 446.909 92.1974V92.0883C446.909 91.7928 446.869 91.5347 446.79 91.3141C446.711 91.0936 446.601 90.9094 446.461 90.7616C446.32 90.6139 446.153 90.5024 445.961 90.4274C445.768 90.3523 445.559 90.3148 445.332 90.3148C445.087 90.3148 444.86 90.3569 444.649 90.441C444.438 90.5252 444.256 90.6434 444.102 90.7957C443.948 90.9481 443.826 91.1323 443.738 91.3482C443.65 91.5642 443.605 91.8042 443.605 92.0678C443.605 92.3362 443.65 92.576 443.738 92.7874C443.826 92.9989 443.949 93.1774 444.105 93.3229C444.261 93.4685 444.446 93.581 444.659 93.6605C444.872 93.74 445.105 93.7799 445.359 93.7799C445.907 93.7799 446.339 93.6048 446.654 93.2548L446.216 92.6886Z" fill="black"/>
<path fill-rule="evenodd" clip-rule="evenodd" d="M442.261 92.4144C442.216 92.5391 442.151 92.649 442.067 92.7442C441.983 92.8393 441.881 92.9152 441.761 92.9719C441.641 93.0286 441.506 93.0568 441.357 93.0568C441.212 93.0568 441.082 93.0274 440.966 92.9685C440.85 92.9096 440.753 92.8313 440.674 92.7339C440.594 92.6365 440.533 92.5265 440.49 92.4042C440.447 92.2818 440.426 92.155 440.426 92.0235C440.426 91.8785 440.447 91.7425 440.49 91.6156C440.533 91.4886 440.594 91.3788 440.674 91.2858C440.753 91.1929 440.85 91.1193 440.966 91.0649C441.082 91.0105 441.214 90.9833 441.364 90.9833C441.513 90.9833 441.647 91.0105 441.765 91.0649C441.883 91.1193 441.983 91.1941 442.067 91.2892C442.151 91.3844 442.216 91.4955 442.261 91.6223C442.306 91.7492 442.329 91.883 442.329 92.0235C442.329 92.1595 442.306 92.2898 442.261 92.4144ZM442.329 90.4103V90.9014H442.315C442.197 90.7013 442.039 90.5535 441.839 90.458C441.64 90.3625 441.425 90.3148 441.194 90.3148C440.949 90.3148 440.728 90.3603 440.531 90.4512C440.334 90.5422 440.166 90.665 440.028 90.8195C439.89 90.9742 439.783 91.1561 439.708 91.3652C439.634 91.5744 439.596 91.7973 439.596 92.0337C439.596 92.2656 439.635 92.485 439.712 92.6919C439.789 92.8989 439.896 93.0796 440.035 93.2341C440.173 93.3888 440.342 93.5116 440.541 93.6025C440.74 93.6934 440.963 93.7389 441.207 93.7389C441.434 93.7389 441.639 93.6964 441.822 93.6114C442.006 93.5265 442.157 93.4036 442.275 93.2428H442.288V93.4824C442.288 93.6467 442.271 93.7973 442.237 93.9343C442.203 94.0711 442.146 94.1899 442.067 94.2902C441.988 94.3906 441.881 94.4693 441.748 94.5264C441.614 94.5834 441.45 94.612 441.255 94.612C441.051 94.612 440.849 94.5721 440.65 94.4926C440.456 94.4151 440.281 94.3041 440.125 94.1598L439.644 94.7825C439.748 94.8689 439.866 94.9462 439.997 95.0145C440.129 95.0826 440.266 95.1395 440.409 95.185C440.551 95.2304 440.696 95.2645 440.844 95.2873C440.991 95.31 441.13 95.3214 441.262 95.3214C441.579 95.3214 441.853 95.2759 442.084 95.185C442.315 95.0939 442.507 94.9655 442.659 94.7996C442.81 94.6335 442.923 94.4312 442.995 94.1925C443.068 93.9538 443.104 93.6866 443.104 93.391V90.4103H442.329Z" fill="black"/>
<g clip-path="url(#clip0)">
<path d="M381.737 94.8851L378.637 87.2452C378.613 87.1756 378.6 87.1023 378.599 87.0284C378.593 86.8723 378.647 86.72 378.75 86.604C378.803 86.5486 378.867 86.5054 378.938 86.4773C379.009 86.4493 379.086 86.437 379.162 86.4414C379.277 86.4431 379.389 86.4809 379.482 86.5498C379.579 86.6235 379.654 86.7223 379.701 86.8358L382.65 94.3102L385.598 86.8358C385.646 86.7219 385.723 86.6231 385.821 86.5498C385.914 86.4809 386.026 86.4431 386.141 86.4414C386.216 86.4375 386.292 86.4499 386.362 86.478C386.433 86.506 386.497 86.5489 386.55 86.604C386.654 86.7196 386.709 86.8719 386.704 87.0284C386.703 87.1023 386.69 87.1756 386.665 87.2452L383.565 94.8851C383.512 95.053 383.409 95.1997 383.27 95.305C383.131 95.4102 382.963 95.4687 382.789 95.4721H382.513C382.34 95.4687 382.172 95.4102 382.033 95.305C381.893 95.1997 381.79 95.053 381.737 94.8851Z" fill="black"/>
<path d="M388.023 95.2373C387.97 95.1836 387.929 95.1197 387.901 95.0493C387.874 94.9789 387.861 94.9036 387.863 94.8279V87.0916C387.861 87.0142 387.874 86.9371 387.901 86.8648C387.929 86.7924 387.97 86.7263 388.023 86.6702C388.074 86.6147 388.137 86.571 388.206 86.5419C388.276 86.5129 388.351 86.4991 388.426 86.5016H393.464C393.535 86.4999 393.605 86.5135 393.671 86.5415C393.736 86.5695 393.795 86.6113 393.843 86.6642C393.895 86.7137 393.935 86.7735 393.963 86.8398C393.99 86.9061 394.004 86.9775 394.003 87.0495C394.005 87.1207 393.992 87.1916 393.964 87.2571C393.937 87.3226 393.895 87.3812 393.843 87.4288C393.793 87.4793 393.733 87.5192 393.667 87.5461C393.602 87.5729 393.532 87.5863 393.461 87.5853H389.007V90.4029H393.013C393.084 90.4011 393.155 90.4147 393.22 90.4428C393.286 90.4708 393.344 90.5126 393.393 90.5655C393.444 90.6154 393.484 90.6753 393.511 90.7415C393.539 90.8077 393.553 90.8789 393.553 90.9508C393.555 91.022 393.541 91.0928 393.514 91.1583C393.486 91.2238 393.445 91.2824 393.393 91.3301C393.343 91.3802 393.283 91.4199 393.218 91.4468C393.153 91.4736 393.084 91.4872 393.013 91.4866H389.007V94.3162H393.461C393.532 94.314 393.603 94.3274 393.669 94.3554C393.735 94.3835 393.795 94.4255 393.843 94.4788C393.895 94.5286 393.936 94.5889 393.963 94.6558C393.991 94.7226 394.005 94.7946 394.003 94.8671C394.005 94.9383 393.992 95.0091 393.964 95.0746C393.937 95.1401 393.895 95.1987 393.843 95.2464C393.793 95.2964 393.733 95.3357 393.667 95.362C393.601 95.3884 393.531 95.4013 393.461 95.3999H388.426C388.351 95.4054 388.276 95.3937 388.206 95.3655C388.136 95.3374 388.074 95.2936 388.023 95.2373Z" fill="black"/>
<path d="M379.34 94.6684L376.237 87.0284C376.184 86.8611 376.081 86.7146 375.942 86.6094C375.804 86.5042 375.636 86.4455 375.463 86.4414H375.191C375.017 86.4449 374.849 86.5033 374.71 86.6086C374.571 86.7138 374.467 86.8606 374.414 87.0284L373.066 90.3577H372.043C371.896 90.3593 371.756 90.4195 371.652 90.5254C371.549 90.6313 371.49 90.7743 371.489 90.9236V90.9297C371.49 91.079 371.549 91.222 371.652 91.3279C371.756 91.4338 371.896 91.494 372.043 91.4956H372.592L371.306 94.6684C371.281 94.738 371.268 94.8112 371.267 94.8851C371.261 95.0412 371.315 95.1935 371.418 95.3096C371.471 95.365 371.536 95.4082 371.607 95.4362C371.678 95.4643 371.754 95.4765 371.83 95.4721C371.945 95.4705 372.057 95.4326 372.15 95.3638C372.247 95.29 372.323 95.1913 372.369 95.0778L373.789 91.4956H374.764C374.911 91.494 375.052 91.4338 375.155 91.3279C375.259 91.222 375.317 91.079 375.318 90.9297V90.9146C375.317 90.7653 375.259 90.6223 375.155 90.5164C375.052 90.4105 374.911 90.3503 374.764 90.3487H374.236L375.327 87.6034L378.276 95.0778C378.322 95.1913 378.398 95.29 378.495 95.3638C378.588 95.4326 378.7 95.4705 378.815 95.4721C378.892 95.4769 378.968 95.4649 379.04 95.4369C379.112 95.4088 379.176 95.3654 379.23 95.3096C379.332 95.193 379.385 95.0408 379.378 94.8851C379.382 94.8111 379.37 94.7372 379.343 94.6684H379.34Z" fill="black"/>
<path d="M370.075 94.6684L366.975 87.0284C366.921 86.8601 366.818 86.713 366.678 86.6077C366.538 86.5024 366.369 86.4443 366.195 86.4414H365.923C365.749 86.4449 365.581 86.5033 365.442 86.6086C365.303 86.7138 365.199 86.8606 365.146 87.0284L363.798 90.3577H362.775C362.628 90.3593 362.488 90.4195 362.384 90.5254C362.281 90.6313 362.222 90.7743 362.221 90.9236V90.9297C362.222 91.079 362.281 91.222 362.384 91.3279C362.488 91.4338 362.628 91.494 362.775 91.4956H363.324L362.038 94.6684C362.013 94.738 362 94.8112 361.999 94.8851C361.993 95.0412 362.047 95.1935 362.15 95.3096C362.203 95.365 362.268 95.4082 362.339 95.4362C362.41 95.4643 362.486 95.4765 362.562 95.4721C362.677 95.4705 362.789 95.4326 362.882 95.3638C362.979 95.29 363.055 95.1913 363.101 95.0778L364.521 91.4956H365.502C365.649 91.4948 365.791 91.4349 365.895 91.329C365.999 91.223 366.058 91.0795 366.059 90.9297V90.9146C366.058 90.7648 365.999 90.6213 365.895 90.5153C365.791 90.4094 365.649 90.3495 365.502 90.3487H364.977L366.059 87.6034L369.008 95.0778C369.054 95.1913 369.13 95.29 369.227 95.3638C369.32 95.4326 369.432 95.4705 369.547 95.4721C369.624 95.4769 369.7 95.4649 369.772 95.4369C369.844 95.4088 369.908 95.3654 369.962 95.3096C370.064 95.193 370.117 95.0408 370.11 94.8851C370.114 94.8111 370.102 94.7372 370.075 94.6684Z" fill="black"/>
</g>
<path d="M400.127 92.9663C400.127 92.5562 400.24 92.1792 400.467 91.8354C400.697 91.4917 401.135 91.0913 401.779 90.6343C401.4 90.1733 401.146 89.8022 401.018 89.521C400.889 89.2397 400.824 88.9604 400.824 88.6831C400.824 88.0347 401.016 87.5269 401.398 87.1597C401.781 86.7925 402.301 86.6089 402.957 86.6089C403.543 86.6089 404.027 86.7808 404.41 87.1245C404.793 87.4644 404.984 87.894 404.984 88.4136C404.984 88.7573 404.896 89.0757 404.721 89.3687C404.549 89.6577 404.246 89.9624 403.812 90.2827L403.186 90.7456L405.084 93.0132C405.35 92.5054 405.482 91.9409 405.482 91.3198H406.461C406.461 92.3159 406.221 93.1421 405.74 93.7983L406.959 95.2573H405.658L405.09 94.5835C404.801 94.8413 404.461 95.0386 404.07 95.1753C403.684 95.3081 403.289 95.3745 402.887 95.3745C402.055 95.3745 401.387 95.1538 400.883 94.7124C400.379 94.271 400.127 93.689 400.127 92.9663ZM402.887 94.4897C403.461 94.4897 403.986 94.271 404.463 93.8335L402.383 91.3433L402.189 91.4839C401.537 91.9644 401.211 92.4585 401.211 92.9663C401.211 93.4272 401.359 93.7964 401.656 94.0737C401.957 94.3511 402.367 94.4897 402.887 94.4897ZM401.908 88.6479C401.908 89.0229 402.139 89.4917 402.6 90.0542L403.291 89.5679C403.557 89.3804 403.738 89.2026 403.836 89.0347C403.934 88.8628 403.982 88.6558 403.982 88.4136C403.982 88.1519 403.885 87.9351 403.689 87.7632C403.494 87.5874 403.248 87.4995 402.951 87.4995C402.631 87.4995 402.377 87.6089 402.189 87.8276C402.002 88.0425 401.908 88.3159 401.908 88.6479Z" fill="black"/>
<defs>
<clipPath id="clip0">
<rect width="32" height="9.03071" fill="white" transform="translate(362 86.4414)"/>
</clipPath>
</defs>
</svg>