<svg width="140" height="140" viewBox="0 0 140 140" fill="none" xmlns="http://www.w3.org/2000/svg">
<mask id="mask0" mask-type="alpha" maskUnits="userSpaceOnUse" x="16" y="16" width="94" height="78">
<path fill-rule="evenodd" clip-rule="evenodd" d="M16.6667 16.6667H109.662V93.8399H16.6667V16.6667Z" fill="white"/>
</mask>
<g mask="url(#mask0)">
<path fill-rule="evenodd" clip-rule="evenodd" d="M27.5559 90.9738C24.7924 84.8795 23.2488 78.0806 23.2488 70.9102C23.2488 44.697 43.8774 23.4472 69.3242 23.4472C83.4933 23.4472 96.1682 30.036 104.62 40.4012L109.662 36.0428C100.003 24.1968 85.5175 16.6667 69.3242 16.6667C40.2423 16.6667 16.6667 40.9523 16.6667 70.9102C16.6667 79.1049 18.4307 86.8752 21.589 93.84L27.5559 90.9738Z" fill="black"/>
</g>
<path fill-rule="evenodd" clip-rule="evenodd" d="M69.3242 103.117C52.0568 103.117 38.0589 88.6977 38.0589 70.9102C38.0589 53.1227 52.0568 38.703 69.3242 38.703C78.939 38.703 87.5385 43.1752 93.2738 50.2087L98.3174 45.8492C91.3747 37.335 80.9631 31.9226 69.3242 31.9226C48.4215 31.9226 31.4766 49.3779 31.4766 70.9102C31.4766 92.4423 48.4215 109.898 69.3242 109.898V103.117Z" fill="black"/>
<path fill-rule="evenodd" clip-rule="evenodd" d="M80.6687 80.7159C77.952 84.0476 73.8785 86.1659 69.3241 86.1659C61.1448 86.1659 54.5142 79.3357 54.5142 70.9099C54.5142 62.4843 61.1448 55.6539 69.3241 55.6539C73.8785 55.6539 77.952 57.7724 80.6687 61.104L86.3409 56.2011C82.2659 51.2036 76.1557 48.0259 69.3241 48.0259C57.0551 48.0259 47.1092 58.2715 47.1092 70.9099C47.1092 83.5484 57.0551 93.794 69.3241 93.794C75.5849 93.794 81.2386 91.1239 85.2764 86.8313L80.6687 80.7159Z" fill="black"/>
</svg>
