<svg width="689" height="118" viewBox="0 0 689 118" fill="none" xmlns="http://www.w3.org/2000/svg">
<path d="M27.2424 30.768C27.0184 30.4587 26.7144 30.208 26.3304 30.016C25.9464 29.8133 25.5144 29.712 25.0344 29.712C24.7784 29.712 24.517 29.7493 24.2504 29.824C23.9944 29.888 23.7597 30 23.5464 30.16C23.333 30.3093 23.157 30.5013 23.0184 30.736C22.8904 30.96 22.8264 31.232 22.8264 31.552C22.8264 31.8613 22.885 32.1227 23.0024 32.336C23.1304 32.5387 23.2957 32.7147 23.4984 32.864C23.7117 33.0027 23.957 33.1253 24.2344 33.232C24.5224 33.328 24.8264 33.4293 25.1464 33.536C25.5304 33.6533 25.9197 33.7867 26.3144 33.936C26.709 34.0853 27.0664 34.2827 27.3864 34.528C27.7064 34.7733 27.9677 35.0827 28.1704 35.456C28.373 35.8187 28.4744 36.2827 28.4744 36.848C28.4744 37.4347 28.3624 37.9467 28.1384 38.384C27.925 38.8107 27.637 39.168 27.2744 39.456C26.9117 39.7333 26.4904 39.9413 26.0104 40.08C25.541 40.2187 25.0557 40.288 24.5544 40.288C23.8397 40.288 23.1464 40.1493 22.4744 39.872C21.813 39.5947 21.2637 39.184 20.8264 38.64L22.0584 37.6C22.325 37.9947 22.6824 38.3147 23.1304 38.56C23.5784 38.8053 24.0637 38.928 24.5864 38.928C24.853 38.928 25.1197 38.8907 25.3864 38.816C25.653 38.7413 25.893 38.624 26.1064 38.464C26.3304 38.304 26.5117 38.1067 26.6504 37.872C26.789 37.6267 26.8584 37.3333 26.8584 36.992C26.8584 36.6507 26.7837 36.368 26.6344 36.144C26.4957 35.9093 26.3037 35.712 26.0584 35.552C25.813 35.392 25.525 35.2587 25.1944 35.152C24.8744 35.0347 24.533 34.9173 24.1704 34.8C23.8077 34.6933 23.4504 34.5653 23.0984 34.416C22.7464 34.256 22.4317 34.0587 22.1544 33.824C21.877 33.5787 21.653 33.28 21.4824 32.928C21.3117 32.576 21.2264 32.1387 21.2264 31.616C21.2264 31.0507 21.3384 30.5653 21.5624 30.16C21.797 29.7547 22.0957 29.4187 22.4584 29.152C22.8317 28.8853 23.2477 28.6933 23.7064 28.576C24.1757 28.448 24.645 28.384 25.1144 28.384C25.7757 28.384 26.3944 28.5013 26.9704 28.736C27.5464 28.9707 28.0104 29.2853 28.3624 29.68L27.2424 30.768ZM35.9838 40C35.9624 39.808 35.9464 39.5947 35.9358 39.36C35.9251 39.1147 35.9198 38.912 35.9198 38.752H35.8878C35.6958 39.1573 35.3704 39.504 34.9118 39.792C34.4638 40.0693 33.9624 40.208 33.4078 40.208C32.9171 40.208 32.4904 40.128 32.1278 39.968C31.7758 39.808 31.4824 39.5893 31.2478 39.312C31.0238 39.024 30.8531 38.6933 30.7358 38.32C30.6291 37.9467 30.5758 37.5467 30.5758 37.12V32.416H32.0798V36.608C32.0798 36.9173 32.1011 37.216 32.1438 37.504C32.1971 37.7813 32.2878 38.0267 32.4158 38.24C32.5438 38.4533 32.7198 38.624 32.9438 38.752C33.1678 38.88 33.4558 38.944 33.8078 38.944C34.4158 38.944 34.9064 38.72 35.2798 38.272C35.6531 37.8133 35.8398 37.2053 35.8398 36.448V32.416H37.3438V38.368C37.3438 38.5707 37.3491 38.832 37.3598 39.152C37.3704 39.472 37.3864 39.7547 37.4078 40H35.9838ZM41.4403 38.8V40H39.9843V27.904H41.4883V33.552H41.5363C41.7923 33.1787 42.1496 32.864 42.6083 32.608C43.0669 32.3413 43.6109 32.208 44.2403 32.208C44.8056 32.208 45.3176 32.3093 45.7763 32.512C46.2456 32.7147 46.6456 32.9973 46.9763 33.36C47.3176 33.7227 47.5789 34.1493 47.7603 34.64C47.9416 35.12 48.0323 35.6373 48.0323 36.192C48.0323 36.7467 47.9416 37.2693 47.7603 37.76C47.5789 38.2507 47.3229 38.6773 46.9923 39.04C46.6616 39.4027 46.2616 39.6907 45.7923 39.904C45.3229 40.1067 44.7949 40.208 44.2083 40.208C43.6643 40.208 43.1469 40.0907 42.6562 39.856C42.1656 39.6107 41.7709 39.2587 41.4723 38.8H41.4403ZM46.4803 36.192C46.4803 35.84 46.4269 35.4987 46.3203 35.168C46.2136 34.8373 46.0536 34.544 45.8403 34.288C45.6269 34.032 45.3603 33.8293 45.0403 33.68C44.7309 33.5307 44.3683 33.456 43.9523 33.456C43.5683 33.456 43.2163 33.5307 42.8963 33.68C42.5869 33.8293 42.3203 34.032 42.0963 34.288C41.8723 34.544 41.6963 34.8373 41.5683 35.168C41.4509 35.4987 41.3923 35.8453 41.3923 36.208C41.3923 36.5707 41.4509 36.9173 41.5683 37.248C41.6963 37.5787 41.8723 37.872 42.0963 38.128C42.3203 38.3733 42.5869 38.5707 42.8963 38.72C43.2163 38.8693 43.5683 38.944 43.9523 38.944C44.3683 38.944 44.7309 38.8693 45.0403 38.72C45.3603 38.56 45.6269 38.352 45.8403 38.096C46.0536 37.84 46.2136 37.5467 46.3203 37.216C46.4269 36.8853 46.4803 36.544 46.4803 36.192ZM51.5961 33.664C51.7881 33.2587 52.0921 32.9173 52.5081 32.64C52.9348 32.352 53.4361 32.208 54.0121 32.208C54.5241 32.208 54.9828 32.3253 55.3881 32.56C55.8041 32.7947 56.1295 33.184 56.3641 33.728C56.6201 33.2373 56.9775 32.864 57.4361 32.608C57.8948 32.3413 58.3961 32.208 58.9401 32.208C59.4308 32.208 59.8521 32.2933 60.2041 32.464C60.5561 32.624 60.8495 32.8427 61.0841 33.12C61.3188 33.3973 61.4895 33.7227 61.5961 34.096C61.7135 34.4693 61.7721 34.8693 61.7721 35.296V40H60.2681V35.792C60.2681 35.4827 60.2415 35.1893 60.1881 34.912C60.1348 34.6347 60.0441 34.3893 59.9161 34.176C59.7881 33.9627 59.6175 33.792 59.4041 33.664C59.1908 33.536 58.9188 33.472 58.5881 33.472C58.2468 33.472 57.9535 33.5467 57.7081 33.696C57.4628 33.8347 57.2601 34.0213 57.1001 34.256C56.9508 34.48 56.8388 34.736 56.7641 35.024C56.7001 35.312 56.6681 35.6053 56.6681 35.904V40H55.1641V35.488C55.1641 35.1893 55.1375 34.9173 55.0841 34.672C55.0308 34.4267 54.9401 34.2187 54.8121 34.048C54.6841 33.8667 54.5188 33.728 54.3161 33.632C54.1135 33.5253 53.8628 33.472 53.5641 33.472C53.0095 33.472 52.5455 33.7013 52.1721 34.16C51.8095 34.608 51.6281 35.2107 51.6281 35.968V40H50.1241V34.048C50.1241 33.8453 50.1188 33.584 50.1081 33.264C50.0975 32.944 50.0815 32.6613 50.0601 32.416H51.4841C51.5055 32.608 51.5215 32.8267 51.5321 33.072C51.5428 33.3067 51.5481 33.504 51.5481 33.664H51.5961ZM65.8316 40H64.3276V32.416H65.8316V40ZM66.0876 29.68C66.0876 29.9573 65.9863 30.1867 65.7836 30.368C65.5916 30.5493 65.357 30.64 65.0796 30.64C64.8023 30.64 64.5676 30.5493 64.3756 30.368C64.1836 30.176 64.0876 29.9467 64.0876 29.68C64.0876 29.4027 64.1836 29.1733 64.3756 28.992C64.5676 28.8 64.8023 28.704 65.0796 28.704C65.357 28.704 65.5916 28.8 65.7836 28.992C65.9863 29.1733 66.0876 29.4027 66.0876 29.68ZM72.1643 33.648H70.1483V37.6C70.1483 38.0587 70.2336 38.3893 70.4043 38.592C70.5749 38.784 70.8469 38.88 71.2203 38.88C71.3589 38.88 71.5083 38.864 71.6683 38.832C71.8283 38.8 71.9723 38.752 72.1003 38.688L72.1483 39.92C71.9669 39.984 71.7643 40.032 71.5403 40.064C71.3269 40.1067 71.1029 40.128 70.8683 40.128C70.1536 40.128 69.6043 39.9307 69.2203 39.536C68.8469 39.1413 68.6603 38.5493 68.6603 37.76V33.648H67.2043V32.416H68.6603V30.24H70.1483V32.416H72.1643V33.648ZM79.3819 33.664H79.4139L84.4699 28.672H86.6619L81.1579 33.856L86.9979 40H84.7259L79.4139 34.144H79.3819V40H77.7979V28.672H79.3819V33.664ZM92.667 40H91.067V35.104L86.827 28.672H88.779L91.915 33.792L95.067 28.672H96.907L92.667 35.104V40ZM107.526 38.24C107.078 38.848 106.496 39.344 105.782 39.728C105.067 40.1013 104.208 40.288 103.206 40.288C102.342 40.288 101.542 40.144 100.806 39.856C100.08 39.5573 99.4508 39.1467 98.9175 38.624C98.3948 38.0907 97.9842 37.4613 97.6855 36.736C97.3868 36 97.2375 35.1947 97.2375 34.32C97.2375 33.4347 97.3868 32.6293 97.6855 31.904C97.9948 31.168 98.4162 30.544 98.9495 30.032C99.4935 29.5093 100.134 29.104 100.87 28.816C101.606 28.528 102.406 28.384 103.27 28.384C103.654 28.384 104.043 28.4213 104.438 28.496C104.832 28.5707 105.211 28.6827 105.574 28.832C105.936 28.9813 106.267 29.168 106.566 29.392C106.864 29.6053 107.12 29.856 107.334 30.144L106.086 31.104C105.808 30.72 105.414 30.4053 104.902 30.16C104.4 29.904 103.856 29.776 103.27 29.776C102.608 29.776 102.011 29.8987 101.478 30.144C100.955 30.3787 100.507 30.704 100.134 31.12C99.7602 31.536 99.4722 32.0213 99.2695 32.576C99.0668 33.12 98.9655 33.7013 98.9655 34.32C98.9655 34.96 99.0615 35.5573 99.2535 36.112C99.4562 36.6667 99.7388 37.152 100.102 37.568C100.475 37.9733 100.923 38.2933 101.446 38.528C101.979 38.7627 102.571 38.88 103.222 38.88C103.862 38.88 104.443 38.752 104.966 38.496C105.488 38.24 105.92 37.8667 106.262 37.376L107.526 38.24ZM15.3049 66.8C15.0169 67.2587 14.6223 67.6107 14.1209 67.856C13.6303 68.0907 13.1129 68.208 12.5689 68.208C11.9823 68.208 11.4543 68.1067 10.9849 67.904C10.5156 67.6907 10.1156 67.4027 9.78494 67.04C9.45427 66.6773 9.19827 66.2507 9.01694 65.76C8.8356 65.2693 8.74494 64.7467 8.74494 64.192C8.74494 63.6373 8.8356 63.12 9.01694 62.64C9.19827 62.1493 9.45427 61.7227 9.78494 61.36C10.1263 60.9973 10.5316 60.7147 11.0009 60.512C11.4703 60.3093 11.9876 60.208 12.5529 60.208C13.1716 60.208 13.7103 60.3413 14.1689 60.608C14.6276 60.864 14.9903 61.1787 15.2569 61.552H15.2889V55.904H16.7929V68H15.3369V66.8H15.3049ZM10.3129 64.192C10.3129 64.544 10.3663 64.8853 10.4729 65.216C10.5796 65.5467 10.7396 65.84 10.9529 66.096C11.1663 66.352 11.4276 66.56 11.7369 66.72C12.0463 66.8693 12.4089 66.944 12.8249 66.944C13.2089 66.944 13.5556 66.8693 13.8649 66.72C14.1849 66.5707 14.4569 66.3733 14.6809 66.128C14.9049 65.872 15.0756 65.5787 15.1929 65.248C15.3209 64.9173 15.3849 64.5707 15.3849 64.208C15.3849 63.8453 15.3209 63.4987 15.1929 63.168C15.0756 62.8373 14.9049 62.544 14.6809 62.288C14.4569 62.032 14.1849 61.8293 13.8649 61.68C13.5556 61.5307 13.2089 61.456 12.8249 61.456C12.4089 61.456 12.0463 61.5307 11.7369 61.68C11.4276 61.8293 11.1663 62.032 10.9529 62.288C10.7396 62.544 10.5796 62.8373 10.4729 63.168C10.3663 63.4987 10.3129 63.84 10.3129 64.192ZM27.0932 64.192C27.0932 64.7787 26.9865 65.3173 26.7732 65.808C26.5705 66.2987 26.2825 66.7253 25.9092 67.088C25.5465 67.44 25.1145 67.7173 24.6132 67.92C24.1119 68.112 23.5732 68.208 22.9972 68.208C22.4212 68.208 21.8825 68.112 21.3812 67.92C20.8799 67.7173 20.4479 67.44 20.0852 67.088C19.7225 66.7253 19.4345 66.2987 19.2212 65.808C19.0185 65.3173 18.9172 64.7787 18.9172 64.192C18.9172 63.6053 19.0185 63.072 19.2212 62.592C19.4345 62.1013 19.7225 61.68 20.0852 61.328C20.4479 60.976 20.8799 60.704 21.3812 60.512C21.8825 60.3093 22.4212 60.208 22.9972 60.208C23.5732 60.208 24.1119 60.3093 24.6132 60.512C25.1145 60.704 25.5465 60.976 25.9092 61.328C26.2825 61.68 26.5705 62.1013 26.7732 62.592C26.9865 63.072 27.0932 63.6053 27.0932 64.192ZM25.5252 64.192C25.5252 63.8293 25.4665 63.4827 25.3492 63.152C25.2425 62.8213 25.0825 62.5333 24.8692 62.288C24.6559 62.032 24.3892 61.8293 24.0692 61.68C23.7599 61.5307 23.4025 61.456 22.9972 61.456C22.5919 61.456 22.2292 61.5307 21.9092 61.68C21.5999 61.8293 21.3385 62.032 21.1252 62.288C20.9119 62.5333 20.7465 62.8213 20.6292 63.152C20.5225 63.4827 20.4692 63.8293 20.4692 64.192C20.4692 64.5547 20.5225 64.9013 20.6292 65.232C20.7465 65.5627 20.9119 65.856 21.1252 66.112C21.3385 66.368 21.5999 66.5707 21.9092 66.72C22.2292 66.8693 22.5919 66.944 22.9972 66.944C23.4025 66.944 23.7599 66.8693 24.0692 66.72C24.3892 66.5707 24.6559 66.368 24.8692 66.112C25.0825 65.856 25.2425 65.5627 25.3492 65.232C25.4665 64.9013 25.5252 64.5547 25.5252 64.192ZM34.4908 62.336C34.3308 62.0907 34.0908 61.888 33.7708 61.728C33.4508 61.5573 33.1095 61.472 32.7468 61.472C32.3521 61.472 32.0001 61.5467 31.6908 61.696C31.3921 61.8453 31.1361 62.048 30.9228 62.304C30.7095 62.5493 30.5441 62.8373 30.4268 63.168C30.3201 63.4987 30.2668 63.8453 30.2668 64.208C30.2668 64.5707 30.3201 64.9173 30.4268 65.248C30.5441 65.5787 30.7095 65.872 30.9228 66.128C31.1361 66.3733 31.3975 66.5707 31.7068 66.72C32.0161 66.8693 32.3681 66.944 32.7628 66.944C33.1468 66.944 33.4935 66.8693 33.8028 66.72C34.1228 66.5707 34.3841 66.368 34.5868 66.112L35.5948 67.024C35.2748 67.3973 34.8748 67.6907 34.3948 67.904C33.9148 68.1067 33.3708 68.208 32.7628 68.208C32.1761 68.208 31.6321 68.112 31.1308 67.92C30.6401 67.728 30.2135 67.4613 29.8508 67.12C29.4881 66.768 29.2001 66.3467 28.9868 65.856C28.7841 65.3653 28.6828 64.816 28.6828 64.208C28.6828 63.6107 28.7841 63.0667 28.9868 62.576C29.1895 62.0853 29.4721 61.664 29.8348 61.312C30.1975 60.96 30.6241 60.688 31.1148 60.496C31.6161 60.304 32.1548 60.208 32.7308 60.208C33.2641 60.208 33.7921 60.3147 34.3148 60.528C34.8481 60.7413 35.2695 61.0507 35.5788 61.456L34.4908 62.336ZM42.4291 68C42.4077 67.808 42.3917 67.5947 42.3811 67.36C42.3704 67.1147 42.3651 66.912 42.3651 66.752H42.3331C42.1411 67.1573 41.8157 67.504 41.3571 67.792C40.9091 68.0693 40.4077 68.208 39.8531 68.208C39.3624 68.208 38.9357 68.128 38.5731 67.968C38.2211 67.808 37.9277 67.5893 37.6931 67.312C37.4691 67.024 37.2984 66.6933 37.1811 66.32C37.0744 65.9467 37.0211 65.5467 37.0211 65.12V60.416H38.5251V64.608C38.5251 64.9173 38.5464 65.216 38.5891 65.504C38.6424 65.7813 38.7331 66.0267 38.8611 66.24C38.9891 66.4533 39.1651 66.624 39.3891 66.752C39.6131 66.88 39.9011 66.944 40.2531 66.944C40.8611 66.944 41.3517 66.72 41.7251 66.272C42.0984 65.8133 42.2851 65.2053 42.2851 64.448V60.416H43.7891V66.368C43.7891 66.5707 43.7944 66.832 43.8051 67.152C43.8157 67.472 43.8317 67.7547 43.8531 68H42.4291ZM47.8696 61.664C48.0616 61.2587 48.3656 60.9173 48.7816 60.64C49.2082 60.352 49.7096 60.208 50.2856 60.208C50.7976 60.208 51.2562 60.3253 51.6616 60.56C52.0776 60.7947 52.4029 61.184 52.6376 61.728C52.8936 61.2373 53.2509 60.864 53.7096 60.608C54.1682 60.3413 54.6696 60.208 55.2136 60.208C55.7042 60.208 56.1256 60.2933 56.4776 60.464C56.8296 60.624 57.1229 60.8427 57.3576 61.12C57.5922 61.3973 57.7629 61.7227 57.8696 62.096C57.9869 62.4693 58.0456 62.8693 58.0456 63.296V68H56.5416V63.792C56.5416 63.4827 56.5149 63.1893 56.4616 62.912C56.4082 62.6347 56.3176 62.3893 56.1896 62.176C56.0616 61.9627 55.8909 61.792 55.6776 61.664C55.4642 61.536 55.1922 61.472 54.8616 61.472C54.5202 61.472 54.2269 61.5467 53.9816 61.696C53.7362 61.8347 53.5336 62.0213 53.3736 62.256C53.2242 62.48 53.1122 62.736 53.0376 63.024C52.9736 63.312 52.9416 63.6053 52.9416 63.904V68H51.4376V63.488C51.4376 63.1893 51.4109 62.9173 51.3576 62.672C51.3042 62.4267 51.2136 62.2187 51.0856 62.048C50.9576 61.8667 50.7922 61.728 50.5896 61.632C50.3869 61.5253 50.1362 61.472 49.8376 61.472C49.2829 61.472 48.8189 61.7013 48.4456 62.16C48.0829 62.608 47.9016 63.2107 47.9016 63.968V68H46.3976V62.048C46.3976 61.8453 46.3922 61.584 46.3816 61.264C46.3709 60.944 46.3549 60.6613 46.3336 60.416H47.7576C47.7789 60.608 47.7949 60.8267 47.8056 61.072C47.8162 61.3067 47.8216 61.504 47.8216 61.664H47.8696ZM66.1371 63.536C66.1264 63.2373 66.0731 62.96 65.9771 62.704C65.8917 62.4373 65.7584 62.208 65.5771 62.016C65.4064 61.824 65.1877 61.6747 64.9211 61.568C64.6651 61.4507 64.3611 61.392 64.0091 61.392C63.6891 61.392 63.3851 61.4507 63.0971 61.568C62.8197 61.6747 62.5744 61.824 62.3611 62.016C62.1584 62.208 61.9877 62.4373 61.8491 62.704C61.7211 62.96 61.6464 63.2373 61.6251 63.536H66.1371ZM67.6571 64.144C67.6571 64.2293 67.6571 64.3147 67.6571 64.4C67.6571 64.4853 67.6517 64.5707 67.6411 64.656H61.6251C61.6357 64.976 61.7051 65.28 61.8331 65.568C61.9717 65.8453 62.1531 66.0907 62.3771 66.304C62.6011 66.5067 62.8571 66.6667 63.1451 66.784C63.4437 66.9013 63.7584 66.96 64.0891 66.96C64.6011 66.96 65.0437 66.848 65.4171 66.624C65.7904 66.4 66.0837 66.128 66.2971 65.808L67.3531 66.656C66.9477 67.1893 66.4677 67.584 65.9131 67.84C65.3691 68.0853 64.7611 68.208 64.0891 68.208C63.5131 68.208 62.9797 68.112 62.4891 67.92C61.9984 67.728 61.5771 67.4613 61.2251 67.12C60.8731 66.768 60.5957 66.3467 60.3931 65.856C60.1904 65.3653 60.0891 64.8213 60.0891 64.224C60.0891 63.6373 60.1851 63.0987 60.3771 62.608C60.5797 62.1067 60.8571 61.68 61.2091 61.328C61.5611 60.976 61.9771 60.704 62.4571 60.512C62.9371 60.3093 63.4544 60.208 64.0091 60.208C64.5637 60.208 65.0651 60.2987 65.5131 60.48C65.9717 60.6613 66.3557 60.9227 66.6651 61.264C66.9851 61.6053 67.2304 62.0213 67.4011 62.512C67.5717 62.992 67.6571 63.536 67.6571 64.144ZM71.1169 60.416C71.1383 60.608 71.1543 60.8267 71.1649 61.072C71.1756 61.3067 71.1809 61.504 71.1809 61.664H71.2289C71.3249 61.4613 71.4529 61.2747 71.6129 61.104C71.7836 60.9227 71.9756 60.768 72.1889 60.64C72.4023 60.5013 72.6369 60.3947 72.8929 60.32C73.1489 60.2453 73.4156 60.208 73.6929 60.208C74.1836 60.208 74.6049 60.2933 74.9569 60.464C75.3089 60.624 75.6023 60.8427 75.8369 61.12C76.0716 61.3973 76.2423 61.7227 76.3489 62.096C76.4663 62.4693 76.5249 62.8693 76.5249 63.296V68H75.0209V63.792C75.0209 63.4827 74.9943 63.1893 74.9409 62.912C74.8983 62.6347 74.8129 62.3893 74.6849 62.176C74.5569 61.9627 74.3809 61.792 74.1569 61.664C73.9329 61.536 73.6449 61.472 73.2929 61.472C72.6956 61.472 72.2049 61.7013 71.8209 62.16C71.4476 62.608 71.2609 63.2107 71.2609 63.968V68H69.7569V62.048C69.7569 61.8453 69.7516 61.584 69.7409 61.264C69.7303 60.944 69.7143 60.6613 69.6929 60.416H71.1169ZM82.7814 61.648H80.7654V65.6C80.7654 66.0587 80.8508 66.3893 81.0214 66.592C81.1921 66.784 81.4641 66.88 81.8374 66.88C81.9761 66.88 82.1254 66.864 82.2854 66.832C82.4454 66.8 82.5894 66.752 82.7174 66.688L82.7654 67.92C82.5841 67.984 82.3814 68.032 82.1574 68.064C81.9441 68.1067 81.7201 68.128 81.4854 68.128C80.7708 68.128 80.2214 67.9307 79.8374 67.536C79.4641 67.1413 79.2774 66.5493 79.2774 65.76V61.648H77.8214V60.416H79.2774V58.24H80.7654V60.416H82.7814V61.648ZM89.0551 63.088C89.0551 62.5227 88.8844 62.1067 88.5431 61.84C88.2017 61.5627 87.7484 61.424 87.1831 61.424C86.7564 61.424 86.3511 61.5093 85.9671 61.68C85.5937 61.84 85.2791 62.048 85.0231 62.304L84.2231 61.344C84.5964 60.992 85.0497 60.7147 85.5831 60.512C86.1271 60.3093 86.7084 60.208 87.3271 60.208C87.8711 60.208 88.3404 60.288 88.7351 60.448C89.1404 60.5973 89.4711 60.8053 89.7271 61.072C89.9831 61.3387 90.1751 61.6533 90.3031 62.016C90.4311 62.3787 90.4951 62.768 90.4951 63.184V66.496C90.4951 66.752 90.5004 67.024 90.5111 67.312C90.5324 67.5893 90.5644 67.8187 90.6071 68H89.2471C89.1617 67.6373 89.1191 67.2747 89.1191 66.912H89.0711C88.7937 67.3173 88.4417 67.632 88.0151 67.856C87.5991 68.08 87.1031 68.192 86.5271 68.192C86.2284 68.192 85.9137 68.1493 85.5831 68.064C85.2631 67.9893 84.9697 67.8613 84.7031 67.68C84.4364 67.4987 84.2124 67.2587 84.0311 66.96C83.8604 66.6613 83.7751 66.2933 83.7751 65.856C83.7751 65.28 83.9297 64.8267 84.2391 64.496C84.5484 64.1547 84.9537 63.8987 85.4551 63.728C85.9564 63.5467 86.5217 63.4293 87.1511 63.376C87.7804 63.3227 88.4151 63.296 89.0551 63.296V63.088ZM88.6871 64.384C88.3137 64.384 87.9244 64.4 87.5191 64.432C87.1244 64.464 86.7617 64.528 86.4311 64.624C86.1111 64.72 85.8444 64.864 85.6311 65.056C85.4177 65.248 85.3111 65.504 85.3111 65.824C85.3111 66.048 85.3537 66.2347 85.4391 66.384C85.5351 66.5333 85.6577 66.656 85.8071 66.752C85.9564 66.848 86.1217 66.9173 86.3031 66.96C86.4844 66.992 86.6711 67.008 86.8631 67.008C87.5671 67.008 88.1057 66.8 88.4791 66.384C88.8631 65.9573 89.0551 65.424 89.0551 64.784V64.384H88.6871ZM96.5627 61.648H94.5467V65.6C94.5467 66.0587 94.632 66.3893 94.8027 66.592C94.9734 66.784 95.2454 66.88 95.6187 66.88C95.7574 66.88 95.9067 66.864 96.0667 66.832C96.2267 66.8 96.3707 66.752 96.4987 66.688L96.5467 67.92C96.3654 67.984 96.1627 68.032 95.9387 68.064C95.7254 68.1067 95.5014 68.128 95.2667 68.128C94.552 68.128 94.0027 67.9307 93.6187 67.536C93.2454 67.1413 93.0587 66.5493 93.0587 65.76V61.648H91.6027V60.416H93.0587V58.24H94.5467V60.416H96.5627V61.648ZM99.6363 68H98.1323V60.416H99.6363V68ZM99.8923 57.68C99.8923 57.9573 99.791 58.1867 99.5883 58.368C99.3963 58.5493 99.1616 58.64 98.8843 58.64C98.607 58.64 98.3723 58.5493 98.1803 58.368C97.9883 58.176 97.8923 57.9467 97.8923 57.68C97.8923 57.4027 97.9883 57.1733 98.1803 56.992C98.3723 56.8 98.607 56.704 98.8843 56.704C99.1616 56.704 99.3963 56.8 99.5883 56.992C99.791 57.1733 99.8923 57.4027 99.8923 57.68ZM109.937 64.192C109.937 64.7787 109.83 65.3173 109.617 65.808C109.414 66.2987 109.126 66.7253 108.753 67.088C108.39 67.44 107.958 67.7173 107.457 67.92C106.956 68.112 106.417 68.208 105.841 68.208C105.265 68.208 104.726 68.112 104.225 67.92C103.724 67.7173 103.292 67.44 102.929 67.088C102.566 66.7253 102.278 66.2987 102.065 65.808C101.862 65.3173 101.761 64.7787 101.761 64.192C101.761 63.6053 101.862 63.072 102.065 62.592C102.278 62.1013 102.566 61.68 102.929 61.328C103.292 60.976 103.724 60.704 104.225 60.512C104.726 60.3093 105.265 60.208 105.841 60.208C106.417 60.208 106.956 60.3093 107.457 60.512C107.958 60.704 108.39 60.976 108.753 61.328C109.126 61.68 109.414 62.1013 109.617 62.592C109.83 63.072 109.937 63.6053 109.937 64.192ZM108.369 64.192C108.369 63.8293 108.31 63.4827 108.193 63.152C108.086 62.8213 107.926 62.5333 107.713 62.288C107.5 62.032 107.233 61.8293 106.913 61.68C106.604 61.5307 106.246 61.456 105.841 61.456C105.436 61.456 105.073 61.5307 104.753 61.68C104.444 61.8293 104.182 62.032 103.969 62.288C103.756 62.5333 103.59 62.8213 103.473 63.152C103.366 63.4827 103.313 63.8293 103.313 64.192C103.313 64.5547 103.366 64.9013 103.473 65.232C103.59 65.5627 103.756 65.856 103.969 66.112C104.182 66.368 104.444 66.5707 104.753 66.72C105.073 66.8693 105.436 66.944 105.841 66.944C106.246 66.944 106.604 66.8693 106.913 66.72C107.233 66.5707 107.5 66.368 107.713 66.112C107.926 65.856 108.086 65.5627 108.193 65.232C108.31 64.9013 108.369 64.5547 108.369 64.192ZM113.383 60.416C113.404 60.608 113.42 60.8267 113.431 61.072C113.441 61.3067 113.447 61.504 113.447 61.664H113.495C113.591 61.4613 113.719 61.2747 113.879 61.104C114.049 60.9227 114.241 60.768 114.455 60.64C114.668 60.5013 114.903 60.3947 115.159 60.32C115.415 60.2453 115.681 60.208 115.959 60.208C116.449 60.208 116.871 60.2933 117.223 60.464C117.575 60.624 117.868 60.8427 118.103 61.12C118.337 61.3973 118.508 61.7227 118.615 62.096C118.732 62.4693 118.791 62.8693 118.791 63.296V68H117.287V63.792C117.287 63.4827 117.26 63.1893 117.207 62.912C117.164 62.6347 117.079 62.3893 116.951 62.176C116.823 61.9627 116.647 61.792 116.423 61.664C116.199 61.536 115.911 61.472 115.559 61.472C114.961 61.472 114.471 61.7013 114.087 62.16C113.713 62.608 113.527 63.2107 113.527 63.968V68H112.023V62.048C112.023 61.8453 112.017 61.584 112.007 61.264C111.996 60.944 111.98 60.6613 111.959 60.416H113.383Z" fill="black"/>
<path d="M64 103C69.5228 103 74 98.5228 74 93C74 87.4772 69.5228 83 64 83C58.4772 83 54 87.4772 54 93C54 98.5228 58.4772 103 64 103Z" stroke="black" stroke-width="2" stroke-linecap="round" stroke-linejoin="round"/>
<path d="M229.803 3.008C229.461 2.63467 229.024 2.336 228.491 2.112C227.968 1.888 227.381 1.776 226.731 1.776C226.069 1.776 225.472 1.89867 224.939 2.144C224.405 2.37867 223.952 2.704 223.579 3.12C223.205 3.536 222.917 4.02133 222.715 4.576C222.512 5.12 222.411 5.70133 222.411 6.32C222.411 6.94933 222.512 7.54133 222.715 8.096C222.917 8.65067 223.205 9.136 223.579 9.552C223.952 9.95733 224.411 10.2773 224.955 10.512C225.499 10.7467 226.107 10.864 226.779 10.864C227.312 10.864 227.803 10.816 228.251 10.72C228.699 10.624 229.088 10.4853 229.419 10.304V7.152H226.907V5.808H230.987V11.296C230.389 11.616 229.739 11.8613 229.035 12.032C228.331 12.2027 227.563 12.288 226.731 12.288C225.845 12.288 225.029 12.144 224.283 11.856C223.547 11.5573 222.912 11.1467 222.379 10.624C221.845 10.0907 221.429 9.46133 221.131 8.736C220.832 8 220.683 7.19467 220.683 6.32C220.683 5.43467 220.832 4.62933 221.131 3.904C221.44 3.168 221.861 2.544 222.395 2.032C222.939 1.50933 223.579 1.104 224.315 0.815999C225.051 0.528 225.851 0.384 226.715 0.384C227.621 0.384 228.427 0.517333 229.131 0.783999C229.845 1.05067 230.437 1.408 230.907 1.856L229.803 3.008ZM239.184 7.536C239.173 7.23733 239.12 6.96 239.024 6.704C238.939 6.43733 238.805 6.208 238.624 6.016C238.453 5.824 238.235 5.67467 237.968 5.568C237.712 5.45067 237.408 5.392 237.056 5.392C236.736 5.392 236.432 5.45067 236.144 5.568C235.867 5.67467 235.621 5.824 235.408 6.016C235.205 6.208 235.035 6.43733 234.896 6.704C234.768 6.96 234.693 7.23733 234.672 7.536H239.184ZM240.704 8.144C240.704 8.22933 240.704 8.31467 240.704 8.4C240.704 8.48533 240.699 8.57067 240.688 8.656H234.672C234.683 8.976 234.752 9.28 234.88 9.568C235.019 9.84533 235.2 10.0907 235.424 10.304C235.648 10.5067 235.904 10.6667 236.192 10.784C236.491 10.9013 236.805 10.96 237.136 10.96C237.648 10.96 238.091 10.848 238.464 10.624C238.837 10.4 239.131 10.128 239.344 9.808L240.4 10.656C239.995 11.1893 239.515 11.584 238.96 11.84C238.416 12.0853 237.808 12.208 237.136 12.208C236.56 12.208 236.027 12.112 235.536 11.92C235.045 11.728 234.624 11.4613 234.272 11.12C233.92 10.768 233.643 10.3467 233.44 9.856C233.237 9.36533 233.136 8.82133 233.136 8.224C233.136 7.63733 233.232 7.09867 233.424 6.608C233.627 6.10667 233.904 5.68 234.256 5.328C234.608 4.976 235.024 4.704 235.504 4.512C235.984 4.30933 236.501 4.208 237.056 4.208C237.611 4.208 238.112 4.29867 238.56 4.48C239.019 4.66133 239.403 4.92267 239.712 5.264C240.032 5.60533 240.277 6.02133 240.448 6.512C240.619 6.992 240.704 7.536 240.704 8.144ZM246.516 5.648H244.5V9.6C244.5 10.0587 244.585 10.3893 244.756 10.592C244.926 10.784 245.198 10.88 245.572 10.88C245.71 10.88 245.86 10.864 246.02 10.832C246.18 10.8 246.324 10.752 246.452 10.688L246.5 11.92C246.318 11.984 246.116 12.032 245.892 12.064C245.678 12.1067 245.454 12.128 245.22 12.128C244.505 12.128 243.956 11.9307 243.572 11.536C243.198 11.1413 243.012 10.5493 243.012 9.76V5.648H241.556V4.416H243.012V2.24H244.5V4.416H246.516V5.648ZM253.733 5.664H253.765L258.821 0.672H261.013L255.509 5.856L261.349 12H259.077L253.765 6.144H253.733V12H252.149V0.672H253.733V5.664ZM267.019 12H265.419V7.104L261.179 0.672H263.131L266.267 5.792L269.419 0.672H271.259L267.019 7.104V12ZM281.877 10.24C281.429 10.848 280.848 11.344 280.133 11.728C279.418 12.1013 278.56 12.288 277.557 12.288C276.693 12.288 275.893 12.144 275.157 11.856C274.432 11.5573 273.802 11.1467 273.269 10.624C272.746 10.0907 272.336 9.46133 272.037 8.736C271.738 8 271.589 7.19467 271.589 6.32C271.589 5.43467 271.738 4.62933 272.037 3.904C272.346 3.168 272.768 2.544 273.301 2.032C273.845 1.50933 274.485 1.104 275.221 0.815999C275.957 0.528 276.757 0.384 277.621 0.384C278.005 0.384 278.394 0.421333 278.789 0.495999C279.184 0.570666 279.562 0.682666 279.925 0.832C280.288 0.981333 280.618 1.168 280.917 1.392C281.216 1.60533 281.472 1.856 281.685 2.144L280.437 3.104C280.16 2.72 279.765 2.40533 279.253 2.16C278.752 1.904 278.208 1.776 277.621 1.776C276.96 1.776 276.362 1.89867 275.829 2.144C275.306 2.37867 274.858 2.704 274.485 3.12C274.112 3.536 273.824 4.02133 273.621 4.576C273.418 5.12 273.317 5.70133 273.317 6.32C273.317 6.96 273.413 7.55733 273.605 8.112C273.808 8.66667 274.09 9.152 274.453 9.568C274.826 9.97333 275.274 10.2933 275.797 10.528C276.33 10.7627 276.922 10.88 277.573 10.88C278.213 10.88 278.794 10.752 279.317 10.496C279.84 10.24 280.272 9.86667 280.613 9.376L281.877 10.24ZM208.383 35.088C208.383 34.5227 208.213 34.1067 207.871 33.84C207.53 33.5627 207.077 33.424 206.511 33.424C206.085 33.424 205.679 33.5093 205.295 33.68C204.922 33.84 204.607 34.048 204.351 34.304L203.551 33.344C203.925 32.992 204.378 32.7147 204.911 32.512C205.455 32.3093 206.037 32.208 206.655 32.208C207.199 32.208 207.669 32.288 208.063 32.448C208.469 32.5973 208.799 32.8053 209.055 33.072C209.311 33.3387 209.503 33.6533 209.631 34.016C209.759 34.3787 209.823 34.768 209.823 35.184V38.496C209.823 38.752 209.829 39.024 209.839 39.312C209.861 39.5893 209.893 39.8187 209.935 40H208.575C208.49 39.6373 208.447 39.2747 208.447 38.912H208.399C208.122 39.3173 207.77 39.632 207.343 39.856C206.927 40.08 206.431 40.192 205.855 40.192C205.557 40.192 205.242 40.1493 204.911 40.064C204.591 39.9893 204.298 39.8613 204.031 39.68C203.765 39.4987 203.541 39.2587 203.359 38.96C203.189 38.6613 203.103 38.2933 203.103 37.856C203.103 37.28 203.258 36.8267 203.567 36.496C203.877 36.1547 204.282 35.8987 204.783 35.728C205.285 35.5467 205.85 35.4293 206.479 35.376C207.109 35.3227 207.743 35.296 208.383 35.296V35.088ZM208.015 36.384C207.642 36.384 207.253 36.4 206.847 36.432C206.453 36.464 206.09 36.528 205.759 36.624C205.439 36.72 205.173 36.864 204.959 37.056C204.746 37.248 204.639 37.504 204.639 37.824C204.639 38.048 204.682 38.2347 204.767 38.384C204.863 38.5333 204.986 38.656 205.135 38.752C205.285 38.848 205.45 38.9173 205.631 38.96C205.813 38.992 205.999 39.008 206.191 39.008C206.895 39.008 207.434 38.8 207.807 38.384C208.191 37.9573 208.383 37.424 208.383 36.784V36.384H208.015ZM213.839 43.84H212.335V32.416H213.807V33.6H213.855C214.1 33.1947 214.458 32.864 214.927 32.608C215.407 32.3413 215.962 32.208 216.591 32.208C217.156 32.208 217.668 32.3093 218.127 32.512C218.596 32.7147 218.996 32.9973 219.327 33.36C219.668 33.7227 219.93 34.1493 220.111 34.64C220.292 35.12 220.383 35.6373 220.383 36.192C220.383 36.7467 220.292 37.2693 220.111 37.76C219.93 38.2507 219.674 38.6773 219.343 39.04C219.012 39.4027 218.612 39.6907 218.143 39.904C217.674 40.1067 217.146 40.208 216.559 40.208C216.015 40.208 215.503 40.0907 215.023 39.856C214.543 39.6213 214.164 39.2907 213.887 38.864H213.839V43.84ZM218.831 36.192C218.831 35.84 218.778 35.4987 218.671 35.168C218.564 34.8373 218.404 34.544 218.191 34.288C217.978 34.032 217.711 33.8293 217.391 33.68C217.082 33.5307 216.719 33.456 216.303 33.456C215.919 33.456 215.567 33.5307 215.247 33.68C214.938 33.8293 214.671 34.032 214.447 34.288C214.223 34.544 214.047 34.8373 213.919 35.168C213.802 35.4987 213.743 35.8453 213.743 36.208C213.743 36.5707 213.802 36.9173 213.919 37.248C214.047 37.5787 214.223 37.872 214.447 38.128C214.671 38.3733 214.938 38.5707 215.247 38.72C215.567 38.8693 215.919 38.944 216.303 38.944C216.719 38.944 217.082 38.8693 217.391 38.72C217.711 38.56 217.978 38.352 218.191 38.096C218.404 37.84 218.564 37.5467 218.671 37.216C218.778 36.8853 218.831 36.544 218.831 36.192ZM223.98 43.84H222.476V32.416H223.948V33.6H223.996C224.241 33.1947 224.598 32.864 225.068 32.608C225.548 32.3413 226.102 32.208 226.732 32.208C227.297 32.208 227.809 32.3093 228.268 32.512C228.737 32.7147 229.137 32.9973 229.468 33.36C229.809 33.7227 230.07 34.1493 230.252 34.64C230.433 35.12 230.524 35.6373 230.524 36.192C230.524 36.7467 230.433 37.2693 230.252 37.76C230.07 38.2507 229.814 38.6773 229.484 39.04C229.153 39.4027 228.753 39.6907 228.284 39.904C227.814 40.1067 227.286 40.208 226.7 40.208C226.156 40.208 225.644 40.0907 225.164 39.856C224.684 39.6213 224.305 39.2907 224.028 38.864H223.98V43.84ZM228.972 36.192C228.972 35.84 228.918 35.4987 228.812 35.168C228.705 34.8373 228.545 34.544 228.332 34.288C228.118 34.032 227.852 33.8293 227.532 33.68C227.222 33.5307 226.86 33.456 226.444 33.456C226.06 33.456 225.708 33.5307 225.388 33.68C225.078 33.8293 224.812 34.032 224.588 34.288C224.364 34.544 224.188 34.8373 224.06 35.168C223.942 35.4987 223.884 35.8453 223.884 36.208C223.884 36.5707 223.942 36.9173 224.06 37.248C224.188 37.5787 224.364 37.872 224.588 38.128C224.812 38.3733 225.078 38.5707 225.388 38.72C225.708 38.8693 226.06 38.944 226.444 38.944C226.86 38.944 227.222 38.8693 227.532 38.72C227.852 38.56 228.118 38.352 228.332 38.096C228.545 37.84 228.705 37.5467 228.812 37.216C228.918 36.8853 228.972 36.544 228.972 36.192ZM232.616 34.048C232.616 33.8453 232.611 33.584 232.6 33.264C232.59 32.944 232.574 32.6613 232.552 32.416H233.976C233.998 32.608 234.014 32.832 234.024 33.088C234.035 33.3333 234.04 33.536 234.04 33.696H234.088C234.302 33.248 234.611 32.8907 235.016 32.624C235.432 32.3467 235.896 32.208 236.408 32.208C236.643 32.208 236.84 32.2293 237 32.272L236.936 33.664C236.723 33.6107 236.494 33.584 236.248 33.584C235.886 33.584 235.571 33.6533 235.304 33.792C235.038 33.92 234.814 34.096 234.632 34.32C234.462 34.544 234.334 34.8053 234.248 35.104C234.163 35.392 234.12 35.696 234.12 36.016V40H232.616V34.048ZM245.812 36.192C245.812 36.7787 245.705 37.3173 245.492 37.808C245.289 38.2987 245.001 38.7253 244.628 39.088C244.265 39.44 243.833 39.7173 243.332 39.92C242.831 40.112 242.292 40.208 241.716 40.208C241.14 40.208 240.601 40.112 240.1 39.92C239.599 39.7173 239.167 39.44 238.804 39.088C238.441 38.7253 238.153 38.2987 237.94 37.808C237.737 37.3173 237.636 36.7787 237.636 36.192C237.636 35.6053 237.737 35.072 237.94 34.592C238.153 34.1013 238.441 33.68 238.804 33.328C239.167 32.976 239.599 32.704 240.1 32.512C240.601 32.3093 241.14 32.208 241.716 32.208C242.292 32.208 242.831 32.3093 243.332 32.512C243.833 32.704 244.265 32.976 244.628 33.328C245.001 33.68 245.289 34.1013 245.492 34.592C245.705 35.072 245.812 35.6053 245.812 36.192ZM244.244 36.192C244.244 35.8293 244.185 35.4827 244.068 35.152C243.961 34.8213 243.801 34.5333 243.588 34.288C243.375 34.032 243.108 33.8293 242.788 33.68C242.479 33.5307 242.121 33.456 241.716 33.456C241.311 33.456 240.948 33.5307 240.628 33.68C240.319 33.8293 240.057 34.032 239.844 34.288C239.631 34.5333 239.465 34.8213 239.348 35.152C239.241 35.4827 239.188 35.8293 239.188 36.192C239.188 36.5547 239.241 36.9013 239.348 37.232C239.465 37.5627 239.631 37.856 239.844 38.112C240.057 38.368 240.319 38.5707 240.628 38.72C240.948 38.8693 241.311 38.944 241.716 38.944C242.121 38.944 242.479 38.8693 242.788 38.72C243.108 38.5707 243.375 38.368 243.588 38.112C243.801 37.856 243.961 37.5627 244.068 37.232C244.185 36.9013 244.244 36.5547 244.244 36.192ZM251.466 40H249.834L246.746 32.416H248.41L250.634 38.384H250.666L252.906 32.416H254.506L251.466 40ZM260.68 35.088C260.68 34.5227 260.509 34.1067 260.168 33.84C259.827 33.5627 259.373 33.424 258.808 33.424C258.381 33.424 257.976 33.5093 257.592 33.68C257.219 33.84 256.904 34.048 256.648 34.304L255.848 33.344C256.221 32.992 256.675 32.7147 257.208 32.512C257.752 32.3093 258.333 32.208 258.952 32.208C259.496 32.208 259.965 32.288 260.36 32.448C260.765 32.5973 261.096 32.8053 261.352 33.072C261.608 33.3387 261.8 33.6533 261.928 34.016C262.056 34.3787 262.12 34.768 262.12 35.184V38.496C262.12 38.752 262.125 39.024 262.136 39.312C262.157 39.5893 262.189 39.8187 262.232 40H260.872C260.787 39.6373 260.744 39.2747 260.744 38.912H260.696C260.419 39.3173 260.067 39.632 259.64 39.856C259.224 40.08 258.728 40.192 258.152 40.192C257.853 40.192 257.539 40.1493 257.208 40.064C256.888 39.9893 256.595 39.8613 256.328 39.68C256.061 39.4987 255.837 39.2587 255.656 38.96C255.485 38.6613 255.4 38.2933 255.4 37.856C255.4 37.28 255.555 36.8267 255.864 36.496C256.173 36.1547 256.579 35.8987 257.08 35.728C257.581 35.5467 258.147 35.4293 258.776 35.376C259.405 35.3227 260.04 35.296 260.68 35.296V35.088ZM260.312 36.384C259.939 36.384 259.549 36.4 259.144 36.432C258.749 36.464 258.387 36.528 258.056 36.624C257.736 36.72 257.469 36.864 257.256 37.056C257.043 37.248 256.936 37.504 256.936 37.824C256.936 38.048 256.979 38.2347 257.064 38.384C257.16 38.5333 257.283 38.656 257.432 38.752C257.581 38.848 257.747 38.9173 257.928 38.96C258.109 38.992 258.296 39.008 258.488 39.008C259.192 39.008 259.731 38.8 260.104 38.384C260.488 37.9573 260.68 37.424 260.68 36.784V36.384H260.312ZM266.168 40H264.664V27.904H266.168V40ZM277.508 35.088C277.508 34.5227 277.338 34.1067 276.996 33.84C276.655 33.5627 276.202 33.424 275.636 33.424C275.21 33.424 274.804 33.5093 274.42 33.68C274.047 33.84 273.732 34.048 273.476 34.304L272.676 33.344C273.05 32.992 273.503 32.7147 274.036 32.512C274.58 32.3093 275.162 32.208 275.78 32.208C276.324 32.208 276.794 32.288 277.188 32.448C277.594 32.5973 277.924 32.8053 278.18 33.072C278.436 33.3387 278.628 33.6533 278.756 34.016C278.884 34.3787 278.948 34.768 278.948 35.184V38.496C278.948 38.752 278.954 39.024 278.964 39.312C278.986 39.5893 279.018 39.8187 279.06 40H277.7C277.615 39.6373 277.572 39.2747 277.572 38.912H277.524C277.247 39.3173 276.895 39.632 276.468 39.856C276.052 40.08 275.556 40.192 274.98 40.192C274.682 40.192 274.367 40.1493 274.036 40.064C273.716 39.9893 273.423 39.8613 273.156 39.68C272.89 39.4987 272.666 39.2587 272.484 38.96C272.314 38.6613 272.228 38.2933 272.228 37.856C272.228 37.28 272.383 36.8267 272.692 36.496C273.002 36.1547 273.407 35.8987 273.908 35.728C274.41 35.5467 274.975 35.4293 275.604 35.376C276.234 35.3227 276.868 35.296 277.508 35.296V35.088ZM277.14 36.384C276.767 36.384 276.378 36.4 275.972 36.432C275.578 36.464 275.215 36.528 274.884 36.624C274.564 36.72 274.298 36.864 274.084 37.056C273.871 37.248 273.764 37.504 273.764 37.824C273.764 38.048 273.807 38.2347 273.892 38.384C273.988 38.5333 274.111 38.656 274.26 38.752C274.41 38.848 274.575 38.9173 274.756 38.96C274.938 38.992 275.124 39.008 275.316 39.008C276.02 39.008 276.559 38.8 276.932 38.384C277.316 37.9573 277.508 37.424 277.508 36.784V36.384H277.14ZM282.82 32.416C282.841 32.608 282.857 32.8267 282.868 33.072C282.879 33.3067 282.884 33.504 282.884 33.664H282.932C283.028 33.4613 283.156 33.2747 283.316 33.104C283.487 32.9227 283.679 32.768 283.892 32.64C284.105 32.5013 284.34 32.3947 284.596 32.32C284.852 32.2453 285.119 32.208 285.396 32.208C285.887 32.208 286.308 32.2933 286.66 32.464C287.012 32.624 287.305 32.8427 287.54 33.12C287.775 33.3973 287.945 33.7227 288.052 34.096C288.169 34.4693 288.228 34.8693 288.228 35.296V40H286.724V35.792C286.724 35.4827 286.697 35.1893 286.644 34.912C286.601 34.6347 286.516 34.3893 286.388 34.176C286.26 33.9627 286.084 33.792 285.86 33.664C285.636 33.536 285.348 33.472 284.996 33.472C284.399 33.472 283.908 33.7013 283.524 34.16C283.151 34.608 282.964 35.2107 282.964 35.968V40H281.46V34.048C281.46 33.8453 281.455 33.584 281.444 33.264C281.433 32.944 281.417 32.6613 281.396 32.416H282.82ZM296.821 38.8C296.533 39.2587 296.138 39.6107 295.637 39.856C295.146 40.0907 294.629 40.208 294.085 40.208C293.498 40.208 292.97 40.1067 292.501 39.904C292.031 39.6907 291.631 39.4027 291.301 39.04C290.97 38.6773 290.714 38.2507 290.533 37.76C290.351 37.2693 290.261 36.7467 290.261 36.192C290.261 35.6373 290.351 35.12 290.533 34.64C290.714 34.1493 290.97 33.7227 291.301 33.36C291.642 32.9973 292.047 32.7147 292.517 32.512C292.986 32.3093 293.503 32.208 294.069 32.208C294.687 32.208 295.226 32.3413 295.685 32.608C296.143 32.864 296.506 33.1787 296.773 33.552H296.805V27.904H298.309V40H296.853V38.8H296.821ZM291.829 36.192C291.829 36.544 291.882 36.8853 291.989 37.216C292.095 37.5467 292.255 37.84 292.469 38.096C292.682 38.352 292.943 38.56 293.253 38.72C293.562 38.8693 293.925 38.944 294.341 38.944C294.725 38.944 295.071 38.8693 295.381 38.72C295.701 38.5707 295.973 38.3733 296.197 38.128C296.421 37.872 296.591 37.5787 296.709 37.248C296.837 36.9173 296.901 36.5707 296.901 36.208C296.901 35.8453 296.837 35.4987 296.709 35.168C296.591 34.8373 296.421 34.544 296.197 34.288C295.973 34.032 295.701 33.8293 295.381 33.68C295.071 33.5307 294.725 33.456 294.341 33.456C293.925 33.456 293.562 33.5307 293.253 33.68C292.943 33.8293 292.682 34.032 292.469 34.288C292.255 34.544 292.095 34.8373 291.989 35.168C291.882 35.4987 291.829 35.84 291.829 36.192ZM212.047 58.768C211.823 58.4587 211.519 58.208 211.135 58.016C210.751 57.8133 210.319 57.712 209.839 57.712C209.583 57.712 209.322 57.7493 209.055 57.824C208.799 57.888 208.564 58 208.351 58.16C208.138 58.3093 207.962 58.5013 207.823 58.736C207.695 58.96 207.631 59.232 207.631 59.552C207.631 59.8613 207.69 60.1227 207.807 60.336C207.935 60.5387 208.1 60.7147 208.303 60.864C208.516 61.0027 208.762 61.1253 209.039 61.232C209.327 61.328 209.631 61.4293 209.951 61.536C210.335 61.6533 210.724 61.7867 211.119 61.936C211.514 62.0853 211.871 62.2827 212.191 62.528C212.511 62.7733 212.772 63.0827 212.975 63.456C213.178 63.8187 213.279 64.2827 213.279 64.848C213.279 65.4347 213.167 65.9467 212.943 66.384C212.73 66.8107 212.442 67.168 212.079 67.456C211.716 67.7333 211.295 67.9413 210.815 68.08C210.346 68.2187 209.86 68.288 209.359 68.288C208.644 68.288 207.951 68.1493 207.279 67.872C206.618 67.5947 206.068 67.184 205.631 66.64L206.863 65.6C207.13 65.9947 207.487 66.3147 207.935 66.56C208.383 66.8053 208.868 66.928 209.391 66.928C209.658 66.928 209.924 66.8907 210.191 66.816C210.458 66.7413 210.698 66.624 210.911 66.464C211.135 66.304 211.316 66.1067 211.455 65.872C211.594 65.6267 211.663 65.3333 211.663 64.992C211.663 64.6507 211.588 64.368 211.439 64.144C211.3 63.9093 211.108 63.712 210.863 63.552C210.618 63.392 210.33 63.2587 209.999 63.152C209.679 63.0347 209.338 62.9173 208.975 62.8C208.612 62.6933 208.255 62.5653 207.903 62.416C207.551 62.256 207.236 62.0587 206.959 61.824C206.682 61.5787 206.458 61.28 206.287 60.928C206.116 60.576 206.031 60.1387 206.031 59.616C206.031 59.0507 206.143 58.5653 206.367 58.16C206.602 57.7547 206.9 57.4187 207.263 57.152C207.636 56.8853 208.052 56.6933 208.511 56.576C208.98 56.448 209.45 56.384 209.919 56.384C210.58 56.384 211.199 56.5013 211.775 56.736C212.351 56.9707 212.815 57.2853 213.167 57.68L212.047 58.768ZM220.996 63.536C220.986 63.2373 220.932 62.96 220.836 62.704C220.751 62.4373 220.618 62.208 220.436 62.016C220.266 61.824 220.047 61.6747 219.78 61.568C219.524 61.4507 219.22 61.392 218.868 61.392C218.548 61.392 218.244 61.4507 217.956 61.568C217.679 61.6747 217.434 61.824 217.22 62.016C217.018 62.208 216.847 62.4373 216.708 62.704C216.58 62.96 216.506 63.2373 216.484 63.536H220.996ZM222.516 64.144C222.516 64.2293 222.516 64.3147 222.516 64.4C222.516 64.4853 222.511 64.5707 222.5 64.656H216.484C216.495 64.976 216.564 65.28 216.692 65.568C216.831 65.8453 217.012 66.0907 217.236 66.304C217.46 66.5067 217.716 66.6667 218.004 66.784C218.303 66.9013 218.618 66.96 218.948 66.96C219.46 66.96 219.903 66.848 220.276 66.624C220.65 66.4 220.943 66.128 221.156 65.808L222.212 66.656C221.807 67.1893 221.327 67.584 220.772 67.84C220.228 68.0853 219.62 68.208 218.948 68.208C218.372 68.208 217.839 68.112 217.348 67.92C216.858 67.728 216.436 67.4613 216.084 67.12C215.732 66.768 215.455 66.3467 215.252 65.856C215.05 65.3653 214.948 64.8213 214.948 64.224C214.948 63.6373 215.044 63.0987 215.236 62.608C215.439 62.1067 215.716 61.68 216.068 61.328C216.42 60.976 216.836 60.704 217.316 60.512C217.796 60.3093 218.314 60.208 218.868 60.208C219.423 60.208 219.924 60.2987 220.372 60.48C220.831 60.6613 221.215 60.9227 221.524 61.264C221.844 61.6053 222.09 62.0213 222.26 62.512C222.431 62.992 222.516 63.536 222.516 64.144ZM229.928 62.336C229.768 62.0907 229.528 61.888 229.208 61.728C228.888 61.5573 228.547 61.472 228.184 61.472C227.79 61.472 227.438 61.5467 227.128 61.696C226.83 61.8453 226.574 62.048 226.36 62.304C226.147 62.5493 225.982 62.8373 225.864 63.168C225.758 63.4987 225.704 63.8453 225.704 64.208C225.704 64.5707 225.758 64.9173 225.864 65.248C225.982 65.5787 226.147 65.872 226.36 66.128C226.574 66.3733 226.835 66.5707 227.144 66.72C227.454 66.8693 227.806 66.944 228.2 66.944C228.584 66.944 228.931 66.8693 229.24 66.72C229.56 66.5707 229.822 66.368 230.024 66.112L231.032 67.024C230.712 67.3973 230.312 67.6907 229.832 67.904C229.352 68.1067 228.808 68.208 228.2 68.208C227.614 68.208 227.07 68.112 226.568 67.92C226.078 67.728 225.651 67.4613 225.288 67.12C224.926 66.768 224.638 66.3467 224.424 65.856C224.222 65.3653 224.12 64.816 224.12 64.208C224.12 63.6107 224.222 63.0667 224.424 62.576C224.627 62.0853 224.91 61.664 225.272 61.312C225.635 60.96 226.062 60.688 226.552 60.496C227.054 60.304 227.592 60.208 228.168 60.208C228.702 60.208 229.23 60.3147 229.752 60.528C230.286 60.7413 230.707 61.0507 231.016 61.456L229.928 62.336ZM237.867 68C237.845 67.808 237.829 67.5947 237.819 67.36C237.808 67.1147 237.803 66.912 237.803 66.752H237.771C237.579 67.1573 237.253 67.504 236.795 67.792C236.347 68.0693 235.845 68.208 235.291 68.208C234.8 68.208 234.373 68.128 234.011 67.968C233.659 67.808 233.365 67.5893 233.131 67.312C232.907 67.024 232.736 66.6933 232.619 66.32C232.512 65.9467 232.459 65.5467 232.459 65.12V60.416H233.963V64.608C233.963 64.9173 233.984 65.216 234.027 65.504C234.08 65.7813 234.171 66.0267 234.299 66.24C234.427 66.4533 234.603 66.624 234.827 66.752C235.051 66.88 235.339 66.944 235.691 66.944C236.299 66.944 236.789 66.72 237.163 66.272C237.536 65.8133 237.723 65.2053 237.723 64.448V60.416H239.227V66.368C239.227 66.5707 239.232 66.832 239.243 67.152C239.253 67.472 239.269 67.7547 239.291 68H237.867ZM241.835 62.048C241.835 61.8453 241.83 61.584 241.819 61.264C241.808 60.944 241.792 60.6613 241.771 60.416H243.195C243.216 60.608 243.232 60.832 243.243 61.088C243.254 61.3333 243.259 61.536 243.259 61.696H243.307C243.52 61.248 243.83 60.8907 244.235 60.624C244.651 60.3467 245.115 60.208 245.627 60.208C245.862 60.208 246.059 60.2293 246.219 60.272L246.155 61.664C245.942 61.6107 245.712 61.584 245.467 61.584C245.104 61.584 244.79 61.6533 244.523 61.792C244.256 61.92 244.032 62.096 243.851 62.32C243.68 62.544 243.552 62.8053 243.467 63.104C243.382 63.392 243.339 63.696 243.339 64.016V68H241.835V62.048ZM249.152 68H247.648V60.416H249.152V68ZM249.408 57.68C249.408 57.9573 249.307 58.1867 249.104 58.368C248.912 58.5493 248.677 58.64 248.4 58.64C248.123 58.64 247.888 58.5493 247.696 58.368C247.504 58.176 247.408 57.9467 247.408 57.68C247.408 57.4027 247.504 57.1733 247.696 56.992C247.888 56.8 248.123 56.704 248.4 56.704C248.677 56.704 248.912 56.8 249.104 56.992C249.307 57.1733 249.408 57.4027 249.408 57.68ZM255.485 61.648H253.469V65.6C253.469 66.0587 253.554 66.3893 253.725 66.592C253.895 66.784 254.167 66.88 254.541 66.88C254.679 66.88 254.829 66.864 254.989 66.832C255.149 66.8 255.293 66.752 255.421 66.688L255.469 67.92C255.287 67.984 255.085 68.032 254.861 68.064C254.647 68.1067 254.423 68.128 254.189 68.128C253.474 68.128 252.925 67.9307 252.541 67.536C252.167 67.1413 251.981 66.5493 251.981 65.76V61.648H250.525V60.416H251.981V58.24H253.469V60.416H255.485V61.648ZM258.558 68H257.054V60.416H258.558V68ZM258.814 57.68C258.814 57.9573 258.713 58.1867 258.51 58.368C258.318 58.5493 258.084 58.64 257.806 58.64C257.529 58.64 257.294 58.5493 257.102 58.368C256.91 58.176 256.814 57.9467 256.814 57.68C256.814 57.4027 256.91 57.1733 257.102 56.992C257.294 56.8 257.529 56.704 257.806 56.704C258.084 56.704 258.318 56.8 258.51 56.992C258.713 57.1733 258.814 57.4027 258.814 57.68ZM266.587 61.648L262.267 66.736H266.763V68H260.411V66.768L264.699 61.648H260.619V60.416H266.587V61.648ZM274.121 63.536C274.111 63.2373 274.057 62.96 273.961 62.704C273.876 62.4373 273.743 62.208 273.561 62.016C273.391 61.824 273.172 61.6747 272.905 61.568C272.649 61.4507 272.345 61.392 271.993 61.392C271.673 61.392 271.369 61.4507 271.081 61.568C270.804 61.6747 270.559 61.824 270.345 62.016C270.143 62.208 269.972 62.4373 269.833 62.704C269.705 62.96 269.631 63.2373 269.609 63.536H274.121ZM275.641 64.144C275.641 64.2293 275.641 64.3147 275.641 64.4C275.641 64.4853 275.636 64.5707 275.625 64.656H269.609C269.62 64.976 269.689 65.28 269.817 65.568C269.956 65.8453 270.137 66.0907 270.361 66.304C270.585 66.5067 270.841 66.6667 271.129 66.784C271.428 66.9013 271.743 66.96 272.073 66.96C272.585 66.96 273.028 66.848 273.401 66.624C273.775 66.4 274.068 66.128 274.281 65.808L275.337 66.656C274.932 67.1893 274.452 67.584 273.897 67.84C273.353 68.0853 272.745 68.208 272.073 68.208C271.497 68.208 270.964 68.112 270.473 67.92C269.983 67.728 269.561 67.4613 269.209 67.12C268.857 66.768 268.58 66.3467 268.377 65.856C268.175 65.3653 268.073 64.8213 268.073 64.224C268.073 63.6373 268.169 63.0987 268.361 62.608C268.564 62.1067 268.841 61.68 269.193 61.328C269.545 60.976 269.961 60.704 270.441 60.512C270.921 60.3093 271.439 60.208 271.993 60.208C272.548 60.208 273.049 60.2987 273.497 60.48C273.956 60.6613 274.34 60.9227 274.649 61.264C274.969 61.6053 275.215 62.0213 275.385 62.512C275.556 62.992 275.641 63.536 275.641 64.144ZM283.405 68H281.821V56.672H283.405V68ZM286.165 56.672H290.053C290.778 56.672 291.504 56.7787 292.229 56.992C292.954 57.2053 293.61 57.5413 294.197 58C294.784 58.4587 295.258 59.0453 295.621 59.76C295.984 60.4747 296.165 61.3333 296.165 62.336C296.165 63.3067 295.984 64.1493 295.621 64.864C295.258 65.568 294.784 66.1547 294.197 66.624C293.61 67.0827 292.954 67.4293 292.229 67.664C291.504 67.888 290.778 68 290.053 68H286.165V56.672ZM287.749 66.608H289.733C290.416 66.608 291.045 66.512 291.621 66.32C292.208 66.128 292.709 65.8507 293.125 65.488C293.552 65.1253 293.882 64.6773 294.117 64.144C294.352 63.6107 294.469 63.008 294.469 62.336C294.469 61.632 294.352 61.0133 294.117 60.48C293.882 59.9467 293.552 59.504 293.125 59.152C292.709 58.7893 292.208 58.5173 291.621 58.336C291.045 58.144 290.416 58.048 289.733 58.048H287.749V66.608Z" fill="black"/>
<path d="M251 103C256.523 103 261 98.5228 261 93C261 87.4772 256.523 83 251 83C245.477 83 241 87.4772 241 93C241 98.5228 245.477 103 251 103Z" stroke="black" stroke-width="2" stroke-linecap="round" stroke-linejoin="round"/>
<path d="M381.586 30.768C381.362 30.4587 381.058 30.208 380.674 30.016C380.29 29.8133 379.858 29.712 379.378 29.712C379.122 29.712 378.861 29.7493 378.594 29.824C378.338 29.888 378.103 30 377.89 30.16C377.677 30.3093 377.501 30.5013 377.362 30.736C377.234 30.96 377.17 31.232 377.17 31.552C377.17 31.8613 377.229 32.1227 377.346 32.336C377.474 32.5387 377.639 32.7147 377.842 32.864C378.055 33.0027 378.301 33.1253 378.578 33.232C378.866 33.328 379.17 33.4293 379.49 33.536C379.874 33.6533 380.263 33.7867 380.658 33.936C381.053 34.0853 381.41 34.2827 381.73 34.528C382.05 34.7733 382.311 35.0827 382.514 35.456C382.717 35.8187 382.818 36.2827 382.818 36.848C382.818 37.4347 382.706 37.9467 382.482 38.384C382.269 38.8107 381.981 39.168 381.618 39.456C381.255 39.7333 380.834 39.9413 380.354 40.08C379.885 40.2187 379.399 40.288 378.898 40.288C378.183 40.288 377.49 40.1493 376.818 39.872C376.157 39.5947 375.607 39.184 375.17 38.64L376.402 37.6C376.669 37.9947 377.026 38.3147 377.474 38.56C377.922 38.8053 378.407 38.928 378.93 38.928C379.197 38.928 379.463 38.8907 379.73 38.816C379.997 38.7413 380.237 38.624 380.45 38.464C380.674 38.304 380.855 38.1067 380.994 37.872C381.133 37.6267 381.202 37.3333 381.202 36.992C381.202 36.6507 381.127 36.368 380.978 36.144C380.839 35.9093 380.647 35.712 380.402 35.552C380.157 35.392 379.869 35.2587 379.538 35.152C379.218 35.0347 378.877 34.9173 378.514 34.8C378.151 34.6933 377.794 34.5653 377.442 34.416C377.09 34.256 376.775 34.0587 376.498 33.824C376.221 33.5787 375.997 33.28 375.826 32.928C375.655 32.576 375.57 32.1387 375.57 31.616C375.57 31.0507 375.682 30.5653 375.906 30.16C376.141 29.7547 376.439 29.4187 376.802 29.152C377.175 28.8853 377.591 28.6933 378.05 28.576C378.519 28.448 378.989 28.384 379.458 28.384C380.119 28.384 380.738 28.5013 381.314 28.736C381.89 28.9707 382.354 29.2853 382.706 29.68L381.586 30.768ZM386.504 40H385V32.416H386.504V40ZM386.76 29.68C386.76 29.9573 386.658 30.1867 386.456 30.368C386.264 30.5493 386.029 30.64 385.752 30.64C385.474 30.64 385.24 30.5493 385.048 30.368C384.856 30.176 384.76 29.9467 384.76 29.68C384.76 29.4027 384.856 29.1733 385.048 28.992C385.24 28.8 385.474 28.704 385.752 28.704C386.029 28.704 386.264 28.8 386.456 28.992C386.658 29.1733 386.76 29.4027 386.76 29.68ZM389.716 41.296C390.047 41.6693 390.457 41.968 390.948 42.192C391.449 42.416 391.961 42.528 392.484 42.528C392.985 42.528 393.407 42.4533 393.748 42.304C394.089 42.1653 394.361 41.968 394.564 41.712C394.777 41.4667 394.927 41.1733 395.012 40.832C395.108 40.4907 395.156 40.1227 395.156 39.728V38.752H395.124C394.847 39.1787 394.468 39.504 393.988 39.728C393.508 39.952 392.996 40.064 392.452 40.064C391.876 40.064 391.348 39.9627 390.868 39.76C390.399 39.5573 389.999 39.28 389.668 38.928C389.337 38.576 389.081 38.1653 388.9 37.696C388.719 37.216 388.628 36.704 388.628 36.16C388.628 35.616 388.719 35.104 388.9 34.624C389.081 34.144 389.337 33.728 389.668 33.376C389.999 33.0133 390.399 32.7307 390.868 32.528C391.337 32.3147 391.86 32.208 392.436 32.208C392.98 32.208 393.497 32.3253 393.988 32.56C394.489 32.7947 394.884 33.152 395.172 33.632H395.204V32.416H396.66V39.616C396.66 40.1707 396.591 40.6987 396.452 41.2C396.313 41.712 396.079 42.16 395.748 42.544C395.417 42.9387 394.985 43.2533 394.452 43.488C393.919 43.7227 393.257 43.84 392.468 43.84C391.807 43.84 391.14 43.7173 390.468 43.472C389.807 43.2373 389.236 42.9013 388.756 42.464L389.716 41.296ZM390.18 36.128C390.18 36.48 390.233 36.816 390.34 37.136C390.457 37.456 390.623 37.7387 390.836 37.984C391.06 38.2293 391.327 38.4267 391.636 38.576C391.945 38.7253 392.297 38.8 392.692 38.8C393.076 38.8 393.428 38.7307 393.748 38.592C394.068 38.4533 394.34 38.2667 394.564 38.032C394.788 37.7867 394.959 37.504 395.076 37.184C395.204 36.8533 395.268 36.5013 395.268 36.128C395.268 35.7653 395.204 35.424 395.076 35.104C394.959 34.784 394.783 34.5013 394.548 34.256C394.324 34.0107 394.052 33.8187 393.732 33.68C393.423 33.5307 393.076 33.456 392.692 33.456C392.297 33.456 391.945 33.5307 391.636 33.68C391.327 33.8187 391.06 34.0107 390.836 34.256C390.623 34.4907 390.457 34.7733 390.34 35.104C390.233 35.424 390.18 35.7653 390.18 36.128ZM400.594 32.416C400.615 32.608 400.631 32.8267 400.642 33.072C400.652 33.3067 400.658 33.504 400.658 33.664H400.706C400.802 33.4613 400.93 33.2747 401.09 33.104C401.26 32.9227 401.452 32.768 401.666 32.64C401.879 32.5013 402.114 32.3947 402.37 32.32C402.626 32.2453 402.892 32.208 403.17 32.208C403.66 32.208 404.082 32.2933 404.434 32.464C404.786 32.624 405.079 32.8427 405.314 33.12C405.548 33.3973 405.719 33.7227 405.826 34.096C405.943 34.4693 406.002 34.8693 406.002 35.296V40H404.498V35.792C404.498 35.4827 404.471 35.1893 404.418 34.912C404.375 34.6347 404.29 34.3893 404.162 34.176C404.034 33.9627 403.858 33.792 403.634 33.664C403.41 33.536 403.122 33.472 402.77 33.472C402.172 33.472 401.682 33.7013 401.298 34.16C400.924 34.608 400.738 35.2107 400.738 35.968V40H399.234V34.048C399.234 33.8453 399.228 33.584 399.218 33.264C399.207 32.944 399.191 32.6613 399.17 32.416H400.594ZM416.642 34.336C416.471 34.0587 416.231 33.8347 415.922 33.664C415.613 33.4827 415.266 33.392 414.882 33.392C414.711 33.392 414.541 33.4133 414.37 33.456C414.199 33.488 414.045 33.5467 413.906 33.632C413.778 33.7067 413.671 33.808 413.586 33.936C413.511 34.0533 413.474 34.2027 413.474 34.384C413.474 34.704 413.618 34.944 413.906 35.104C414.194 35.2533 414.626 35.392 415.202 35.52C415.565 35.6053 415.901 35.7067 416.21 35.824C416.519 35.9413 416.786 36.0907 417.01 36.272C417.245 36.4427 417.426 36.6507 417.554 36.896C417.682 37.1413 417.746 37.4293 417.746 37.76C417.746 38.208 417.661 38.5867 417.49 38.896C417.319 39.2053 417.09 39.4613 416.802 39.664C416.525 39.856 416.205 39.9947 415.842 40.08C415.479 40.1653 415.106 40.208 414.722 40.208C414.146 40.208 413.581 40.096 413.026 39.872C412.482 39.648 412.029 39.3067 411.666 38.848L412.738 37.936C412.941 38.2347 413.218 38.4853 413.57 38.688C413.933 38.8907 414.327 38.992 414.754 38.992C414.946 38.992 415.127 38.976 415.298 38.944C415.479 38.9013 415.639 38.8373 415.778 38.752C415.927 38.6667 416.045 38.5547 416.13 38.416C416.215 38.2773 416.258 38.1013 416.258 37.888C416.258 37.536 416.087 37.2747 415.746 37.104C415.415 36.9333 414.925 36.7733 414.274 36.624C414.018 36.56 413.757 36.4853 413.49 36.4C413.234 36.304 412.999 36.176 412.786 36.016C412.573 35.856 412.397 35.6587 412.258 35.424C412.13 35.1787 412.066 34.88 412.066 34.528C412.066 34.1227 412.146 33.776 412.306 33.488C412.477 33.1893 412.695 32.9493 412.962 32.768C413.229 32.576 413.533 32.4373 413.874 32.352C414.215 32.256 414.567 32.208 414.93 32.208C415.474 32.208 415.997 32.3147 416.498 32.528C417.01 32.7413 417.405 33.0507 417.682 33.456L416.642 34.336ZM424.999 40C424.978 39.808 424.962 39.5947 424.951 39.36C424.941 39.1147 424.935 38.912 424.935 38.752H424.903C424.711 39.1573 424.386 39.504 423.927 39.792C423.479 40.0693 422.978 40.208 422.423 40.208C421.933 40.208 421.506 40.128 421.143 39.968C420.791 39.808 420.498 39.5893 420.263 39.312C420.039 39.024 419.869 38.6933 419.751 38.32C419.645 37.9467 419.591 37.5467 419.591 37.12V32.416H421.095V36.608C421.095 36.9173 421.117 37.216 421.159 37.504C421.213 37.7813 421.303 38.0267 421.431 38.24C421.559 38.4533 421.735 38.624 421.959 38.752C422.183 38.88 422.471 38.944 422.823 38.944C423.431 38.944 423.922 38.72 424.295 38.272C424.669 37.8133 424.855 37.2053 424.855 36.448V32.416H426.359V38.368C426.359 38.5707 426.365 38.832 426.375 39.152C426.386 39.472 426.402 39.7547 426.423 40H424.999ZM430.456 38.8V40H429V27.904H430.504V33.552H430.552C430.808 33.1787 431.165 32.864 431.624 32.608C432.083 32.3413 432.627 32.208 433.256 32.208C433.821 32.208 434.333 32.3093 434.792 32.512C435.261 32.7147 435.661 32.9973 435.992 33.36C436.333 33.7227 436.595 34.1493 436.776 34.64C436.957 35.12 437.048 35.6373 437.048 36.192C437.048 36.7467 436.957 37.2693 436.776 37.76C436.595 38.2507 436.339 38.6773 436.008 39.04C435.677 39.4027 435.277 39.6907 434.808 39.904C434.339 40.1067 433.811 40.208 433.224 40.208C432.68 40.208 432.163 40.0907 431.672 39.856C431.181 39.6107 430.787 39.2587 430.488 38.8H430.456ZM435.496 36.192C435.496 35.84 435.443 35.4987 435.336 35.168C435.229 34.8373 435.069 34.544 434.856 34.288C434.643 34.032 434.376 33.8293 434.056 33.68C433.747 33.5307 433.384 33.456 432.968 33.456C432.584 33.456 432.232 33.5307 431.912 33.68C431.603 33.8293 431.336 34.032 431.112 34.288C430.888 34.544 430.712 34.8373 430.584 35.168C430.467 35.4987 430.408 35.8453 430.408 36.208C430.408 36.5707 430.467 36.9173 430.584 37.248C430.712 37.5787 430.888 37.872 431.112 38.128C431.336 38.3733 431.603 38.5707 431.912 38.72C432.232 38.8693 432.584 38.944 432.968 38.944C433.384 38.944 433.747 38.8693 434.056 38.72C434.376 38.56 434.643 38.352 434.856 38.096C435.069 37.84 435.229 37.5467 435.336 37.216C435.443 36.8853 435.496 36.544 435.496 36.192ZM443.236 34.336C443.065 34.0587 442.825 33.8347 442.516 33.664C442.206 33.4827 441.86 33.392 441.476 33.392C441.305 33.392 441.134 33.4133 440.964 33.456C440.793 33.488 440.638 33.5467 440.5 33.632C440.372 33.7067 440.265 33.808 440.18 33.936C440.105 34.0533 440.068 34.2027 440.068 34.384C440.068 34.704 440.212 34.944 440.5 35.104C440.788 35.2533 441.22 35.392 441.796 35.52C442.158 35.6053 442.494 35.7067 442.804 35.824C443.113 35.9413 443.38 36.0907 443.604 36.272C443.838 36.4427 444.02 36.6507 444.148 36.896C444.276 37.1413 444.34 37.4293 444.34 37.76C444.34 38.208 444.254 38.5867 444.084 38.896C443.913 39.2053 443.684 39.4613 443.396 39.664C443.118 39.856 442.798 39.9947 442.436 40.08C442.073 40.1653 441.7 40.208 441.316 40.208C440.74 40.208 440.174 40.096 439.62 39.872C439.076 39.648 438.622 39.3067 438.26 38.848L439.332 37.936C439.534 38.2347 439.812 38.4853 440.164 38.688C440.526 38.8907 440.921 38.992 441.348 38.992C441.54 38.992 441.721 38.976 441.892 38.944C442.073 38.9013 442.233 38.8373 442.372 38.752C442.521 38.6667 442.638 38.5547 442.724 38.416C442.809 38.2773 442.852 38.1013 442.852 37.888C442.852 37.536 442.681 37.2747 442.34 37.104C442.009 36.9333 441.518 36.7733 440.868 36.624C440.612 36.56 440.35 36.4853 440.084 36.4C439.828 36.304 439.593 36.176 439.38 36.016C439.166 35.856 438.99 35.6587 438.852 35.424C438.724 35.1787 438.66 34.88 438.66 34.528C438.66 34.1227 438.74 33.776 438.9 33.488C439.07 33.1893 439.289 32.9493 439.556 32.768C439.822 32.576 440.126 32.4373 440.468 32.352C440.809 32.256 441.161 32.208 441.524 32.208C442.068 32.208 442.59 32.3147 443.092 32.528C443.604 32.7413 443.998 33.0507 444.276 33.456L443.236 34.336ZM451.561 34.336C451.401 34.0907 451.161 33.888 450.841 33.728C450.521 33.5573 450.18 33.472 449.817 33.472C449.422 33.472 449.07 33.5467 448.761 33.696C448.462 33.8453 448.206 34.048 447.993 34.304C447.78 34.5493 447.614 34.8373 447.497 35.168C447.39 35.4987 447.337 35.8453 447.337 36.208C447.337 36.5707 447.39 36.9173 447.497 37.248C447.614 37.5787 447.78 37.872 447.993 38.128C448.206 38.3733 448.468 38.5707 448.777 38.72C449.086 38.8693 449.438 38.944 449.833 38.944C450.217 38.944 450.564 38.8693 450.873 38.72C451.193 38.5707 451.454 38.368 451.657 38.112L452.665 39.024C452.345 39.3973 451.945 39.6907 451.465 39.904C450.985 40.1067 450.441 40.208 449.833 40.208C449.246 40.208 448.702 40.112 448.201 39.92C447.71 39.728 447.284 39.4613 446.921 39.12C446.558 38.768 446.27 38.3467 446.057 37.856C445.854 37.3653 445.753 36.816 445.753 36.208C445.753 35.6107 445.854 35.0667 446.057 34.576C446.26 34.0853 446.542 33.664 446.905 33.312C447.268 32.96 447.694 32.688 448.185 32.496C448.686 32.304 449.225 32.208 449.801 32.208C450.334 32.208 450.862 32.3147 451.385 32.528C451.918 32.7413 452.34 33.0507 452.649 33.456L451.561 34.336ZM454.155 34.048C454.155 33.8453 454.15 33.584 454.139 33.264C454.129 32.944 454.113 32.6613 454.091 32.416H455.515C455.537 32.608 455.553 32.832 455.563 33.088C455.574 33.3333 455.579 33.536 455.579 33.696H455.627C455.841 33.248 456.15 32.8907 456.555 32.624C456.971 32.3467 457.435 32.208 457.947 32.208C458.182 32.208 458.379 32.2293 458.539 32.272L458.475 33.664C458.262 33.6107 458.033 33.584 457.787 33.584C457.425 33.584 457.11 33.6533 456.843 33.792C456.577 33.92 456.353 34.096 456.171 34.32C456.001 34.544 455.873 34.8053 455.787 35.104C455.702 35.392 455.659 35.696 455.659 36.016V40H454.155V34.048ZM461.472 40H459.968V32.416H461.472V40ZM461.728 29.68C461.728 29.9573 461.627 30.1867 461.424 30.368C461.232 30.5493 460.998 30.64 460.72 30.64C460.443 30.64 460.208 30.5493 460.016 30.368C459.824 30.176 459.728 29.9467 459.728 29.68C459.728 29.4027 459.824 29.1733 460.016 28.992C460.208 28.8 460.443 28.704 460.72 28.704C460.998 28.704 461.232 28.8 461.424 28.992C461.627 29.1733 461.728 29.4027 461.728 29.68ZM465.597 43.84H464.093V32.416H465.565V33.6H465.613C465.858 33.1947 466.216 32.864 466.685 32.608C467.165 32.3413 467.72 32.208 468.349 32.208C468.914 32.208 469.426 32.3093 469.885 32.512C470.354 32.7147 470.754 32.9973 471.085 33.36C471.426 33.7227 471.688 34.1493 471.869 34.64C472.05 35.12 472.141 35.6373 472.141 36.192C472.141 36.7467 472.05 37.2693 471.869 37.76C471.688 38.2507 471.432 38.6773 471.101 39.04C470.77 39.4027 470.37 39.6907 469.901 39.904C469.432 40.1067 468.904 40.208 468.317 40.208C467.773 40.208 467.261 40.0907 466.781 39.856C466.301 39.6213 465.922 39.2907 465.645 38.864H465.597V43.84ZM470.589 36.192C470.589 35.84 470.536 35.4987 470.429 35.168C470.322 34.8373 470.162 34.544 469.949 34.288C469.736 34.032 469.469 33.8293 469.149 33.68C468.84 33.5307 468.477 33.456 468.061 33.456C467.677 33.456 467.325 33.5307 467.005 33.68C466.696 33.8293 466.429 34.032 466.205 34.288C465.981 34.544 465.805 34.8373 465.677 35.168C465.56 35.4987 465.501 35.8453 465.501 36.208C465.501 36.5707 465.56 36.9173 465.677 37.248C465.805 37.5787 465.981 37.872 466.205 38.128C466.429 38.3733 466.696 38.5707 467.005 38.72C467.325 38.8693 467.677 38.944 468.061 38.944C468.477 38.944 468.84 38.8693 469.149 38.72C469.469 38.56 469.736 38.352 469.949 38.096C470.162 37.84 470.322 37.5467 470.429 37.216C470.536 36.8853 470.589 36.544 470.589 36.192ZM477.946 33.648H475.93V37.6C475.93 38.0587 476.015 38.3893 476.186 38.592C476.356 38.784 476.628 38.88 477.002 38.88C477.14 38.88 477.29 38.864 477.45 38.832C477.61 38.8 477.754 38.752 477.882 38.688L477.93 39.92C477.748 39.984 477.546 40.032 477.322 40.064C477.108 40.1067 476.884 40.128 476.65 40.128C475.935 40.128 475.386 39.9307 475.002 39.536C474.628 39.1413 474.442 38.5493 474.442 37.76V33.648H472.986V32.416H474.442V30.24H475.93V32.416H477.946V33.648ZM481.019 40H479.515V32.416H481.019V40ZM481.275 29.68C481.275 29.9573 481.174 30.1867 480.971 30.368C480.779 30.5493 480.544 30.64 480.267 30.64C479.99 30.64 479.755 30.5493 479.563 30.368C479.371 30.176 479.275 29.9467 479.275 29.68C479.275 29.4027 479.371 29.1733 479.563 28.992C479.755 28.8 479.99 28.704 480.267 28.704C480.544 28.704 480.779 28.8 480.971 28.992C481.174 29.1733 481.275 29.4027 481.275 29.68ZM491.32 36.192C491.32 36.7787 491.213 37.3173 491 37.808C490.797 38.2987 490.509 38.7253 490.136 39.088C489.773 39.44 489.341 39.7173 488.84 39.92C488.338 40.112 487.8 40.208 487.224 40.208C486.648 40.208 486.109 40.112 485.608 39.92C485.106 39.7173 484.674 39.44 484.312 39.088C483.949 38.7253 483.661 38.2987 483.448 37.808C483.245 37.3173 483.144 36.7787 483.144 36.192C483.144 35.6053 483.245 35.072 483.448 34.592C483.661 34.1013 483.949 33.68 484.312 33.328C484.674 32.976 485.106 32.704 485.608 32.512C486.109 32.3093 486.648 32.208 487.224 32.208C487.8 32.208 488.338 32.3093 488.84 32.512C489.341 32.704 489.773 32.976 490.136 33.328C490.509 33.68 490.797 34.1013 491 34.592C491.213 35.072 491.32 35.6053 491.32 36.192ZM489.752 36.192C489.752 35.8293 489.693 35.4827 489.576 35.152C489.469 34.8213 489.309 34.5333 489.096 34.288C488.882 34.032 488.616 33.8293 488.296 33.68C487.986 33.5307 487.629 33.456 487.224 33.456C486.818 33.456 486.456 33.5307 486.136 33.68C485.826 33.8293 485.565 34.032 485.352 34.288C485.138 34.5333 484.973 34.8213 484.856 35.152C484.749 35.4827 484.696 35.8293 484.696 36.192C484.696 36.5547 484.749 36.9013 484.856 37.232C484.973 37.5627 485.138 37.856 485.352 38.112C485.565 38.368 485.826 38.5707 486.136 38.72C486.456 38.8693 486.818 38.944 487.224 38.944C487.629 38.944 487.986 38.8693 488.296 38.72C488.616 38.5707 488.882 38.368 489.096 38.112C489.309 37.856 489.469 37.5627 489.576 37.232C489.693 36.9013 489.752 36.5547 489.752 36.192ZM494.765 32.416C494.787 32.608 494.803 32.8267 494.813 33.072C494.824 33.3067 494.829 33.504 494.829 33.664H494.877C494.973 33.4613 495.101 33.2747 495.261 33.104C495.432 32.9227 495.624 32.768 495.837 32.64C496.051 32.5013 496.285 32.3947 496.541 32.32C496.797 32.2453 497.064 32.208 497.341 32.208C497.832 32.208 498.253 32.2933 498.605 32.464C498.957 32.624 499.251 32.8427 499.485 33.12C499.72 33.3973 499.891 33.7227 499.997 34.096C500.115 34.4693 500.173 34.8693 500.173 35.296V40H498.669V35.792C498.669 35.4827 498.643 35.1893 498.589 34.912C498.547 34.6347 498.461 34.3893 498.333 34.176C498.205 33.9627 498.029 33.792 497.805 33.664C497.581 33.536 497.293 33.472 496.941 33.472C496.344 33.472 495.853 33.7013 495.469 34.16C495.096 34.608 494.909 35.2107 494.909 35.968V40H493.405V34.048C493.405 33.8453 493.4 33.584 493.389 33.264C493.379 32.944 493.363 32.6613 493.341 32.416H494.765ZM403.727 63.088C403.727 62.5227 403.556 62.1067 403.215 61.84C402.874 61.5627 402.42 61.424 401.855 61.424C401.428 61.424 401.023 61.5093 400.639 61.68C400.266 61.84 399.951 62.048 399.695 62.304L398.895 61.344C399.268 60.992 399.722 60.7147 400.255 60.512C400.799 60.3093 401.38 60.208 401.999 60.208C402.543 60.208 403.012 60.288 403.407 60.448C403.812 60.5973 404.143 60.8053 404.399 61.072C404.655 61.3387 404.847 61.6533 404.975 62.016C405.103 62.3787 405.167 62.768 405.167 63.184V66.496C405.167 66.752 405.172 67.024 405.183 67.312C405.204 67.5893 405.236 67.8187 405.279 68H403.919C403.834 67.6373 403.791 67.2747 403.791 66.912H403.743C403.466 67.3173 403.114 67.632 402.687 67.856C402.271 68.08 401.775 68.192 401.199 68.192C400.9 68.192 400.586 68.1493 400.255 68.064C399.935 67.9893 399.642 67.8613 399.375 67.68C399.108 67.4987 398.884 67.2587 398.703 66.96C398.532 66.6613 398.447 66.2933 398.447 65.856C398.447 65.28 398.602 64.8267 398.911 64.496C399.22 64.1547 399.626 63.8987 400.127 63.728C400.628 63.5467 401.194 63.4293 401.823 63.376C402.452 63.3227 403.087 63.296 403.727 63.296V63.088ZM403.359 64.384C402.986 64.384 402.596 64.4 402.191 64.432C401.796 64.464 401.434 64.528 401.103 64.624C400.783 64.72 400.516 64.864 400.303 65.056C400.09 65.248 399.983 65.504 399.983 65.824C399.983 66.048 400.026 66.2347 400.111 66.384C400.207 66.5333 400.33 66.656 400.479 66.752C400.628 66.848 400.794 66.9173 400.975 66.96C401.156 66.992 401.343 67.008 401.535 67.008C402.239 67.008 402.778 66.8 403.151 66.384C403.535 65.9573 403.727 65.424 403.727 64.784V64.384H403.359ZM408.271 69.296C408.601 69.6693 409.012 69.968 409.503 70.192C410.004 70.416 410.516 70.528 411.039 70.528C411.54 70.528 411.961 70.4533 412.303 70.304C412.644 70.1653 412.916 69.968 413.119 69.712C413.332 69.4667 413.481 69.1733 413.567 68.832C413.663 68.4907 413.711 68.1227 413.711 67.728V66.752H413.679C413.401 67.1787 413.023 67.504 412.543 67.728C412.063 67.952 411.551 68.064 411.007 68.064C410.431 68.064 409.903 67.9627 409.423 67.76C408.953 67.5573 408.553 67.28 408.223 66.928C407.892 66.576 407.636 66.1653 407.455 65.696C407.273 65.216 407.183 64.704 407.183 64.16C407.183 63.616 407.273 63.104 407.455 62.624C407.636 62.144 407.892 61.728 408.223 61.376C408.553 61.0133 408.953 60.7307 409.423 60.528C409.892 60.3147 410.415 60.208 410.991 60.208C411.535 60.208 412.052 60.3253 412.543 60.56C413.044 60.7947 413.439 61.152 413.727 61.632H413.759V60.416H415.215V67.616C415.215 68.1707 415.145 68.6987 415.007 69.2C414.868 69.712 414.633 70.16 414.303 70.544C413.972 70.9387 413.54 71.2533 413.007 71.488C412.473 71.7227 411.812 71.84 411.023 71.84C410.361 71.84 409.695 71.7173 409.023 71.472C408.361 71.2373 407.791 70.9013 407.311 70.464L408.271 69.296ZM408.735 64.128C408.735 64.48 408.788 64.816 408.895 65.136C409.012 65.456 409.177 65.7387 409.391 65.984C409.615 66.2293 409.881 66.4267 410.191 66.576C410.5 66.7253 410.852 66.8 411.247 66.8C411.631 66.8 411.983 66.7307 412.303 66.592C412.623 66.4533 412.895 66.2667 413.119 66.032C413.343 65.7867 413.513 65.504 413.631 65.184C413.759 64.8533 413.823 64.5013 413.823 64.128C413.823 63.7653 413.759 63.424 413.631 63.104C413.513 62.784 413.337 62.5013 413.103 62.256C412.879 62.0107 412.607 61.8187 412.287 61.68C411.977 61.5307 411.631 61.456 411.247 61.456C410.852 61.456 410.5 61.5307 410.191 61.68C409.881 61.8187 409.615 62.0107 409.391 62.256C409.177 62.4907 409.012 62.7733 408.895 63.104C408.788 63.424 408.735 63.7653 408.735 64.128ZM417.788 62.048C417.788 61.8453 417.783 61.584 417.772 61.264C417.762 60.944 417.746 60.6613 417.724 60.416H419.148C419.17 60.608 419.186 60.832 419.196 61.088C419.207 61.3333 419.212 61.536 419.212 61.696H419.26C419.474 61.248 419.783 60.8907 420.188 60.624C420.604 60.3467 421.068 60.208 421.58 60.208C421.815 60.208 422.012 60.2293 422.172 60.272L422.108 61.664C421.895 61.6107 421.666 61.584 421.42 61.584C421.058 61.584 420.743 61.6533 420.476 61.792C420.21 61.92 419.986 62.096 419.804 62.32C419.634 62.544 419.506 62.8053 419.42 63.104C419.335 63.392 419.292 63.696 419.292 64.016V68H417.788V62.048ZM428.856 63.536C428.845 63.2373 428.792 62.96 428.696 62.704C428.61 62.4373 428.477 62.208 428.296 62.016C428.125 61.824 427.906 61.6747 427.64 61.568C427.384 61.4507 427.08 61.392 426.728 61.392C426.408 61.392 426.104 61.4507 425.816 61.568C425.538 61.6747 425.293 61.824 425.08 62.016C424.877 62.208 424.706 62.4373 424.568 62.704C424.44 62.96 424.365 63.2373 424.344 63.536H428.856ZM430.376 64.144C430.376 64.2293 430.376 64.3147 430.376 64.4C430.376 64.4853 430.37 64.5707 430.36 64.656H424.344C424.354 64.976 424.424 65.28 424.552 65.568C424.69 65.8453 424.872 66.0907 425.096 66.304C425.32 66.5067 425.576 66.6667 425.864 66.784C426.162 66.9013 426.477 66.96 426.808 66.96C427.32 66.96 427.762 66.848 428.136 66.624C428.509 66.4 428.802 66.128 429.016 65.808L430.072 66.656C429.666 67.1893 429.186 67.584 428.632 67.84C428.088 68.0853 427.48 68.208 426.808 68.208C426.232 68.208 425.698 68.112 425.208 67.92C424.717 67.728 424.296 67.4613 423.944 67.12C423.592 66.768 423.314 66.3467 423.112 65.856C422.909 65.3653 422.808 64.8213 422.808 64.224C422.808 63.6373 422.904 63.0987 423.096 62.608C423.298 62.1067 423.576 61.68 423.928 61.328C424.28 60.976 424.696 60.704 425.176 60.512C425.656 60.3093 426.173 60.208 426.728 60.208C427.282 60.208 427.784 60.2987 428.232 60.48C428.69 60.6613 429.074 60.9227 429.384 61.264C429.704 61.6053 429.949 62.0213 430.12 62.512C430.29 62.992 430.376 63.536 430.376 64.144ZM438.028 63.536C438.017 63.2373 437.964 62.96 437.868 62.704C437.782 62.4373 437.649 62.208 437.468 62.016C437.297 61.824 437.078 61.6747 436.812 61.568C436.556 61.4507 436.252 61.392 435.9 61.392C435.58 61.392 435.276 61.4507 434.988 61.568C434.71 61.6747 434.465 61.824 434.252 62.016C434.049 62.208 433.878 62.4373 433.74 62.704C433.612 62.96 433.537 63.2373 433.516 63.536H438.028ZM439.548 64.144C439.548 64.2293 439.548 64.3147 439.548 64.4C439.548 64.4853 439.542 64.5707 439.532 64.656H433.516C433.526 64.976 433.596 65.28 433.724 65.568C433.862 65.8453 434.044 66.0907 434.268 66.304C434.492 66.5067 434.748 66.6667 435.036 66.784C435.334 66.9013 435.649 66.96 435.98 66.96C436.492 66.96 436.934 66.848 437.308 66.624C437.681 66.4 437.974 66.128 438.188 65.808L439.244 66.656C438.838 67.1893 438.358 67.584 437.804 67.84C437.26 68.0853 436.652 68.208 435.98 68.208C435.404 68.208 434.87 68.112 434.38 67.92C433.889 67.728 433.468 67.4613 433.116 67.12C432.764 66.768 432.486 66.3467 432.284 65.856C432.081 65.3653 431.98 64.8213 431.98 64.224C431.98 63.6373 432.076 63.0987 432.268 62.608C432.47 62.1067 432.748 61.68 433.1 61.328C433.452 60.976 433.868 60.704 434.348 60.512C434.828 60.3093 435.345 60.208 435.9 60.208C436.454 60.208 436.956 60.2987 437.404 60.48C437.862 60.6613 438.246 60.9227 438.556 61.264C438.876 61.6053 439.121 62.0213 439.292 62.512C439.462 62.992 439.548 63.536 439.548 64.144ZM443.12 61.664C443.312 61.2587 443.616 60.9173 444.032 60.64C444.458 60.352 444.96 60.208 445.536 60.208C446.048 60.208 446.506 60.3253 446.912 60.56C447.328 60.7947 447.653 61.184 447.888 61.728C448.144 61.2373 448.501 60.864 448.96 60.608C449.418 60.3413 449.92 60.208 450.464 60.208C450.954 60.208 451.376 60.2933 451.728 60.464C452.08 60.624 452.373 60.8427 452.608 61.12C452.842 61.3973 453.013 61.7227 453.12 62.096C453.237 62.4693 453.296 62.8693 453.296 63.296V68H451.792V63.792C451.792 63.4827 451.765 63.1893 451.712 62.912C451.658 62.6347 451.568 62.3893 451.44 62.176C451.312 61.9627 451.141 61.792 450.928 61.664C450.714 61.536 450.442 61.472 450.112 61.472C449.77 61.472 449.477 61.5467 449.232 61.696C448.986 61.8347 448.784 62.0213 448.624 62.256C448.474 62.48 448.362 62.736 448.288 63.024C448.224 63.312 448.192 63.6053 448.192 63.904V68H446.688V63.488C446.688 63.1893 446.661 62.9173 446.608 62.672C446.554 62.4267 446.464 62.2187 446.336 62.048C446.208 61.8667 446.042 61.728 445.84 61.632C445.637 61.5253 445.386 61.472 445.088 61.472C444.533 61.472 444.069 61.7013 443.696 62.16C443.333 62.608 443.152 63.2107 443.152 63.968V68H441.648V62.048C441.648 61.8453 441.642 61.584 441.632 61.264C441.621 60.944 441.605 60.6613 441.584 60.416H443.008C443.029 60.608 443.045 60.8267 443.056 61.072C443.066 61.3067 443.072 61.504 443.072 61.664H443.12ZM461.387 63.536C461.376 63.2373 461.323 62.96 461.227 62.704C461.142 62.4373 461.008 62.208 460.827 62.016C460.656 61.824 460.438 61.6747 460.171 61.568C459.915 61.4507 459.611 61.392 459.259 61.392C458.939 61.392 458.635 61.4507 458.347 61.568C458.07 61.6747 457.824 61.824 457.611 62.016C457.408 62.208 457.238 62.4373 457.099 62.704C456.971 62.96 456.896 63.2373 456.875 63.536H461.387ZM462.907 64.144C462.907 64.2293 462.907 64.3147 462.907 64.4C462.907 64.4853 462.902 64.5707 462.891 64.656H456.875C456.886 64.976 456.955 65.28 457.083 65.568C457.222 65.8453 457.403 66.0907 457.627 66.304C457.851 66.5067 458.107 66.6667 458.395 66.784C458.694 66.9013 459.008 66.96 459.339 66.96C459.851 66.96 460.294 66.848 460.667 66.624C461.04 66.4 461.334 66.128 461.547 65.808L462.603 66.656C462.198 67.1893 461.718 67.584 461.163 67.84C460.619 68.0853 460.011 68.208 459.339 68.208C458.763 68.208 458.23 68.112 457.739 67.92C457.248 67.728 456.827 67.4613 456.475 67.12C456.123 66.768 455.846 66.3467 455.643 65.856C455.44 65.3653 455.339 64.8213 455.339 64.224C455.339 63.6373 455.435 63.0987 455.627 62.608C455.83 62.1067 456.107 61.68 456.459 61.328C456.811 60.976 457.227 60.704 457.707 60.512C458.187 60.3093 458.704 60.208 459.259 60.208C459.814 60.208 460.315 60.2987 460.763 60.48C461.222 60.6613 461.606 60.9227 461.915 61.264C462.235 61.6053 462.48 62.0213 462.651 62.512C462.822 62.992 462.907 63.536 462.907 64.144ZM466.367 60.416C466.388 60.608 466.404 60.8267 466.415 61.072C466.426 61.3067 466.431 61.504 466.431 61.664H466.479C466.575 61.4613 466.703 61.2747 466.863 61.104C467.034 60.9227 467.226 60.768 467.439 60.64C467.652 60.5013 467.887 60.3947 468.143 60.32C468.399 60.2453 468.666 60.208 468.943 60.208C469.434 60.208 469.855 60.2933 470.207 60.464C470.559 60.624 470.852 60.8427 471.087 61.12C471.322 61.3973 471.492 61.7227 471.599 62.096C471.716 62.4693 471.775 62.8693 471.775 63.296V68H470.271V63.792C470.271 63.4827 470.244 63.1893 470.191 62.912C470.148 62.6347 470.063 62.3893 469.935 62.176C469.807 61.9627 469.631 61.792 469.407 61.664C469.183 61.536 468.895 61.472 468.543 61.472C467.946 61.472 467.455 61.7013 467.071 62.16C466.698 62.608 466.511 63.2107 466.511 63.968V68H465.007V62.048C465.007 61.8453 465.002 61.584 464.991 61.264C464.98 60.944 464.964 60.6613 464.943 60.416H466.367ZM478.031 61.648H476.015V65.6C476.015 66.0587 476.101 66.3893 476.271 66.592C476.442 66.784 476.714 66.88 477.087 66.88C477.226 66.88 477.375 66.864 477.535 66.832C477.695 66.8 477.839 66.752 477.967 66.688L478.015 67.92C477.834 67.984 477.631 68.032 477.407 68.064C477.194 68.1067 476.97 68.128 476.735 68.128C476.021 68.128 475.471 67.9307 475.087 67.536C474.714 67.1413 474.527 66.5493 474.527 65.76V61.648H473.071V60.416H474.527V58.24H476.015V60.416H478.031V61.648Z" fill="black"/>
<path d="M438 103C443.523 103 448 98.5228 448 93C448 87.4772 443.523 83 438 83C432.477 83 428 87.4772 428 93C428 98.5228 432.477 103 438 103Z" stroke="black" stroke-width="2" stroke-linecap="round" stroke-linejoin="round"/>
<path d="M569.53 40H567.946V28.672H569.53V40ZM573.57 32.416C573.591 32.608 573.607 32.8267 573.618 33.072C573.629 33.3067 573.634 33.504 573.634 33.664H573.682C573.778 33.4613 573.906 33.2747 574.066 33.104C574.237 32.9227 574.429 32.768 574.642 32.64C574.855 32.5013 575.09 32.3947 575.346 32.32C575.602 32.2453 575.869 32.208 576.146 32.208C576.637 32.208 577.058 32.2933 577.41 32.464C577.762 32.624 578.055 32.8427 578.29 33.12C578.525 33.3973 578.695 33.7227 578.802 34.096C578.919 34.4693 578.978 34.8693 578.978 35.296V40H577.474V35.792C577.474 35.4827 577.447 35.1893 577.394 34.912C577.351 34.6347 577.266 34.3893 577.138 34.176C577.01 33.9627 576.834 33.792 576.61 33.664C576.386 33.536 576.098 33.472 575.746 33.472C575.149 33.472 574.658 33.7013 574.274 34.16C573.901 34.608 573.714 35.2107 573.714 35.968V40H572.21V34.048C572.21 33.8453 572.205 33.584 572.194 33.264C572.183 32.944 572.167 32.6613 572.146 32.416H573.57ZM585.091 40H583.459L580.371 32.416H582.035L584.259 38.384H584.291L586.531 32.416H588.131L585.091 40ZM595.137 35.536C595.126 35.2373 595.073 34.96 594.977 34.704C594.892 34.4373 594.758 34.208 594.577 34.016C594.406 33.824 594.188 33.6747 593.921 33.568C593.665 33.4507 593.361 33.392 593.009 33.392C592.689 33.392 592.385 33.4507 592.097 33.568C591.82 33.6747 591.574 33.824 591.361 34.016C591.158 34.208 590.988 34.4373 590.849 34.704C590.721 34.96 590.646 35.2373 590.625 35.536H595.137ZM596.657 36.144C596.657 36.2293 596.657 36.3147 596.657 36.4C596.657 36.4853 596.652 36.5707 596.641 36.656H590.625C590.636 36.976 590.705 37.28 590.833 37.568C590.972 37.8453 591.153 38.0907 591.377 38.304C591.601 38.5067 591.857 38.6667 592.145 38.784C592.444 38.9013 592.758 38.96 593.089 38.96C593.601 38.96 594.044 38.848 594.417 38.624C594.79 38.4 595.084 38.128 595.297 37.808L596.353 38.656C595.948 39.1893 595.468 39.584 594.913 39.84C594.369 40.0853 593.761 40.208 593.089 40.208C592.513 40.208 591.98 40.112 591.489 39.92C590.998 39.728 590.577 39.4613 590.225 39.12C589.873 38.768 589.596 38.3467 589.393 37.856C589.19 37.3653 589.089 36.8213 589.089 36.224C589.089 35.6373 589.185 35.0987 589.377 34.608C589.58 34.1067 589.857 33.68 590.209 33.328C590.561 32.976 590.977 32.704 591.457 32.512C591.937 32.3093 592.454 32.208 593.009 32.208C593.564 32.208 594.065 32.2987 594.513 32.48C594.972 32.6613 595.356 32.9227 595.665 33.264C595.985 33.6053 596.23 34.0213 596.401 34.512C596.572 34.992 596.657 35.536 596.657 36.144ZM602.853 34.336C602.682 34.0587 602.442 33.8347 602.133 33.664C601.824 33.4827 601.477 33.392 601.093 33.392C600.922 33.392 600.752 33.4133 600.581 33.456C600.41 33.488 600.256 33.5467 600.117 33.632C599.989 33.7067 599.882 33.808 599.797 33.936C599.722 34.0533 599.685 34.2027 599.685 34.384C599.685 34.704 599.829 34.944 600.117 35.104C600.405 35.2533 600.837 35.392 601.413 35.52C601.776 35.6053 602.112 35.7067 602.421 35.824C602.73 35.9413 602.997 36.0907 603.221 36.272C603.456 36.4427 603.637 36.6507 603.765 36.896C603.893 37.1413 603.957 37.4293 603.957 37.76C603.957 38.208 603.872 38.5867 603.701 38.896C603.53 39.2053 603.301 39.4613 603.013 39.664C602.736 39.856 602.416 39.9947 602.053 40.08C601.69 40.1653 601.317 40.208 600.933 40.208C600.357 40.208 599.792 40.096 599.237 39.872C598.693 39.648 598.24 39.3067 597.877 38.848L598.949 37.936C599.152 38.2347 599.429 38.4853 599.781 38.688C600.144 38.8907 600.538 38.992 600.965 38.992C601.157 38.992 601.338 38.976 601.509 38.944C601.69 38.9013 601.85 38.8373 601.989 38.752C602.138 38.6667 602.256 38.5547 602.341 38.416C602.426 38.2773 602.469 38.1013 602.469 37.888C602.469 37.536 602.298 37.2747 601.957 37.104C601.626 36.9333 601.136 36.7733 600.485 36.624C600.229 36.56 599.968 36.4853 599.701 36.4C599.445 36.304 599.21 36.176 598.997 36.016C598.784 35.856 598.608 35.6587 598.469 35.424C598.341 35.1787 598.277 34.88 598.277 34.528C598.277 34.1227 598.357 33.776 598.517 33.488C598.688 33.1893 598.906 32.9493 599.173 32.768C599.44 32.576 599.744 32.4373 600.085 32.352C600.426 32.256 600.778 32.208 601.141 32.208C601.685 32.208 602.208 32.3147 602.709 32.528C603.221 32.7413 603.616 33.0507 603.893 33.456L602.853 34.336ZM609.578 33.648H607.562V37.6C607.562 38.0587 607.648 38.3893 607.818 38.592C607.989 38.784 608.261 38.88 608.634 38.88C608.773 38.88 608.922 38.864 609.082 38.832C609.242 38.8 609.386 38.752 609.514 38.688L609.562 39.92C609.381 39.984 609.178 40.032 608.954 40.064C608.741 40.1067 608.517 40.128 608.282 40.128C607.568 40.128 607.018 39.9307 606.634 39.536C606.261 39.1413 606.074 38.5493 606.074 37.76V33.648H604.618V32.416H606.074V30.24H607.562V32.416H609.578V33.648ZM616.652 40H615.148V32.416H616.652V40ZM616.908 29.68C616.908 29.9573 616.807 30.1867 616.604 30.368C616.412 30.5493 616.177 30.64 615.9 30.64C615.623 30.64 615.388 30.5493 615.196 30.368C615.004 30.176 614.908 29.9467 614.908 29.68C614.908 29.4027 615.004 29.1733 615.196 28.992C615.388 28.8 615.623 28.704 615.9 28.704C616.177 28.704 616.412 28.8 616.604 28.992C616.807 29.1733 616.908 29.4027 616.908 29.68ZM620.633 32.416C620.654 32.608 620.67 32.8267 620.681 33.072C620.691 33.3067 620.697 33.504 620.697 33.664H620.745C620.841 33.4613 620.969 33.2747 621.129 33.104C621.299 32.9227 621.491 32.768 621.705 32.64C621.918 32.5013 622.153 32.3947 622.409 32.32C622.665 32.2453 622.931 32.208 623.209 32.208C623.699 32.208 624.121 32.2933 624.473 32.464C624.825 32.624 625.118 32.8427 625.353 33.12C625.587 33.3973 625.758 33.7227 625.865 34.096C625.982 34.4693 626.041 34.8693 626.041 35.296V40H624.537V35.792C624.537 35.4827 624.51 35.1893 624.457 34.912C624.414 34.6347 624.329 34.3893 624.201 34.176C624.073 33.9627 623.897 33.792 623.673 33.664C623.449 33.536 623.161 33.472 622.809 33.472C622.211 33.472 621.721 33.7013 621.337 34.16C620.963 34.608 620.777 35.2107 620.777 35.968V40H619.273V34.048C619.273 33.8453 619.267 33.584 619.257 33.264C619.246 32.944 619.23 32.6613 619.209 32.416H620.633ZM636.242 40H634.658V30.064H631.026V28.672H639.874V30.064H636.242V40ZM642.636 40H641.132V32.416H642.636V40ZM642.892 29.68C642.892 29.9573 642.791 30.1867 642.588 30.368C642.396 30.5493 642.162 30.64 641.884 30.64C641.607 30.64 641.372 30.5493 641.18 30.368C640.988 30.176 640.892 29.9467 640.892 29.68C640.892 29.4027 640.988 29.1733 641.18 28.992C641.372 28.8 641.607 28.704 641.884 28.704C642.162 28.704 642.396 28.8 642.588 28.992C642.791 29.1733 642.892 29.4027 642.892 29.68ZM646.617 32.416C646.638 32.608 646.654 32.8267 646.665 33.072C646.676 33.3067 646.681 33.504 646.681 33.664H646.729C646.825 33.4613 646.953 33.2747 647.113 33.104C647.284 32.9227 647.476 32.768 647.689 32.64C647.902 32.5013 648.137 32.3947 648.393 32.32C648.649 32.2453 648.916 32.208 649.193 32.208C649.684 32.208 650.105 32.2933 650.457 32.464C650.809 32.624 651.102 32.8427 651.337 33.12C651.572 33.3973 651.742 33.7227 651.849 34.096C651.966 34.4693 652.025 34.8693 652.025 35.296V40H650.521V35.792C650.521 35.4827 650.494 35.1893 650.441 34.912C650.398 34.6347 650.313 34.3893 650.185 34.176C650.057 33.9627 649.881 33.792 649.657 33.664C649.433 33.536 649.145 33.472 648.793 33.472C648.196 33.472 647.705 33.7013 647.321 34.16C646.948 34.608 646.761 35.2107 646.761 35.968V40H645.257V34.048C645.257 33.8453 645.252 33.584 645.241 33.264C645.23 32.944 645.214 32.6613 645.193 32.416H646.617ZM656.105 40H654.601V27.904H656.105V40ZM663.446 35.088C663.446 34.5227 663.275 34.1067 662.934 33.84C662.592 33.5627 662.139 33.424 661.574 33.424C661.147 33.424 660.742 33.5093 660.358 33.68C659.984 33.84 659.67 34.048 659.414 34.304L658.614 33.344C658.987 32.992 659.44 32.7147 659.974 32.512C660.518 32.3093 661.099 32.208 661.718 32.208C662.262 32.208 662.731 32.288 663.126 32.448C663.531 32.5973 663.862 32.8053 664.118 33.072C664.374 33.3387 664.566 33.6533 664.694 34.016C664.822 34.3787 664.886 34.768 664.886 35.184V38.496C664.886 38.752 664.891 39.024 664.902 39.312C664.923 39.5893 664.955 39.8187 664.998 40H663.638C663.552 39.6373 663.51 39.2747 663.51 38.912H663.462C663.184 39.3173 662.832 39.632 662.406 39.856C661.99 40.08 661.494 40.192 660.918 40.192C660.619 40.192 660.304 40.1493 659.974 40.064C659.654 39.9893 659.36 39.8613 659.094 39.68C658.827 39.4987 658.603 39.2587 658.422 38.96C658.251 38.6613 658.166 38.2933 658.166 37.856C658.166 37.28 658.32 36.8267 658.63 36.496C658.939 36.1547 659.344 35.8987 659.846 35.728C660.347 35.5467 660.912 35.4293 661.542 35.376C662.171 35.3227 662.806 35.296 663.446 35.296V35.088ZM663.078 36.384C662.704 36.384 662.315 36.4 661.91 36.432C661.515 36.464 661.152 36.528 660.822 36.624C660.502 36.72 660.235 36.864 660.022 37.056C659.808 37.248 659.702 37.504 659.702 37.824C659.702 38.048 659.744 38.2347 659.83 38.384C659.926 38.5333 660.048 38.656 660.198 38.752C660.347 38.848 660.512 38.9173 660.694 38.96C660.875 38.992 661.062 39.008 661.254 39.008C661.958 39.008 662.496 38.8 662.87 38.384C663.254 37.9573 663.446 37.424 663.446 36.784V36.384H663.078ZM668.934 35.712H668.982L672.166 32.416H674.182L670.63 35.856L674.486 40H672.406L668.982 36.064H668.934V40H667.43V27.904H668.934V35.712ZM681.106 35.536C681.095 35.2373 681.042 34.96 680.946 34.704C680.86 34.4373 680.727 34.208 680.546 34.016C680.375 33.824 680.156 33.6747 679.89 33.568C679.634 33.4507 679.33 33.392 678.978 33.392C678.658 33.392 678.354 33.4507 678.066 33.568C677.788 33.6747 677.543 33.824 677.33 34.016C677.127 34.208 676.956 34.4373 676.818 34.704C676.69 34.96 676.615 35.2373 676.594 35.536H681.106ZM682.626 36.144C682.626 36.2293 682.626 36.3147 682.626 36.4C682.626 36.4853 682.62 36.5707 682.61 36.656H676.594C676.604 36.976 676.674 37.28 676.802 37.568C676.94 37.8453 677.122 38.0907 677.346 38.304C677.57 38.5067 677.826 38.6667 678.114 38.784C678.412 38.9013 678.727 38.96 679.058 38.96C679.57 38.96 680.012 38.848 680.386 38.624C680.759 38.4 681.052 38.128 681.266 37.808L682.322 38.656C681.916 39.1893 681.436 39.584 680.882 39.84C680.338 40.0853 679.73 40.208 679.058 40.208C678.482 40.208 677.948 40.112 677.458 39.92C676.967 39.728 676.546 39.4613 676.194 39.12C675.842 38.768 675.564 38.3467 675.362 37.856C675.159 37.3653 675.058 36.8213 675.058 36.224C675.058 35.6373 675.154 35.0987 675.346 34.608C675.548 34.1067 675.826 33.68 676.178 33.328C676.53 32.976 676.946 32.704 677.426 32.512C677.906 32.3093 678.423 32.208 678.978 32.208C679.532 32.208 680.034 32.2987 680.482 32.48C680.94 32.6613 681.324 32.9227 681.634 33.264C681.954 33.6053 682.199 34.0213 682.37 34.512C682.54 34.992 682.626 35.536 682.626 36.144ZM610.886 71.84H609.382V60.416H610.854V61.6H610.902C611.147 61.1947 611.505 60.864 611.974 60.608C612.454 60.3413 613.009 60.208 613.638 60.208C614.203 60.208 614.715 60.3093 615.174 60.512C615.643 60.7147 616.043 60.9973 616.374 61.36C616.715 61.7227 616.977 62.1493 617.158 62.64C617.339 63.12 617.43 63.6373 617.43 64.192C617.43 64.7467 617.339 65.2693 617.158 65.76C616.977 66.2507 616.721 66.6773 616.39 67.04C616.059 67.4027 615.659 67.6907 615.19 67.904C614.721 68.1067 614.193 68.208 613.606 68.208C613.062 68.208 612.55 68.0907 612.07 67.856C611.59 67.6213 611.211 67.2907 610.934 66.864H610.886V71.84ZM615.878 64.192C615.878 63.84 615.825 63.4987 615.718 63.168C615.611 62.8373 615.451 62.544 615.238 62.288C615.025 62.032 614.758 61.8293 614.438 61.68C614.129 61.5307 613.766 61.456 613.35 61.456C612.966 61.456 612.614 61.5307 612.294 61.68C611.985 61.8293 611.718 62.032 611.494 62.288C611.27 62.544 611.094 62.8373 610.966 63.168C610.849 63.4987 610.79 63.8453 610.79 64.208C610.79 64.5707 610.849 64.9173 610.966 65.248C611.094 65.5787 611.27 65.872 611.494 66.128C611.718 66.3733 611.985 66.5707 612.294 66.72C612.614 66.8693 612.966 66.944 613.35 66.944C613.766 66.944 614.129 66.8693 614.438 66.72C614.758 66.56 615.025 66.352 615.238 66.096C615.451 65.84 615.611 65.5467 615.718 65.216C615.825 64.8853 615.878 64.544 615.878 64.192ZM627.203 64.192C627.203 64.7787 627.096 65.3173 626.883 65.808C626.68 66.2987 626.392 66.7253 626.019 67.088C625.656 67.44 625.224 67.7173 624.723 67.92C624.221 68.112 623.683 68.208 623.107 68.208C622.531 68.208 621.992 68.112 621.491 67.92C620.989 67.7173 620.557 67.44 620.195 67.088C619.832 66.7253 619.544 66.2987 619.331 65.808C619.128 65.3173 619.027 64.7787 619.027 64.192C619.027 63.6053 619.128 63.072 619.331 62.592C619.544 62.1013 619.832 61.68 620.195 61.328C620.557 60.976 620.989 60.704 621.491 60.512C621.992 60.3093 622.531 60.208 623.107 60.208C623.683 60.208 624.221 60.3093 624.723 60.512C625.224 60.704 625.656 60.976 626.019 61.328C626.392 61.68 626.68 62.1013 626.883 62.592C627.096 63.072 627.203 63.6053 627.203 64.192ZM625.635 64.192C625.635 63.8293 625.576 63.4827 625.459 63.152C625.352 62.8213 625.192 62.5333 624.979 62.288C624.765 62.032 624.499 61.8293 624.179 61.68C623.869 61.5307 623.512 61.456 623.107 61.456C622.701 61.456 622.339 61.5307 622.019 61.68C621.709 61.8293 621.448 62.032 621.235 62.288C621.021 62.5333 620.856 62.8213 620.739 63.152C620.632 63.4827 620.579 63.8293 620.579 64.192C620.579 64.5547 620.632 64.9013 620.739 65.232C620.856 65.5627 621.021 65.856 621.235 66.112C621.448 66.368 621.709 66.5707 622.019 66.72C622.339 66.8693 622.701 66.944 623.107 66.944C623.512 66.944 623.869 66.8693 624.179 66.72C624.499 66.5707 624.765 66.368 624.979 66.112C625.192 65.856 625.352 65.5627 625.459 65.232C625.576 64.9013 625.635 64.5547 625.635 64.192ZM636.968 64.192C636.968 64.7787 636.862 65.3173 636.648 65.808C636.446 66.2987 636.158 66.7253 635.784 67.088C635.422 67.44 634.99 67.7173 634.488 67.92C633.987 68.112 633.448 68.208 632.872 68.208C632.296 68.208 631.758 68.112 631.256 67.92C630.755 67.7173 630.323 67.44 629.96 67.088C629.598 66.7253 629.31 66.2987 629.096 65.808C628.894 65.3173 628.792 64.7787 628.792 64.192C628.792 63.6053 628.894 63.072 629.096 62.592C629.31 62.1013 629.598 61.68 629.96 61.328C630.323 60.976 630.755 60.704 631.256 60.512C631.758 60.3093 632.296 60.208 632.872 60.208C633.448 60.208 633.987 60.3093 634.488 60.512C634.99 60.704 635.422 60.976 635.784 61.328C636.158 61.68 636.446 62.1013 636.648 62.592C636.862 63.072 636.968 63.6053 636.968 64.192ZM635.4 64.192C635.4 63.8293 635.342 63.4827 635.224 63.152C635.118 62.8213 634.958 62.5333 634.744 62.288C634.531 62.032 634.264 61.8293 633.944 61.68C633.635 61.5307 633.278 61.456 632.872 61.456C632.467 61.456 632.104 61.5307 631.784 61.68C631.475 61.8293 631.214 62.032 631 62.288C630.787 62.5333 630.622 62.8213 630.504 63.152C630.398 63.4827 630.344 63.8293 630.344 64.192C630.344 64.5547 630.398 64.9013 630.504 65.232C630.622 65.5627 630.787 65.856 631 66.112C631.214 66.368 631.475 66.5707 631.784 66.72C632.104 66.8693 632.467 66.944 632.872 66.944C633.278 66.944 633.635 66.8693 633.944 66.72C634.264 66.5707 634.531 66.368 634.744 66.112C634.958 65.856 635.118 65.5627 635.224 65.232C635.342 64.9013 635.4 64.5547 635.4 64.192ZM640.59 68H639.086V55.904H640.59V68Z" fill="black"/>
<path d="M625 103C630.523 103 635 98.5228 635 93C635 87.4772 630.523 83 625 83C619.477 83 615 87.4772 615 93C615 98.5228 619.477 103 625 103Z" stroke="black" stroke-width="2" stroke-linecap="round" stroke-linejoin="round"/>
<rect x="81" y="92" width="151" height="2" rx="1" fill="black"/>
<rect x="269" y="92" width="151" height="2" rx="1" fill="black"/>
<rect x="457" y="92" width="151" height="2" rx="1" fill="black"/>
</svg>
