<svg fill="none" xmlns="http://www.w3.org/2000/svg" width="160" viewBox="300 20 160 87" height="87">
<path d="M336.77 63.39V64.62C337.029 64.2025 337.39 63.8583 337.82 63.62C338.247 63.3894 338.725 63.2723 339.21 63.28C339.7 63.223 340.194 63.336 340.61 63.6C341.022 63.8672 341.326 64.2708 341.47 64.74C341.731 64.2828 342.116 63.9084 342.58 63.66C343.035 63.406 343.549 63.275 344.07 63.28C345.68 63.28 346.51 64.16 346.54 65.92V70.92H345.74V65.92C345.778 65.3865 345.621 64.8574 345.3 64.43C345.115 64.2556 344.898 64.1196 344.66 64.03C344.419 63.9464 344.164 63.9124 343.91 63.93C343.348 63.9306 342.806 64.141 342.39 64.52C342.194 64.6962 342.032 64.9062 341.91 65.14C341.792 65.3774 341.72 65.6355 341.7 65.9V70.9H340.86V65.9C340.904 65.3796 340.742 64.8628 340.41 64.46C340.227 64.2883 340.008 64.1587 339.77 64.08C339.533 63.9967 339.281 63.9626 339.03 63.98C338.542 63.9724 338.066 64.1311 337.68 64.43C337.277 64.7824 336.985 65.2445 336.84 65.76V70.93H336V63.39H336.77ZM362.67 70.93C362.576 70.5873 362.523 70.235 362.51 69.88C362.217 70.2637 361.832 70.5665 361.39 70.76C360.939 70.9676 360.447 71.0734 359.95 71.07C359.31 71.0983 358.684 70.88 358.2 70.46C357.986 70.2685 357.815 70.0332 357.7 69.77C357.588 69.504 357.53 69.2185 357.53 68.93C357.518 68.5823 357.598 68.2376 357.76 67.93C357.923 67.6289 358.156 67.3717 358.44 67.18C359.207 66.7175 360.095 66.4947 360.99 66.54H362.5V65.68C362.517 65.4487 362.483 65.2165 362.4 65C362.311 64.7793 362.178 64.5787 362.01 64.41C361.606 64.0716 361.085 63.9063 360.56 63.95C360.045 63.9383 359.54 64.0926 359.12 64.39C358.95 64.5181 358.81 64.682 358.71 64.87C358.612 65.0552 358.557 65.2604 358.55 65.47H357.71C357.725 65.1658 357.807 64.8686 357.95 64.6C358.094 64.3267 358.299 64.0905 358.55 63.91C359.125 63.4756 359.829 63.2467 360.55 63.26C361.27 63.2132 361.982 63.434 362.55 63.88C362.799 64.0995 362.994 64.3732 363.12 64.68C363.256 64.995 363.318 65.3372 363.3 65.68V69.25C363.277 69.8053 363.352 70.3602 363.52 70.89V70.97L362.67 70.93ZM360.05 70.33C360.576 70.3426 361.094 70.2 361.54 69.92C361.981 69.6812 362.332 69.3056 362.54 68.85V67.19H361.01C360.315 67.1584 359.624 67.3138 359.01 67.64C358.797 67.7656 358.622 67.9449 358.5 68.16C358.374 68.3714 358.308 68.6136 358.31 68.86C358.318 69.0499 358.362 69.2367 358.44 69.41C358.518 69.5834 358.635 69.7371 358.78 69.86C359.124 70.1474 359.562 70.2971 360.01 70.28L360.05 70.33ZM378.3 64.08C378.111 64.0599 377.919 64.0599 377.73 64.08C377.257 64.0702 376.795 64.2219 376.42 64.51C376.041 64.8459 375.773 65.2886 375.65 65.78V70.98H374.82V63.44H375.64V64.64C375.817 64.2274 376.116 63.8789 376.497 63.6412C376.877 63.4035 377.322 63.2879 377.77 63.31C377.958 63.2992 378.146 63.3299 378.32 63.4L378.3 64.08ZM390.67 67.08L389.67 68V70.88H388.91V60.2H389.74V67.08L390.53 66.23L393.41 63.39H394.41L391.23 66.57L394.7 70.93H393.7L390.67 67.08ZM407.91 71.08C407.299 71.0878 406.699 70.9212 406.18 70.6C405.658 70.2903 405.237 69.835 404.97 69.29C404.678 68.6996 404.531 68.0484 404.54 67.39V67.08C404.524 66.3898 404.667 65.7052 404.96 65.08C405.219 64.5258 405.623 64.0524 406.13 63.71C406.615 63.3927 407.181 63.2225 407.76 63.22C408.171 63.2077 408.58 63.2827 408.96 63.44C409.342 63.5992 409.684 63.8418 409.96 64.15C410.531 64.8764 410.816 65.7874 410.76 66.71V67.18H405.39V67.34C405.358 68.1193 405.619 68.8825 406.12 69.48C406.345 69.753 406.629 69.9718 406.95 70.12C407.263 70.2657 407.605 70.3376 407.95 70.33C408.357 70.3476 408.761 70.2657 409.129 70.0914C409.497 69.9172 409.816 69.6558 410.06 69.33L410.58 69.73C410.286 70.1538 409.891 70.4975 409.43 70.73C408.962 70.9755 408.438 71.0961 407.91 71.08ZM407.76 63.98C407.464 63.9753 407.169 64.0336 406.897 64.1508C406.625 64.268 406.38 64.4415 406.18 64.66C405.727 65.1814 405.451 65.8323 405.39 66.52H409.91V66.43C409.919 65.7852 409.699 65.1582 409.29 64.66C409.107 64.4381 408.874 64.2632 408.61 64.15C408.344 64.0261 408.053 63.9646 407.76 63.97V63.98ZM422.91 61.51V63.43H424.47V64.08H422.91V69.08C422.889 69.4062 422.97 69.731 423.14 70.01C423.234 70.1213 423.354 70.2072 423.49 70.26C423.619 70.3147 423.76 70.3354 423.9 70.32C424.126 70.3313 424.352 70.3077 424.57 70.25V70.93C424.282 71.0201 423.981 71.0607 423.68 71.05C423.449 71.0701 423.217 71.0394 423 70.96C422.781 70.8728 422.586 70.7359 422.43 70.56C422.143 70.1258 422.006 69.6094 422.04 69.09V64.08H420.65V63.39H422.04V61.5L422.91 61.51Z" fill="black"/>
<path d="M392.758 36.9156L392.271 38.4409C391.166 41.9621 389.996 45.5969 388.858 49.183C388.354 50.8057 387.834 52.3148 387.33 53.8563L386.973 54.9597C386.88 55.2583 386.695 55.5197 386.443 55.7063C386.192 55.8929 385.888 55.9952 385.575 55.9983C385.307 55.992 385.045 55.9195 384.811 55.7873C384.427 55.5505 384.152 55.1712 384.048 54.7326L383.121 51.9253C382.666 50.4974 382.195 49.0694 381.724 47.6415C381.252 49.0694 380.797 50.4974 380.326 51.9253C380.017 52.8503 379.725 53.7914 379.416 54.7326C379.298 55.1695 379.019 55.5461 378.636 55.7873C378.402 55.9195 378.14 55.992 377.872 55.9983C377.56 55.9995 377.256 55.8986 377.006 55.7111C376.757 55.5235 376.576 55.2597 376.491 54.9597L376.117 53.8563C375.613 52.2337 375.093 50.7408 374.589 49.183L371.16 38.4409L370.672 36.9156C370.593 36.6982 370.569 36.465 370.6 36.236C370.631 36.0069 370.717 35.7888 370.852 35.6005C370.986 35.4122 371.164 35.2592 371.371 35.1547C371.577 35.0503 371.806 34.9975 372.038 35.0008C372.351 35.0039 372.655 35.1061 372.906 35.2928C373.157 35.4794 373.342 35.7408 373.435 36.0393C373.63 36.6073 373.809 37.1914 373.988 37.7431C374.085 38.0352 374.183 38.3273 374.264 38.6356C375.483 42.384 376.686 46.1486 377.904 49.9944L378.197 49.0694L378.506 48.177C379.091 46.4245 379.708 44.5908 380.326 42.8059C380.419 42.528 380.599 42.287 380.838 42.1178C381.078 41.9485 381.365 41.8599 381.659 41.8647H381.789C382.084 41.8614 382.372 41.9504 382.614 42.1192C382.856 42.288 383.039 42.5281 383.137 42.8059L384.941 48.177L385.25 49.0694C385.348 49.3777 385.445 49.6698 385.559 49.9944C386.762 46.2297 387.98 42.4651 389.183 38.7167C389.281 38.4084 389.362 38.1164 389.459 37.8243C389.638 37.2726 389.817 36.6884 390.012 36.1205C390.09 35.8068 390.269 35.5275 390.522 35.3252C390.774 35.123 391.086 35.009 391.41 35.0008C391.64 35.0001 391.867 35.0549 392.071 35.1604C392.275 35.266 392.451 35.4193 392.584 35.6072C392.716 35.7952 392.801 36.0123 392.832 36.24C392.862 36.4678 392.837 36.6995 392.758 36.9156ZM415.04 54.6352C415.049 54.9964 414.915 55.3466 414.666 55.6088C414.528 55.7413 414.365 55.8442 414.186 55.9111C414.007 55.9781 413.816 56.0078 413.626 55.9983C413.34 55.9972 413.061 55.9064 412.829 55.7386C412.578 55.5778 412.38 55.3463 412.261 55.0733L404.801 37.7107L402.038 44.0878H403.355C403.714 44.079 404.062 44.2121 404.324 44.4582C404.586 44.7043 404.74 45.0435 404.752 45.4022C404.748 45.5805 404.708 45.7562 404.636 45.919C404.563 46.0819 404.459 46.2288 404.329 46.351C404.199 46.4733 404.045 46.5686 403.878 46.6313C403.711 46.6941 403.533 46.723 403.355 46.7165H400.949L397.39 55.0409C397.265 55.3105 397.068 55.5406 396.821 55.7062C396.588 55.8711 396.311 55.9616 396.025 55.9658C395.834 55.9773 395.643 55.9486 395.464 55.8815C395.284 55.8144 395.121 55.7104 394.985 55.5764C394.859 55.4487 394.76 55.2963 394.696 55.1287C394.632 54.9611 394.603 54.782 394.611 54.6028C394.587 54.4305 394.587 54.2557 394.611 54.0835L397.862 46.7165H396.496C396.135 46.7254 395.785 46.5928 395.521 46.3472C395.257 46.1015 395.099 45.7623 395.082 45.4022C395.099 45.0421 395.257 44.7028 395.521 44.4572C395.785 44.2115 396.135 44.0789 396.496 44.0878H399.113L402.51 36.3639C402.656 35.9647 402.921 35.62 403.27 35.3763C403.619 35.1325 404.034 35.0015 404.46 35.0008H405.142C405.57 35.0027 405.986 35.1341 406.338 35.3774C406.689 35.6208 406.958 35.9647 407.109 36.3639L414.893 54.0997C414.977 54.2668 415.027 54.4488 415.04 54.6352ZM360.271 46.6354H358.159L365.813 53.5318C365.949 53.662 366.057 53.8182 366.13 53.9911C366.204 54.164 366.242 54.35 366.242 54.5379C366.242 54.7258 366.204 54.9117 366.13 55.0846C366.057 55.2575 365.949 55.4137 365.813 55.5439C365.532 55.8098 365.16 55.9581 364.773 55.9581C364.386 55.9581 364.014 55.8098 363.733 55.5439L354.079 46.8464L353.949 46.7003C353.949 49.4264 353.949 51.4872 353.949 54.3594C353.968 54.6758 353.881 54.9895 353.701 55.2509C353.522 55.5124 353.26 55.7068 352.958 55.8035C352.821 55.8476 352.679 55.8749 352.536 55.8847C352.345 55.8914 352.155 55.8605 351.977 55.7936C351.798 55.7268 351.635 55.6254 351.495 55.4952C351.348 55.3524 351.231 55.1807 351.153 54.9909C351.074 54.801 351.036 54.5971 351.04 54.3918C351.04 49.1181 351.04 44.8342 351.04 39.5605V37.1103C351.04 36.8831 351.04 36.6397 351.04 36.3963C351.049 36.1834 351.109 35.9758 351.217 35.7919C351.325 35.6079 351.476 35.4533 351.658 35.3416C351.919 35.1265 352.246 35.0064 352.584 35.0008H360.271C361.05 34.9879 361.823 35.1285 362.546 35.4145C363.27 35.7005 363.93 36.1263 364.489 36.6674C365.047 37.2086 365.494 37.8545 365.802 38.5682C366.11 39.2818 366.274 40.0492 366.284 40.8262C366.272 41.6019 366.106 42.3675 365.797 43.0793C365.488 43.791 365.041 44.4351 364.483 44.9745C363.925 45.514 363.265 45.9383 362.543 46.2233C361.82 46.5083 361.048 46.6483 360.271 46.6354ZM360.271 43.7795C360.67 43.7859 361.067 43.7138 361.438 43.5673C361.809 43.4207 362.148 43.2025 362.435 42.9253C362.721 42.648 362.951 42.3171 363.109 41.9513C363.268 41.5856 363.353 41.1923 363.359 40.7938C363.353 40.3953 363.268 40.0019 363.109 39.6362C362.951 39.2705 362.721 38.9395 362.435 38.6623C362.148 38.385 361.809 38.1669 361.438 38.0203C361.067 37.8737 360.67 37.8016 360.271 37.808H353.949V43.7795H360.271Z" fill="black"/>
<path d="M392.758 36.9156L392.271 38.4409C391.166 41.9621 389.996 45.5969 388.858 49.183C388.354 50.8057 387.834 52.3148 387.33 53.8563L386.973 54.9597C386.88 55.2583 386.695 55.5197 386.443 55.7063C386.192 55.8929 385.888 55.9952 385.575 55.9983C385.307 55.992 385.045 55.9195 384.811 55.7873C384.427 55.5505 384.152 55.1712 384.048 54.7326L383.121 51.9253C382.666 50.4974 382.195 49.0694 381.724 47.6415C381.252 49.0694 380.797 50.4974 380.326 51.9253C380.017 52.8503 379.725 53.7914 379.416 54.7326C379.298 55.1695 379.019 55.5461 378.636 55.7873C378.402 55.9195 378.14 55.992 377.872 55.9983C377.56 55.9995 377.256 55.8986 377.006 55.7111C376.757 55.5235 376.576 55.2597 376.491 54.9597L376.117 53.8563C375.613 52.2337 375.093 50.7408 374.589 49.183L371.16 38.4409L370.672 36.9156C370.593 36.6982 370.569 36.465 370.6 36.236C370.631 36.0069 370.717 35.7888 370.852 35.6005C370.986 35.4122 371.164 35.2592 371.371 35.1547C371.577 35.0503 371.806 34.9975 372.038 35.0008C372.351 35.0039 372.655 35.1061 372.906 35.2928C373.157 35.4794 373.342 35.7408 373.435 36.0393C373.63 36.6073 373.809 37.1914 373.988 37.7431C374.085 38.0352 374.183 38.3273 374.264 38.6356C375.483 42.384 376.686 46.1486 377.904 49.9944L378.197 49.0694L378.506 48.177C379.091 46.4245 379.708 44.5908 380.326 42.8059C380.419 42.528 380.599 42.287 380.838 42.1178C381.078 41.9485 381.365 41.8599 381.659 41.8647H381.789C382.084 41.8614 382.372 41.9504 382.614 42.1192C382.856 42.288 383.039 42.5281 383.137 42.8059L384.941 48.177L385.25 49.0694C385.348 49.3777 385.445 49.6698 385.559 49.9944C386.762 46.2297 387.98 42.4651 389.183 38.7167C389.281 38.4084 389.362 38.1164 389.459 37.8243C389.638 37.2726 389.817 36.6884 390.012 36.1205C390.09 35.8068 390.269 35.5275 390.522 35.3252C390.774 35.123 391.086 35.009 391.41 35.0008C391.64 35.0001 391.867 35.0549 392.071 35.1604C392.275 35.266 392.451 35.4193 392.584 35.6072C392.716 35.7952 392.801 36.0123 392.832 36.24C392.862 36.4678 392.837 36.6995 392.758 36.9156ZM415.04 54.6352C415.049 54.9964 414.915 55.3466 414.666 55.6088C414.528 55.7413 414.365 55.8442 414.186 55.9111C414.007 55.9781 413.816 56.0078 413.626 55.9983C413.34 55.9972 413.061 55.9064 412.829 55.7386C412.578 55.5778 412.38 55.3463 412.261 55.0733L404.801 37.7107L402.038 44.0878H403.355C403.714 44.079 404.062 44.2121 404.324 44.4582C404.586 44.7043 404.74 45.0435 404.752 45.4022C404.748 45.5805 404.708 45.7562 404.636 45.919C404.563 46.0819 404.459 46.2288 404.329 46.351C404.199 46.4733 404.045 46.5686 403.878 46.6313C403.711 46.6941 403.533 46.723 403.355 46.7165H400.949L397.39 55.0409C397.265 55.3105 397.068 55.5406 396.821 55.7062C396.588 55.8711 396.311 55.9616 396.025 55.9658C395.834 55.9773 395.643 55.9486 395.464 55.8815C395.284 55.8144 395.121 55.7104 394.985 55.5764C394.859 55.4487 394.76 55.2963 394.696 55.1287C394.632 54.9611 394.603 54.782 394.611 54.6028C394.587 54.4305 394.587 54.2557 394.611 54.0835L397.862 46.7165H396.496C396.135 46.7254 395.785 46.5928 395.521 46.3472C395.257 46.1015 395.099 45.7623 395.082 45.4022C395.099 45.0421 395.257 44.7028 395.521 44.4572C395.785 44.2115 396.135 44.0789 396.496 44.0878H399.113L402.51 36.3639C402.656 35.9647 402.921 35.62 403.27 35.3763C403.619 35.1325 404.034 35.0015 404.46 35.0008H405.142C405.57 35.0027 405.986 35.1341 406.338 35.3774C406.689 35.6208 406.958 35.9647 407.109 36.3639L414.893 54.0997C414.977 54.2668 415.027 54.4488 415.04 54.6352ZM360.271 46.6354H358.159L365.813 53.5318C365.949 53.662 366.057 53.8182 366.13 53.9911C366.204 54.164 366.242 54.35 366.242 54.5379C366.242 54.7258 366.204 54.9117 366.13 55.0846C366.057 55.2575 365.949 55.4137 365.813 55.5439C365.532 55.8098 365.16 55.9581 364.773 55.9581C364.386 55.9581 364.014 55.8098 363.733 55.5439L354.079 46.8464L353.949 46.7003C353.949 49.4264 353.949 51.4872 353.949 54.3594C353.968 54.6758 353.881 54.9895 353.701 55.2509C353.522 55.5124 353.26 55.7068 352.958 55.8035C352.821 55.8476 352.679 55.8749 352.536 55.8847C352.345 55.8914 352.155 55.8605 351.977 55.7936C351.798 55.7268 351.635 55.6254 351.495 55.4952C351.348 55.3524 351.231 55.1807 351.153 54.9909C351.074 54.801 351.036 54.5971 351.04 54.3918C351.04 49.1181 351.04 44.8342 351.04 39.5605V37.1103C351.04 36.8831 351.04 36.6397 351.04 36.3963C351.049 36.1834 351.109 35.9758 351.217 35.7919C351.325 35.6079 351.476 35.4533 351.658 35.3416C351.919 35.1265 352.246 35.0064 352.584 35.0008H360.271C361.05 34.9879 361.823 35.1285 362.546 35.4145C363.27 35.7005 363.93 36.1263 364.489 36.6674C365.047 37.2086 365.494 37.8545 365.802 38.5682C366.11 39.2818 366.274 40.0492 366.284 40.8262C366.272 41.6019 366.106 42.3675 365.797 43.0793C365.488 43.791 365.041 44.4351 364.483 44.9745C363.925 45.514 363.265 45.9383 362.543 46.2233C361.82 46.5083 361.048 46.6483 360.271 46.6354ZM360.271 43.7795C360.67 43.7859 361.067 43.7138 361.438 43.5673C361.809 43.4207 362.148 43.2025 362.435 42.9253C362.721 42.648 362.951 42.3171 363.109 41.9513C363.268 41.5856 363.353 41.1923 363.359 40.7938C363.353 40.3953 363.268 40.0019 363.109 39.6362C362.951 39.2705 362.721 38.9395 362.435 38.6623C362.148 38.385 361.809 38.1669 361.438 38.0203C361.067 37.8737 360.67 37.8016 360.271 37.808H353.949V43.7795H360.271Z" fill="black" fill-opacity="0.2"/>
<path d="M318.689 95V86.4688H321.479C322.404 86.4688 323.1 86.6602 323.564 87.043C324.033 87.4258 324.268 87.9922 324.268 88.7422C324.268 89.1406 324.154 89.4941 323.928 89.8027C323.701 90.1074 323.393 90.3438 323.002 90.5117C323.463 90.6406 323.826 90.8867 324.092 91.25C324.361 91.6094 324.496 92.0391 324.496 92.5391C324.496 93.3047 324.248 93.9062 323.752 94.3438C323.256 94.7812 322.555 95 321.648 95H318.689ZM319.814 91.0098V94.0801H321.672C322.195 94.0801 322.607 93.9453 322.908 93.6758C323.213 93.4023 323.365 93.0273 323.365 92.5508C323.365 91.5234 322.807 91.0098 321.689 91.0098H319.814ZM319.814 90.1074H321.514C322.006 90.1074 322.398 89.9844 322.691 89.7383C322.988 89.4922 323.137 89.1582 323.137 88.7363C323.137 88.2676 323 87.9277 322.727 87.7168C322.453 87.502 322.037 87.3945 321.479 87.3945H319.814V90.1074ZM329.91 94.373C329.488 94.8691 328.869 95.1172 328.053 95.1172C327.377 95.1172 326.861 94.9219 326.506 94.5312C326.154 94.1367 325.977 93.5547 325.973 92.7852V88.6602H327.057V92.7559C327.057 93.7168 327.447 94.1973 328.229 94.1973C329.057 94.1973 329.607 93.8887 329.881 93.2715V88.6602H330.965V95H329.934L329.91 94.373ZM333.795 95H332.711V88.6602H333.795V95ZM332.623 86.9785C332.623 86.8027 332.676 86.6543 332.781 86.5332C332.891 86.4121 333.051 86.3516 333.262 86.3516C333.473 86.3516 333.633 86.4121 333.742 86.5332C333.852 86.6543 333.906 86.8027 333.906 86.9785C333.906 87.1543 333.852 87.3008 333.742 87.418C333.633 87.5352 333.473 87.5938 333.262 87.5938C333.051 87.5938 332.891 87.5352 332.781 87.418C332.676 87.3008 332.623 87.1543 332.623 86.9785ZM336.713 95H335.629V86H336.713V95ZM339.924 87.125V88.6602H341.107V89.498H339.924V93.4297C339.924 93.6836 339.977 93.875 340.082 94.0039C340.188 94.1289 340.367 94.1914 340.621 94.1914C340.746 94.1914 340.918 94.168 341.137 94.1211V95C340.852 95.0781 340.574 95.1172 340.305 95.1172C339.82 95.1172 339.455 94.9707 339.209 94.6777C338.963 94.3848 338.84 93.9688 338.84 93.4297V89.498H337.686V88.6602H338.84V87.125H339.924ZM345.068 91.7715C345.068 91.1504 345.189 90.5918 345.432 90.0957C345.678 89.5996 346.018 89.2168 346.451 88.9473C346.889 88.6777 347.387 88.543 347.945 88.543C348.809 88.543 349.506 88.8418 350.037 89.4395C350.572 90.0371 350.84 90.832 350.84 91.8242V91.9004C350.84 92.5176 350.721 93.0723 350.482 93.5645C350.248 94.0527 349.91 94.4336 349.469 94.707C349.031 94.9805 348.527 95.1172 347.957 95.1172C347.098 95.1172 346.4 94.8184 345.865 94.2207C345.334 93.623 345.068 92.832 345.068 91.8477V91.7715ZM346.158 91.9004C346.158 92.6035 346.32 93.168 346.645 93.5938C346.973 94.0195 347.41 94.2324 347.957 94.2324C348.508 94.2324 348.945 94.0176 349.27 93.5879C349.594 93.1543 349.756 92.5488 349.756 91.7715C349.756 91.0762 349.59 90.5137 349.258 90.084C348.93 89.6504 348.492 89.4336 347.945 89.4336C347.41 89.4336 346.979 89.6465 346.65 90.0723C346.322 90.498 346.158 91.1074 346.158 91.9004ZM353.225 88.6602L353.26 89.457C353.744 88.8477 354.377 88.543 355.158 88.543C356.498 88.543 357.174 89.2988 357.186 90.8105V95H356.102V90.8047C356.098 90.3477 355.992 90.0098 355.785 89.791C355.582 89.5723 355.264 89.4629 354.83 89.4629C354.479 89.4629 354.17 89.5566 353.904 89.7441C353.639 89.9316 353.432 90.1777 353.283 90.4824V95H352.199V88.6602H353.225Z" fill="black"/>
<mask id="mask0" style="mask-type:alpha" maskUnits="userSpaceOnUse" x="363" y="86" width="11" height="9">
<path fill-rule="evenodd" clip-rule="evenodd" d="M363 86H373.649V94.6079H363V86Z" fill="white"/>
</mask>
<g mask="url(#mask0)">
<path fill-rule="evenodd" clip-rule="evenodd" d="M364.247 94.2882C363.93 93.6085 363.754 92.8501 363.754 92.0503C363.754 89.1265 366.116 86.7563 369.03 86.7563C370.652 86.7563 372.104 87.4912 373.071 88.6474L373.649 88.1612C372.543 86.8399 370.884 86 369.03 86C365.7 86 363 88.7088 363 92.0503C363 92.9644 363.202 93.8311 363.564 94.6079L364.247 94.2882Z" fill="black"/>
</g>
<path fill-rule="evenodd" clip-rule="evenodd" d="M369.03 95.6427C367.052 95.6427 365.45 94.0344 365.45 92.0503C365.45 90.0663 367.052 88.4579 369.03 88.4579C370.131 88.4579 371.115 88.9568 371.772 89.7413L372.35 89.255C371.555 88.3054 370.362 87.7017 369.03 87.7017C366.636 87.7017 364.696 89.6486 364.696 92.0503C364.696 94.452 366.636 96.399 369.03 96.399V95.6427Z" fill="black"/>
<path fill-rule="evenodd" clip-rule="evenodd" d="M370.329 93.144C370.018 93.5157 369.551 93.7519 369.03 93.7519C368.093 93.7519 367.334 92.9901 367.334 92.0503C367.334 91.1105 368.093 90.3486 369.03 90.3486C369.551 90.3486 370.018 90.5849 370.329 90.9565L370.978 90.4097C370.512 89.8522 369.812 89.4978 369.03 89.4978C367.625 89.4978 366.486 90.6406 366.486 92.0503C366.486 93.46 367.625 94.6028 369.03 94.6028C369.747 94.6028 370.394 94.305 370.856 93.8262L370.329 93.144Z" fill="black"/>
<path fill-rule="evenodd" clip-rule="evenodd" d="M374.914 91.2221H375.689V91.7473H375.703C375.775 91.5836 375.901 91.4393 376.08 91.3142C376.259 91.1892 376.471 91.1266 376.715 91.1266C376.928 91.1266 377.111 91.1641 377.263 91.2392C377.414 91.3142 377.539 91.4131 377.637 91.5358C377.734 91.6586 377.805 91.7996 377.851 91.9588C377.896 92.118 377.919 92.2817 377.919 92.4499V94.4962H377.103V92.6818C377.103 92.5863 377.096 92.4863 377.083 92.3817C377.069 92.2771 377.039 92.1828 376.994 92.0986C376.949 92.0145 376.886 91.9451 376.807 91.8906C376.728 91.836 376.623 91.8087 376.491 91.8087C376.36 91.8087 376.246 91.8349 376.151 91.8872C376.056 91.9395 375.978 92.0065 375.917 92.0884C375.856 92.1702 375.809 92.2647 375.777 92.3714C375.746 92.4783 375.73 92.5863 375.73 92.6954V94.4962H374.914V91.2221Z" fill="black"/>
<path fill-rule="evenodd" clip-rule="evenodd" d="M378.265 91.8769V91.2221H378.836V90.2739H379.639V91.2221H380.454V91.8769H379.639V93.398C379.639 93.5435 379.665 93.664 379.717 93.7595C379.769 93.855 379.885 93.9027 380.067 93.9027C380.121 93.9027 380.18 93.8971 380.244 93.8857C380.307 93.8744 380.364 93.8573 380.414 93.8345L380.441 94.4757C380.368 94.503 380.282 94.5245 380.182 94.5405C380.083 94.5564 379.987 94.5644 379.897 94.5644C379.679 94.5644 379.503 94.5337 379.367 94.4723C379.231 94.4109 379.123 94.3268 379.044 94.2199C378.964 94.1131 378.91 93.9903 378.881 93.8516C378.851 93.7129 378.836 93.564 378.836 93.4048V91.8769H378.265Z" fill="black"/>
<path fill-rule="evenodd" clip-rule="evenodd" d="M380.944 91.2221H381.726V91.7678H381.739C381.83 91.5768 381.957 91.4223 382.12 91.3039C382.283 91.1858 382.473 91.1266 382.691 91.1266C382.723 91.1266 382.757 91.1278 382.793 91.13C382.829 91.1324 382.861 91.138 382.888 91.1471V91.8974C382.834 91.8837 382.787 91.8747 382.749 91.8701C382.71 91.8656 382.673 91.8633 382.636 91.8633C382.451 91.8633 382.301 91.8974 382.188 91.9656C382.074 92.0338 381.986 92.1156 381.923 92.2111C381.859 92.3067 381.816 92.4045 381.794 92.5045C381.771 92.6045 381.76 92.6841 381.76 92.7432V94.4962H380.944V91.2221Z" fill="black"/>
<path fill-rule="evenodd" clip-rule="evenodd" d="M383.262 94.4962H384.077V91.2221H383.262V94.4962ZM383.146 90.1102C383.146 89.9784 383.195 89.8636 383.292 89.7658C383.39 89.668 383.513 89.6191 383.663 89.6191C383.812 89.6191 383.938 89.6658 384.04 89.759C384.142 89.8522 384.193 89.9694 384.193 90.1102C384.193 90.2512 384.142 90.3684 384.04 90.4615C383.938 90.5548 383.812 90.6014 383.663 90.6014C383.513 90.6014 383.39 90.5525 383.292 90.4547C383.195 90.357 383.146 90.2422 383.146 90.1102V90.1102Z" fill="black"/>
<path fill-rule="evenodd" clip-rule="evenodd" d="M385.131 91.8768H384.513V91.222H385.131V90.9772C385.131 90.7817 385.153 90.5941 385.196 90.4144C385.239 90.2349 385.311 90.0768 385.413 89.9404C385.515 89.804 385.65 89.696 385.818 89.6164C385.985 89.5369 386.196 89.497 386.45 89.497C386.541 89.497 386.617 89.5004 386.678 89.5072C386.739 89.5141 386.801 89.5267 386.865 89.5448L386.81 90.2405C386.765 90.2269 386.716 90.2156 386.664 90.2064C386.612 90.1973 386.556 90.1928 386.498 90.1928C386.38 90.1928 386.285 90.2156 386.212 90.261C386.14 90.3065 386.084 90.3656 386.046 90.4383C386.007 90.5111 385.981 90.5907 385.967 90.6771C385.954 90.7635 385.947 90.8476 385.947 90.9294V91.222H386.702V91.8768H385.947V94.4961H385.131V91.8768Z" fill="black"/>
<path fill-rule="evenodd" clip-rule="evenodd" d="M390.114 94.4961H389.339V93.9709H389.325C389.253 94.1346 389.127 94.279 388.948 94.404C388.769 94.5291 388.557 94.5916 388.313 94.5916C388.1 94.5916 387.917 94.5541 387.765 94.4791C387.613 94.404 387.489 94.3051 387.391 94.1824C387.294 94.0596 387.223 93.9187 387.177 93.7595C387.132 93.6003 387.109 93.4366 387.109 93.2684V91.222H387.925V93.0364C387.925 93.1319 387.932 93.232 387.946 93.3366C387.959 93.4412 387.989 93.5356 388.034 93.6196C388.079 93.7039 388.141 93.7731 388.221 93.8277C388.3 93.8822 388.405 93.9095 388.537 93.9095C388.664 93.9095 388.776 93.8834 388.873 93.8311C388.971 93.7788 389.05 93.7117 389.111 93.6299C389.173 93.548 389.219 93.4537 389.251 93.3468C389.282 93.24 389.298 93.1319 389.298 93.0228V91.222H390.114V94.4961Z" fill="black"/>
<path fill-rule="evenodd" clip-rule="evenodd" d="M372.192 91.9622C372.362 91.8145 372.569 91.7405 372.814 91.7405C372.945 91.7405 373.06 91.7621 373.157 91.8053C373.255 91.8486 373.335 91.9065 373.399 91.9792C373.462 92.052 373.509 92.1361 373.538 92.2316C373.567 92.3271 373.582 92.4272 373.582 92.5317H371.91C371.928 92.2998 372.022 92.11 372.192 91.9622V91.9622ZM373.705 93.5003C373.614 93.6323 373.498 93.7357 373.358 93.8106C373.217 93.8857 373.045 93.9232 372.841 93.9232C372.723 93.9232 372.61 93.9028 372.501 93.8618C372.393 93.8209 372.295 93.7652 372.209 93.6947C372.123 93.6243 372.054 93.5402 372.002 93.4423C371.95 93.3446 371.919 93.2366 371.91 93.1184H374.391C374.396 93.082 374.398 93.0457 374.398 93.0092V92.9001C374.398 92.6045 374.358 92.3465 374.279 92.1259C374.2 91.9054 374.09 91.7212 373.949 91.5734C373.809 91.4257 373.642 91.3142 373.45 91.2392C373.257 91.1641 373.047 91.1266 372.821 91.1266C372.576 91.1266 372.348 91.1687 372.138 91.2528C371.927 91.337 371.744 91.4552 371.59 91.6075C371.436 91.7599 371.315 91.9441 371.227 92.16C371.138 92.376 371.094 92.6159 371.094 92.8796C371.094 93.1479 371.138 93.3877 371.227 93.5992C371.315 93.8106 371.438 93.9892 371.594 94.1347C371.75 94.2803 371.935 94.3928 372.148 94.4723C372.361 94.5518 372.594 94.5917 372.848 94.5917C373.396 94.5917 373.827 94.4165 374.143 94.0665L373.705 93.5003Z" fill="black"/>
<path fill-rule="evenodd" clip-rule="evenodd" d="M395.703 91.9622C395.873 91.8145 396.081 91.7405 396.325 91.7405C396.457 91.7405 396.571 91.7621 396.669 91.8053C396.766 91.8486 396.846 91.9065 396.91 91.9792C396.973 92.052 397.02 92.1361 397.049 92.2316C397.079 92.3271 397.094 92.4272 397.094 92.5317H395.421C395.439 92.2998 395.533 92.11 395.703 91.9622V91.9622ZM397.216 93.5003C397.125 93.6323 397.01 93.7357 396.869 93.8106C396.729 93.8857 396.556 93.9232 396.352 93.9232C396.235 93.9232 396.121 93.9028 396.013 93.8618C395.904 93.8209 395.806 93.7652 395.72 93.6947C395.634 93.6243 395.565 93.5402 395.513 93.4423C395.461 93.3446 395.43 93.2366 395.421 93.1184H397.902C397.907 93.082 397.909 93.0457 397.909 93.0092V92.9001C397.909 92.6045 397.869 92.3465 397.79 92.1259C397.711 91.9054 397.601 91.7212 397.461 91.5734C397.32 91.4257 397.153 91.3142 396.961 91.2392C396.768 91.1641 396.559 91.1266 396.332 91.1266C396.087 91.1266 395.86 91.1687 395.649 91.2528C395.438 91.337 395.256 91.4552 395.102 91.6075C394.948 91.7599 394.826 91.9441 394.738 92.16C394.65 92.376 394.605 92.6159 394.605 92.8796C394.605 93.1479 394.65 93.3877 394.738 93.5992C394.826 93.8106 394.949 93.9892 395.105 94.1347C395.261 94.2803 395.446 94.3928 395.659 94.4723C395.872 94.5518 396.105 94.5917 396.359 94.5917C396.907 94.5917 397.339 94.4165 397.654 94.0665L397.216 93.5003Z" fill="black"/>
<path fill-rule="evenodd" clip-rule="evenodd" d="M393.261 93.2262C393.216 93.3508 393.151 93.4607 393.067 93.5559C392.983 93.6511 392.881 93.727 392.761 93.7837C392.641 93.8404 392.506 93.8686 392.357 93.8686C392.212 93.8686 392.082 93.8392 391.966 93.7802C391.85 93.7213 391.753 93.6431 391.674 93.5457C391.594 93.4483 391.533 93.3383 391.49 93.2159C391.447 93.0936 391.426 92.9668 391.426 92.8352C391.426 92.6903 391.447 92.5543 391.49 92.4274C391.533 92.3004 391.594 92.1905 391.674 92.0976C391.753 92.0047 391.85 91.931 391.966 91.8766C392.082 91.8223 392.214 91.795 392.364 91.795C392.513 91.795 392.647 91.8223 392.765 91.8766C392.883 91.931 392.983 92.0058 393.067 92.101C393.151 92.1962 393.216 92.3072 393.261 92.434C393.306 92.561 393.329 92.6948 393.329 92.8352C393.329 92.9712 393.306 93.1016 393.261 93.2262V93.2262ZM393.329 91.222V91.7131H393.315C393.197 91.5131 393.039 91.3653 392.839 91.2698C392.64 91.1743 392.425 91.1265 392.194 91.1265C391.949 91.1265 391.728 91.172 391.531 91.263C391.334 91.354 391.166 91.4767 391.028 91.6313C390.89 91.7859 390.783 91.9679 390.708 92.177C390.634 92.3862 390.596 92.609 390.596 92.8454C390.596 93.0773 390.635 93.2968 390.712 93.5037C390.789 93.7106 390.896 93.8914 391.035 94.0459C391.173 94.2006 391.342 94.3234 391.541 94.4142C391.74 94.5052 391.963 94.5507 392.207 94.5507C392.434 94.5507 392.639 94.5082 392.822 94.4232C393.006 94.3383 393.157 94.2154 393.275 94.0546H393.288V94.2942C393.288 94.4585 393.271 94.6091 393.237 94.746C393.203 94.8829 393.146 95.0016 393.067 95.102C392.988 95.2024 392.881 95.2811 392.748 95.3382C392.614 95.3952 392.45 95.4238 392.255 95.4238C392.051 95.4238 391.849 95.3839 391.65 95.3044C391.456 95.2269 391.281 95.1159 391.125 94.9716L390.644 95.5943C390.748 95.6806 390.866 95.758 390.997 95.8262C391.129 95.8944 391.266 95.9512 391.409 95.9967C391.551 96.0421 391.696 96.0763 391.844 96.099C391.991 96.1217 392.13 96.1331 392.262 96.1331C392.579 96.1331 392.853 96.0876 393.084 95.9967C393.315 95.9057 393.507 95.7773 393.659 95.6114C393.81 95.4453 393.923 95.243 393.995 95.0043C394.068 94.7656 394.104 94.4983 394.104 94.2028V91.222H393.329Z" fill="black"/>
<g clip-path="url(#clip0)">
<path d="M433.737 94.4437L430.637 86.8037C430.613 86.7341 430.6 86.6609 430.599 86.587C430.593 86.4309 430.647 86.2786 430.75 86.1626C430.803 86.1071 430.867 86.064 430.938 86.0359C431.009 86.0079 431.086 85.9956 431.162 86C431.277 86.0017 431.389 86.0395 431.482 86.1084C431.579 86.1821 431.654 86.2809 431.701 86.3944L434.65 93.8688L437.598 86.3944C437.646 86.2805 437.723 86.1817 437.821 86.1084C437.914 86.0395 438.026 86.0017 438.141 86C438.216 85.9961 438.292 86.0085 438.362 86.0366C438.433 86.0646 438.497 86.1075 438.55 86.1626C438.654 86.2781 438.709 86.4305 438.704 86.587C438.703 86.6609 438.69 86.7341 438.665 86.8037L435.565 94.4437C435.512 94.6115 435.409 94.7583 435.27 94.8636C435.131 94.9688 434.963 95.0273 434.789 95.0307H434.513C434.34 95.0273 434.172 94.9688 434.033 94.8636C433.893 94.7583 433.79 94.6115 433.737 94.4437Z" fill="black"/>
<path d="M440.023 94.7959C439.97 94.7422 439.929 94.6783 439.901 94.6079C439.874 94.5375 439.861 94.4622 439.863 94.3865V86.6502C439.861 86.5728 439.874 86.4957 439.901 86.4233C439.929 86.351 439.97 86.2849 440.023 86.2288C440.074 86.1733 440.137 86.1296 440.206 86.1005C440.276 86.0715 440.351 86.0577 440.426 86.0602H445.464C445.535 86.0585 445.605 86.0721 445.671 86.1001C445.736 86.1281 445.795 86.1699 445.843 86.2228C445.895 86.2723 445.935 86.3321 445.963 86.3984C445.99 86.4647 446.004 86.5361 446.003 86.6081C446.005 86.6793 445.992 86.7502 445.964 86.8157C445.937 86.8812 445.895 86.9398 445.843 86.9874C445.793 87.0379 445.733 87.0778 445.667 87.1047C445.602 87.1315 445.532 87.1449 445.461 87.1439H441.007V89.9615H445.013C445.084 89.9597 445.155 89.9733 445.22 90.0013C445.286 90.0294 445.344 90.0712 445.393 90.124C445.444 90.174 445.484 90.2339 445.511 90.3001C445.539 90.3663 445.553 90.4375 445.553 90.5094C445.555 90.5806 445.541 90.6514 445.514 90.7169C445.486 90.7824 445.445 90.841 445.393 90.8886C445.343 90.9388 445.283 90.9785 445.218 91.0054C445.153 91.0322 445.084 91.0458 445.013 91.0452H441.007V93.8748H445.461C445.532 93.8726 445.603 93.886 445.669 93.914C445.735 93.9421 445.795 93.9841 445.843 94.0374C445.895 94.0872 445.936 94.1475 445.963 94.2144C445.991 94.2812 446.005 94.3532 446.003 94.4257C446.005 94.4969 445.992 94.5677 445.964 94.6332C445.937 94.6987 445.895 94.7573 445.843 94.805C445.793 94.855 445.733 94.8943 445.667 94.9206C445.601 94.947 445.531 94.9599 445.461 94.9585H440.426C440.351 94.964 440.276 94.9523 440.206 94.9241C440.136 94.896 440.074 94.8522 440.023 94.7959Z" fill="black"/>
<path d="M431.34 94.227L428.237 86.587C428.184 86.4197 428.081 86.2732 427.942 86.168C427.804 86.0628 427.636 86.0041 427.463 86H427.191C427.017 86.0035 426.849 86.0619 426.71 86.1672C426.571 86.2724 426.467 86.4192 426.414 86.587L425.066 89.9163H424.043C423.896 89.9179 423.756 89.9781 423.652 90.084C423.549 90.1899 423.49 90.3329 423.489 90.4822V90.4883C423.49 90.6376 423.549 90.7806 423.652 90.8865C423.756 90.9924 423.896 91.0526 424.043 91.0542H424.592L423.306 94.227C423.281 94.2966 423.268 94.3698 423.267 94.4437C423.261 94.5998 423.315 94.7521 423.418 94.8682C423.471 94.9236 423.536 94.9668 423.607 94.9948C423.678 95.0228 423.754 95.0351 423.83 95.0307C423.945 95.0291 424.057 94.9912 424.15 94.9223C424.247 94.8486 424.323 94.7499 424.369 94.6364L425.789 91.0542H426.764C426.911 91.0526 427.052 90.9924 427.155 90.8865C427.259 90.7806 427.317 90.6376 427.318 90.4883V90.4732C427.317 90.3239 427.259 90.1808 427.155 90.075C427.052 89.9691 426.911 89.9089 426.764 89.9073H426.236L427.327 87.162L430.276 94.6364C430.322 94.7499 430.398 94.8486 430.495 94.9223C430.588 94.9912 430.7 95.0291 430.815 95.0307C430.892 95.0355 430.968 95.0235 431.04 94.9954C431.112 94.9674 431.176 94.924 431.23 94.8682C431.332 94.7516 431.385 94.5994 431.378 94.4437C431.382 94.3697 431.37 94.2958 431.343 94.227H431.34Z" fill="black"/>
<path d="M422.075 94.227L418.975 86.587C418.921 86.4187 418.818 86.2716 418.678 86.1663C418.538 86.061 418.369 86.0028 418.195 86H417.923C417.749 86.0035 417.581 86.0619 417.442 86.1672C417.303 86.2724 417.199 86.4192 417.146 86.587L415.798 89.9163H414.775C414.628 89.9179 414.488 89.9781 414.384 90.084C414.281 90.1899 414.222 90.3329 414.221 90.4822V90.4883C414.222 90.6376 414.281 90.7806 414.384 90.8865C414.488 90.9924 414.628 91.0526 414.775 91.0542H415.324L414.038 94.227C414.013 94.2966 414 94.3698 413.999 94.4437C413.993 94.5998 414.047 94.7521 414.15 94.8682C414.203 94.9236 414.268 94.9668 414.339 94.9948C414.41 95.0228 414.486 95.0351 414.562 95.0307C414.677 95.0291 414.789 94.9912 414.882 94.9223C414.979 94.8486 415.055 94.7499 415.101 94.6364L416.521 91.0542H417.502C417.649 91.0534 417.791 90.9935 417.895 90.8876C417.999 90.7816 418.058 90.6381 418.059 90.4883V90.4732C418.058 90.3234 417.999 90.1799 417.895 90.0739C417.791 89.968 417.649 89.9081 417.502 89.9073H416.977L418.059 87.162L421.008 94.6364C421.054 94.7499 421.13 94.8486 421.227 94.9223C421.32 94.9912 421.432 95.0291 421.547 95.0307C421.624 95.0355 421.7 95.0235 421.772 94.9954C421.844 94.9674 421.908 94.924 421.962 94.8682C422.064 94.7516 422.117 94.5994 422.11 94.4437C422.114 94.3697 422.102 94.2958 422.075 94.227Z" fill="black"/>
</g>
<path d="M402.127 92.9663C402.127 92.5562 402.24 92.1792 402.467 91.8354C402.697 91.4917 403.135 91.0913 403.779 90.6343C403.4 90.1733 403.146 89.8022 403.018 89.521C402.889 89.2397 402.824 88.9604 402.824 88.6831C402.824 88.0347 403.016 87.5269 403.398 87.1597C403.781 86.7925 404.301 86.6089 404.957 86.6089C405.543 86.6089 406.027 86.7808 406.41 87.1245C406.793 87.4644 406.984 87.894 406.984 88.4136C406.984 88.7573 406.896 89.0757 406.721 89.3687C406.549 89.6577 406.246 89.9624 405.812 90.2827L405.186 90.7456L407.084 93.0132C407.35 92.5054 407.482 91.9409 407.482 91.3198H408.461C408.461 92.3159 408.221 93.1421 407.74 93.7983L408.959 95.2573H407.658L407.09 94.5835C406.801 94.8413 406.461 95.0386 406.07 95.1753C405.684 95.3081 405.289 95.3745 404.887 95.3745C404.055 95.3745 403.387 95.1538 402.883 94.7124C402.379 94.271 402.127 93.689 402.127 92.9663ZM404.887 94.4897C405.461 94.4897 405.986 94.271 406.463 93.8335L404.383 91.3433L404.189 91.4839C403.537 91.9644 403.211 92.4585 403.211 92.9663C403.211 93.4272 403.359 93.7964 403.656 94.0737C403.957 94.3511 404.367 94.4897 404.887 94.4897ZM403.908 88.6479C403.908 89.0229 404.139 89.4917 404.6 90.0542L405.291 89.5679C405.557 89.3804 405.738 89.2026 405.836 89.0347C405.934 88.8628 405.982 88.6558 405.982 88.4136C405.982 88.1519 405.885 87.9351 405.689 87.7632C405.494 87.5874 405.248 87.4995 404.951 87.4995C404.631 87.4995 404.377 87.6089 404.189 87.8276C404.002 88.0425 403.908 88.3159 403.908 88.6479Z" fill="black"/>
<defs>
<clipPath id="clip0">
<rect width="32" height="9.03071" fill="white" transform="translate(414 86)"/>
</clipPath>
</defs>
</svg>
