<svg width="20" height="21" viewBox="0 0 20 21" fill="none" xmlns="http://www.w3.org/2000/svg">
<path d="M19 19.1367H2.6C2.03995 19.1367 1.75992 19.1367 1.54601 19.0277C1.35785 18.9319 1.20487 18.7789 1.10899 18.5907C1 18.3768 1 18.0968 1 17.5367V1.13672M19 5.13672L13.5657 10.571C13.3677 10.769 13.2687 10.868 13.1545 10.9051C13.0541 10.9378 12.9459 10.9378 12.8455 10.9051C12.7313 10.868 12.6323 10.769 12.4343 10.571L10.5657 8.7024C10.3677 8.5044 10.2687 8.40539 10.1545 8.3683C10.0541 8.33567 9.94591 8.33567 9.84549 8.3683C9.73133 8.40539 9.63232 8.5044 9.43431 8.7024L5 13.1367M19 5.13672H15M19 5.13672V9.13672" stroke="black" stroke-width="2" stroke-linecap="round" stroke-linejoin="round"/>
</svg>
