<svg width="20" height="18" viewBox="0 0 20 18" fill="none" xmlns="http://www.w3.org/2000/svg">
<path d="M2.08389 10.4704H7.08389M12.9172 10.4704H17.9172M10.0006 5.47038V17.137M10.0006 5.47038C11.1512 5.47038 12.0839 4.53764 12.0839 3.38704M10.0006 5.47038C8.84996 5.47038 7.91722 4.53764 7.91722 3.38704M3.33389 17.137L16.6672 17.137M3.33389 3.38705L7.91722 3.38704M7.91722 3.38704C7.91722 2.23645 8.84996 1.30371 10.0006 1.30371C11.1512 1.30371 12.0839 2.23645 12.0839 3.38704M12.0839 3.38704L16.6672 3.38704M7.40092 11.584C7.06701 12.8625 5.93231 13.8037 4.58389 13.8037C3.23547 13.8037 2.10077 12.8625 1.76686 11.584C1.73958 11.4795 1.72594 11.4273 1.72462 11.2186C1.72381 11.0907 1.77136 10.7957 1.81232 10.6745C1.87915 10.4767 1.95148 10.3651 2.09615 10.1419L4.58389 6.30371L7.07163 10.1419C7.2163 10.3651 7.28864 10.4767 7.35546 10.6745C7.39642 10.7957 7.44397 11.0907 7.44316 11.2186C7.44185 11.4273 7.42821 11.4795 7.40092 11.584ZM18.2343 11.584C17.9003 12.8625 16.7656 13.8037 15.4172 13.8037C14.0688 13.8037 12.9341 12.8625 12.6002 11.584C12.5729 11.4795 12.5593 11.4273 12.558 11.2186C12.5571 11.0907 12.6047 10.7957 12.6457 10.6745C12.7125 10.4767 12.7848 10.3651 12.9295 10.1419L15.4172 6.30371L17.905 10.1419C18.0496 10.3651 18.122 10.4767 18.1888 10.6745C18.2298 10.7957 18.2773 11.0907 18.2765 11.2186C18.2752 11.4273 18.2615 11.4795 18.2343 11.584Z" stroke="black" stroke-width="1.66667" stroke-linecap="round" stroke-linejoin="round"/>
</svg>
