<svg width="16" height="16" viewBox="0 0 16 16" fill="none" xmlns="http://www.w3.org/2000/svg">
<path d="M11.4788 4.40867C10.3786 4.27683 9.14832 3.46852 8.36228 2.72415C8.0235 2.40332 7.434 2.40784 7.10969 2.74329C5.95432 3.93837 4.66428 4.28911 3.79459 4.35087C3.40102 4.37882 3.04501 4.67589 3.03198 5.07024C2.798 12.1504 3.80552 12.071 7.46743 13.8717C7.6317 13.9524 7.82828 13.9636 7.99928 13.8983C13.1722 11.9219 12.5213 9.31571 12.407 5.25886C12.3942 4.804 11.9306 4.46281 11.4788 4.40867Z" stroke="black"/>
<path d="M5.64534 8.64344L7.05665 10.053C7.17723 10.1734 7.38063 10.1734 7.50123 10.053L10.001 7.55633C10.1164 7.44114 10.2359 7.32698 10.3491 7.20866L10.3544 7.20343C10.4707 7.08719 10.4791 6.87355 10.3544 6.7594C10.2285 6.6442 10.0335 6.63478 9.90978 6.7594L7.41 9.25605C7.29466 9.37125 7.17407 9.48435 7.06189 9.60372L7.05665 9.60896H7.50123L6.08992 8.19942C5.97354 8.08318 5.75963 8.0748 5.64534 8.19942C5.53 8.32403 5.52161 8.51882 5.64534 8.64344Z" fill="black" stroke="black" stroke-width="0.333333"/>
</svg>