<svg width="16" height="16" viewBox="0 0 16 16" fill="none" xmlns="http://www.w3.org/2000/svg">
<path fill-rule="evenodd" clip-rule="evenodd" d="M2.74268 2.98022H12.3503C12.9026 2.98022 13.3503 3.42794 13.3503 3.98022V6.65044H8.92405C7.63539 6.65044 6.59072 7.69511 6.59072 8.98378C6.59072 10.2724 7.63539 11.3171 8.92405 11.3171H13.3503V12C13.3503 12.5523 12.9026 13 12.3503 13H2.74268C2.19039 13 1.74268 12.5523 1.74268 12V3.98023C1.74268 3.42794 2.19039 2.98022 2.74268 2.98022ZM14.3503 3.98022V6.6547C14.859 6.70157 15.2574 7.12948 15.2574 7.65044V10.3171C15.2574 10.8381 14.859 11.266 14.3503 11.3129V12C14.3503 13.1046 13.4549 14 12.3503 14H2.74268C1.63811 14 0.742676 13.1046 0.742676 12V3.98023C0.742676 2.87566 1.63811 1.98022 2.74268 1.98022H12.3503C13.4549 1.98022 14.3503 2.87566 14.3503 3.98022ZM14.2574 7.65044H8.92405C8.18767 7.65044 7.59072 8.2474 7.59072 8.98378C7.59072 9.72016 8.18767 10.3171 8.92405 10.3171L14.2574 10.3171V7.65044ZM9.4999 8.99999C9.77604 8.99999 9.9999 8.77613 9.9999 8.49999C9.9999 8.22385 9.77604 7.99999 9.4999 7.99999C9.22376 7.99999 8.9999 8.22385 8.9999 8.49999C8.9999 8.77613 9.22376 8.99999 9.4999 8.99999Z" fill="black"/>
</svg>
