<svg width="24" height="24" viewBox="0 0 24 24" fill="none" xmlns="http://www.w3.org/2000/svg">
<rect x="2" y="20" width="20" height="2" rx="1" fill="black"/>
<rect x="2" y="2" width="20" height="2" rx="1" fill="black"/>
<path fill-rule="evenodd" clip-rule="evenodd" d="M3 7C2.44772 7 2 7.44772 2 8V16C2 16.5523 2.44772 17 3 17C3.55228 17 4 16.5523 4 16V13H6C6.55228 13 7 12.5523 7 12C7 11.4477 6.55228 11 6 11H4V9H7C7.55228 9 8 8.55228 8 8C8 7.44772 7.55228 7 7 7H3ZM11.4545 7.70173C11.324 7.28425 10.9374 7 10.5 7C10.0626 7 9.67598 7.28425 9.54552 7.70173L7.04552 15.7017C6.88079 16.2289 7.17458 16.7897 7.70173 16.9545C8.22887 17.1192 8.78975 16.8254 8.95448 16.2983L9.36019 15H11.6398L12.0455 16.2983C12.2103 16.8254 12.7711 17.1192 13.2983 16.9545C13.8254 16.7897 14.1192 16.2289 13.9545 15.7017L11.4545 7.70173ZM10.5 11.3526L11.0148 13H9.98519L10.5 11.3526ZM18.8321 13.4453C18.5257 12.9858 17.9048 12.8616 17.4453 13.1679C16.9858 13.4743 16.8616 14.0952 17.1679 14.5547L17.3514 14.8299C17.1169 14.7044 16.8874 14.5067 16.6787 14.2284C16.2776 13.6937 16 12.9091 16 12C16 11.0909 16.2776 10.3063 16.6787 9.77157C17.0795 9.23714 17.5569 9 18 9C18.4431 9 18.9205 9.23714 19.3213 9.77157C19.7224 10.3063 20 11.0909 20 12C20 12.896 19.7303 13.671 19.3386 14.2051L18.8321 13.4453ZM20.4867 15.9272C20.6435 15.7724 20.7887 15.6052 20.9213 15.4284C21.6061 14.5155 22 13.3 22 12C22 10.7 21.6061 9.48455 20.9213 8.57157C20.2364 7.65829 19.2138 7 18 7C16.7862 7 15.7636 7.65829 15.0787 8.57157C14.3939 9.48455 14 10.7 14 12C14 13.3 14.3939 14.5155 15.0787 15.4284C15.7636 16.3417 16.7862 17 18 17C18.2563 17 18.5041 16.9706 18.742 16.9157L19.1679 17.5547C19.4743 18.0142 20.0952 18.1384 20.5547 17.8321C21.0142 17.5257 21.1384 16.9048 20.8321 16.4453L20.4867 15.9272Z" fill="black"/>
</svg>
