
<svg width="14" height="14" viewBox="0 0 14 14" fill="none" xmlns="http://www.w3.org/2000/svg">
<path  d="M13.4849 8.42568C13.536 8.63405 13.5022 8.85417 13.3911 9.03767C13.2799 9.22116 13.1004 9.35301 12.8921 9.40423L11.4981 9.74683L11.8623 11.1064C11.9179 11.3137 11.8889 11.5346 11.7817 11.7205C11.6744 11.9065 11.4977 12.0422 11.2904 12.0978C11.0831 12.1534 10.8622 12.1244 10.6763 12.0172C10.4904 11.9099 10.3547 11.7332 10.299 11.5259L9.8074 9.69153L7.57378 8.4014V10.979L8.95495 12.3601C9.03023 12.4354 9.08995 12.5248 9.13069 12.6231C9.17143 12.7215 9.1924 12.8269 9.1924 12.9334C9.1924 13.0398 9.17143 13.1453 9.13069 13.2436C9.08995 13.342 9.03023 13.4313 8.95495 13.5066C8.87967 13.5819 8.79031 13.6416 8.69195 13.6823C8.59359 13.7231 8.48817 13.7441 8.38171 13.7441C8.27525 13.7441 8.16984 13.7231 8.07148 13.6823C7.97312 13.6416 7.88375 13.5819 7.80847 13.5066L6.7645 12.4626L5.7185 13.5093C5.64323 13.5846 5.55386 13.6443 5.4555 13.685C5.35714 13.7258 5.25172 13.7468 5.14526 13.7468C5.0388 13.7468 4.93338 13.7258 4.83503 13.685C4.73667 13.6443 4.6473 13.5846 4.57202 13.5093C4.49674 13.434 4.43703 13.3447 4.39629 13.2463C4.35555 13.1479 4.33458 13.0425 4.33458 12.9361C4.33458 12.8296 4.35555 12.7242 4.39629 12.6258C4.43703 12.5275 4.49674 12.4381 4.57202 12.3628L5.95522 10.979V8.4014L3.7216 9.69153L3.22997 11.5259C3.17434 11.7332 3.03864 11.9099 2.85272 12.0172C2.66681 12.1244 2.4459 12.1534 2.2386 12.0978C2.0313 12.0422 1.85458 11.9065 1.74733 11.7205C1.64008 11.5346 1.61108 11.3137 1.66671 11.1064L2.03088 9.74683L0.636895 9.40423C0.531323 9.38122 0.431428 9.33729 0.343104 9.27505C0.254779 9.21281 0.179814 9.13351 0.122628 9.04183C0.0654427 8.95015 0.0271955 8.84795 0.0101424 8.74125C-0.00691077 8.63455 -0.00242433 8.52552 0.0233369 8.42058C0.0490981 8.31564 0.0956125 8.21693 0.160137 8.13026C0.224661 8.04359 0.305888 7.97071 0.399027 7.91594C0.492166 7.86116 0.595332 7.82559 0.702438 7.81133C0.809545 7.79706 0.918423 7.80439 1.02265 7.83288L2.90356 8.29484L5.14594 6.99999L2.90356 5.70515L1.02265 6.16711C0.959565 6.18283 0.894789 6.19075 0.829774 6.19071C0.63222 6.19027 0.441651 6.11758 0.293986 5.98635C0.146321 5.85511 0.0517585 5.67439 0.0281228 5.47826C0.004487 5.28212 0.0534102 5.08412 0.165671 4.92156C0.277932 4.759 0.445777 4.64312 0.63757 4.59576L2.03156 4.25316L1.66738 2.89357C1.61175 2.68627 1.64076 2.46536 1.74801 2.27944C1.85526 2.09352 2.03197 1.95783 2.23927 1.9022C2.44657 1.84657 2.66748 1.87558 2.8534 1.98283C3.03932 2.09008 3.17501 2.26679 3.23064 2.47409L3.72228 4.30846L5.95522 5.59792V3.02103L4.57405 1.63716C4.49877 1.56188 4.43905 1.47251 4.39831 1.37416C4.35757 1.2758 4.3366 1.17038 4.3366 1.06392C4.3366 0.848913 4.42201 0.642712 4.57405 0.490679C4.72608 0.338646 4.93228 0.253235 5.14729 0.253235C5.25375 0.253235 5.35917 0.274204 5.45752 0.314945C5.55588 0.355685 5.64525 0.4154 5.72053 0.490679L6.7645 1.53735L7.8105 0.490679C7.88577 0.4154 7.97514 0.355685 8.0735 0.314945C8.17186 0.274204 8.27728 0.253235 8.38374 0.253235C8.4902 0.253235 8.59562 0.274204 8.69397 0.314945C8.79233 0.355685 8.8817 0.4154 8.95698 0.490679C9.03226 0.565958 9.09197 0.655327 9.13271 0.753684C9.17345 0.852041 9.19442 0.957459 9.19442 1.06392C9.19442 1.17038 9.17345 1.2758 9.13271 1.37416C9.09197 1.47251 9.03226 1.56188 8.95698 1.63716L7.57378 3.02103V5.59994L9.8074 4.31048L10.299 2.47611C10.3547 2.26881 10.4904 2.0921 10.6763 1.98485C10.8622 1.8776 11.0831 1.8486 11.2904 1.90422C11.4977 1.95985 11.6744 2.09555 11.7817 2.28146C11.8889 2.46738 11.9179 2.68829 11.8623 2.89559L11.4981 4.25518L12.8921 4.59778C13.0821 4.64673 13.2479 4.76306 13.3586 4.92512C13.4693 5.08719 13.5173 5.28394 13.4937 5.47876C13.4701 5.67358 13.3765 5.85319 13.2304 5.98416C13.0842 6.11513 12.8955 6.18854 12.6992 6.19071C12.634 6.19081 12.569 6.18288 12.5057 6.16711L10.6248 5.70515L8.38306 6.99999L10.6254 8.29484L12.5063 7.83288C12.7147 7.7818 12.9348 7.81555 13.1183 7.92671C13.3018 8.03787 13.4337 8.21734 13.4849 8.42568Z" fill="#FF0000" fill-opacity="0.6"/>
</svg>
