<svg width="24" height="24" viewBox="0 0 24 24" fill="none" xmlns="http://www.w3.org/2000/svg">
<path d="M2 12C2 6.47715 6.47715 2 12 2V2C17.5228 2 22 6.47715 22 12V12C22 17.5228 17.5228 22 12 22H2V12Z" stroke="black" stroke-width="2" stroke-linejoin="round"/>
<path d="M7.04256 14.5962L7.99871 14.889C8.07775 14.631 8.04913 14.3519 7.91935 14.1153L7.04256 14.5962ZM6 18L5.04384 17.7071C4.9378 18.0534 5.0272 18.4299 5.27758 18.6914C5.52795 18.953 5.90017 19.0588 6.2507 18.9681L6 18ZM9.64422 17.0562L10.0757 16.1541C9.86315 16.0525 9.62157 16.0291 9.39352 16.0882L9.64422 17.0562ZM17 11.8128C17 14.4674 14.8391 16.6257 12.1658 16.6257V18.6257C15.9368 18.6257 19 15.5789 19 11.8128H17ZM12.1658 7C14.8391 7 17 9.15825 17 11.8128H19C19 8.04675 15.9368 5 12.1658 5V7ZM7.33152 11.8128C7.33152 9.15825 9.49242 7 12.1658 7V5C8.39479 5 5.33152 8.04675 5.33152 11.8128H7.33152ZM7.91935 14.1153C7.54473 13.4322 7.33152 12.6488 7.33152 11.8128H5.33152C5.33152 12.9936 5.63369 14.1069 6.16576 15.077L7.91935 14.1153ZM6.95616 18.2929L7.99871 14.889L6.0864 14.3033L5.04384 17.7071L6.95616 18.2929ZM9.39352 16.0882L5.7493 17.0319L6.2507 18.9681L9.89493 18.0243L9.39352 16.0882ZM12.1658 16.6257C11.415 16.6257 10.7069 16.456 10.0757 16.1541L9.21278 17.9584C10.1079 18.3865 11.1103 18.6257 12.1658 18.6257V16.6257Z" fill="black"/>
</svg>
