<svg width="14" height="14" viewBox="0 0 14 14" fill="none" xmlns="http://www.w3.org/2000/svg">
<path color="currentColor" d="M6.85724 0.142761C5.50101 0.142761 4.17523 0.544931 3.04756 1.29841C1.9199 2.0519 1.04099 3.12285 0.521979 4.37585C0.00297115 5.62885 -0.132825 7.00761 0.131763 8.33778C0.396351 9.66796 1.04944 10.8898 2.00844 11.8488C2.96744 12.8078 4.18929 13.4609 5.51946 13.7255C6.84964 13.9901 8.2284 13.8543 9.48139 13.3353C10.7344 12.8163 11.8053 11.9373 12.5588 10.8097C13.3123 9.68201 13.7145 8.35623 13.7145 7C13.7125 5.18197 12.9894 3.43897 11.7038 2.15343C10.4183 0.867883 8.67528 0.144778 6.85724 0.142761ZM12.1906 7C12.1918 8.15132 11.8185 9.27178 11.1271 10.1924L3.66482 2.7301C4.45744 2.13784 5.39919 1.77775 6.38475 1.69009C7.37032 1.60243 8.36084 1.79067 9.24554 2.23375C10.1302 2.67682 10.8743 3.35727 11.3944 4.199C11.9145 5.04073 12.1902 6.01055 12.1906 7ZM1.52383 7C1.52273 5.84868 1.896 4.72822 2.58734 3.80757L10.0497 11.2699C9.25705 11.8622 8.3153 12.2223 7.32973 12.3099C6.34417 12.3976 5.35365 12.2093 4.46894 11.7663C3.58424 11.3232 2.84023 10.6427 2.32012 9.801C1.80001 8.95927 1.5243 7.98945 1.52383 7Z" fill="#FF6600"/>
</svg>
