<svg width="13" height="13" viewBox="0 0 13 13" fill="none" xmlns="http://www.w3.org/2000/svg">
<path fill="currentColor" fill-rule="evenodd" clip-rule="evenodd" d="M12.9258 6.84131C12.9258 10.155 10.2395 12.8413 6.92578 12.8413C3.61207 12.8413 0.925781 10.155 0.925781 6.84131C0.925781 3.5276 3.61207 0.841309 6.92578 0.841309C10.2395 0.841309 12.9258 3.5276 12.9258 6.84131ZM6.08628 5.38675V10.8413H7.37179V5.38675H6.08628ZM6.20702 4.41019C6.3538 4.54513 6.52899 4.61261 6.73259 4.61261C6.93856 4.61261 7.11374 4.54513 7.25816 4.41019C7.40494 4.27288 7.47833 4.10834 7.47833 3.91658C7.47833 3.72245 7.40494 3.55792 7.25816 3.42297C7.11374 3.28566 6.93856 3.21701 6.73259 3.21701C6.52899 3.21701 6.3538 3.28566 6.20702 3.42297C6.06024 3.55792 5.98685 3.72245 5.98685 3.91658C5.98685 4.10834 6.06024 4.27288 6.20702 4.41019Z" />
</svg>
