<svg width="24" height="24" viewBox="0 0 24 24" fill="none" xmlns="http://www.w3.org/2000/svg">
<path d="M11.5 0.288675C11.8094 0.110043 12.1906 0.110042 12.5 0.288675L21.8923 5.71132C22.2017 5.88996 22.3923 6.22008 22.3923 6.57735V17.4226C22.3923 17.7799 22.2017 18.11 21.8923 18.2887L12.5 23.7113C12.1906 23.89 11.8094 23.89 11.5 23.7113L2.1077 18.2887C1.7983 18.11 1.6077 17.7799 1.6077 17.4226V6.57735C1.6077 6.22009 1.79829 5.88996 2.1077 5.71132L11.5 0.288675Z" fill="black"/>
<path d="M9.4194 9.17578V12.9019L6.29453 9.17578H5.33337V14.8242H6.47886V11.199L9.60812 14.8242H10.5693V12.6298H13.3079V11.594H10.5693V10.2116H15.6384V14.8242H16.7883V10.2116H18.6667V9.17578H9.4194Z" fill="white" style="fill: var(--secondary, white)" />
</svg>
