<svg width="24" height="25" viewBox="0 0 24 25" fill="none" xmlns="http://www.w3.org/2000/svg">
<path d="M8 13.6367V17.6367M16 11.6367V17.6367M12 7.63672V17.6367M7.8 21.6367H16.2C17.8802 21.6367 18.7202 21.6367 19.362 21.3097C19.9265 21.0221 20.3854 20.5632 20.673 19.9987C21 19.357 21 18.5169 21 16.8367V8.43672C21 6.75656 21 5.91648 20.673 5.27475C20.3854 4.71026 19.9265 4.25132 19.362 3.9637C18.7202 3.63672 17.8802 3.63672 16.2 3.63672H7.8C6.11984 3.63672 5.27976 3.63672 4.63803 3.9637C4.07354 4.25132 3.6146 4.71026 3.32698 5.27475C3 5.91648 3 6.75656 3 8.43672V16.8367C3 18.5169 3 19.357 3.32698 19.9987C3.6146 20.5632 4.07354 21.0221 4.63803 21.3097C5.27976 21.6367 6.11984 21.6367 7.8 21.6367Z" stroke="#91969B" stroke-width="2" stroke-linecap="round" stroke-linejoin="round"/>
</svg>
