<svg width="21" height="21" viewBox="0 0 21 21" fill="none" xmlns="http://www.w3.org/2000/svg">
<g id="upload-cloud" clip-path="url(#clip0_4137_5049)">
<path id="Icon" d="M13.9576 13.8332L10.6242 10.4999M10.6242 10.4999L7.2909 13.8332M10.6242 10.4999V17.9999M17.6159 15.8249C18.4287 15.3818 19.0708 14.6806 19.4408 13.8321C19.8108 12.9835 19.8877 12.0359 19.6594 11.1388C19.4311 10.2417 18.9105 9.44616 18.1798 8.87778C17.4491 8.30939 16.55 8.00052 15.6242 7.9999H14.5742C14.322 7.02427 13.8519 6.11852 13.1992 5.35073C12.5465 4.58295 11.7283 3.97311 10.806 3.56708C9.8837 3.16104 8.88136 2.96937 7.87433 3.00647C6.8673 3.04358 5.88179 3.30849 4.99188 3.78129C4.10197 4.2541 3.33083 4.92249 2.73642 5.73622C2.14201 6.54996 1.73981 7.48785 1.56005 8.4794C1.38029 9.47095 1.42766 10.4903 1.69858 11.461C1.9695 12.4316 2.45694 13.3281 3.12423 14.0832" stroke="#252B34" stroke-width="1.66667" stroke-linecap="round" stroke-linejoin="round"/>
</g>
<defs>
<clipPath id="clip0_4137_5049">
<rect width="20" height="20" fill="white" transform="translate(0.625 0.5)"/>
</clipPath>
</defs>
</svg>
