<svg width="24" height="18" viewBox="0 0 24 18" fill="none" xmlns="http://www.w3.org/2000/svg">
<path d="M14.0141 1.90662C14.7553 2.03522 15.5067 1.56894 15.6739 0.812054C16.8698 0.884242 18.608 1.29451 19.7265 2.45859C19.7284 2.46057 19.7303 2.46274 19.7342 2.46897C20.8655 4.28771 23.0404 8.93446 23.1922 13.6959C23.1936 13.7401 23.1769 13.7598 23.1723 13.7639C22.2544 14.5974 20.1556 16.0056 17.3318 16.5405C17.2895 16.5485 17.219 16.5309 17.174 16.4521L16.6598 15.5522C16.2506 14.8362 15.4399 14.5251 14.699 14.6483C13.5227 14.8439 11.4737 14.9909 9.13756 14.6256C8.35926 14.5039 7.55476 14.8842 7.19466 15.6292L6.82326 16.3976C6.8027 16.4401 6.77198 16.4675 6.74327 16.4815C6.71652 16.4945 6.69238 16.4963 6.66844 16.49C5.23427 16.1122 2.8672 15.2409 0.90229 13.7655C0.870735 13.7419 0.845908 13.6959 0.852978 13.6367C1.01772 12.258 1.35601 10.2223 1.89504 8.1454C2.43726 6.05621 3.16739 3.98602 4.09247 2.49868C4.0948 2.49494 4.09649 2.49254 4.09747 2.49121C4.63619 2.02812 6.09128 1.13677 8.13083 0.872869C8.35035 1.61541 9.11689 2.0175 9.82284 1.89112C10.7511 1.72495 12.2944 1.60823 14.0141 1.90662Z" stroke="black" stroke-width="1.6" stroke-linecap="round" stroke-linejoin="round"/>
<path d="M5.21412 12.7892C4.82381 12.6505 4.39498 12.8545 4.25632 13.2448C4.11765 13.6351 4.32165 14.064 4.71197 14.2026L5.21412 12.7892ZM19.2991 14.1986C19.6872 14.0538 19.8844 13.6218 19.7396 13.2337C19.5948 12.8456 19.1628 12.6484 18.7748 12.7932L19.2991 14.1986ZM4.71197 14.2026C7.84406 15.3154 12.6032 16.6971 19.2991 14.1986L18.7748 12.7932C12.5496 15.116 8.189 13.8461 5.21412 12.7892L4.71197 14.2026Z" fill="black"/>
<path d="M9.84854 8.71759C9.84854 9.72014 9.13752 10.397 8.41903 10.397C7.70054 10.397 6.98952 9.72014 6.98952 8.71759C6.98952 7.71505 7.70054 7.03823 8.41903 7.03823C9.13752 7.03823 9.84854 7.71505 9.84854 8.71759Z" stroke="black" stroke-width="1.4"/>
<path d="M17.0105 8.71759C17.0105 9.72014 16.2995 10.397 15.581 10.397C14.8625 10.397 14.1515 9.72014 14.1515 8.71759C14.1515 7.71505 14.8625 7.03823 15.581 7.03823C16.2995 7.03823 17.0105 7.71505 17.0105 8.71759Z" stroke="black" stroke-width="1.4"/>
</svg>
