<svg width="24" height="24" viewBox="0 0 24 24" fill="none" xmlns="http://www.w3.org/2000/svg">
<path fill-rule="evenodd" clip-rule="evenodd" d="M16.2929 9.29289L13 12.5858V2H11V12.5858L7.70711 9.29289L6.29289 10.7071L12 16.4142L17.7071 10.7071L16.2929 9.29289ZM22 20V16H20V20H4V16H2V20C2 21.1046 2.89543 22 4 22H20C21.1046 22 22 21.1046 22 20Z" fill="black"/>
<path d="M13 12.5858H12.8V13.0686L13.1414 12.7272L13 12.5858ZM16.2929 9.29289L16.4343 9.15147L16.2929 9.01005L16.1515 9.15147L16.2929 9.29289ZM13 2H13.2V1.8H13V2ZM11 2V1.8H10.8V2H11ZM11 12.5858L10.8586 12.7272L11.2 13.0686V12.5858H11ZM7.70711 9.29289L7.84853 9.15147L7.70711 9.01005L7.56569 9.15147L7.70711 9.29289ZM6.29289 10.7071L6.15147 10.5657L6.01005 10.7071L6.15147 10.8485L6.29289 10.7071ZM12 16.4142L11.8586 16.5556L12 16.6971L12.1414 16.5556L12 16.4142ZM17.7071 10.7071L17.8485 10.8485L17.9899 10.7071L17.8485 10.5657L17.7071 10.7071ZM22 16H22.2V15.8H22V16ZM20 16V15.8H19.8V16H20ZM20 20V20.2H20.2V20H20ZM4 20H3.8V20.2H4V20ZM4 16H4.2V15.8H4V16ZM2 16V15.8H1.8V16H2ZM13.1414 12.7272L16.4343 9.43431L16.1515 9.15147L12.8586 12.4444L13.1414 12.7272ZM12.8 2V12.5858H13.2V2H12.8ZM11 2.2H13V1.8H11V2.2ZM11.2 12.5858V2H10.8V12.5858H11.2ZM7.56569 9.43431L10.8586 12.7272L11.1414 12.4444L7.84853 9.15147L7.56569 9.43431ZM6.43431 10.8485L7.84853 9.43431L7.56569 9.15147L6.15147 10.5657L6.43431 10.8485ZM12.1414 16.2728L6.43431 10.5657L6.15147 10.8485L11.8586 16.5556L12.1414 16.2728ZM17.5657 10.5657L11.8586 16.2728L12.1414 16.5556L17.8485 10.8485L17.5657 10.5657ZM16.1515 9.43431L17.5657 10.8485L17.8485 10.5657L16.4343 9.15147L16.1515 9.43431ZM21.8 16V20H22.2V16H21.8ZM20 16.2H22V15.8H20V16.2ZM20.2 20V16H19.8V20H20.2ZM4 20.2H20V19.8H4V20.2ZM3.8 16V20H4.2V16H3.8ZM2 16.2H4V15.8H2V16.2ZM2.2 20V16H1.8V20H2.2ZM4 21.8C3.00589 21.8 2.2 20.9941 2.2 20H1.8C1.8 21.215 2.78497 22.2 4 22.2V21.8ZM20 21.8H4V22.2H20V21.8ZM21.8 20C21.8 20.9941 20.9941 21.8 20 21.8V22.2C21.215 22.2 22.2 21.215 22.2 20H21.8Z" fill="white"/>
</svg>
