<svg width="16" height="16" viewBox="0 0 16 16" fill="none" xmlns="http://www.w3.org/2000/svg">
<path d="M7.8 1.80829C7.92376 1.73684 8.07624 1.73684 8.2 1.80829L13.2622 4.73094C13.3859 4.80239 13.4622 4.93444 13.4622 5.07735V10.9227C13.4622 11.0656 13.3859 11.1976 13.2622 11.2691L8.2 14.1917C8.07624 14.2632 7.92376 14.2632 7.8 14.1917L2.73782 11.2691C2.61406 11.1976 2.53782 11.0656 2.53782 10.9226V5.07735C2.53782 4.93444 2.61406 4.80239 2.73782 4.73094L7.8 1.80829Z" fill="white" stroke="black" stroke-width="1.2"/>
<path d="M6.72329 6.23486V8.20728L5.06915 6.23486H4.56036V9.22486H5.16673V7.30587L6.82319 9.22486H7.33197V8.06324H8.78167V7.51496H7.33197V6.78315H10.0153V9.22486H10.624V6.78315H11.6183V6.23486H6.72329Z" fill="black" stroke="black" stroke-width="0.0846956"/>
</svg>
