<svg width="25" height="25" viewBox="0 0 25 25" fill="none" xmlns="http://www.w3.org/2000/svg">
<path d="M12.4998 8.49996V12.5M12.4998 16.5H12.5098M10.7898 3.35996L2.31978 17.5C2.14514 17.8024 2.05274 18.1453 2.05177 18.4945C2.05079 18.8437 2.14127 19.1871 2.3142 19.4905C2.48714 19.7939 2.7365 20.0467 3.03748 20.2238C3.33847 20.4009 3.68058 20.4961 4.02978 20.5H20.9698C21.319 20.4961 21.6611 20.4009 21.9621 20.2238C22.2631 20.0467 22.5124 19.7939 22.6854 19.4905C22.8583 19.1871 22.9488 18.8437 22.9478 18.4945C22.9468 18.1453 22.8544 17.8024 22.6798 17.5L14.2098 3.35996C14.0315 3.06607 13.7805 2.82308 13.481 2.65444C13.1814 2.48581 12.8435 2.39722 12.4998 2.39722C12.156 2.39722 11.8181 2.48581 11.5186 2.65444C11.2191 2.82308 10.968 3.06607 10.7898 3.35996Z" stroke="#252B34" stroke-width="2" stroke-linecap="round" stroke-linejoin="round"/>
</svg>
