<svg width="25" height="24" viewBox="0 0 25 24" fill="none" xmlns="http://www.w3.org/2000/svg">
<path d="M5.38477 15H4.38477C3.85433 15 3.34562 14.7893 2.97055 14.4142C2.59548 14.0391 2.38477 13.5304 2.38477 13V4C2.38477 3.46957 2.59548 2.96086 2.97055 2.58579C3.34562 2.21071 3.85433 2 4.38477 2H13.3848C13.9152 2 14.4239 2.21071 14.799 2.58579C15.1741 2.96086 15.3848 3.46957 15.3848 4V5M11.3848 9H20.3848C21.4893 9 22.3848 9.89543 22.3848 11V20C22.3848 21.1046 21.4893 22 20.3848 22H11.3848C10.2802 22 9.38477 21.1046 9.38477 20V11C9.38477 9.89543 10.2802 9 11.3848 9Z" stroke="#252B34" stroke-width="2" stroke-linecap="round" stroke-linejoin="round"/>
</svg>
