<svg width="689" height="91" viewBox="0 0 689 91" fill="none" xmlns="http://www.w3.org/2000/svg">
<path d="M27.2424 3.768C27.0184 3.45867 26.7144 3.208 26.3304 3.016C25.9464 2.81333 25.5144 2.712 25.0344 2.712C24.7784 2.712 24.517 2.74933 24.2504 2.824C23.9944 2.888 23.7597 3 23.5464 3.16C23.333 3.30933 23.157 3.50133 23.0184 3.736C22.8904 3.96 22.8264 4.232 22.8264 4.552C22.8264 4.86133 22.885 5.12267 23.0024 5.336C23.1304 5.53867 23.2957 5.71467 23.4984 5.864C23.7117 6.00267 23.957 6.12533 24.2344 6.232C24.5224 6.328 24.8264 6.42933 25.1464 6.536C25.5304 6.65333 25.9197 6.78667 26.3144 6.936C26.709 7.08533 27.0664 7.28267 27.3864 7.528C27.7064 7.77333 27.9677 8.08267 28.1704 8.456C28.373 8.81867 28.4744 9.28267 28.4744 9.848C28.4744 10.4347 28.3624 10.9467 28.1384 11.384C27.925 11.8107 27.637 12.168 27.2744 12.456C26.9117 12.7333 26.4904 12.9413 26.0104 13.08C25.541 13.2187 25.0557 13.288 24.5544 13.288C23.8397 13.288 23.1464 13.1493 22.4744 12.872C21.813 12.5947 21.2637 12.184 20.8264 11.64L22.0584 10.6C22.325 10.9947 22.6824 11.3147 23.1304 11.56C23.5784 11.8053 24.0637 11.928 24.5864 11.928C24.853 11.928 25.1197 11.8907 25.3864 11.816C25.653 11.7413 25.893 11.624 26.1064 11.464C26.3304 11.304 26.5117 11.1067 26.6504 10.872C26.789 10.6267 26.8584 10.3333 26.8584 9.992C26.8584 9.65067 26.7837 9.368 26.6344 9.144C26.4957 8.90933 26.3037 8.712 26.0584 8.552C25.813 8.392 25.525 8.25867 25.1944 8.152C24.8744 8.03467 24.533 7.91733 24.1704 7.8C23.8077 7.69333 23.4504 7.56533 23.0984 7.416C22.7464 7.256 22.4317 7.05867 22.1544 6.824C21.877 6.57867 21.653 6.28 21.4824 5.928C21.3117 5.576 21.2264 5.13867 21.2264 4.616C21.2264 4.05067 21.3384 3.56533 21.5624 3.16C21.797 2.75467 22.0957 2.41867 22.4584 2.152C22.8317 1.88533 23.2477 1.69333 23.7064 1.576C24.1757 1.448 24.645 1.384 25.1144 1.384C25.7757 1.384 26.3944 1.50133 26.9704 1.736C27.5464 1.97067 28.0104 2.28533 28.3624 2.68L27.2424 3.768ZM35.9838 13C35.9624 12.808 35.9464 12.5947 35.9358 12.36C35.9251 12.1147 35.9198 11.912 35.9198 11.752H35.8878C35.6958 12.1573 35.3704 12.504 34.9118 12.792C34.4638 13.0693 33.9624 13.208 33.4078 13.208C32.9171 13.208 32.4904 13.128 32.1278 12.968C31.7758 12.808 31.4824 12.5893 31.2478 12.312C31.0238 12.024 30.8531 11.6933 30.7358 11.32C30.6291 10.9467 30.5758 10.5467 30.5758 10.12V5.416H32.0798V9.608C32.0798 9.91733 32.1011 10.216 32.1438 10.504C32.1971 10.7813 32.2878 11.0267 32.4158 11.24C32.5438 11.4533 32.7198 11.624 32.9438 11.752C33.1678 11.88 33.4558 11.944 33.8078 11.944C34.4158 11.944 34.9064 11.72 35.2798 11.272C35.6531 10.8133 35.8398 10.2053 35.8398 9.448V5.416H37.3438V11.368C37.3438 11.5707 37.3491 11.832 37.3598 12.152C37.3704 12.472 37.3864 12.7547 37.4078 13H35.9838ZM41.4403 11.8V13H39.9843V0.903999H41.4883V6.552H41.5363C41.7923 6.17867 42.1496 5.864 42.6083 5.608C43.0669 5.34133 43.6109 5.208 44.2403 5.208C44.8056 5.208 45.3176 5.30933 45.7763 5.512C46.2456 5.71467 46.6456 5.99733 46.9763 6.36C47.3176 6.72267 47.5789 7.14933 47.7603 7.64C47.9416 8.12 48.0323 8.63733 48.0323 9.192C48.0323 9.74667 47.9416 10.2693 47.7603 10.76C47.5789 11.2507 47.3229 11.6773 46.9923 12.04C46.6616 12.4027 46.2616 12.6907 45.7923 12.904C45.3229 13.1067 44.7949 13.208 44.2083 13.208C43.6643 13.208 43.1469 13.0907 42.6562 12.856C42.1656 12.6107 41.7709 12.2587 41.4723 11.8H41.4403ZM46.4803 9.192C46.4803 8.84 46.4269 8.49867 46.3203 8.168C46.2136 7.83733 46.0536 7.544 45.8403 7.288C45.6269 7.032 45.3603 6.82933 45.0403 6.68C44.7309 6.53067 44.3683 6.456 43.9523 6.456C43.5683 6.456 43.2163 6.53067 42.8963 6.68C42.5869 6.82933 42.3203 7.032 42.0963 7.288C41.8723 7.544 41.6963 7.83733 41.5683 8.168C41.4509 8.49867 41.3923 8.84533 41.3923 9.208C41.3923 9.57067 41.4509 9.91733 41.5683 10.248C41.6963 10.5787 41.8723 10.872 42.0963 11.128C42.3203 11.3733 42.5869 11.5707 42.8963 11.72C43.2163 11.8693 43.5683 11.944 43.9523 11.944C44.3683 11.944 44.7309 11.8693 45.0403 11.72C45.3603 11.56 45.6269 11.352 45.8403 11.096C46.0536 10.84 46.2136 10.5467 46.3203 10.216C46.4269 9.88533 46.4803 9.544 46.4803 9.192ZM51.5961 6.664C51.7881 6.25867 52.0921 5.91733 52.5081 5.64C52.9348 5.352 53.4361 5.208 54.0121 5.208C54.5241 5.208 54.9828 5.32533 55.3881 5.56C55.8041 5.79467 56.1295 6.184 56.3641 6.728C56.6201 6.23733 56.9775 5.864 57.4361 5.608C57.8948 5.34133 58.3961 5.208 58.9401 5.208C59.4308 5.208 59.8521 5.29333 60.2041 5.464C60.5561 5.624 60.8495 5.84267 61.0841 6.12C61.3188 6.39733 61.4895 6.72267 61.5961 7.096C61.7135 7.46933 61.7721 7.86933 61.7721 8.296V13H60.2681V8.792C60.2681 8.48267 60.2415 8.18933 60.1881 7.912C60.1348 7.63467 60.0441 7.38933 59.9161 7.176C59.7881 6.96267 59.6175 6.792 59.4041 6.664C59.1908 6.536 58.9188 6.472 58.5881 6.472C58.2468 6.472 57.9535 6.54667 57.7081 6.696C57.4628 6.83467 57.2601 7.02133 57.1001 7.256C56.9508 7.48 56.8388 7.736 56.7641 8.024C56.7001 8.312 56.6681 8.60533 56.6681 8.904V13H55.1641V8.488C55.1641 8.18933 55.1375 7.91733 55.0841 7.672C55.0308 7.42667 54.9401 7.21867 54.8121 7.048C54.6841 6.86667 54.5188 6.728 54.3161 6.632C54.1135 6.52533 53.8628 6.472 53.5641 6.472C53.0095 6.472 52.5455 6.70133 52.1721 7.16C51.8095 7.608 51.6281 8.21067 51.6281 8.968V13H50.1241V7.048C50.1241 6.84533 50.1188 6.584 50.1081 6.264C50.0975 5.944 50.0815 5.66133 50.0601 5.416H51.4841C51.5055 5.608 51.5215 5.82667 51.5321 6.072C51.5428 6.30667 51.5481 6.504 51.5481 6.664H51.5961ZM65.8316 13H64.3276V5.416H65.8316V13ZM66.0876 2.68C66.0876 2.95733 65.9863 3.18667 65.7836 3.368C65.5916 3.54933 65.357 3.64 65.0796 3.64C64.8023 3.64 64.5676 3.54933 64.3756 3.368C64.1836 3.176 64.0876 2.94667 64.0876 2.68C64.0876 2.40267 64.1836 2.17333 64.3756 1.992C64.5676 1.8 64.8023 1.704 65.0796 1.704C65.357 1.704 65.5916 1.8 65.7836 1.992C65.9863 2.17333 66.0876 2.40267 66.0876 2.68ZM72.1643 6.648H70.1483V10.6C70.1483 11.0587 70.2336 11.3893 70.4043 11.592C70.5749 11.784 70.8469 11.88 71.2203 11.88C71.3589 11.88 71.5083 11.864 71.6683 11.832C71.8283 11.8 71.9723 11.752 72.1003 11.688L72.1483 12.92C71.9669 12.984 71.7643 13.032 71.5403 13.064C71.3269 13.1067 71.1029 13.128 70.8683 13.128C70.1536 13.128 69.6043 12.9307 69.2203 12.536C68.8469 12.1413 68.6603 11.5493 68.6603 10.76V6.648H67.2043V5.416H68.6603V3.24H70.1483V5.416H72.1643V6.648ZM79.3819 6.664H79.4139L84.4699 1.672H86.6619L81.1579 6.856L86.9979 13H84.7259L79.4139 7.144H79.3819V13H77.7979V1.672H79.3819V6.664ZM92.667 13H91.067V8.104L86.827 1.672H88.779L91.915 6.792L95.067 1.672H96.907L92.667 8.104V13ZM107.526 11.24C107.078 11.848 106.496 12.344 105.782 12.728C105.067 13.1013 104.208 13.288 103.206 13.288C102.342 13.288 101.542 13.144 100.806 12.856C100.08 12.5573 99.4508 12.1467 98.9175 11.624C98.3948 11.0907 97.9842 10.4613 97.6855 9.736C97.3868 9 97.2375 8.19467 97.2375 7.32C97.2375 6.43467 97.3868 5.62933 97.6855 4.904C97.9948 4.168 98.4162 3.544 98.9495 3.032C99.4935 2.50933 100.134 2.104 100.87 1.816C101.606 1.528 102.406 1.384 103.27 1.384C103.654 1.384 104.043 1.42133 104.438 1.496C104.832 1.57067 105.211 1.68267 105.574 1.832C105.936 1.98133 106.267 2.168 106.566 2.392C106.864 2.60533 107.12 2.856 107.334 3.144L106.086 4.104C105.808 3.72 105.414 3.40533 104.902 3.16C104.4 2.904 103.856 2.776 103.27 2.776C102.608 2.776 102.011 2.89867 101.478 3.144C100.955 3.37867 100.507 3.704 100.134 4.12C99.7602 4.536 99.4722 5.02133 99.2695 5.576C99.0668 6.12 98.9655 6.70133 98.9655 7.32C98.9655 7.96 99.0615 8.55733 99.2535 9.112C99.4562 9.66667 99.7388 10.152 100.102 10.568C100.475 10.9733 100.923 11.2933 101.446 11.528C101.979 11.7627 102.571 11.88 103.222 11.88C103.862 11.88 104.443 11.752 104.966 11.496C105.488 11.24 105.92 10.8667 106.262 10.376L107.526 11.24ZM15.3049 39.8C15.0169 40.2587 14.6223 40.6107 14.1209 40.856C13.6303 41.0907 13.1129 41.208 12.5689 41.208C11.9823 41.208 11.4543 41.1067 10.9849 40.904C10.5156 40.6907 10.1156 40.4027 9.78494 40.04C9.45427 39.6773 9.19827 39.2507 9.01694 38.76C8.8356 38.2693 8.74494 37.7467 8.74494 37.192C8.74494 36.6373 8.8356 36.12 9.01694 35.64C9.19827 35.1493 9.45427 34.7227 9.78494 34.36C10.1263 33.9973 10.5316 33.7147 11.0009 33.512C11.4703 33.3093 11.9876 33.208 12.5529 33.208C13.1716 33.208 13.7103 33.3413 14.1689 33.608C14.6276 33.864 14.9903 34.1787 15.2569 34.552H15.2889V28.904H16.7929V41H15.3369V39.8H15.3049ZM10.3129 37.192C10.3129 37.544 10.3663 37.8853 10.4729 38.216C10.5796 38.5467 10.7396 38.84 10.9529 39.096C11.1663 39.352 11.4276 39.56 11.7369 39.72C12.0463 39.8693 12.4089 39.944 12.8249 39.944C13.2089 39.944 13.5556 39.8693 13.8649 39.72C14.1849 39.5707 14.4569 39.3733 14.6809 39.128C14.9049 38.872 15.0756 38.5787 15.1929 38.248C15.3209 37.9173 15.3849 37.5707 15.3849 37.208C15.3849 36.8453 15.3209 36.4987 15.1929 36.168C15.0756 35.8373 14.9049 35.544 14.6809 35.288C14.4569 35.032 14.1849 34.8293 13.8649 34.68C13.5556 34.5307 13.2089 34.456 12.8249 34.456C12.4089 34.456 12.0463 34.5307 11.7369 34.68C11.4276 34.8293 11.1663 35.032 10.9529 35.288C10.7396 35.544 10.5796 35.8373 10.4729 36.168C10.3663 36.4987 10.3129 36.84 10.3129 37.192ZM27.0932 37.192C27.0932 37.7787 26.9865 38.3173 26.7732 38.808C26.5705 39.2987 26.2825 39.7253 25.9092 40.088C25.5465 40.44 25.1145 40.7173 24.6132 40.92C24.1119 41.112 23.5732 41.208 22.9972 41.208C22.4212 41.208 21.8825 41.112 21.3812 40.92C20.8799 40.7173 20.4479 40.44 20.0852 40.088C19.7225 39.7253 19.4345 39.2987 19.2212 38.808C19.0185 38.3173 18.9172 37.7787 18.9172 37.192C18.9172 36.6053 19.0185 36.072 19.2212 35.592C19.4345 35.1013 19.7225 34.68 20.0852 34.328C20.4479 33.976 20.8799 33.704 21.3812 33.512C21.8825 33.3093 22.4212 33.208 22.9972 33.208C23.5732 33.208 24.1119 33.3093 24.6132 33.512C25.1145 33.704 25.5465 33.976 25.9092 34.328C26.2825 34.68 26.5705 35.1013 26.7732 35.592C26.9865 36.072 27.0932 36.6053 27.0932 37.192ZM25.5252 37.192C25.5252 36.8293 25.4665 36.4827 25.3492 36.152C25.2425 35.8213 25.0825 35.5333 24.8692 35.288C24.6559 35.032 24.3892 34.8293 24.0692 34.68C23.7599 34.5307 23.4025 34.456 22.9972 34.456C22.5919 34.456 22.2292 34.5307 21.9092 34.68C21.5999 34.8293 21.3385 35.032 21.1252 35.288C20.9119 35.5333 20.7465 35.8213 20.6292 36.152C20.5225 36.4827 20.4692 36.8293 20.4692 37.192C20.4692 37.5547 20.5225 37.9013 20.6292 38.232C20.7465 38.5627 20.9119 38.856 21.1252 39.112C21.3385 39.368 21.5999 39.5707 21.9092 39.72C22.2292 39.8693 22.5919 39.944 22.9972 39.944C23.4025 39.944 23.7599 39.8693 24.0692 39.72C24.3892 39.5707 24.6559 39.368 24.8692 39.112C25.0825 38.856 25.2425 38.5627 25.3492 38.232C25.4665 37.9013 25.5252 37.5547 25.5252 37.192ZM34.4908 35.336C34.3308 35.0907 34.0908 34.888 33.7708 34.728C33.4508 34.5573 33.1095 34.472 32.7468 34.472C32.3521 34.472 32.0001 34.5467 31.6908 34.696C31.3921 34.8453 31.1361 35.048 30.9228 35.304C30.7095 35.5493 30.5441 35.8373 30.4268 36.168C30.3201 36.4987 30.2668 36.8453 30.2668 37.208C30.2668 37.5707 30.3201 37.9173 30.4268 38.248C30.5441 38.5787 30.7095 38.872 30.9228 39.128C31.1361 39.3733 31.3975 39.5707 31.7068 39.72C32.0161 39.8693 32.3681 39.944 32.7628 39.944C33.1468 39.944 33.4935 39.8693 33.8028 39.72C34.1228 39.5707 34.3841 39.368 34.5868 39.112L35.5948 40.024C35.2748 40.3973 34.8748 40.6907 34.3948 40.904C33.9148 41.1067 33.3708 41.208 32.7628 41.208C32.1761 41.208 31.6321 41.112 31.1308 40.92C30.6401 40.728 30.2135 40.4613 29.8508 40.12C29.4881 39.768 29.2001 39.3467 28.9868 38.856C28.7841 38.3653 28.6828 37.816 28.6828 37.208C28.6828 36.6107 28.7841 36.0667 28.9868 35.576C29.1895 35.0853 29.4721 34.664 29.8348 34.312C30.1975 33.96 30.6241 33.688 31.1148 33.496C31.6161 33.304 32.1548 33.208 32.7308 33.208C33.2641 33.208 33.7921 33.3147 34.3148 33.528C34.8481 33.7413 35.2695 34.0507 35.5788 34.456L34.4908 35.336ZM42.4291 41C42.4077 40.808 42.3917 40.5947 42.3811 40.36C42.3704 40.1147 42.3651 39.912 42.3651 39.752H42.3331C42.1411 40.1573 41.8157 40.504 41.3571 40.792C40.9091 41.0693 40.4077 41.208 39.8531 41.208C39.3624 41.208 38.9357 41.128 38.5731 40.968C38.2211 40.808 37.9277 40.5893 37.6931 40.312C37.4691 40.024 37.2984 39.6933 37.1811 39.32C37.0744 38.9467 37.0211 38.5467 37.0211 38.12V33.416H38.5251V37.608C38.5251 37.9173 38.5464 38.216 38.5891 38.504C38.6424 38.7813 38.7331 39.0267 38.8611 39.24C38.9891 39.4533 39.1651 39.624 39.3891 39.752C39.6131 39.88 39.9011 39.944 40.2531 39.944C40.8611 39.944 41.3517 39.72 41.7251 39.272C42.0984 38.8133 42.2851 38.2053 42.2851 37.448V33.416H43.7891V39.368C43.7891 39.5707 43.7944 39.832 43.8051 40.152C43.8157 40.472 43.8317 40.7547 43.8531 41H42.4291ZM47.8696 34.664C48.0616 34.2587 48.3656 33.9173 48.7816 33.64C49.2082 33.352 49.7096 33.208 50.2856 33.208C50.7976 33.208 51.2562 33.3253 51.6616 33.56C52.0776 33.7947 52.4029 34.184 52.6376 34.728C52.8936 34.2373 53.2509 33.864 53.7096 33.608C54.1682 33.3413 54.6696 33.208 55.2136 33.208C55.7042 33.208 56.1256 33.2933 56.4776 33.464C56.8296 33.624 57.1229 33.8427 57.3576 34.12C57.5922 34.3973 57.7629 34.7227 57.8696 35.096C57.9869 35.4693 58.0456 35.8693 58.0456 36.296V41H56.5416V36.792C56.5416 36.4827 56.5149 36.1893 56.4616 35.912C56.4082 35.6347 56.3176 35.3893 56.1896 35.176C56.0616 34.9627 55.8909 34.792 55.6776 34.664C55.4642 34.536 55.1922 34.472 54.8616 34.472C54.5202 34.472 54.2269 34.5467 53.9816 34.696C53.7362 34.8347 53.5336 35.0213 53.3736 35.256C53.2242 35.48 53.1122 35.736 53.0376 36.024C52.9736 36.312 52.9416 36.6053 52.9416 36.904V41H51.4376V36.488C51.4376 36.1893 51.4109 35.9173 51.3576 35.672C51.3042 35.4267 51.2136 35.2187 51.0856 35.048C50.9576 34.8667 50.7922 34.728 50.5896 34.632C50.3869 34.5253 50.1362 34.472 49.8376 34.472C49.2829 34.472 48.8189 34.7013 48.4456 35.16C48.0829 35.608 47.9016 36.2107 47.9016 36.968V41H46.3976V35.048C46.3976 34.8453 46.3922 34.584 46.3816 34.264C46.3709 33.944 46.3549 33.6613 46.3336 33.416H47.7576C47.7789 33.608 47.7949 33.8267 47.8056 34.072C47.8162 34.3067 47.8216 34.504 47.8216 34.664H47.8696ZM66.1371 36.536C66.1264 36.2373 66.0731 35.96 65.9771 35.704C65.8917 35.4373 65.7584 35.208 65.5771 35.016C65.4064 34.824 65.1877 34.6747 64.9211 34.568C64.6651 34.4507 64.3611 34.392 64.0091 34.392C63.6891 34.392 63.3851 34.4507 63.0971 34.568C62.8197 34.6747 62.5744 34.824 62.3611 35.016C62.1584 35.208 61.9877 35.4373 61.8491 35.704C61.7211 35.96 61.6464 36.2373 61.6251 36.536H66.1371ZM67.6571 37.144C67.6571 37.2293 67.6571 37.3147 67.6571 37.4C67.6571 37.4853 67.6517 37.5707 67.6411 37.656H61.6251C61.6357 37.976 61.7051 38.28 61.8331 38.568C61.9717 38.8453 62.1531 39.0907 62.3771 39.304C62.6011 39.5067 62.8571 39.6667 63.1451 39.784C63.4437 39.9013 63.7584 39.96 64.0891 39.96C64.6011 39.96 65.0437 39.848 65.4171 39.624C65.7904 39.4 66.0837 39.128 66.2971 38.808L67.3531 39.656C66.9477 40.1893 66.4677 40.584 65.9131 40.84C65.3691 41.0853 64.7611 41.208 64.0891 41.208C63.5131 41.208 62.9797 41.112 62.4891 40.92C61.9984 40.728 61.5771 40.4613 61.2251 40.12C60.8731 39.768 60.5957 39.3467 60.3931 38.856C60.1904 38.3653 60.0891 37.8213 60.0891 37.224C60.0891 36.6373 60.1851 36.0987 60.3771 35.608C60.5797 35.1067 60.8571 34.68 61.2091 34.328C61.5611 33.976 61.9771 33.704 62.4571 33.512C62.9371 33.3093 63.4544 33.208 64.0091 33.208C64.5637 33.208 65.0651 33.2987 65.5131 33.48C65.9717 33.6613 66.3557 33.9227 66.6651 34.264C66.9851 34.6053 67.2304 35.0213 67.4011 35.512C67.5717 35.992 67.6571 36.536 67.6571 37.144ZM71.1169 33.416C71.1383 33.608 71.1543 33.8267 71.1649 34.072C71.1756 34.3067 71.1809 34.504 71.1809 34.664H71.2289C71.3249 34.4613 71.4529 34.2747 71.6129 34.104C71.7836 33.9227 71.9756 33.768 72.1889 33.64C72.4023 33.5013 72.6369 33.3947 72.8929 33.32C73.1489 33.2453 73.4156 33.208 73.6929 33.208C74.1836 33.208 74.6049 33.2933 74.9569 33.464C75.3089 33.624 75.6023 33.8427 75.8369 34.12C76.0716 34.3973 76.2423 34.7227 76.3489 35.096C76.4663 35.4693 76.5249 35.8693 76.5249 36.296V41H75.0209V36.792C75.0209 36.4827 74.9943 36.1893 74.9409 35.912C74.8983 35.6347 74.8129 35.3893 74.6849 35.176C74.5569 34.9627 74.3809 34.792 74.1569 34.664C73.9329 34.536 73.6449 34.472 73.2929 34.472C72.6956 34.472 72.2049 34.7013 71.8209 35.16C71.4476 35.608 71.2609 36.2107 71.2609 36.968V41H69.7569V35.048C69.7569 34.8453 69.7516 34.584 69.7409 34.264C69.7303 33.944 69.7143 33.6613 69.6929 33.416H71.1169ZM82.7814 34.648H80.7654V38.6C80.7654 39.0587 80.8508 39.3893 81.0214 39.592C81.1921 39.784 81.4641 39.88 81.8374 39.88C81.9761 39.88 82.1254 39.864 82.2854 39.832C82.4454 39.8 82.5894 39.752 82.7174 39.688L82.7654 40.92C82.5841 40.984 82.3814 41.032 82.1574 41.064C81.9441 41.1067 81.7201 41.128 81.4854 41.128C80.7708 41.128 80.2214 40.9307 79.8374 40.536C79.4641 40.1413 79.2774 39.5493 79.2774 38.76V34.648H77.8214V33.416H79.2774V31.24H80.7654V33.416H82.7814V34.648ZM89.0551 36.088C89.0551 35.5227 88.8844 35.1067 88.5431 34.84C88.2017 34.5627 87.7484 34.424 87.1831 34.424C86.7564 34.424 86.3511 34.5093 85.9671 34.68C85.5937 34.84 85.2791 35.048 85.0231 35.304L84.2231 34.344C84.5964 33.992 85.0497 33.7147 85.5831 33.512C86.1271 33.3093 86.7084 33.208 87.3271 33.208C87.8711 33.208 88.3404 33.288 88.7351 33.448C89.1404 33.5973 89.4711 33.8053 89.7271 34.072C89.9831 34.3387 90.1751 34.6533 90.3031 35.016C90.4311 35.3787 90.4951 35.768 90.4951 36.184V39.496C90.4951 39.752 90.5004 40.024 90.5111 40.312C90.5324 40.5893 90.5644 40.8187 90.6071 41H89.2471C89.1617 40.6373 89.1191 40.2747 89.1191 39.912H89.0711C88.7937 40.3173 88.4417 40.632 88.0151 40.856C87.5991 41.08 87.1031 41.192 86.5271 41.192C86.2284 41.192 85.9137 41.1493 85.5831 41.064C85.2631 40.9893 84.9697 40.8613 84.7031 40.68C84.4364 40.4987 84.2124 40.2587 84.0311 39.96C83.8604 39.6613 83.7751 39.2933 83.7751 38.856C83.7751 38.28 83.9297 37.8267 84.2391 37.496C84.5484 37.1547 84.9537 36.8987 85.4551 36.728C85.9564 36.5467 86.5217 36.4293 87.1511 36.376C87.7804 36.3227 88.4151 36.296 89.0551 36.296V36.088ZM88.6871 37.384C88.3137 37.384 87.9244 37.4 87.5191 37.432C87.1244 37.464 86.7617 37.528 86.4311 37.624C86.1111 37.72 85.8444 37.864 85.6311 38.056C85.4177 38.248 85.3111 38.504 85.3111 38.824C85.3111 39.048 85.3537 39.2347 85.4391 39.384C85.5351 39.5333 85.6577 39.656 85.8071 39.752C85.9564 39.848 86.1217 39.9173 86.3031 39.96C86.4844 39.992 86.6711 40.008 86.8631 40.008C87.5671 40.008 88.1057 39.8 88.4791 39.384C88.8631 38.9573 89.0551 38.424 89.0551 37.784V37.384H88.6871ZM96.5627 34.648H94.5467V38.6C94.5467 39.0587 94.632 39.3893 94.8027 39.592C94.9734 39.784 95.2454 39.88 95.6187 39.88C95.7574 39.88 95.9067 39.864 96.0667 39.832C96.2267 39.8 96.3707 39.752 96.4987 39.688L96.5467 40.92C96.3654 40.984 96.1627 41.032 95.9387 41.064C95.7254 41.1067 95.5014 41.128 95.2667 41.128C94.552 41.128 94.0027 40.9307 93.6187 40.536C93.2454 40.1413 93.0587 39.5493 93.0587 38.76V34.648H91.6027V33.416H93.0587V31.24H94.5467V33.416H96.5627V34.648ZM99.6363 41H98.1323V33.416H99.6363V41ZM99.8923 30.68C99.8923 30.9573 99.791 31.1867 99.5883 31.368C99.3963 31.5493 99.1616 31.64 98.8843 31.64C98.607 31.64 98.3723 31.5493 98.1803 31.368C97.9883 31.176 97.8923 30.9467 97.8923 30.68C97.8923 30.4027 97.9883 30.1733 98.1803 29.992C98.3723 29.8 98.607 29.704 98.8843 29.704C99.1616 29.704 99.3963 29.8 99.5883 29.992C99.791 30.1733 99.8923 30.4027 99.8923 30.68ZM109.937 37.192C109.937 37.7787 109.83 38.3173 109.617 38.808C109.414 39.2987 109.126 39.7253 108.753 40.088C108.39 40.44 107.958 40.7173 107.457 40.92C106.956 41.112 106.417 41.208 105.841 41.208C105.265 41.208 104.726 41.112 104.225 40.92C103.724 40.7173 103.292 40.44 102.929 40.088C102.566 39.7253 102.278 39.2987 102.065 38.808C101.862 38.3173 101.761 37.7787 101.761 37.192C101.761 36.6053 101.862 36.072 102.065 35.592C102.278 35.1013 102.566 34.68 102.929 34.328C103.292 33.976 103.724 33.704 104.225 33.512C104.726 33.3093 105.265 33.208 105.841 33.208C106.417 33.208 106.956 33.3093 107.457 33.512C107.958 33.704 108.39 33.976 108.753 34.328C109.126 34.68 109.414 35.1013 109.617 35.592C109.83 36.072 109.937 36.6053 109.937 37.192ZM108.369 37.192C108.369 36.8293 108.31 36.4827 108.193 36.152C108.086 35.8213 107.926 35.5333 107.713 35.288C107.5 35.032 107.233 34.8293 106.913 34.68C106.604 34.5307 106.246 34.456 105.841 34.456C105.436 34.456 105.073 34.5307 104.753 34.68C104.444 34.8293 104.182 35.032 103.969 35.288C103.756 35.5333 103.59 35.8213 103.473 36.152C103.366 36.4827 103.313 36.8293 103.313 37.192C103.313 37.5547 103.366 37.9013 103.473 38.232C103.59 38.5627 103.756 38.856 103.969 39.112C104.182 39.368 104.444 39.5707 104.753 39.72C105.073 39.8693 105.436 39.944 105.841 39.944C106.246 39.944 106.604 39.8693 106.913 39.72C107.233 39.5707 107.5 39.368 107.713 39.112C107.926 38.856 108.086 38.5627 108.193 38.232C108.31 37.9013 108.369 37.5547 108.369 37.192ZM113.383 33.416C113.404 33.608 113.42 33.8267 113.431 34.072C113.441 34.3067 113.447 34.504 113.447 34.664H113.495C113.591 34.4613 113.719 34.2747 113.879 34.104C114.049 33.9227 114.241 33.768 114.455 33.64C114.668 33.5013 114.903 33.3947 115.159 33.32C115.415 33.2453 115.681 33.208 115.959 33.208C116.449 33.208 116.871 33.2933 117.223 33.464C117.575 33.624 117.868 33.8427 118.103 34.12C118.337 34.3973 118.508 34.7227 118.615 35.096C118.732 35.4693 118.791 35.8693 118.791 36.296V41H117.287V36.792C117.287 36.4827 117.26 36.1893 117.207 35.912C117.164 35.6347 117.079 35.3893 116.951 35.176C116.823 34.9627 116.647 34.792 116.423 34.664C116.199 34.536 115.911 34.472 115.559 34.472C114.961 34.472 114.471 34.7013 114.087 35.16C113.713 35.608 113.527 36.2107 113.527 36.968V41H112.023V35.048C112.023 34.8453 112.017 34.584 112.007 34.264C111.996 33.944 111.98 33.6613 111.959 33.416H113.383Z" fill="black"/>
<path d="M229.803 4.008C229.461 3.63467 229.024 3.336 228.491 3.112C227.968 2.888 227.381 2.776 226.731 2.776C226.069 2.776 225.472 2.89867 224.939 3.144C224.405 3.37867 223.952 3.704 223.579 4.12C223.205 4.536 222.917 5.02133 222.715 5.576C222.512 6.12 222.411 6.70133 222.411 7.32C222.411 7.94933 222.512 8.54133 222.715 9.096C222.917 9.65067 223.205 10.136 223.579 10.552C223.952 10.9573 224.411 11.2773 224.955 11.512C225.499 11.7467 226.107 11.864 226.779 11.864C227.312 11.864 227.803 11.816 228.251 11.72C228.699 11.624 229.088 11.4853 229.419 11.304V8.152H226.907V6.808H230.987V12.296C230.389 12.616 229.739 12.8613 229.035 13.032C228.331 13.2027 227.563 13.288 226.731 13.288C225.845 13.288 225.029 13.144 224.283 12.856C223.547 12.5573 222.912 12.1467 222.379 11.624C221.845 11.0907 221.429 10.4613 221.131 9.736C220.832 9 220.683 8.19467 220.683 7.32C220.683 6.43467 220.832 5.62933 221.131 4.904C221.44 4.168 221.861 3.544 222.395 3.032C222.939 2.50933 223.579 2.104 224.315 1.816C225.051 1.528 225.851 1.384 226.715 1.384C227.621 1.384 228.427 1.51733 229.131 1.784C229.845 2.05067 230.437 2.408 230.907 2.856L229.803 4.008ZM239.184 8.536C239.173 8.23733 239.12 7.96 239.024 7.704C238.939 7.43733 238.805 7.208 238.624 7.016C238.453 6.824 238.235 6.67467 237.968 6.568C237.712 6.45067 237.408 6.392 237.056 6.392C236.736 6.392 236.432 6.45067 236.144 6.568C235.867 6.67467 235.621 6.824 235.408 7.016C235.205 7.208 235.035 7.43733 234.896 7.704C234.768 7.96 234.693 8.23733 234.672 8.536H239.184ZM240.704 9.144C240.704 9.22933 240.704 9.31467 240.704 9.4C240.704 9.48533 240.699 9.57067 240.688 9.656H234.672C234.683 9.976 234.752 10.28 234.88 10.568C235.019 10.8453 235.2 11.0907 235.424 11.304C235.648 11.5067 235.904 11.6667 236.192 11.784C236.491 11.9013 236.805 11.96 237.136 11.96C237.648 11.96 238.091 11.848 238.464 11.624C238.837 11.4 239.131 11.128 239.344 10.808L240.4 11.656C239.995 12.1893 239.515 12.584 238.96 12.84C238.416 13.0853 237.808 13.208 237.136 13.208C236.56 13.208 236.027 13.112 235.536 12.92C235.045 12.728 234.624 12.4613 234.272 12.12C233.92 11.768 233.643 11.3467 233.44 10.856C233.237 10.3653 233.136 9.82133 233.136 9.224C233.136 8.63733 233.232 8.09867 233.424 7.608C233.627 7.10667 233.904 6.68 234.256 6.328C234.608 5.976 235.024 5.704 235.504 5.512C235.984 5.30933 236.501 5.208 237.056 5.208C237.611 5.208 238.112 5.29867 238.56 5.48C239.019 5.66133 239.403 5.92267 239.712 6.264C240.032 6.60533 240.277 7.02133 240.448 7.512C240.619 7.992 240.704 8.536 240.704 9.144ZM246.516 6.648H244.5V10.6C244.5 11.0587 244.585 11.3893 244.756 11.592C244.926 11.784 245.198 11.88 245.572 11.88C245.71 11.88 245.86 11.864 246.02 11.832C246.18 11.8 246.324 11.752 246.452 11.688L246.5 12.92C246.318 12.984 246.116 13.032 245.892 13.064C245.678 13.1067 245.454 13.128 245.22 13.128C244.505 13.128 243.956 12.9307 243.572 12.536C243.198 12.1413 243.012 11.5493 243.012 10.76V6.648H241.556V5.416H243.012V3.24H244.5V5.416H246.516V6.648ZM253.733 6.664H253.765L258.821 1.672H261.013L255.509 6.856L261.349 13H259.077L253.765 7.144H253.733V13H252.149V1.672H253.733V6.664ZM267.019 13H265.419V8.104L261.179 1.672H263.131L266.267 6.792L269.419 1.672H271.259L267.019 8.104V13ZM281.877 11.24C281.429 11.848 280.848 12.344 280.133 12.728C279.418 13.1013 278.56 13.288 277.557 13.288C276.693 13.288 275.893 13.144 275.157 12.856C274.432 12.5573 273.802 12.1467 273.269 11.624C272.746 11.0907 272.336 10.4613 272.037 9.736C271.738 9 271.589 8.19467 271.589 7.32C271.589 6.43467 271.738 5.62933 272.037 4.904C272.346 4.168 272.768 3.544 273.301 3.032C273.845 2.50933 274.485 2.104 275.221 1.816C275.957 1.528 276.757 1.384 277.621 1.384C278.005 1.384 278.394 1.42133 278.789 1.496C279.184 1.57067 279.562 1.68267 279.925 1.832C280.288 1.98133 280.618 2.168 280.917 2.392C281.216 2.60533 281.472 2.856 281.685 3.144L280.437 4.104C280.16 3.72 279.765 3.40533 279.253 3.16C278.752 2.904 278.208 2.776 277.621 2.776C276.96 2.776 276.362 2.89867 275.829 3.144C275.306 3.37867 274.858 3.704 274.485 4.12C274.112 4.536 273.824 5.02133 273.621 5.576C273.418 6.12 273.317 6.70133 273.317 7.32C273.317 7.96 273.413 8.55733 273.605 9.112C273.808 9.66667 274.09 10.152 274.453 10.568C274.826 10.9733 275.274 11.2933 275.797 11.528C276.33 11.7627 276.922 11.88 277.573 11.88C278.213 11.88 278.794 11.752 279.317 11.496C279.84 11.24 280.272 10.8667 280.613 10.376L281.877 11.24ZM224.454 36.088C224.454 35.5227 224.283 35.1067 223.942 34.84C223.6 34.5627 223.147 34.424 222.582 34.424C222.155 34.424 221.75 34.5093 221.366 34.68C220.992 34.84 220.678 35.048 220.422 35.304L219.622 34.344C219.995 33.992 220.448 33.7147 220.982 33.512C221.526 33.3093 222.107 33.208 222.726 33.208C223.27 33.208 223.739 33.288 224.134 33.448C224.539 33.5973 224.87 33.8053 225.126 34.072C225.382 34.3387 225.574 34.6533 225.702 35.016C225.83 35.3787 225.894 35.768 225.894 36.184V39.496C225.894 39.752 225.899 40.024 225.91 40.312C225.931 40.5893 225.963 40.8187 226.006 41H224.646C224.56 40.6373 224.518 40.2747 224.518 39.912H224.47C224.192 40.3173 223.84 40.632 223.414 40.856C222.998 41.08 222.502 41.192 221.926 41.192C221.627 41.192 221.312 41.1493 220.982 41.064C220.662 40.9893 220.368 40.8613 220.102 40.68C219.835 40.4987 219.611 40.2587 219.43 39.96C219.259 39.6613 219.174 39.2933 219.174 38.856C219.174 38.28 219.328 37.8267 219.638 37.496C219.947 37.1547 220.352 36.8987 220.854 36.728C221.355 36.5467 221.92 36.4293 222.549 36.376C223.179 36.3227 223.814 36.296 224.454 36.296V36.088ZM224.086 37.384C223.712 37.384 223.323 37.4 222.918 37.432C222.523 37.464 222.16 37.528 221.83 37.624C221.51 37.72 221.243 37.864 221.03 38.056C220.816 38.248 220.71 38.504 220.71 38.824C220.71 39.048 220.752 39.2347 220.838 39.384C220.934 39.5333 221.056 39.656 221.206 39.752C221.355 39.848 221.52 39.9173 221.702 39.96C221.883 39.992 222.07 40.008 222.262 40.008C222.966 40.008 223.504 39.8 223.878 39.384C224.262 38.9573 224.454 38.424 224.454 37.784V37.384H224.086ZM229.909 44.84H228.405V33.416H229.877V34.6H229.925C230.171 34.1947 230.528 33.864 230.997 33.608C231.477 33.3413 232.032 33.208 232.661 33.208C233.227 33.208 233.739 33.3093 234.197 33.512C234.667 33.7147 235.067 33.9973 235.397 34.36C235.739 34.7227 236 35.1493 236.181 35.64C236.363 36.12 236.453 36.6373 236.453 37.192C236.453 37.7467 236.363 38.2693 236.181 38.76C236 39.2507 235.744 39.6773 235.413 40.04C235.083 40.4027 234.683 40.6907 234.213 40.904C233.744 41.1067 233.216 41.208 232.629 41.208C232.085 41.208 231.573 41.0907 231.093 40.856C230.613 40.6213 230.235 40.2907 229.957 39.864H229.909V44.84ZM234.901 37.192C234.901 36.84 234.848 36.4987 234.741 36.168C234.635 35.8373 234.475 35.544 234.261 35.288C234.048 35.032 233.781 34.8293 233.461 34.68C233.152 34.5307 232.789 34.456 232.373 34.456C231.989 34.456 231.637 34.5307 231.317 34.68C231.008 34.8293 230.741 35.032 230.517 35.288C230.293 35.544 230.117 35.8373 229.989 36.168C229.872 36.4987 229.813 36.8453 229.813 37.208C229.813 37.5707 229.872 37.9173 229.989 38.248C230.117 38.5787 230.293 38.872 230.517 39.128C230.741 39.3733 231.008 39.5707 231.317 39.72C231.637 39.8693 231.989 39.944 232.373 39.944C232.789 39.944 233.152 39.8693 233.461 39.72C233.781 39.56 234.048 39.352 234.261 39.096C234.475 38.84 234.635 38.5467 234.741 38.216C234.848 37.8853 234.901 37.544 234.901 37.192ZM240.05 44.84H238.546V33.416H240.018V34.6H240.066C240.311 34.1947 240.669 33.864 241.138 33.608C241.618 33.3413 242.173 33.208 242.802 33.208C243.367 33.208 243.879 33.3093 244.338 33.512C244.807 33.7147 245.207 33.9973 245.538 34.36C245.879 34.7227 246.141 35.1493 246.322 35.64C246.503 36.12 246.594 36.6373 246.594 37.192C246.594 37.7467 246.503 38.2693 246.322 38.76C246.141 39.2507 245.885 39.6773 245.554 40.04C245.223 40.4027 244.823 40.6907 244.354 40.904C243.885 41.1067 243.357 41.208 242.77 41.208C242.226 41.208 241.714 41.0907 241.234 40.856C240.754 40.6213 240.375 40.2907 240.098 39.864H240.05V44.84ZM245.042 37.192C245.042 36.84 244.989 36.4987 244.882 36.168C244.775 35.8373 244.615 35.544 244.402 35.288C244.189 35.032 243.922 34.8293 243.602 34.68C243.293 34.5307 242.93 34.456 242.514 34.456C242.13 34.456 241.778 34.5307 241.458 34.68C241.149 34.8293 240.882 35.032 240.658 35.288C240.434 35.544 240.258 35.8373 240.13 36.168C240.013 36.4987 239.954 36.8453 239.954 37.208C239.954 37.5707 240.013 37.9173 240.13 38.248C240.258 38.5787 240.434 38.872 240.658 39.128C240.882 39.3733 241.149 39.5707 241.458 39.72C241.778 39.8693 242.13 39.944 242.514 39.944C242.93 39.944 243.293 39.8693 243.602 39.72C243.922 39.56 244.189 39.352 244.402 39.096C244.615 38.84 244.775 38.5467 244.882 38.216C244.989 37.8853 245.042 37.544 245.042 37.192ZM248.687 35.048C248.687 34.8453 248.681 34.584 248.671 34.264C248.66 33.944 248.644 33.6613 248.623 33.416H250.047C250.068 33.608 250.084 33.832 250.095 34.088C250.105 34.3333 250.111 34.536 250.111 34.696H250.159C250.372 34.248 250.681 33.8907 251.087 33.624C251.503 33.3467 251.967 33.208 252.479 33.208C252.713 33.208 252.911 33.2293 253.071 33.272L253.007 34.664C252.793 34.6107 252.564 34.584 252.319 34.584C251.956 34.584 251.641 34.6533 251.375 34.792C251.108 34.92 250.884 35.096 250.703 35.32C250.532 35.544 250.404 35.8053 250.319 36.104C250.233 36.392 250.191 36.696 250.191 37.016V41H248.687V35.048ZM261.882 37.192C261.882 37.7787 261.776 38.3173 261.562 38.808C261.36 39.2987 261.072 39.7253 260.698 40.088C260.336 40.44 259.904 40.7173 259.402 40.92C258.901 41.112 258.362 41.208 257.786 41.208C257.21 41.208 256.672 41.112 256.17 40.92C255.669 40.7173 255.237 40.44 254.874 40.088C254.512 39.7253 254.224 39.2987 254.01 38.808C253.808 38.3173 253.706 37.7787 253.706 37.192C253.706 36.6053 253.808 36.072 254.01 35.592C254.224 35.1013 254.512 34.68 254.874 34.328C255.237 33.976 255.669 33.704 256.17 33.512C256.672 33.3093 257.21 33.208 257.786 33.208C258.362 33.208 258.901 33.3093 259.402 33.512C259.904 33.704 260.336 33.976 260.698 34.328C261.072 34.68 261.36 35.1013 261.562 35.592C261.776 36.072 261.882 36.6053 261.882 37.192ZM260.314 37.192C260.314 36.8293 260.256 36.4827 260.138 36.152C260.032 35.8213 259.872 35.5333 259.658 35.288C259.445 35.032 259.178 34.8293 258.858 34.68C258.549 34.5307 258.192 34.456 257.786 34.456C257.381 34.456 257.018 34.5307 256.698 34.68C256.389 34.8293 256.128 35.032 255.914 35.288C255.701 35.5333 255.536 35.8213 255.418 36.152C255.312 36.4827 255.258 36.8293 255.258 37.192C255.258 37.5547 255.312 37.9013 255.418 38.232C255.536 38.5627 255.701 38.856 255.914 39.112C256.128 39.368 256.389 39.5707 256.698 39.72C257.018 39.8693 257.381 39.944 257.786 39.944C258.192 39.944 258.549 39.8693 258.858 39.72C259.178 39.5707 259.445 39.368 259.658 39.112C259.872 38.856 260.032 38.5627 260.138 38.232C260.256 37.9013 260.314 37.5547 260.314 37.192ZM267.536 41H265.904L262.816 33.416H264.48L266.704 39.384H266.736L268.976 33.416H270.576L267.536 41ZM276.75 36.088C276.75 35.5227 276.58 35.1067 276.238 34.84C275.897 34.5627 275.444 34.424 274.878 34.424C274.452 34.424 274.046 34.5093 273.662 34.68C273.289 34.84 272.974 35.048 272.718 35.304L271.918 34.344C272.292 33.992 272.745 33.7147 273.278 33.512C273.822 33.3093 274.404 33.208 275.022 33.208C275.566 33.208 276.036 33.288 276.43 33.448C276.836 33.5973 277.166 33.8053 277.422 34.072C277.678 34.3387 277.87 34.6533 277.998 35.016C278.126 35.3787 278.19 35.768 278.19 36.184V39.496C278.19 39.752 278.196 40.024 278.206 40.312C278.228 40.5893 278.26 40.8187 278.302 41H276.942C276.857 40.6373 276.814 40.2747 276.814 39.912H276.766C276.489 40.3173 276.137 40.632 275.71 40.856C275.294 41.08 274.798 41.192 274.222 41.192C273.924 41.192 273.609 41.1493 273.278 41.064C272.958 40.9893 272.665 40.8613 272.398 40.68C272.132 40.4987 271.908 40.2587 271.726 39.96C271.556 39.6613 271.47 39.2933 271.47 38.856C271.47 38.28 271.625 37.8267 271.934 37.496C272.244 37.1547 272.649 36.8987 273.15 36.728C273.652 36.5467 274.217 36.4293 274.846 36.376C275.476 36.3227 276.11 36.296 276.75 36.296V36.088ZM276.382 37.384C276.009 37.384 275.62 37.4 275.214 37.432C274.82 37.464 274.457 37.528 274.126 37.624C273.806 37.72 273.54 37.864 273.326 38.056C273.113 38.248 273.006 38.504 273.006 38.824C273.006 39.048 273.049 39.2347 273.134 39.384C273.23 39.5333 273.353 39.656 273.502 39.752C273.652 39.848 273.817 39.9173 273.998 39.96C274.18 39.992 274.366 40.008 274.558 40.008C275.262 40.008 275.801 39.8 276.174 39.384C276.558 38.9573 276.75 38.424 276.75 37.784V37.384H276.382ZM282.238 41H280.734V28.904H282.238V41Z" fill="black"/>
<path d="M251 76C256.523 76 261 71.5228 261 66C261 60.4772 256.523 56 251 56C245.477 56 241 60.4772 241 66C241 71.5228 245.477 76 251 76Z" stroke="black" stroke-width="2" stroke-linecap="round" stroke-linejoin="round"/>
<path d="M381.586 3.768C381.362 3.45867 381.058 3.208 380.674 3.016C380.29 2.81333 379.858 2.712 379.378 2.712C379.122 2.712 378.861 2.74933 378.594 2.824C378.338 2.888 378.103 3 377.89 3.16C377.677 3.30933 377.501 3.50133 377.362 3.736C377.234 3.96 377.17 4.232 377.17 4.552C377.17 4.86133 377.229 5.12267 377.346 5.336C377.474 5.53867 377.639 5.71467 377.842 5.864C378.055 6.00267 378.301 6.12533 378.578 6.232C378.866 6.328 379.17 6.42933 379.49 6.536C379.874 6.65333 380.263 6.78667 380.658 6.936C381.053 7.08533 381.41 7.28267 381.73 7.528C382.05 7.77333 382.311 8.08267 382.514 8.456C382.717 8.81867 382.818 9.28267 382.818 9.848C382.818 10.4347 382.706 10.9467 382.482 11.384C382.269 11.8107 381.981 12.168 381.618 12.456C381.255 12.7333 380.834 12.9413 380.354 13.08C379.885 13.2187 379.399 13.288 378.898 13.288C378.183 13.288 377.49 13.1493 376.818 12.872C376.157 12.5947 375.607 12.184 375.17 11.64L376.402 10.6C376.669 10.9947 377.026 11.3147 377.474 11.56C377.922 11.8053 378.407 11.928 378.93 11.928C379.197 11.928 379.463 11.8907 379.73 11.816C379.997 11.7413 380.237 11.624 380.45 11.464C380.674 11.304 380.855 11.1067 380.994 10.872C381.133 10.6267 381.202 10.3333 381.202 9.992C381.202 9.65067 381.127 9.368 380.978 9.144C380.839 8.90933 380.647 8.712 380.402 8.552C380.157 8.392 379.869 8.25867 379.538 8.152C379.218 8.03467 378.877 7.91733 378.514 7.8C378.151 7.69333 377.794 7.56533 377.442 7.416C377.09 7.256 376.775 7.05867 376.498 6.824C376.221 6.57867 375.997 6.28 375.826 5.928C375.655 5.576 375.57 5.13867 375.57 4.616C375.57 4.05067 375.682 3.56533 375.906 3.16C376.141 2.75467 376.439 2.41867 376.802 2.152C377.175 1.88533 377.591 1.69333 378.05 1.576C378.519 1.448 378.989 1.384 379.458 1.384C380.119 1.384 380.738 1.50133 381.314 1.736C381.89 1.97067 382.354 2.28533 382.706 2.68L381.586 3.768ZM386.504 13H385V5.416H386.504V13ZM386.76 2.68C386.76 2.95733 386.658 3.18667 386.456 3.368C386.264 3.54933 386.029 3.64 385.752 3.64C385.474 3.64 385.24 3.54933 385.048 3.368C384.856 3.176 384.76 2.94667 384.76 2.68C384.76 2.40267 384.856 2.17333 385.048 1.992C385.24 1.8 385.474 1.704 385.752 1.704C386.029 1.704 386.264 1.8 386.456 1.992C386.658 2.17333 386.76 2.40267 386.76 2.68ZM389.716 14.296C390.047 14.6693 390.457 14.968 390.948 15.192C391.449 15.416 391.961 15.528 392.484 15.528C392.985 15.528 393.407 15.4533 393.748 15.304C394.089 15.1653 394.361 14.968 394.564 14.712C394.777 14.4667 394.927 14.1733 395.012 13.832C395.108 13.4907 395.156 13.1227 395.156 12.728V11.752H395.124C394.847 12.1787 394.468 12.504 393.988 12.728C393.508 12.952 392.996 13.064 392.452 13.064C391.876 13.064 391.348 12.9627 390.868 12.76C390.399 12.5573 389.999 12.28 389.668 11.928C389.337 11.576 389.081 11.1653 388.9 10.696C388.719 10.216 388.628 9.704 388.628 9.16C388.628 8.616 388.719 8.104 388.9 7.624C389.081 7.144 389.337 6.728 389.668 6.376C389.999 6.01333 390.399 5.73067 390.868 5.528C391.337 5.31467 391.86 5.208 392.436 5.208C392.98 5.208 393.497 5.32533 393.988 5.56C394.489 5.79467 394.884 6.152 395.172 6.632H395.204V5.416H396.66V12.616C396.66 13.1707 396.591 13.6987 396.452 14.2C396.313 14.712 396.079 15.16 395.748 15.544C395.417 15.9387 394.985 16.2533 394.452 16.488C393.919 16.7227 393.257 16.84 392.468 16.84C391.807 16.84 391.14 16.7173 390.468 16.472C389.807 16.2373 389.236 15.9013 388.756 15.464L389.716 14.296ZM390.18 9.128C390.18 9.48 390.233 9.816 390.34 10.136C390.457 10.456 390.623 10.7387 390.836 10.984C391.06 11.2293 391.327 11.4267 391.636 11.576C391.945 11.7253 392.297 11.8 392.692 11.8C393.076 11.8 393.428 11.7307 393.748 11.592C394.068 11.4533 394.34 11.2667 394.564 11.032C394.788 10.7867 394.959 10.504 395.076 10.184C395.204 9.85333 395.268 9.50133 395.268 9.128C395.268 8.76533 395.204 8.424 395.076 8.104C394.959 7.784 394.783 7.50133 394.548 7.256C394.324 7.01067 394.052 6.81867 393.732 6.68C393.423 6.53067 393.076 6.456 392.692 6.456C392.297 6.456 391.945 6.53067 391.636 6.68C391.327 6.81867 391.06 7.01067 390.836 7.256C390.623 7.49067 390.457 7.77333 390.34 8.104C390.233 8.424 390.18 8.76533 390.18 9.128ZM400.594 5.416C400.615 5.608 400.631 5.82667 400.642 6.072C400.652 6.30667 400.658 6.504 400.658 6.664H400.706C400.802 6.46133 400.93 6.27467 401.09 6.104C401.26 5.92267 401.452 5.768 401.666 5.64C401.879 5.50133 402.114 5.39467 402.37 5.32C402.626 5.24533 402.892 5.208 403.17 5.208C403.66 5.208 404.082 5.29333 404.434 5.464C404.786 5.624 405.079 5.84267 405.314 6.12C405.548 6.39733 405.719 6.72267 405.826 7.096C405.943 7.46933 406.002 7.86933 406.002 8.296V13H404.498V8.792C404.498 8.48267 404.471 8.18933 404.418 7.912C404.375 7.63467 404.29 7.38933 404.162 7.176C404.034 6.96267 403.858 6.792 403.634 6.664C403.41 6.536 403.122 6.472 402.77 6.472C402.172 6.472 401.682 6.70133 401.298 7.16C400.924 7.608 400.738 8.21067 400.738 8.968V13H399.234V7.048C399.234 6.84533 399.228 6.584 399.218 6.264C399.207 5.944 399.191 5.66133 399.17 5.416H400.594ZM416.642 7.336C416.471 7.05867 416.231 6.83467 415.922 6.664C415.613 6.48267 415.266 6.392 414.882 6.392C414.711 6.392 414.541 6.41333 414.37 6.456C414.199 6.488 414.045 6.54667 413.906 6.632C413.778 6.70667 413.671 6.808 413.586 6.936C413.511 7.05333 413.474 7.20267 413.474 7.384C413.474 7.704 413.618 7.944 413.906 8.104C414.194 8.25333 414.626 8.392 415.202 8.52C415.565 8.60533 415.901 8.70667 416.21 8.824C416.519 8.94133 416.786 9.09067 417.01 9.272C417.245 9.44267 417.426 9.65067 417.554 9.896C417.682 10.1413 417.746 10.4293 417.746 10.76C417.746 11.208 417.661 11.5867 417.49 11.896C417.319 12.2053 417.09 12.4613 416.802 12.664C416.525 12.856 416.205 12.9947 415.842 13.08C415.479 13.1653 415.106 13.208 414.722 13.208C414.146 13.208 413.581 13.096 413.026 12.872C412.482 12.648 412.029 12.3067 411.666 11.848L412.738 10.936C412.941 11.2347 413.218 11.4853 413.57 11.688C413.933 11.8907 414.327 11.992 414.754 11.992C414.946 11.992 415.127 11.976 415.298 11.944C415.479 11.9013 415.639 11.8373 415.778 11.752C415.927 11.6667 416.045 11.5547 416.13 11.416C416.215 11.2773 416.258 11.1013 416.258 10.888C416.258 10.536 416.087 10.2747 415.746 10.104C415.415 9.93333 414.925 9.77333 414.274 9.624C414.018 9.56 413.757 9.48533 413.49 9.4C413.234 9.304 412.999 9.176 412.786 9.016C412.573 8.856 412.397 8.65867 412.258 8.424C412.13 8.17867 412.066 7.88 412.066 7.528C412.066 7.12267 412.146 6.776 412.306 6.488C412.477 6.18933 412.695 5.94933 412.962 5.768C413.229 5.576 413.533 5.43733 413.874 5.352C414.215 5.256 414.567 5.208 414.93 5.208C415.474 5.208 415.997 5.31467 416.498 5.528C417.01 5.74133 417.405 6.05067 417.682 6.456L416.642 7.336ZM424.999 13C424.978 12.808 424.962 12.5947 424.951 12.36C424.941 12.1147 424.935 11.912 424.935 11.752H424.903C424.711 12.1573 424.386 12.504 423.927 12.792C423.479 13.0693 422.978 13.208 422.423 13.208C421.933 13.208 421.506 13.128 421.143 12.968C420.791 12.808 420.498 12.5893 420.263 12.312C420.039 12.024 419.869 11.6933 419.751 11.32C419.645 10.9467 419.591 10.5467 419.591 10.12V5.416H421.095V9.608C421.095 9.91733 421.117 10.216 421.159 10.504C421.213 10.7813 421.303 11.0267 421.431 11.24C421.559 11.4533 421.735 11.624 421.959 11.752C422.183 11.88 422.471 11.944 422.823 11.944C423.431 11.944 423.922 11.72 424.295 11.272C424.669 10.8133 424.855 10.2053 424.855 9.448V5.416H426.359V11.368C426.359 11.5707 426.365 11.832 426.375 12.152C426.386 12.472 426.402 12.7547 426.423 13H424.999ZM430.456 11.8V13H429V0.903999H430.504V6.552H430.552C430.808 6.17867 431.165 5.864 431.624 5.608C432.083 5.34133 432.627 5.208 433.256 5.208C433.821 5.208 434.333 5.30933 434.792 5.512C435.261 5.71467 435.661 5.99733 435.992 6.36C436.333 6.72267 436.595 7.14933 436.776 7.64C436.957 8.12 437.048 8.63733 437.048 9.192C437.048 9.74667 436.957 10.2693 436.776 10.76C436.595 11.2507 436.339 11.6773 436.008 12.04C435.677 12.4027 435.277 12.6907 434.808 12.904C434.339 13.1067 433.811 13.208 433.224 13.208C432.68 13.208 432.163 13.0907 431.672 12.856C431.181 12.6107 430.787 12.2587 430.488 11.8H430.456ZM435.496 9.192C435.496 8.84 435.443 8.49867 435.336 8.168C435.229 7.83733 435.069 7.544 434.856 7.288C434.643 7.032 434.376 6.82933 434.056 6.68C433.747 6.53067 433.384 6.456 432.968 6.456C432.584 6.456 432.232 6.53067 431.912 6.68C431.603 6.82933 431.336 7.032 431.112 7.288C430.888 7.544 430.712 7.83733 430.584 8.168C430.467 8.49867 430.408 8.84533 430.408 9.208C430.408 9.57067 430.467 9.91733 430.584 10.248C430.712 10.5787 430.888 10.872 431.112 11.128C431.336 11.3733 431.603 11.5707 431.912 11.72C432.232 11.8693 432.584 11.944 432.968 11.944C433.384 11.944 433.747 11.8693 434.056 11.72C434.376 11.56 434.643 11.352 434.856 11.096C435.069 10.84 435.229 10.5467 435.336 10.216C435.443 9.88533 435.496 9.544 435.496 9.192ZM443.236 7.336C443.065 7.05867 442.825 6.83467 442.516 6.664C442.206 6.48267 441.86 6.392 441.476 6.392C441.305 6.392 441.134 6.41333 440.964 6.456C440.793 6.488 440.638 6.54667 440.5 6.632C440.372 6.70667 440.265 6.808 440.18 6.936C440.105 7.05333 440.068 7.20267 440.068 7.384C440.068 7.704 440.212 7.944 440.5 8.104C440.788 8.25333 441.22 8.392 441.796 8.52C442.158 8.60533 442.494 8.70667 442.804 8.824C443.113 8.94133 443.38 9.09067 443.604 9.272C443.838 9.44267 444.02 9.65067 444.148 9.896C444.276 10.1413 444.34 10.4293 444.34 10.76C444.34 11.208 444.254 11.5867 444.084 11.896C443.913 12.2053 443.684 12.4613 443.396 12.664C443.118 12.856 442.798 12.9947 442.436 13.08C442.073 13.1653 441.7 13.208 441.316 13.208C440.74 13.208 440.174 13.096 439.62 12.872C439.076 12.648 438.622 12.3067 438.26 11.848L439.332 10.936C439.534 11.2347 439.812 11.4853 440.164 11.688C440.526 11.8907 440.921 11.992 441.348 11.992C441.54 11.992 441.721 11.976 441.892 11.944C442.073 11.9013 442.233 11.8373 442.372 11.752C442.521 11.6667 442.638 11.5547 442.724 11.416C442.809 11.2773 442.852 11.1013 442.852 10.888C442.852 10.536 442.681 10.2747 442.34 10.104C442.009 9.93333 441.518 9.77333 440.868 9.624C440.612 9.56 440.35 9.48533 440.084 9.4C439.828 9.304 439.593 9.176 439.38 9.016C439.166 8.856 438.99 8.65867 438.852 8.424C438.724 8.17867 438.66 7.88 438.66 7.528C438.66 7.12267 438.74 6.776 438.9 6.488C439.07 6.18933 439.289 5.94933 439.556 5.768C439.822 5.576 440.126 5.43733 440.468 5.352C440.809 5.256 441.161 5.208 441.524 5.208C442.068 5.208 442.59 5.31467 443.092 5.528C443.604 5.74133 443.998 6.05067 444.276 6.456L443.236 7.336ZM451.561 7.336C451.401 7.09067 451.161 6.888 450.841 6.728C450.521 6.55733 450.18 6.472 449.817 6.472C449.422 6.472 449.07 6.54667 448.761 6.696C448.462 6.84533 448.206 7.048 447.993 7.304C447.78 7.54933 447.614 7.83733 447.497 8.168C447.39 8.49867 447.337 8.84533 447.337 9.208C447.337 9.57067 447.39 9.91733 447.497 10.248C447.614 10.5787 447.78 10.872 447.993 11.128C448.206 11.3733 448.468 11.5707 448.777 11.72C449.086 11.8693 449.438 11.944 449.833 11.944C450.217 11.944 450.564 11.8693 450.873 11.72C451.193 11.5707 451.454 11.368 451.657 11.112L452.665 12.024C452.345 12.3973 451.945 12.6907 451.465 12.904C450.985 13.1067 450.441 13.208 449.833 13.208C449.246 13.208 448.702 13.112 448.201 12.92C447.71 12.728 447.284 12.4613 446.921 12.12C446.558 11.768 446.27 11.3467 446.057 10.856C445.854 10.3653 445.753 9.816 445.753 9.208C445.753 8.61067 445.854 8.06667 446.057 7.576C446.26 7.08533 446.542 6.664 446.905 6.312C447.268 5.96 447.694 5.688 448.185 5.496C448.686 5.304 449.225 5.208 449.801 5.208C450.334 5.208 450.862 5.31467 451.385 5.528C451.918 5.74133 452.34 6.05067 452.649 6.456L451.561 7.336ZM454.155 7.048C454.155 6.84533 454.15 6.584 454.139 6.264C454.129 5.944 454.113 5.66133 454.091 5.416H455.515C455.537 5.608 455.553 5.832 455.563 6.088C455.574 6.33333 455.579 6.536 455.579 6.696H455.627C455.841 6.248 456.15 5.89067 456.555 5.624C456.971 5.34667 457.435 5.208 457.947 5.208C458.182 5.208 458.379 5.22933 458.539 5.272L458.475 6.664C458.262 6.61067 458.033 6.584 457.787 6.584C457.425 6.584 457.11 6.65333 456.843 6.792C456.577 6.92 456.353 7.096 456.171 7.32C456.001 7.544 455.873 7.80533 455.787 8.104C455.702 8.392 455.659 8.696 455.659 9.016V13H454.155V7.048ZM461.472 13H459.968V5.416H461.472V13ZM461.728 2.68C461.728 2.95733 461.627 3.18667 461.424 3.368C461.232 3.54933 460.998 3.64 460.72 3.64C460.443 3.64 460.208 3.54933 460.016 3.368C459.824 3.176 459.728 2.94667 459.728 2.68C459.728 2.40267 459.824 2.17333 460.016 1.992C460.208 1.8 460.443 1.704 460.72 1.704C460.998 1.704 461.232 1.8 461.424 1.992C461.627 2.17333 461.728 2.40267 461.728 2.68ZM465.597 16.84H464.093V5.416H465.565V6.6H465.613C465.858 6.19467 466.216 5.864 466.685 5.608C467.165 5.34133 467.72 5.208 468.349 5.208C468.914 5.208 469.426 5.30933 469.885 5.512C470.354 5.71467 470.754 5.99733 471.085 6.36C471.426 6.72267 471.688 7.14933 471.869 7.64C472.05 8.12 472.141 8.63733 472.141 9.192C472.141 9.74667 472.05 10.2693 471.869 10.76C471.688 11.2507 471.432 11.6773 471.101 12.04C470.77 12.4027 470.37 12.6907 469.901 12.904C469.432 13.1067 468.904 13.208 468.317 13.208C467.773 13.208 467.261 13.0907 466.781 12.856C466.301 12.6213 465.922 12.2907 465.645 11.864H465.597V16.84ZM470.589 9.192C470.589 8.84 470.536 8.49867 470.429 8.168C470.322 7.83733 470.162 7.544 469.949 7.288C469.736 7.032 469.469 6.82933 469.149 6.68C468.84 6.53067 468.477 6.456 468.061 6.456C467.677 6.456 467.325 6.53067 467.005 6.68C466.696 6.82933 466.429 7.032 466.205 7.288C465.981 7.544 465.805 7.83733 465.677 8.168C465.56 8.49867 465.501 8.84533 465.501 9.208C465.501 9.57067 465.56 9.91733 465.677 10.248C465.805 10.5787 465.981 10.872 466.205 11.128C466.429 11.3733 466.696 11.5707 467.005 11.72C467.325 11.8693 467.677 11.944 468.061 11.944C468.477 11.944 468.84 11.8693 469.149 11.72C469.469 11.56 469.736 11.352 469.949 11.096C470.162 10.84 470.322 10.5467 470.429 10.216C470.536 9.88533 470.589 9.544 470.589 9.192ZM477.946 6.648H475.93V10.6C475.93 11.0587 476.015 11.3893 476.186 11.592C476.356 11.784 476.628 11.88 477.002 11.88C477.14 11.88 477.29 11.864 477.45 11.832C477.61 11.8 477.754 11.752 477.882 11.688L477.93 12.92C477.748 12.984 477.546 13.032 477.322 13.064C477.108 13.1067 476.884 13.128 476.65 13.128C475.935 13.128 475.386 12.9307 475.002 12.536C474.628 12.1413 474.442 11.5493 474.442 10.76V6.648H472.986V5.416H474.442V3.24H475.93V5.416H477.946V6.648ZM481.019 13H479.515V5.416H481.019V13ZM481.275 2.68C481.275 2.95733 481.174 3.18667 480.971 3.368C480.779 3.54933 480.544 3.64 480.267 3.64C479.99 3.64 479.755 3.54933 479.563 3.368C479.371 3.176 479.275 2.94667 479.275 2.68C479.275 2.40267 479.371 2.17333 479.563 1.992C479.755 1.8 479.99 1.704 480.267 1.704C480.544 1.704 480.779 1.8 480.971 1.992C481.174 2.17333 481.275 2.40267 481.275 2.68ZM491.32 9.192C491.32 9.77867 491.213 10.3173 491 10.808C490.797 11.2987 490.509 11.7253 490.136 12.088C489.773 12.44 489.341 12.7173 488.84 12.92C488.338 13.112 487.8 13.208 487.224 13.208C486.648 13.208 486.109 13.112 485.608 12.92C485.106 12.7173 484.674 12.44 484.312 12.088C483.949 11.7253 483.661 11.2987 483.448 10.808C483.245 10.3173 483.144 9.77867 483.144 9.192C483.144 8.60533 483.245 8.072 483.448 7.592C483.661 7.10133 483.949 6.68 484.312 6.328C484.674 5.976 485.106 5.704 485.608 5.512C486.109 5.30933 486.648 5.208 487.224 5.208C487.8 5.208 488.338 5.30933 488.84 5.512C489.341 5.704 489.773 5.976 490.136 6.328C490.509 6.68 490.797 7.10133 491 7.592C491.213 8.072 491.32 8.60533 491.32 9.192ZM489.752 9.192C489.752 8.82933 489.693 8.48267 489.576 8.152C489.469 7.82133 489.309 7.53333 489.096 7.288C488.882 7.032 488.616 6.82933 488.296 6.68C487.986 6.53067 487.629 6.456 487.224 6.456C486.818 6.456 486.456 6.53067 486.136 6.68C485.826 6.82933 485.565 7.032 485.352 7.288C485.138 7.53333 484.973 7.82133 484.856 8.152C484.749 8.48267 484.696 8.82933 484.696 9.192C484.696 9.55467 484.749 9.90133 484.856 10.232C484.973 10.5627 485.138 10.856 485.352 11.112C485.565 11.368 485.826 11.5707 486.136 11.72C486.456 11.8693 486.818 11.944 487.224 11.944C487.629 11.944 487.986 11.8693 488.296 11.72C488.616 11.5707 488.882 11.368 489.096 11.112C489.309 10.856 489.469 10.5627 489.576 10.232C489.693 9.90133 489.752 9.55467 489.752 9.192ZM494.765 5.416C494.787 5.608 494.803 5.82667 494.813 6.072C494.824 6.30667 494.829 6.504 494.829 6.664H494.877C494.973 6.46133 495.101 6.27467 495.261 6.104C495.432 5.92267 495.624 5.768 495.837 5.64C496.051 5.50133 496.285 5.39467 496.541 5.32C496.797 5.24533 497.064 5.208 497.341 5.208C497.832 5.208 498.253 5.29333 498.605 5.464C498.957 5.624 499.251 5.84267 499.485 6.12C499.72 6.39733 499.891 6.72267 499.997 7.096C500.115 7.46933 500.173 7.86933 500.173 8.296V13H498.669V8.792C498.669 8.48267 498.643 8.18933 498.589 7.912C498.547 7.63467 498.461 7.38933 498.333 7.176C498.205 6.96267 498.029 6.792 497.805 6.664C497.581 6.536 497.293 6.472 496.941 6.472C496.344 6.472 495.853 6.70133 495.469 7.16C495.096 7.608 494.909 8.21067 494.909 8.968V13H493.405V7.048C493.405 6.84533 493.4 6.584 493.389 6.264C493.379 5.944 493.363 5.66133 493.341 5.416H494.765ZM403.727 36.088C403.727 35.5227 403.556 35.1067 403.215 34.84C402.874 34.5627 402.42 34.424 401.855 34.424C401.428 34.424 401.023 34.5093 400.639 34.68C400.266 34.84 399.951 35.048 399.695 35.304L398.895 34.344C399.268 33.992 399.722 33.7147 400.255 33.512C400.799 33.3093 401.38 33.208 401.999 33.208C402.543 33.208 403.012 33.288 403.407 33.448C403.812 33.5973 404.143 33.8053 404.399 34.072C404.655 34.3387 404.847 34.6533 404.975 35.016C405.103 35.3787 405.167 35.768 405.167 36.184V39.496C405.167 39.752 405.172 40.024 405.183 40.312C405.204 40.5893 405.236 40.8187 405.279 41H403.919C403.834 40.6373 403.791 40.2747 403.791 39.912H403.743C403.466 40.3173 403.114 40.632 402.687 40.856C402.271 41.08 401.775 41.192 401.199 41.192C400.9 41.192 400.586 41.1493 400.255 41.064C399.935 40.9893 399.642 40.8613 399.375 40.68C399.108 40.4987 398.884 40.2587 398.703 39.96C398.532 39.6613 398.447 39.2933 398.447 38.856C398.447 38.28 398.602 37.8267 398.911 37.496C399.22 37.1547 399.626 36.8987 400.127 36.728C400.628 36.5467 401.194 36.4293 401.823 36.376C402.452 36.3227 403.087 36.296 403.727 36.296V36.088ZM403.359 37.384C402.986 37.384 402.596 37.4 402.191 37.432C401.796 37.464 401.434 37.528 401.103 37.624C400.783 37.72 400.516 37.864 400.303 38.056C400.09 38.248 399.983 38.504 399.983 38.824C399.983 39.048 400.026 39.2347 400.111 39.384C400.207 39.5333 400.33 39.656 400.479 39.752C400.628 39.848 400.794 39.9173 400.975 39.96C401.156 39.992 401.343 40.008 401.535 40.008C402.239 40.008 402.778 39.8 403.151 39.384C403.535 38.9573 403.727 38.424 403.727 37.784V37.384H403.359ZM408.271 42.296C408.601 42.6693 409.012 42.968 409.503 43.192C410.004 43.416 410.516 43.528 411.039 43.528C411.54 43.528 411.961 43.4533 412.303 43.304C412.644 43.1653 412.916 42.968 413.119 42.712C413.332 42.4667 413.481 42.1733 413.567 41.832C413.663 41.4907 413.711 41.1227 413.711 40.728V39.752H413.679C413.401 40.1787 413.023 40.504 412.543 40.728C412.063 40.952 411.551 41.064 411.007 41.064C410.431 41.064 409.903 40.9627 409.423 40.76C408.953 40.5573 408.553 40.28 408.223 39.928C407.892 39.576 407.636 39.1653 407.455 38.696C407.273 38.216 407.183 37.704 407.183 37.16C407.183 36.616 407.273 36.104 407.455 35.624C407.636 35.144 407.892 34.728 408.223 34.376C408.553 34.0133 408.953 33.7307 409.423 33.528C409.892 33.3147 410.415 33.208 410.991 33.208C411.535 33.208 412.052 33.3253 412.543 33.56C413.044 33.7947 413.439 34.152 413.727 34.632H413.759V33.416H415.215V40.616C415.215 41.1707 415.145 41.6987 415.007 42.2C414.868 42.712 414.633 43.16 414.303 43.544C413.972 43.9387 413.54 44.2533 413.007 44.488C412.473 44.7227 411.812 44.84 411.023 44.84C410.361 44.84 409.695 44.7173 409.023 44.472C408.361 44.2373 407.791 43.9013 407.311 43.464L408.271 42.296ZM408.735 37.128C408.735 37.48 408.788 37.816 408.895 38.136C409.012 38.456 409.177 38.7387 409.391 38.984C409.615 39.2293 409.881 39.4267 410.191 39.576C410.5 39.7253 410.852 39.8 411.247 39.8C411.631 39.8 411.983 39.7307 412.303 39.592C412.623 39.4533 412.895 39.2667 413.119 39.032C413.343 38.7867 413.513 38.504 413.631 38.184C413.759 37.8533 413.823 37.5013 413.823 37.128C413.823 36.7653 413.759 36.424 413.631 36.104C413.513 35.784 413.337 35.5013 413.103 35.256C412.879 35.0107 412.607 34.8187 412.287 34.68C411.977 34.5307 411.631 34.456 411.247 34.456C410.852 34.456 410.5 34.5307 410.191 34.68C409.881 34.8187 409.615 35.0107 409.391 35.256C409.177 35.4907 409.012 35.7733 408.895 36.104C408.788 36.424 408.735 36.7653 408.735 37.128ZM417.788 35.048C417.788 34.8453 417.783 34.584 417.772 34.264C417.762 33.944 417.746 33.6613 417.724 33.416H419.148C419.17 33.608 419.186 33.832 419.196 34.088C419.207 34.3333 419.212 34.536 419.212 34.696H419.26C419.474 34.248 419.783 33.8907 420.188 33.624C420.604 33.3467 421.068 33.208 421.58 33.208C421.815 33.208 422.012 33.2293 422.172 33.272L422.108 34.664C421.895 34.6107 421.666 34.584 421.42 34.584C421.058 34.584 420.743 34.6533 420.476 34.792C420.21 34.92 419.986 35.096 419.804 35.32C419.634 35.544 419.506 35.8053 419.42 36.104C419.335 36.392 419.292 36.696 419.292 37.016V41H417.788V35.048ZM428.856 36.536C428.845 36.2373 428.792 35.96 428.696 35.704C428.61 35.4373 428.477 35.208 428.296 35.016C428.125 34.824 427.906 34.6747 427.64 34.568C427.384 34.4507 427.08 34.392 426.728 34.392C426.408 34.392 426.104 34.4507 425.816 34.568C425.538 34.6747 425.293 34.824 425.08 35.016C424.877 35.208 424.706 35.4373 424.568 35.704C424.44 35.96 424.365 36.2373 424.344 36.536H428.856ZM430.376 37.144C430.376 37.2293 430.376 37.3147 430.376 37.4C430.376 37.4853 430.37 37.5707 430.36 37.656H424.344C424.354 37.976 424.424 38.28 424.552 38.568C424.69 38.8453 424.872 39.0907 425.096 39.304C425.32 39.5067 425.576 39.6667 425.864 39.784C426.162 39.9013 426.477 39.96 426.808 39.96C427.32 39.96 427.762 39.848 428.136 39.624C428.509 39.4 428.802 39.128 429.016 38.808L430.072 39.656C429.666 40.1893 429.186 40.584 428.632 40.84C428.088 41.0853 427.48 41.208 426.808 41.208C426.232 41.208 425.698 41.112 425.208 40.92C424.717 40.728 424.296 40.4613 423.944 40.12C423.592 39.768 423.314 39.3467 423.112 38.856C422.909 38.3653 422.808 37.8213 422.808 37.224C422.808 36.6373 422.904 36.0987 423.096 35.608C423.298 35.1067 423.576 34.68 423.928 34.328C424.28 33.976 424.696 33.704 425.176 33.512C425.656 33.3093 426.173 33.208 426.728 33.208C427.282 33.208 427.784 33.2987 428.232 33.48C428.69 33.6613 429.074 33.9227 429.384 34.264C429.704 34.6053 429.949 35.0213 430.12 35.512C430.29 35.992 430.376 36.536 430.376 37.144ZM438.028 36.536C438.017 36.2373 437.964 35.96 437.868 35.704C437.782 35.4373 437.649 35.208 437.468 35.016C437.297 34.824 437.078 34.6747 436.812 34.568C436.556 34.4507 436.252 34.392 435.9 34.392C435.58 34.392 435.276 34.4507 434.988 34.568C434.71 34.6747 434.465 34.824 434.252 35.016C434.049 35.208 433.878 35.4373 433.74 35.704C433.612 35.96 433.537 36.2373 433.516 36.536H438.028ZM439.548 37.144C439.548 37.2293 439.548 37.3147 439.548 37.4C439.548 37.4853 439.542 37.5707 439.532 37.656H433.516C433.526 37.976 433.596 38.28 433.724 38.568C433.862 38.8453 434.044 39.0907 434.268 39.304C434.492 39.5067 434.748 39.6667 435.036 39.784C435.334 39.9013 435.649 39.96 435.98 39.96C436.492 39.96 436.934 39.848 437.308 39.624C437.681 39.4 437.974 39.128 438.188 38.808L439.244 39.656C438.838 40.1893 438.358 40.584 437.804 40.84C437.26 41.0853 436.652 41.208 435.98 41.208C435.404 41.208 434.87 41.112 434.38 40.92C433.889 40.728 433.468 40.4613 433.116 40.12C432.764 39.768 432.486 39.3467 432.284 38.856C432.081 38.3653 431.98 37.8213 431.98 37.224C431.98 36.6373 432.076 36.0987 432.268 35.608C432.47 35.1067 432.748 34.68 433.1 34.328C433.452 33.976 433.868 33.704 434.348 33.512C434.828 33.3093 435.345 33.208 435.9 33.208C436.454 33.208 436.956 33.2987 437.404 33.48C437.862 33.6613 438.246 33.9227 438.556 34.264C438.876 34.6053 439.121 35.0213 439.292 35.512C439.462 35.992 439.548 36.536 439.548 37.144ZM443.12 34.664C443.312 34.2587 443.616 33.9173 444.032 33.64C444.458 33.352 444.96 33.208 445.536 33.208C446.048 33.208 446.506 33.3253 446.912 33.56C447.328 33.7947 447.653 34.184 447.888 34.728C448.144 34.2373 448.501 33.864 448.96 33.608C449.418 33.3413 449.92 33.208 450.464 33.208C450.954 33.208 451.376 33.2933 451.728 33.464C452.08 33.624 452.373 33.8427 452.608 34.12C452.842 34.3973 453.013 34.7227 453.12 35.096C453.237 35.4693 453.296 35.8693 453.296 36.296V41H451.792V36.792C451.792 36.4827 451.765 36.1893 451.712 35.912C451.658 35.6347 451.568 35.3893 451.44 35.176C451.312 34.9627 451.141 34.792 450.928 34.664C450.714 34.536 450.442 34.472 450.112 34.472C449.77 34.472 449.477 34.5467 449.232 34.696C448.986 34.8347 448.784 35.0213 448.624 35.256C448.474 35.48 448.362 35.736 448.288 36.024C448.224 36.312 448.192 36.6053 448.192 36.904V41H446.688V36.488C446.688 36.1893 446.661 35.9173 446.608 35.672C446.554 35.4267 446.464 35.2187 446.336 35.048C446.208 34.8667 446.042 34.728 445.84 34.632C445.637 34.5253 445.386 34.472 445.088 34.472C444.533 34.472 444.069 34.7013 443.696 35.16C443.333 35.608 443.152 36.2107 443.152 36.968V41H441.648V35.048C441.648 34.8453 441.642 34.584 441.632 34.264C441.621 33.944 441.605 33.6613 441.584 33.416H443.008C443.029 33.608 443.045 33.8267 443.056 34.072C443.066 34.3067 443.072 34.504 443.072 34.664H443.12ZM461.387 36.536C461.376 36.2373 461.323 35.96 461.227 35.704C461.142 35.4373 461.008 35.208 460.827 35.016C460.656 34.824 460.438 34.6747 460.171 34.568C459.915 34.4507 459.611 34.392 459.259 34.392C458.939 34.392 458.635 34.4507 458.347 34.568C458.07 34.6747 457.824 34.824 457.611 35.016C457.408 35.208 457.238 35.4373 457.099 35.704C456.971 35.96 456.896 36.2373 456.875 36.536H461.387ZM462.907 37.144C462.907 37.2293 462.907 37.3147 462.907 37.4C462.907 37.4853 462.902 37.5707 462.891 37.656H456.875C456.886 37.976 456.955 38.28 457.083 38.568C457.222 38.8453 457.403 39.0907 457.627 39.304C457.851 39.5067 458.107 39.6667 458.395 39.784C458.694 39.9013 459.008 39.96 459.339 39.96C459.851 39.96 460.294 39.848 460.667 39.624C461.04 39.4 461.334 39.128 461.547 38.808L462.603 39.656C462.198 40.1893 461.718 40.584 461.163 40.84C460.619 41.0853 460.011 41.208 459.339 41.208C458.763 41.208 458.23 41.112 457.739 40.92C457.248 40.728 456.827 40.4613 456.475 40.12C456.123 39.768 455.846 39.3467 455.643 38.856C455.44 38.3653 455.339 37.8213 455.339 37.224C455.339 36.6373 455.435 36.0987 455.627 35.608C455.83 35.1067 456.107 34.68 456.459 34.328C456.811 33.976 457.227 33.704 457.707 33.512C458.187 33.3093 458.704 33.208 459.259 33.208C459.814 33.208 460.315 33.2987 460.763 33.48C461.222 33.6613 461.606 33.9227 461.915 34.264C462.235 34.6053 462.48 35.0213 462.651 35.512C462.822 35.992 462.907 36.536 462.907 37.144ZM466.367 33.416C466.388 33.608 466.404 33.8267 466.415 34.072C466.426 34.3067 466.431 34.504 466.431 34.664H466.479C466.575 34.4613 466.703 34.2747 466.863 34.104C467.034 33.9227 467.226 33.768 467.439 33.64C467.652 33.5013 467.887 33.3947 468.143 33.32C468.399 33.2453 468.666 33.208 468.943 33.208C469.434 33.208 469.855 33.2933 470.207 33.464C470.559 33.624 470.852 33.8427 471.087 34.12C471.322 34.3973 471.492 34.7227 471.599 35.096C471.716 35.4693 471.775 35.8693 471.775 36.296V41H470.271V36.792C470.271 36.4827 470.244 36.1893 470.191 35.912C470.148 35.6347 470.063 35.3893 469.935 35.176C469.807 34.9627 469.631 34.792 469.407 34.664C469.183 34.536 468.895 34.472 468.543 34.472C467.946 34.472 467.455 34.7013 467.071 35.16C466.698 35.608 466.511 36.2107 466.511 36.968V41H465.007V35.048C465.007 34.8453 465.002 34.584 464.991 34.264C464.98 33.944 464.964 33.6613 464.943 33.416H466.367ZM478.031 34.648H476.015V38.6C476.015 39.0587 476.101 39.3893 476.271 39.592C476.442 39.784 476.714 39.88 477.087 39.88C477.226 39.88 477.375 39.864 477.535 39.832C477.695 39.8 477.839 39.752 477.967 39.688L478.015 40.92C477.834 40.984 477.631 41.032 477.407 41.064C477.194 41.1067 476.97 41.128 476.735 41.128C476.021 41.128 475.471 40.9307 475.087 40.536C474.714 40.1413 474.527 39.5493 474.527 38.76V34.648H473.071V33.416H474.527V31.24H476.015V33.416H478.031V34.648Z" fill="black"/>
<path d="M438 76C443.523 76 448 71.5228 448 66C448 60.4772 443.523 56 438 56C432.477 56 428 60.4772 428 66C428 71.5228 432.477 76 438 76Z" stroke="black" stroke-width="2" stroke-linecap="round" stroke-linejoin="round"/>
<path d="M569.53 13H567.946V1.672H569.53V13ZM573.57 5.416C573.591 5.608 573.607 5.82667 573.618 6.072C573.629 6.30667 573.634 6.504 573.634 6.664H573.682C573.778 6.46133 573.906 6.27467 574.066 6.104C574.237 5.92267 574.429 5.768 574.642 5.64C574.855 5.50133 575.09 5.39467 575.346 5.32C575.602 5.24533 575.869 5.208 576.146 5.208C576.637 5.208 577.058 5.29333 577.41 5.464C577.762 5.624 578.055 5.84267 578.29 6.12C578.525 6.39733 578.695 6.72267 578.802 7.096C578.919 7.46933 578.978 7.86933 578.978 8.296V13H577.474V8.792C577.474 8.48267 577.447 8.18933 577.394 7.912C577.351 7.63467 577.266 7.38933 577.138 7.176C577.01 6.96267 576.834 6.792 576.61 6.664C576.386 6.536 576.098 6.472 575.746 6.472C575.149 6.472 574.658 6.70133 574.274 7.16C573.901 7.608 573.714 8.21067 573.714 8.968V13H572.21V7.048C572.21 6.84533 572.205 6.584 572.194 6.264C572.183 5.944 572.167 5.66133 572.146 5.416H573.57ZM585.091 13H583.459L580.371 5.416H582.035L584.259 11.384H584.291L586.531 5.416H588.131L585.091 13ZM595.137 8.536C595.126 8.23733 595.073 7.96 594.977 7.704C594.892 7.43733 594.758 7.208 594.577 7.016C594.406 6.824 594.188 6.67467 593.921 6.568C593.665 6.45067 593.361 6.392 593.009 6.392C592.689 6.392 592.385 6.45067 592.097 6.568C591.82 6.67467 591.574 6.824 591.361 7.016C591.158 7.208 590.988 7.43733 590.849 7.704C590.721 7.96 590.646 8.23733 590.625 8.536H595.137ZM596.657 9.144C596.657 9.22933 596.657 9.31467 596.657 9.4C596.657 9.48533 596.652 9.57067 596.641 9.656H590.625C590.636 9.976 590.705 10.28 590.833 10.568C590.972 10.8453 591.153 11.0907 591.377 11.304C591.601 11.5067 591.857 11.6667 592.145 11.784C592.444 11.9013 592.758 11.96 593.089 11.96C593.601 11.96 594.044 11.848 594.417 11.624C594.79 11.4 595.084 11.128 595.297 10.808L596.353 11.656C595.948 12.1893 595.468 12.584 594.913 12.84C594.369 13.0853 593.761 13.208 593.089 13.208C592.513 13.208 591.98 13.112 591.489 12.92C590.998 12.728 590.577 12.4613 590.225 12.12C589.873 11.768 589.596 11.3467 589.393 10.856C589.19 10.3653 589.089 9.82133 589.089 9.224C589.089 8.63733 589.185 8.09867 589.377 7.608C589.58 7.10667 589.857 6.68 590.209 6.328C590.561 5.976 590.977 5.704 591.457 5.512C591.937 5.30933 592.454 5.208 593.009 5.208C593.564 5.208 594.065 5.29867 594.513 5.48C594.972 5.66133 595.356 5.92267 595.665 6.264C595.985 6.60533 596.23 7.02133 596.401 7.512C596.572 7.992 596.657 8.536 596.657 9.144ZM602.853 7.336C602.682 7.05867 602.442 6.83467 602.133 6.664C601.824 6.48267 601.477 6.392 601.093 6.392C600.922 6.392 600.752 6.41333 600.581 6.456C600.41 6.488 600.256 6.54667 600.117 6.632C599.989 6.70667 599.882 6.808 599.797 6.936C599.722 7.05333 599.685 7.20267 599.685 7.384C599.685 7.704 599.829 7.944 600.117 8.104C600.405 8.25333 600.837 8.392 601.413 8.52C601.776 8.60533 602.112 8.70667 602.421 8.824C602.73 8.94133 602.997 9.09067 603.221 9.272C603.456 9.44267 603.637 9.65067 603.765 9.896C603.893 10.1413 603.957 10.4293 603.957 10.76C603.957 11.208 603.872 11.5867 603.701 11.896C603.53 12.2053 603.301 12.4613 603.013 12.664C602.736 12.856 602.416 12.9947 602.053 13.08C601.69 13.1653 601.317 13.208 600.933 13.208C600.357 13.208 599.792 13.096 599.237 12.872C598.693 12.648 598.24 12.3067 597.877 11.848L598.949 10.936C599.152 11.2347 599.429 11.4853 599.781 11.688C600.144 11.8907 600.538 11.992 600.965 11.992C601.157 11.992 601.338 11.976 601.509 11.944C601.69 11.9013 601.85 11.8373 601.989 11.752C602.138 11.6667 602.256 11.5547 602.341 11.416C602.426 11.2773 602.469 11.1013 602.469 10.888C602.469 10.536 602.298 10.2747 601.957 10.104C601.626 9.93333 601.136 9.77333 600.485 9.624C600.229 9.56 599.968 9.48533 599.701 9.4C599.445 9.304 599.21 9.176 598.997 9.016C598.784 8.856 598.608 8.65867 598.469 8.424C598.341 8.17867 598.277 7.88 598.277 7.528C598.277 7.12267 598.357 6.776 598.517 6.488C598.688 6.18933 598.906 5.94933 599.173 5.768C599.44 5.576 599.744 5.43733 600.085 5.352C600.426 5.256 600.778 5.208 601.141 5.208C601.685 5.208 602.208 5.31467 602.709 5.528C603.221 5.74133 603.616 6.05067 603.893 6.456L602.853 7.336ZM609.578 6.648H607.562V10.6C607.562 11.0587 607.648 11.3893 607.818 11.592C607.989 11.784 608.261 11.88 608.634 11.88C608.773 11.88 608.922 11.864 609.082 11.832C609.242 11.8 609.386 11.752 609.514 11.688L609.562 12.92C609.381 12.984 609.178 13.032 608.954 13.064C608.741 13.1067 608.517 13.128 608.282 13.128C607.568 13.128 607.018 12.9307 606.634 12.536C606.261 12.1413 606.074 11.5493 606.074 10.76V6.648H604.618V5.416H606.074V3.24H607.562V5.416H609.578V6.648ZM616.652 13H615.148V5.416H616.652V13ZM616.908 2.68C616.908 2.95733 616.807 3.18667 616.604 3.368C616.412 3.54933 616.177 3.64 615.9 3.64C615.623 3.64 615.388 3.54933 615.196 3.368C615.004 3.176 614.908 2.94667 614.908 2.68C614.908 2.40267 615.004 2.17333 615.196 1.992C615.388 1.8 615.623 1.704 615.9 1.704C616.177 1.704 616.412 1.8 616.604 1.992C616.807 2.17333 616.908 2.40267 616.908 2.68ZM620.633 5.416C620.654 5.608 620.67 5.82667 620.681 6.072C620.691 6.30667 620.697 6.504 620.697 6.664H620.745C620.841 6.46133 620.969 6.27467 621.129 6.104C621.299 5.92267 621.491 5.768 621.705 5.64C621.918 5.50133 622.153 5.39467 622.409 5.32C622.665 5.24533 622.931 5.208 623.209 5.208C623.699 5.208 624.121 5.29333 624.473 5.464C624.825 5.624 625.118 5.84267 625.353 6.12C625.587 6.39733 625.758 6.72267 625.865 7.096C625.982 7.46933 626.041 7.86933 626.041 8.296V13H624.537V8.792C624.537 8.48267 624.51 8.18933 624.457 7.912C624.414 7.63467 624.329 7.38933 624.201 7.176C624.073 6.96267 623.897 6.792 623.673 6.664C623.449 6.536 623.161 6.472 622.809 6.472C622.211 6.472 621.721 6.70133 621.337 7.16C620.963 7.608 620.777 8.21067 620.777 8.968V13H619.273V7.048C619.273 6.84533 619.267 6.584 619.257 6.264C619.246 5.944 619.23 5.66133 619.209 5.416H620.633ZM636.242 13H634.658V3.064H631.026V1.672H639.874V3.064H636.242V13ZM642.636 13H641.132V5.416H642.636V13ZM642.892 2.68C642.892 2.95733 642.791 3.18667 642.588 3.368C642.396 3.54933 642.162 3.64 641.884 3.64C641.607 3.64 641.372 3.54933 641.18 3.368C640.988 3.176 640.892 2.94667 640.892 2.68C640.892 2.40267 640.988 2.17333 641.18 1.992C641.372 1.8 641.607 1.704 641.884 1.704C642.162 1.704 642.396 1.8 642.588 1.992C642.791 2.17333 642.892 2.40267 642.892 2.68ZM646.617 5.416C646.638 5.608 646.654 5.82667 646.665 6.072C646.676 6.30667 646.681 6.504 646.681 6.664H646.729C646.825 6.46133 646.953 6.27467 647.113 6.104C647.284 5.92267 647.476 5.768 647.689 5.64C647.902 5.50133 648.137 5.39467 648.393 5.32C648.649 5.24533 648.916 5.208 649.193 5.208C649.684 5.208 650.105 5.29333 650.457 5.464C650.809 5.624 651.102 5.84267 651.337 6.12C651.572 6.39733 651.742 6.72267 651.849 7.096C651.966 7.46933 652.025 7.86933 652.025 8.296V13H650.521V8.792C650.521 8.48267 650.494 8.18933 650.441 7.912C650.398 7.63467 650.313 7.38933 650.185 7.176C650.057 6.96267 649.881 6.792 649.657 6.664C649.433 6.536 649.145 6.472 648.793 6.472C648.196 6.472 647.705 6.70133 647.321 7.16C646.948 7.608 646.761 8.21067 646.761 8.968V13H645.257V7.048C645.257 6.84533 645.252 6.584 645.241 6.264C645.23 5.944 645.214 5.66133 645.193 5.416H646.617ZM656.105 13H654.601V0.903999H656.105V13ZM663.446 8.088C663.446 7.52267 663.275 7.10667 662.934 6.84C662.592 6.56267 662.139 6.424 661.574 6.424C661.147 6.424 660.742 6.50933 660.358 6.68C659.984 6.84 659.67 7.048 659.414 7.304L658.614 6.344C658.987 5.992 659.44 5.71467 659.974 5.512C660.518 5.30933 661.099 5.208 661.718 5.208C662.262 5.208 662.731 5.288 663.126 5.448C663.531 5.59733 663.862 5.80533 664.118 6.072C664.374 6.33867 664.566 6.65333 664.694 7.016C664.822 7.37867 664.886 7.768 664.886 8.184V11.496C664.886 11.752 664.891 12.024 664.902 12.312C664.923 12.5893 664.955 12.8187 664.998 13H663.638C663.552 12.6373 663.51 12.2747 663.51 11.912H663.462C663.184 12.3173 662.832 12.632 662.406 12.856C661.99 13.08 661.494 13.192 660.918 13.192C660.619 13.192 660.304 13.1493 659.974 13.064C659.654 12.9893 659.36 12.8613 659.094 12.68C658.827 12.4987 658.603 12.2587 658.422 11.96C658.251 11.6613 658.166 11.2933 658.166 10.856C658.166 10.28 658.32 9.82667 658.63 9.496C658.939 9.15467 659.344 8.89867 659.846 8.728C660.347 8.54667 660.912 8.42933 661.542 8.376C662.171 8.32267 662.806 8.296 663.446 8.296V8.088ZM663.078 9.384C662.704 9.384 662.315 9.4 661.91 9.432C661.515 9.464 661.152 9.528 660.822 9.624C660.502 9.72 660.235 9.864 660.022 10.056C659.808 10.248 659.702 10.504 659.702 10.824C659.702 11.048 659.744 11.2347 659.83 11.384C659.926 11.5333 660.048 11.656 660.198 11.752C660.347 11.848 660.512 11.9173 660.694 11.96C660.875 11.992 661.062 12.008 661.254 12.008C661.958 12.008 662.496 11.8 662.87 11.384C663.254 10.9573 663.446 10.424 663.446 9.784V9.384H663.078ZM668.934 8.712H668.982L672.166 5.416H674.182L670.63 8.856L674.486 13H672.406L668.982 9.064H668.934V13H667.43V0.903999H668.934V8.712ZM681.106 8.536C681.095 8.23733 681.042 7.96 680.946 7.704C680.86 7.43733 680.727 7.208 680.546 7.016C680.375 6.824 680.156 6.67467 679.89 6.568C679.634 6.45067 679.33 6.392 678.978 6.392C678.658 6.392 678.354 6.45067 678.066 6.568C677.788 6.67467 677.543 6.824 677.33 7.016C677.127 7.208 676.956 7.43733 676.818 7.704C676.69 7.96 676.615 8.23733 676.594 8.536H681.106ZM682.626 9.144C682.626 9.22933 682.626 9.31467 682.626 9.4C682.626 9.48533 682.62 9.57067 682.61 9.656H676.594C676.604 9.976 676.674 10.28 676.802 10.568C676.94 10.8453 677.122 11.0907 677.346 11.304C677.57 11.5067 677.826 11.6667 678.114 11.784C678.412 11.9013 678.727 11.96 679.058 11.96C679.57 11.96 680.012 11.848 680.386 11.624C680.759 11.4 681.052 11.128 681.266 10.808L682.322 11.656C681.916 12.1893 681.436 12.584 680.882 12.84C680.338 13.0853 679.73 13.208 679.058 13.208C678.482 13.208 677.948 13.112 677.458 12.92C676.967 12.728 676.546 12.4613 676.194 12.12C675.842 11.768 675.564 11.3467 675.362 10.856C675.159 10.3653 675.058 9.82133 675.058 9.224C675.058 8.63733 675.154 8.09867 675.346 7.608C675.548 7.10667 675.826 6.68 676.178 6.328C676.53 5.976 676.946 5.704 677.426 5.512C677.906 5.30933 678.423 5.208 678.978 5.208C679.532 5.208 680.034 5.29867 680.482 5.48C680.94 5.66133 681.324 5.92267 681.634 6.264C681.954 6.60533 682.199 7.02133 682.37 7.512C682.54 7.992 682.626 8.536 682.626 9.144ZM610.886 44.84H609.382V33.416H610.854V34.6H610.902C611.147 34.1947 611.505 33.864 611.974 33.608C612.454 33.3413 613.009 33.208 613.638 33.208C614.203 33.208 614.715 33.3093 615.174 33.512C615.643 33.7147 616.043 33.9973 616.374 34.36C616.715 34.7227 616.977 35.1493 617.158 35.64C617.339 36.12 617.43 36.6373 617.43 37.192C617.43 37.7467 617.339 38.2693 617.158 38.76C616.977 39.2507 616.721 39.6773 616.39 40.04C616.059 40.4027 615.659 40.6907 615.19 40.904C614.721 41.1067 614.193 41.208 613.606 41.208C613.062 41.208 612.55 41.0907 612.07 40.856C611.59 40.6213 611.211 40.2907 610.934 39.864H610.886V44.84ZM615.878 37.192C615.878 36.84 615.825 36.4987 615.718 36.168C615.611 35.8373 615.451 35.544 615.238 35.288C615.025 35.032 614.758 34.8293 614.438 34.68C614.129 34.5307 613.766 34.456 613.35 34.456C612.966 34.456 612.614 34.5307 612.294 34.68C611.985 34.8293 611.718 35.032 611.494 35.288C611.27 35.544 611.094 35.8373 610.966 36.168C610.849 36.4987 610.79 36.8453 610.79 37.208C610.79 37.5707 610.849 37.9173 610.966 38.248C611.094 38.5787 611.27 38.872 611.494 39.128C611.718 39.3733 611.985 39.5707 612.294 39.72C612.614 39.8693 612.966 39.944 613.35 39.944C613.766 39.944 614.129 39.8693 614.438 39.72C614.758 39.56 615.025 39.352 615.238 39.096C615.451 38.84 615.611 38.5467 615.718 38.216C615.825 37.8853 615.878 37.544 615.878 37.192ZM627.203 37.192C627.203 37.7787 627.096 38.3173 626.883 38.808C626.68 39.2987 626.392 39.7253 626.019 40.088C625.656 40.44 625.224 40.7173 624.723 40.92C624.221 41.112 623.683 41.208 623.107 41.208C622.531 41.208 621.992 41.112 621.491 40.92C620.989 40.7173 620.557 40.44 620.195 40.088C619.832 39.7253 619.544 39.2987 619.331 38.808C619.128 38.3173 619.027 37.7787 619.027 37.192C619.027 36.6053 619.128 36.072 619.331 35.592C619.544 35.1013 619.832 34.68 620.195 34.328C620.557 33.976 620.989 33.704 621.491 33.512C621.992 33.3093 622.531 33.208 623.107 33.208C623.683 33.208 624.221 33.3093 624.723 33.512C625.224 33.704 625.656 33.976 626.019 34.328C626.392 34.68 626.68 35.1013 626.883 35.592C627.096 36.072 627.203 36.6053 627.203 37.192ZM625.635 37.192C625.635 36.8293 625.576 36.4827 625.459 36.152C625.352 35.8213 625.192 35.5333 624.979 35.288C624.765 35.032 624.499 34.8293 624.179 34.68C623.869 34.5307 623.512 34.456 623.107 34.456C622.701 34.456 622.339 34.5307 622.019 34.68C621.709 34.8293 621.448 35.032 621.235 35.288C621.021 35.5333 620.856 35.8213 620.739 36.152C620.632 36.4827 620.579 36.8293 620.579 37.192C620.579 37.5547 620.632 37.9013 620.739 38.232C620.856 38.5627 621.021 38.856 621.235 39.112C621.448 39.368 621.709 39.5707 622.019 39.72C622.339 39.8693 622.701 39.944 623.107 39.944C623.512 39.944 623.869 39.8693 624.179 39.72C624.499 39.5707 624.765 39.368 624.979 39.112C625.192 38.856 625.352 38.5627 625.459 38.232C625.576 37.9013 625.635 37.5547 625.635 37.192ZM636.968 37.192C636.968 37.7787 636.862 38.3173 636.648 38.808C636.446 39.2987 636.158 39.7253 635.784 40.088C635.422 40.44 634.99 40.7173 634.488 40.92C633.987 41.112 633.448 41.208 632.872 41.208C632.296 41.208 631.758 41.112 631.256 40.92C630.755 40.7173 630.323 40.44 629.96 40.088C629.598 39.7253 629.31 39.2987 629.096 38.808C628.894 38.3173 628.792 37.7787 628.792 37.192C628.792 36.6053 628.894 36.072 629.096 35.592C629.31 35.1013 629.598 34.68 629.96 34.328C630.323 33.976 630.755 33.704 631.256 33.512C631.758 33.3093 632.296 33.208 632.872 33.208C633.448 33.208 633.987 33.3093 634.488 33.512C634.99 33.704 635.422 33.976 635.784 34.328C636.158 34.68 636.446 35.1013 636.648 35.592C636.862 36.072 636.968 36.6053 636.968 37.192ZM635.4 37.192C635.4 36.8293 635.342 36.4827 635.224 36.152C635.118 35.8213 634.958 35.5333 634.744 35.288C634.531 35.032 634.264 34.8293 633.944 34.68C633.635 34.5307 633.278 34.456 632.872 34.456C632.467 34.456 632.104 34.5307 631.784 34.68C631.475 34.8293 631.214 35.032 631 35.288C630.787 35.5333 630.622 35.8213 630.504 36.152C630.398 36.4827 630.344 36.8293 630.344 37.192C630.344 37.5547 630.398 37.9013 630.504 38.232C630.622 38.5627 630.787 38.856 631 39.112C631.214 39.368 631.475 39.5707 631.784 39.72C632.104 39.8693 632.467 39.944 632.872 39.944C633.278 39.944 633.635 39.8693 633.944 39.72C634.264 39.5707 634.531 39.368 634.744 39.112C634.958 38.856 635.118 38.5627 635.224 38.232C635.342 37.9013 635.4 37.5547 635.4 37.192ZM640.59 41H639.086V28.904H640.59V41Z" fill="#BBBBBB"/>
<path d="M625 76C630.523 76 635 71.5228 635 66C635 60.4772 630.523 56 625 56C619.477 56 615 60.4772 615 66C615 71.5228 619.477 76 625 76Z" stroke="#BBBBBB" stroke-width="2" stroke-linecap="round" stroke-linejoin="round"/>
<rect x="81" y="65" width="151" height="2" rx="1" fill="black"/>
<rect x="269" y="65" width="151" height="2" rx="1" fill="black"/>
<rect x="457" y="65" width="151" height="2" rx="1" fill="#BBBBBB"/>
<path d="M60 76C65.5228 76 70 71.5228 70 66C70 60.4772 65.5228 56 60 56C54.4772 56 50 60.4772 50 66C50 71.5228 54.4772 76 60 76Z" stroke="black" stroke-width="2" stroke-linecap="round" stroke-linejoin="round"/>
<path d="M70 65.0799V65.9999C69.9988 68.1563 69.3005 70.2545 68.0093 71.9817C66.7182 73.7088 64.9033 74.9723 62.8354 75.5838C60.7674 76.1952 58.5573 76.1218 56.5345 75.3744C54.5117 74.6271 52.7846 73.246 51.611 71.4369C50.4373 69.6279 49.8798 67.4879 50.0217 65.3362C50.1636 63.1844 50.9972 61.1362 52.3983 59.4969C53.7993 57.8577 55.6928 56.7153 57.7962 56.24C59.8996 55.7648 62.1003 55.9822 64.07 56.8599" stroke="black" stroke-width="2" stroke-linecap="round" stroke-linejoin="round"/>
<path d="M70 58L60 68.01L57 65.01" stroke="black" stroke-width="2" stroke-linecap="round" stroke-linejoin="round"/>
</svg>
