<svg width="303" height="244" viewBox="0 0 303 244" fill="none" xmlns="http://www.w3.org/2000/svg">
<path d="M204.831 75.2386C203.999 77.4376 169.052 55.3645 137.137 70.4237C113.933 81.3726 104.347 102.599 104.347 120.698C104.347 134.959 109.274 145.734 114.659 152.755C123.418 164.175 131.566 168.471 138.603 172.289C149.938 178.438 169.216 178.643 175.069 178.338C185.967 177.769 198.771 174.601 209.569 169.535C213.691 167.601 220.385 163.405 226.249 158.712C236.262 150.699 245.485 140.619 245.324 141.399C245.069 142.636 245.172 143.614 240.165 152.447C225.329 178.617 200.664 190.033 200.664 190.033C165.916 208.512 135.08 198.927 129.086 196.627C102.775 186.527 89.0529 167.593 85.8468 161.572C80.6182 151.751 71.2446 115.681 83.8041 87.0107C93.1115 65.7644 114.689 55.3256 117.072 54.3265C155.518 38.1964 205.587 73.2404 204.831 75.2386Z" fill="url(#paint0_linear)"/>
<path d="M205.929 73.4082C204.367 74.8634 193.144 61.3239 175.125 51.5458C169.973 48.751 150.319 38.7056 126.314 39.2213C86.5196 40.0723 60.0745 69.4136 55.3588 74.8515C31.7887 102.029 20.6914 143.879 33.9487 176.445C51.178 218.764 108.826 243.105 104.442 243.585L99.3988 241.964C93.3144 239.552 18.6383 205.749 15.9637 138.39C14.4558 100.434 26.5975 69.6959 33.9487 61.3049C46.7934 46.6437 57.0926 39.5854 65.7752 34.9236C83.2219 25.5625 116.033 17.5409 140.385 21.2258C167.708 25.3617 184.859 44.5333 193.222 53.8825C200.767 62.3143 207.191 72.2321 205.929 73.4082Z" fill="url(#paint1_linear)"/>
<path d="M205.731 75.2016C207.577 74.3778 205.113 49.1739 188.816 30.0074C182.244 22.2624 175.017 15.2201 166.145 10.2915C129.465 -9.68004 84.3653 6.38024 74.6027 10.2915C64.6024 14.2963 43.2645 25.2395 25.3509 47.6926C5.15833 73.0051 2.16789 100.161 1.01825 112.048C-3.89446 162.805 22.3772 202.667 24.2471 202.066C25.3368 201.716 13.418 176.353 15.9635 138.39C16.9332 123.938 18.925 97.4672 37.1681 72.0594C48.219 57.0747 61.0033 44.6016 77.6806 36.3667C87.3311 31.5772 121.861 16.1404 156.44 28.4C166.976 32.2118 176.676 38.0301 185.006 45.5343C200.06 59.3564 204.221 75.8773 205.731 75.2016Z" fill="url(#paint2_linear)"/>
<path d="M152.604 217.375C151.738 218.855 91.9111 201.704 69.4363 159.435C66.0536 153.076 50.4329 119.18 60.6812 92.7922C64.9672 81.7546 73.4053 69.398 76.8134 65.5599C82.3188 59.3612 91.6586 53.7884 103.518 48.7385C108.847 46.5229 118.582 44.2166 124.301 43.4528C129.97 42.7517 138.677 42.9021 144.362 43.4528C155.415 44.5232 170.352 57.488 169.932 57.488C169.819 57.488 158.077 53.7062 145.935 52.868C135.871 52.1733 124.954 54.5209 121.083 55.8959C112.54 58.9299 100.831 65.5599 94.0609 73.9366C87.2907 82.3132 81.5116 94.1527 80.2806 110.024C79.3783 121.658 80.6166 138.629 85.6368 151.86C88.0433 158.202 92.1879 166.273 100.154 176.902C117.11 199.526 153.23 216.314 152.604 217.375Z" fill="url(#paint3_linear)"/>
<path d="M120.189 38.1475C130.568 36.6445 139.451 36.1263 149.742 38.1475C161.552 40.5303 168.084 42.9863 176.128 47.1188C189.866 54.1771 207.254 72.2758 205.929 74.9923C203.571 79.8345 166.961 40.9264 116.666 54.3164C102.443 59.1931 93.6707 63.747 84.5871 70.7025C69.1159 82.5492 61.4493 98.1317 59.0269 104.504C54.8678 115.445 53.7384 121.601 53.2349 133.244C53.2349 148.92 56.1553 158.013 59.6875 167.98C64.7122 182.167 74.0835 198.384 72.578 197.334C55.3615 185.319 44.6029 148.249 43.4142 140.566C42.2255 132.883 37.1497 99.604 59.0268 71.8934C78.9714 46.632 112.453 39.2794 120.189 38.1475Z" fill="url(#paint4_linear)"/>
<path d="M170 102.547L169.092 104.554C166.989 102.786 164.264 101.782 161.204 101.782C153.316 101.782 147.675 107.471 147.675 115.454C147.675 123.485 153.316 129.222 161.204 129.222C164.216 129.222 166.893 128.266 168.996 126.545L169.761 128.361H176.645V102.547H170ZM162.399 121.382C159.053 121.382 156.615 118.848 156.615 115.454C156.615 112.108 159.053 109.622 162.399 109.622C165.746 109.622 168.184 112.108 168.184 115.454C168.184 118.848 165.746 121.382 162.399 121.382Z" fill="white"/>
<path d="M185.501 128.361H194.393V93.2247H185.501V128.361Z" fill="white"/>
<path d="M218.474 120.617C216.609 120.617 215.462 119.47 215.462 117.653V109.431H221.725V102.547H215.271V95.0413H213.406L201.838 107.327V109.431H206.57V119.135C206.57 124.872 210.06 128.361 215.749 128.361H221.868V120.617H218.474Z" fill="white"/>
<path d="M252.259 102.547L251.35 104.554C249.247 102.786 246.522 101.782 243.463 101.782C235.575 101.782 229.934 107.471 229.934 115.454C229.934 123.485 235.575 129.222 243.463 129.222C246.474 129.222 249.151 128.266 251.255 126.545L252.02 128.361H258.904V102.547H252.259ZM244.658 121.382C241.311 121.382 238.873 118.848 238.873 115.454C238.873 112.108 241.311 109.622 244.658 109.622C248.004 109.622 250.442 112.108 250.442 115.454C250.442 118.848 248.004 121.382 244.658 121.382Z" fill="white"/>
<path d="M267.807 99.3437H276.604V91.7905H267.807V99.3437ZM267.76 128.361H276.651V102.547H267.76V128.361Z" fill="white"/>
<path d="M299.914 102.451C296.854 102.451 294.655 103.312 292.838 105.415L291.452 102.547H285.476V128.361H294.368V115.263C294.368 111.964 295.707 110.578 298.814 110.578H302.304V102.451H299.914Z" fill="white"/>
<defs>
<linearGradient id="paint0_linear" x1="182.939" y1="50.9115" x2="182.939" y2="201.798" gradientUnits="userSpaceOnUse">
<stop stop-color="#FAB961"/>
<stop offset="1"/>
</linearGradient>
<linearGradient id="paint1_linear" x1="110.962" y1="20.3105" x2="110.962" y2="243.959" gradientUnits="userSpaceOnUse">
<stop stop-color="#FAB961"/>
<stop offset="1"/>
</linearGradient>
<linearGradient id="paint2_linear" x1="103.364" y1="1.73407" x2="103.364" y2="202.077" gradientUnits="userSpaceOnUse">
<stop/>
<stop offset="0.414296" stop-color="#FAB961"/>
</linearGradient>
<linearGradient id="paint3_linear" x1="105.763" y1="50.3315" x2="105.763" y2="213.25" gradientUnits="userSpaceOnUse">
<stop/>
<stop offset="1" stop-color="#FAB961"/>
</linearGradient>
<linearGradient id="paint4_linear" x1="124.027" y1="40.7414" x2="124.027" y2="197.381" gradientUnits="userSpaceOnUse">
<stop/>
<stop offset="1" stop-color="#FAB961"/>
</linearGradient>
</defs>
</svg>
