<svg width="14" height="13" viewBox="0 0 14 13" fill="none" xmlns="http://www.w3.org/2000/svg">
<path d="M8.35479 4.82769C8.53576 5.03626 8.85155 5.05863 9.06012 4.87765C9.2687 4.69667 9.29106 4.38088 9.11009 4.17231L8.35479 4.82769ZM5.64523 8.17231C5.46425 7.96374 5.14846 7.94137 4.93989 8.12235C4.73132 8.30333 4.70895 8.61912 4.88993 8.82769L5.64523 8.17231ZM7.5 3.16667C7.5 2.89052 7.27614 2.66667 7 2.66667C6.72386 2.66667 6.5 2.89052 6.5 3.16667H7.5ZM6.5 9.83332C6.49999 10.1095 6.72385 10.3333 6.99999 10.3333C7.27613 10.3333 7.49999 10.1095 7.5 9.83334L6.5 9.83332ZM12.5 6.5C12.5 9.53757 10.0376 12 7 12V13C10.5899 13 13.5 10.0899 13.5 6.5H12.5ZM7 12C3.96243 12 1.5 9.53757 1.5 6.5H0.5C0.5 10.0899 3.41015 13 7 13V12ZM1.5 6.5C1.5 3.46243 3.96243 1 7 1V0C3.41015 0 0.5 2.91015 0.5 6.5H1.5ZM7 1C10.0376 1 12.5 3.46243 12.5 6.5H13.5C13.5 2.91015 10.5899 0 7 0V1ZM7 6C6.53266 6 6.13218 5.87281 5.86314 5.69345C5.5906 5.51176 5.5 5.31567 5.5 5.16667H4.5C4.5 5.75405 4.85712 6.22462 5.30844 6.5255C5.76325 6.82871 6.36277 7 7 7V6ZM5.5 5.16667C5.5 5.01767 5.5906 4.82157 5.86314 4.63988C6.13218 4.46052 6.53266 4.33333 7 4.33333V3.33333C6.36277 3.33333 5.76325 3.50462 5.30844 3.80783C4.85712 4.10871 4.5 4.57929 4.5 5.16667H5.5ZM7 4.33333C7.63696 4.33333 8.12817 4.56652 8.35479 4.82769L9.11009 4.17231C8.64508 3.63641 7.8436 3.33333 7 3.33333V4.33333ZM7 7C7.46734 7 7.86783 7.12719 8.13687 7.30655C8.40941 7.48824 8.50001 7.68434 8.50001 7.83333H9.50001C9.50001 7.24595 9.14289 6.77538 8.69157 6.4745C8.23675 6.17129 7.63723 6 7 6V7ZM6.5 3.16667V3.83333H7.5V3.16667H6.5ZM6.50001 9.16666L6.5 9.83332L7.5 9.83334L7.50001 9.16668L6.50001 9.16666ZM7.00002 8.66667C6.36306 8.66666 5.87184 8.43347 5.64523 8.17231L4.88993 8.82769C5.35493 9.36359 6.15642 9.66666 7.00001 9.66667L7.00002 8.66667ZM8.50001 7.83333C8.50001 7.98233 8.40941 8.17843 8.13688 8.36012C7.86784 8.53948 7.46735 8.66667 7.00001 8.66667V9.66667C7.63724 9.66667 8.23676 9.49538 8.69158 9.19217C9.1429 8.89129 9.50001 8.42071 9.50001 7.83333H8.50001ZM6.5 3.83333L6.50001 9.16667L7.50001 9.16667L7.5 3.83333L6.5 3.83333Z" fill="#519B10"/>
</svg>
