<?xml version="1.0" encoding="UTF-8"?> <!-- Generator: Adobe Illustrator 18.0.0, SVG Export Plug-In . SVG Version: 6.00 Build 0) --> <svg xmlns="http://www.w3.org/2000/svg" xmlns:xlink="http://www.w3.org/1999/xlink" id="Слой_1" x="0px" y="0px" viewBox="0 0 896 160" xml:space="preserve"> <g> <path fill="#0828BE" d="M98,154.3c29.1,6.9,63.3,10.3,91-6.7c20.1-12.4,35-26.1,35-81S171.3,0,147,0c-45.2,0-61.7,33-98,46.7 S0,75.5,0,93.3C0,128.9,59.1,145.1,98,154.3z"></path> <g> <g> <path fill="#333333" d="M324.9,39v105h-26.1V39H256V15.4h111.7V39H324.9z"></path> <path fill="#333333" d="M403.8,8.9c2.9,3,4.4,6.6,4.4,10.7c0,4.2-1.5,7.7-4.4,10.6s-6.6,4.2-10.9,4.2c-4.5,0-8.2-1.4-11-4.2 s-4.3-6.3-4.3-10.6c0-4.1,1.5-7.6,4.4-10.7c2.9-3,6.6-4.5,10.9-4.5C397.2,4.4,400.8,5.9,403.8,8.9z M380.2,144V48.2h25.3V144 H380.2z"></path> <path fill="#333333" d="M509.2,56.5c7,7.5,10.6,17.2,10.6,29.1V144h-25.3V91c0-6.8-1.8-12.2-5.3-16.3c-3.5-4.1-8.2-6.1-14.1-6.1 c-15.9,0-23.8,11-23.8,33V144h-25.3V48.2h25.3v8.6c7.7-7.7,17.7-11.5,30.1-11.5C492.9,45.3,502.2,49.1,509.2,56.5z"></path> <path fill="#333333" d="M539.3,144V5.8h25.3V144H539.3z"></path> <path fill="#333333" d="M683.4,144H658v-7.5c-8.6,6.9-19.1,10.4-31.7,10.4c-12.7,0-23.7-4.8-33-14.4c-9.3-9.6-14-21.7-14-36.3 c0-14.6,4.7-26.7,14.1-36.4s20.4-14.5,32.9-14.5c12.7,0,23.2,3.5,31.7,10.6v-7.7h25.3V144z M649.8,116.8 c5.5-5.3,8.3-12.2,8.3-20.6c0-8.4-2.8-15.4-8.3-20.7s-11.8-8.1-19-8.1c-7.8,0-14.2,2.6-19.3,7.9c-5.1,5.2-7.6,12.2-7.6,20.9 c0,8.7,2.5,15.6,7.6,20.8c5.1,5.2,11.5,7.8,19.3,7.8C637.9,124.8,644.3,122.1,649.8,116.8z"></path> <path fill="#333333" d="M770.7,144L733,106.6h-4.4V144h-25.3V5.8h25.3v75.8h4.6l34.4-33.4h31.9l-46.3,45.9l51.3,49.9H770.7z"></path> <path fill="#333333" d="M896,102.9h-73c1.3,6.8,4.1,12.2,8.5,16.2c4.4,4,9.6,6,15.5,6c10.9,0,18.8-4.2,23.8-12.7l22.7,4.8 c-4.1,9.7-10.2,17.1-18.2,22.1c-8.1,5-17.5,7.5-28.2,7.5c-13.8,0-25.5-4.7-34.9-14.2c-9.5-9.5-14.2-21.6-14.2-36.5 c0-14.8,4.8-27,14.3-36.6s21.3-14.3,35.2-14.3c13.1,0,24.3,4.6,33.7,13.7c9.4,9.2,14.4,20.9,14.9,35.2V102.9z M832.7,72 c-4.5,3.1-7.5,7.4-8.9,13.1h46.3c-1.5-5.9-4.4-10.3-8.4-13.2c-4.1-2.9-8.8-4.4-14.2-4.4C842.2,67.4,837.3,68.9,832.7,72z"></path> </g> </g> <g> <g> <path fill="#EEEEEE" d="M148.5,60.5V113h-13.1V60.5h-21.4V48.7h55.9v11.8H148.5z"></path> </g> </g> </g> </svg> 