<?xml version="1.0" standalone="no"?>
<!DOCTYPE svg PUBLIC "-//W3C//DTD SVG 20010904//EN"
 "http://www.w3.org/TR/2001/REC-SVG-20010904/DTD/svg10.dtd">
<svg version="1.0" xmlns="http://www.w3.org/2000/svg"
 width="700.000000pt" height="700.000000pt" viewBox="0 0 700.000000 700.000000"
 preserveAspectRatio="xMidYMid meet">
<metadata>
Created by potrace 1.14, written by Peter Selinger 2001-2017
</metadata>
<g transform="translate(0.000000,700.000000) scale(0.100000,-0.100000)"
fill="#000000" stroke="none">
<path d="M3349 5906 c-2 -2 -33 -7 -69 -10 -117 -12 -144 -16 -270 -42 -144
-30 -339 -87 -454 -133 -477 -191 -945 -601 -1184 -1036 -134 -246 -241 -570
-268 -815 -3 -30 -7 -57 -9 -60 -2 -3 -7 -45 -11 -95 -15 -166 -8 -552 11
-625 2 -8 7 -37 10 -65 3 -27 7 -59 9 -70 3 -11 14 -64 26 -117 25 -119 76
-291 125 -418 74 -194 207 -444 264 -494 l21 -19 -15 49 c-16 48 -74 263 -80
293 -31 153 -45 225 -50 266 -3 28 -8 61 -10 75 -17 113 -29 527 -15 535 3 2
6 -17 7 -42 2 -26 9 -87 18 -137 87 -508 381 -963 890 -1375 219 -177 598
-402 775 -460 35 -12 65 -19 67 -17 2 2 -24 21 -59 42 -35 22 -70 44 -79 49
-9 6 -32 18 -50 29 -19 10 -99 61 -179 113 -724 474 -1083 953 -1137 1520 -55
587 172 1214 608 1676 43 45 44 31 2 -20 -89 -108 -145 -202 -218 -366 -33
-75 -78 -221 -91 -297 -3 -14 -7 -36 -9 -50 -3 -14 -8 -47 -11 -75 -3 -27 -7
-66 -10 -85 -5 -42 -5 -293 0 -335 16 -145 19 -160 37 -240 54 -236 211 -612
334 -800 68 -103 215 -259 223 -237 1 5 -33 82 -77 173 -102 212 -132 283
-182 421 -36 102 -77 242 -85 293 -2 11 -10 61 -18 110 -13 84 -15 395 -2 465
2 14 7 41 11 60 10 61 37 164 46 180 5 9 9 -11 9 -55 2 -149 17 -250 61 -423
101 -390 239 -642 494 -897 148 -148 272 -247 445 -355 47 -29 96 -60 110 -69
182 -114 700 -323 764 -309 13 2 -99 76 -189 124 -31 16 -211 131 -295 188
-125 85 -363 280 -385 317 -5 7 12 -2 36 -18 92 -63 218 -133 324 -178 22 -9
49 -21 60 -26 24 -10 157 -46 200 -54 17 -2 41 -7 55 -10 104 -21 380 -27 510
-12 96 12 282 55 379 88 198 69 442 205 608 340 229 187 458 488 542 712 15
40 1 29 -116 -83 -90 -87 -144 -136 -217 -198 -63 -53 -195 -146 -271 -191
-129 -76 -363 -163 -513 -191 -31 -5 -68 -12 -82 -15 -121 -26 -443 -26 -580
0 -29 6 -63 12 -105 21 -188 38 -419 170 -583 335 -170 170 -265 356 -309 605
-10 56 -9 258 1 314 3 19 9 49 12 65 3 17 17 66 30 109 89 281 298 521 571
655 162 80 299 112 488 116 245 5 418 -33 808 -179 94 -35 102 -30 97 64 -7
143 -72 366 -155 530 -79 157 -201 316 -345 453 -227 217 -446 326 -774 388
-83 16 -163 22 -317 25 -113 2 -208 2 -210 0z"/>
</g>
</svg>
