<svg width="40" height="41" viewBox="0 0 40 41" fill="none" xmlns="http://www.w3.org/2000/svg">
<rect y="0.5" width="40" height="40" rx="6" fill="#383D51"/>
<path d="M2.31297 25.0393V25.5392C2.41824 25.3696 2.56516 25.2296 2.73976 25.1328C2.91313 25.0391 3.10768 24.9915 3.30473 24.9946C3.50372 24.9714 3.70461 25.0173 3.87377 25.1246C4.04108 25.2333 4.16483 25.3973 4.22333 25.588C4.32945 25.4022 4.48583 25.25 4.6745 25.149C4.85952 25.0458 5.06826 24.9926 5.28012 24.9946C5.93452 24.9946 6.27188 25.3523 6.28407 26.0676V28.0999H5.9589V26.0676C5.97418 25.8508 5.91067 25.6357 5.78006 25.462C5.70496 25.3911 5.61654 25.3359 5.51993 25.2994C5.42209 25.2655 5.3184 25.2516 5.21509 25.2588C4.98648 25.259 4.76619 25.3445 4.59727 25.4986C4.51767 25.5702 4.45159 25.6556 4.40217 25.7506C4.35409 25.8471 4.32511 25.952 4.31681 26.0595V28.0918H3.97539V26.0595C3.99316 25.848 3.92752 25.6379 3.79248 25.4742C3.718 25.4044 3.62924 25.3517 3.53235 25.3197C3.43589 25.2859 3.33355 25.2721 3.23157 25.2791C3.0332 25.276 2.8397 25.3405 2.68285 25.462C2.51902 25.6053 2.40038 25.7931 2.34142 26.0026V28.104H2V25.0393H2.31297ZM12.8402 28.104C12.8022 27.9647 12.7803 27.8215 12.7752 27.6772C12.6563 27.8332 12.4996 27.9563 12.32 28.0349C12.1365 28.1193 11.9366 28.1623 11.7347 28.1609C11.4746 28.1724 11.22 28.0837 11.0234 27.9129C10.9363 27.8351 10.867 27.7395 10.8201 27.6325C10.7746 27.5244 10.7512 27.4083 10.751 27.2911C10.7463 27.1497 10.7785 27.0096 10.8445 26.8846C10.9108 26.7622 11.0056 26.6577 11.1209 26.5798C11.4328 26.3918 11.7937 26.3012 12.1574 26.3196H12.7711V25.9701C12.7782 25.8761 12.7643 25.7817 12.7305 25.6937C12.6941 25.604 12.6402 25.5225 12.572 25.4539C12.4078 25.3163 12.196 25.2492 11.9826 25.2669C11.7734 25.2622 11.5682 25.3249 11.3973 25.4457C11.3282 25.4978 11.2713 25.5644 11.2307 25.6408C11.1907 25.7161 11.1685 25.7995 11.1656 25.8847H10.8242C10.8302 25.7611 10.8635 25.6403 10.9218 25.5311C10.9803 25.42 11.0638 25.324 11.1656 25.2506C11.3994 25.0741 11.6856 24.981 11.9785 24.9864C12.2713 24.9674 12.5608 25.0572 12.7915 25.2384C12.8925 25.3277 12.9718 25.4389 13.0231 25.5636C13.0785 25.6917 13.1035 25.8308 13.0963 25.9701V27.4211C13.0871 27.6468 13.1174 27.8724 13.1857 28.0877V28.1202L12.8402 28.104ZM11.7753 27.8601C11.9892 27.8652 12.1998 27.8073 12.3809 27.6934C12.56 27.5964 12.7027 27.4438 12.7874 27.2585V26.5838H12.1655C11.8831 26.571 11.6023 26.6342 11.3526 26.7667C11.2662 26.8178 11.1947 26.8907 11.1453 26.9781C11.0939 27.064 11.0672 27.1625 11.0681 27.2626C11.0712 27.3398 11.0891 27.4157 11.1209 27.4862C11.1528 27.5566 11.2 27.6191 11.2591 27.6691C11.3989 27.7859 11.577 27.8467 11.7591 27.8398L11.7753 27.8601ZM19.1932 25.3197C19.1162 25.3116 19.0385 25.3116 18.9615 25.3197C18.7693 25.3158 18.5815 25.3774 18.429 25.4945C18.275 25.6311 18.1659 25.811 18.1161 26.0107V28.1243H17.7787V25.0596H18.112V25.5474C18.1839 25.3797 18.3054 25.238 18.4602 25.1414C18.6149 25.0448 18.7955 24.9978 18.9778 25.0068C19.0541 25.0024 19.1304 25.0149 19.2013 25.0433L19.1932 25.3197ZM24.2211 26.5391L23.8146 26.913V28.0836H23.5057V23.7427H23.8431V26.5391L24.1642 26.1936L25.3348 25.0393H25.7412L24.4487 26.3318L25.8591 28.104H25.4526L24.2211 26.5391ZM31.2284 28.1649C30.9802 28.1681 30.7363 28.1004 30.5252 27.9698C30.313 27.844 30.1421 27.6589 30.0334 27.4374C29.9149 27.1974 29.855 26.9327 29.8586 26.6651V26.5391C29.852 26.2586 29.9104 25.9803 30.0294 25.7262C30.1346 25.501 30.2989 25.3085 30.5049 25.1693C30.7019 25.0404 30.932 24.9712 31.1674 24.9702C31.3345 24.9652 31.5008 24.9957 31.6552 25.0596C31.8105 25.1243 31.9493 25.2229 32.0617 25.3482C32.2939 25.6434 32.4096 26.0137 32.3868 26.3887V26.5798H30.2041V26.6448C30.1912 26.9616 30.297 27.2718 30.5009 27.5146C30.5923 27.6256 30.7076 27.7145 30.8382 27.7747C30.9654 27.834 31.1044 27.8632 31.2447 27.8601C31.4099 27.8673 31.5744 27.834 31.7239 27.7631C31.8733 27.6923 32.0032 27.5861 32.1023 27.4536L32.3137 27.6162C32.1941 27.7885 32.0334 27.9282 31.8462 28.0227C31.656 28.1225 31.4432 28.1715 31.2284 28.1649ZM31.1674 25.2791C31.0469 25.2772 30.9274 25.3009 30.8167 25.3485C30.706 25.3962 30.6067 25.4667 30.5252 25.5555C30.3413 25.7674 30.2289 26.032 30.2041 26.3115H32.0413V26.2749C32.0449 26.0129 31.9556 25.758 31.7893 25.5555C31.7151 25.4653 31.6203 25.3942 31.5129 25.3482C31.4048 25.2979 31.2867 25.2728 31.1674 25.275V25.2791ZM37.3253 24.2751V25.0555H37.9594V25.3197H37.3253V27.352C37.3168 27.4846 37.3495 27.6166 37.4188 27.73C37.4569 27.7753 37.5059 27.8102 37.561 27.8316C37.6136 27.8539 37.671 27.8623 37.7277 27.856C37.8194 27.8607 37.9112 27.8511 38 27.8276V28.104C37.8831 28.1406 37.7607 28.1571 37.6383 28.1527C37.5446 28.1609 37.4502 28.1485 37.3619 28.1162C37.273 28.0808 37.1937 28.0251 37.1302 27.9536C37.0134 27.7771 36.9577 27.5672 36.9717 27.3561V25.3197H36.4067V25.0393H36.9717V24.2711L37.3253 24.2751Z" fill="white"/>
<path d="M25.0701 14.2786L24.8719 14.8986C24.4227 16.3298 23.9471 17.8072 23.4847 19.2648C23.28 19.9244 23.0686 20.5377 22.8638 21.1643L22.7185 21.6128C22.6807 21.7341 22.6054 21.8404 22.5033 21.9162C22.4012 21.9921 22.2776 22.0337 22.1504 22.0349C22.0414 22.0324 21.9347 22.0029 21.8399 21.9492C21.6837 21.8529 21.572 21.6988 21.5295 21.5205L21.1529 20.3794C20.968 19.799 20.7764 19.2186 20.5849 18.6382C20.3933 19.2186 20.2083 19.799 20.0168 20.3794C19.8913 20.7554 19.7724 21.1379 19.6469 21.5205C19.5989 21.6981 19.4857 21.8511 19.3298 21.9492C19.235 22.0029 19.1283 22.0324 19.0193 22.0349C18.8924 22.0354 18.7688 21.9944 18.6674 21.9182C18.5661 21.842 18.4924 21.7347 18.4578 21.6128L18.3059 21.1643C18.1011 20.5048 17.8898 19.898 17.685 19.2648L16.2912 14.8986L16.093 14.2786C16.0609 14.1903 16.0508 14.0955 16.0635 14.0024C16.0762 13.9093 16.1113 13.8206 16.1659 13.7441C16.2205 13.6675 16.2929 13.6054 16.3768 13.5629C16.4608 13.5204 16.5538 13.499 16.6479 13.5003C16.7751 13.5016 16.8987 13.5431 17.0008 13.619C17.1029 13.6949 17.1782 13.8011 17.216 13.9224C17.2952 14.1533 17.3679 14.3907 17.4406 14.615C17.4802 14.7337 17.5198 14.8524 17.5529 14.9777C18.0483 16.5013 18.5371 18.0314 19.0325 19.5946L19.1514 19.2186L19.2769 18.8559C19.5147 18.1436 19.7658 17.3983 20.0168 16.6728C20.0546 16.5598 20.1276 16.4619 20.225 16.3931C20.3224 16.3243 20.4392 16.2883 20.5584 16.2902H20.6113C20.7312 16.2889 20.8486 16.3251 20.9469 16.3937C21.0452 16.4623 21.1196 16.5599 21.1595 16.6728L21.8928 18.8559L22.0183 19.2186C22.0579 19.3439 22.0975 19.4627 22.1438 19.5946C22.6326 18.0644 23.128 16.5343 23.6168 15.0107C23.6565 14.8854 23.6895 14.7667 23.7291 14.6479C23.8018 14.4237 23.8745 14.1863 23.9537 13.9554C23.9855 13.8279 24.0583 13.7144 24.1609 13.6322C24.2635 13.55 24.3903 13.5037 24.5218 13.5003C24.6154 13.5 24.7076 13.5223 24.7907 13.5652C24.8738 13.6081 24.9452 13.6704 24.9991 13.7468C25.0529 13.8232 25.0874 13.9114 25.0998 14.004C25.1122 14.0966 25.102 14.1908 25.0701 14.2786ZM34.1264 21.4809C34.1303 21.6277 34.0757 21.77 33.9745 21.8766C33.9186 21.9305 33.8522 21.9723 33.7795 21.9995C33.7068 22.0267 33.6293 22.0388 33.5517 22.0349C33.4354 22.0345 33.3222 21.9976 33.228 21.9294C33.1259 21.864 33.0455 21.7699 32.9968 21.659L29.9649 14.6018L28.8419 17.1938H29.377C29.523 17.1902 29.6646 17.2443 29.771 17.3444C29.8773 17.4444 29.9399 17.5823 29.945 17.728C29.9433 17.8005 29.9272 17.8719 29.8977 17.9381C29.8681 18.0043 29.8257 18.064 29.7728 18.1137C29.72 18.1634 29.6578 18.2021 29.5898 18.2277C29.5219 18.2532 29.4495 18.2649 29.377 18.2623H28.3993L26.9527 21.6458C26.9019 21.7554 26.8219 21.8489 26.7215 21.9162C26.6268 21.9832 26.5139 22.02 26.3978 22.0217C26.3202 22.0264 26.2424 22.0147 26.1696 21.9875C26.0967 21.9602 26.0305 21.9179 25.9751 21.8634C25.9237 21.8115 25.8837 21.7496 25.8575 21.6815C25.8314 21.6134 25.8197 21.5406 25.8231 21.4677C25.8131 21.3977 25.8131 21.3266 25.8231 21.2566L27.1443 18.2623H26.5894C26.4427 18.2659 26.3004 18.212 26.193 18.1122C26.0855 18.0123 26.0216 17.8744 26.0147 17.728C26.0216 17.5817 26.0855 17.4438 26.193 17.3439C26.3004 17.2441 26.4427 17.1902 26.5894 17.1938H27.6529L29.0335 14.0544C29.0929 13.8921 29.2008 13.752 29.3426 13.6529C29.4843 13.5539 29.6531 13.5006 29.8261 13.5003H30.1036C30.2773 13.5011 30.4467 13.5545 30.5894 13.6534C30.7321 13.7523 30.8414 13.8921 30.9029 14.0544L34.067 21.2632C34.101 21.3311 34.1212 21.4051 34.1264 21.4809ZM11.8654 18.2293H11.0067L14.1179 21.0324C14.1731 21.0853 14.2169 21.1488 14.2469 21.2191C14.2769 21.2894 14.2923 21.3649 14.2923 21.4413C14.2923 21.5177 14.2769 21.5933 14.2469 21.6635C14.2169 21.7338 14.1731 21.7973 14.1179 21.8502C14.0038 21.9583 13.8525 22.0186 13.6952 22.0186C13.5379 22.0186 13.3865 21.9583 13.2724 21.8502L9.34866 18.3151L9.29582 18.2557C9.29582 19.3637 9.29582 20.2014 9.29582 21.3688C9.30344 21.4974 9.26797 21.6249 9.19502 21.7312C9.12206 21.8374 9.01577 21.9165 8.89287 21.9558C8.83718 21.9737 8.77951 21.9848 8.72113 21.9887C8.64369 21.9915 8.56647 21.9789 8.49392 21.9517C8.42137 21.9246 8.35491 21.8834 8.29837 21.8305C8.2383 21.7724 8.19088 21.7026 8.15906 21.6255C8.12723 21.5483 8.11169 21.4654 8.11341 21.382C8.11341 19.2384 8.11341 17.4972 8.11341 15.3537V14.3577C8.11341 14.2654 8.11341 14.1665 8.11341 14.0675C8.1168 13.981 8.14147 13.8966 8.18525 13.8219C8.22902 13.7471 8.29056 13.6842 8.36442 13.6388C8.4706 13.5514 8.60335 13.5026 8.74094 13.5003H11.8654C12.1817 13.4951 12.496 13.5522 12.7901 13.6685C13.0843 13.7847 13.3526 13.9578 13.5796 14.1777C13.8067 14.3977 13.988 14.6602 14.1133 14.9503C14.2385 15.2404 14.3052 15.5523 14.3095 15.8681C14.3043 16.1834 14.237 16.4946 14.1114 16.7839C13.9858 17.0732 13.8043 17.335 13.5773 17.5542C13.3504 17.7735 13.0824 17.946 12.7886 18.0618C12.4949 18.1776 12.1812 18.2345 11.8654 18.2293ZM11.8654 17.0685C12.0276 17.0711 12.1888 17.0418 12.3397 16.9822C12.4905 16.9227 12.6282 16.834 12.7447 16.7213C12.8613 16.6086 12.9544 16.4741 13.0189 16.3254C13.0834 16.1768 13.1179 16.0169 13.1205 15.8549C13.1179 15.693 13.0834 15.5331 13.0189 15.3844C12.9544 15.2358 12.8613 15.1013 12.7447 14.9886C12.6282 14.8759 12.4905 14.7872 12.3397 14.7276C12.1888 14.668 12.0276 14.6387 11.8654 14.6414H9.29582V17.0685H11.8654Z" fill="white"/>
</svg>
