<svg width="16" height="17" viewBox="0 0 16 17" fill="none" xmlns="http://www.w3.org/2000/svg">
<g clip-path="url(#clip0_8814_12069)">
<path d="M8 16.5C12.4334 16.5 16 12.9334 16 8.5C16 4.06664 12.4334 0.5 8 0.5C3.56664 0.5 0 4.06664 0 8.5C0 12.9334 3.56664 16.5 8 16.5Z" fill="#2775CA"/>
<path d="M10.2 9.76667C10.2 8.60003 9.50004 8.20002 8.10004 8.03338C7.10004 7.90002 6.90004 7.63338 6.90004 7.16666C6.90004 6.69994 7.2334 6.40002 7.90004 6.40002C8.50004 6.40002 8.8334 6.60002 9.00004 7.10002C9.0334 7.20002 9.1334 7.26666 9.2334 7.26666H9.76668C9.90004 7.26666 10 7.16666 10 7.03338V7.00002C9.86668 6.26666 9.26668 5.70001 8.50004 5.63337V4.83337C8.50004 4.70001 8.40004 4.60001 8.2334 4.56665H7.7334C7.60004 4.56665 7.50004 4.66665 7.46668 4.83337V5.60001C6.46668 5.73337 5.8334 6.40002 5.8334 7.23338C5.8334 8.33338 6.50004 8.76667 7.90004 8.93339C8.8334 9.10003 9.1334 9.30003 9.1334 9.83339C9.1334 10.3668 8.66668 10.7334 8.0334 10.7334C7.16668 10.7334 6.86668 10.3667 6.76668 9.86667C6.7334 9.73339 6.6334 9.66667 6.5334 9.66667H5.96668C5.8334 9.66667 5.7334 9.76667 5.7334 9.90003V9.93339C5.86668 10.7667 6.40004 11.3667 7.50004 11.5334V12.3334C7.50004 12.4667 7.60004 12.5667 7.76668 12.6H8.26668C8.40004 12.6 8.50004 12.5 8.5334 12.3334V11.5334C9.5334 11.3667 10.2 10.6667 10.2 9.76667Z" fill="white"/>
<path d="M6.30018 13.2666C3.70017 12.3333 2.3668 9.43331 3.33353 6.86659C3.83353 5.46659 4.93354 4.39995 6.30018 3.89995C6.43354 3.83331 6.50018 3.73331 6.50018 3.56659V3.09995C6.50018 2.96659 6.43354 2.86659 6.30018 2.83331C6.26682 2.83331 6.20018 2.83331 6.16682 2.86659C3.00017 3.86659 1.2668 7.23331 2.2668 10.4C2.86681 12.2666 4.30017 13.7 6.16682 14.3C6.30018 14.3666 6.43354 14.3 6.46682 14.1666C6.50018 14.1333 6.50018 14.1 6.50018 14.0333V13.5666C6.50018 13.4666 6.40018 13.3333 6.30018 13.2666ZM9.83356 2.86659C9.7002 2.79995 9.56684 2.86659 9.53356 2.99995C9.5002 3.03331 9.5002 3.06659 9.5002 3.13331V3.59995C9.5002 3.73331 9.6002 3.86659 9.7002 3.93331C12.3002 4.86659 13.6336 7.76659 12.6669 10.3333C12.1669 11.7333 11.0668 12.8 9.7002 13.3C9.56684 13.3666 9.5002 13.4666 9.5002 13.6333V14.1C9.5002 14.2333 9.56684 14.3333 9.7002 14.3666C9.73356 14.3666 9.8002 14.3666 9.83356 14.3333C13.0002 13.3333 14.7336 9.96659 13.7336 6.79995C13.1336 4.89995 11.6669 3.46659 9.83356 2.86659Z" fill="white"/>
</g>
<defs>
<clipPath id="clip0_8814_12069">
<rect width="16" height="16" fill="white" transform="translate(0 0.5)"/>
</clipPath>
</defs>
</svg>
