<?xml version="1.0" standalone="no"?>
<!DOCTYPE svg PUBLIC "-//W3C//DTD SVG 20010904//EN"
 "http://www.w3.org/TR/2001/REC-SVG-20010904/DTD/svg10.dtd">
<svg version="1.0" xmlns="http://www.w3.org/2000/svg"
 width="590.000000pt" height="590.000000pt" viewBox="0 0 590.000000 590.000000"
 preserveAspectRatio="xMidYMid meet">

<g transform="translate(0.000000,590.000000) scale(0.100000,-0.100000)"
fill="#000000" stroke="none">
<path d="M3120 5803 c-289 -27 -408 -46 -627 -103 -444 -115 -865 -328 -1238
-626 -141 -113 -386 -358 -499 -499 -401 -501 -643 -1090 -717 -1745 -16 -138
-16 -525 0 -670 27 -242 91 -534 166 -748 37 -108 113 -291 125 -305 9 -10
376 157 373 170 -2 4 -27 69 -57 143 -90 222 -156 477 -188 730 -20 158 -17
584 5 735 75 510 260 959 562 1360 349 464 831 811 1390 1002 824 281 1773
162 2499 -314 181 -118 298 -214 475 -390 95 -95 176 -173 178 -173 8 0 303
252 303 259 0 14 -188 216 -272 292 -569 519 -1239 813 -2003 878 -110 10
-392 12 -475 4z"/>
<path d="M3205 4874 c-513 -39 -927 -194 -1330 -497 -103 -78 -344 -319 -422
-422 -202 -268 -346 -562 -422 -858 -165 -644 -65 -1304 283 -1865 180 -289
414 -529 710 -727 350 -233 762 -368 1195 -392 l121 -6 -2 209 -3 209 -106 7
c-502 31 -952 235 -1302 592 -418 425 -620 1034 -542 1630 97 740 616 1370
1320 1605 249 83 413 106 698 98 164 -4 225 -10 325 -31 391 -83 721 -262
1003 -546 l116 -116 124 104 c68 57 139 117 158 133 l35 28 -125 127 c-212
215 -394 347 -654 475 -244 119 -500 196 -760 228 -93 11 -348 20 -420 15z"/>
<path d="M3196 3889 c-510 -49 -962 -386 -1155 -860 -73 -181 -102 -332 -102
-535 -1 -371 134 -704 392 -969 124 -128 238 -210 394 -286 315 -152 670 -182
1010 -84 185 54 402 176 534 303 l70 67 -125 160 c-69 88 -134 171 -144 185
l-19 25 -68 -67 c-177 -173 -395 -260 -648 -260 -256 0 -476 90 -656 271 -251
250 -338 613 -228 946 52 155 128 274 250 391 117 111 255 186 415 226 126 31
324 31 444 0 160 -42 315 -130 429 -242 l62 -61 132 110 c73 60 152 127 177
149 l45 41 -80 81 c-236 240 -533 380 -871 409 -131 12 -132 12 -258 0z"/>
</g>
</svg>
