<?xml version="1.0" standalone="no"?>
<!DOCTYPE svg PUBLIC "-//W3C//DTD SVG 20010904//EN"
 "http://www.w3.org/TR/2001/REC-SVG-20010904/DTD/svg10.dtd">
<svg version="1.0" xmlns="http://www.w3.org/2000/svg"
 width="700.000000pt" height="700.000000pt" viewBox="0 0 700.000000 700.000000"
 preserveAspectRatio="xMidYMid meet">
<metadata>
Created by potrace 1.14, written by Peter Selinger 2001-2017
</metadata>
<g transform="translate(0.000000,700.000000) scale(0.100000,-0.100000)"
fill="#000000" stroke="none">
<path d="M3719 6996 c-2 -2 -49 -7 -104 -10 -55 -4 -109 -9 -120 -11 -11 -2
-42 -7 -70 -10 -44 -5 -159 -24 -250 -41 -67 -12 -244 -56 -344 -85 -512 -149
-1042 -437 -1454 -791 -93 -79 -345 -330 -404 -401 -28 -34 -60 -71 -70 -82
-75 -80 -270 -362 -374 -540 -265 -452 -448 -1007 -505 -1530 -26 -244 -26
-729 1 -885 2 -14 6 -50 9 -80 4 -30 11 -80 16 -110 5 -30 12 -71 15 -90 3
-19 8 -42 10 -50 2 -8 7 -31 10 -50 23 -140 123 -462 209 -674 76 -188 69
-179 136 -147 30 14 98 46 150 70 52 24 127 59 167 78 l71 35 -35 76 c-74 163
-184 499 -209 637 -3 17 -9 49 -15 73 -5 23 -12 59 -14 80 -3 20 -8 48 -10 62
-3 14 -7 48 -11 75 -3 28 -8 58 -10 69 -23 121 -23 592 0 766 2 14 7 52 11 85
41 354 184 798 366 1144 84 159 264 442 299 471 3 3 16 20 29 38 69 99 294
340 432 463 149 133 396 312 569 413 282 164 647 305 985 382 46 11 243 45
285 49 25 3 59 7 75 10 139 19 472 25 640 12 98 -8 325 -36 334 -42 3 -1 28
-6 55 -9 68 -9 331 -78 443 -115 389 -130 753 -328 1080 -589 100 -80 363
-333 445 -428 l36 -42 184 154 c100 85 184 158 186 162 6 18 -286 321 -428
444 -213 184 -466 360 -695 483 -49 26 -108 58 -130 70 -138 74 -442 194 -635
249 -219 64 -279 78 -440 105 -154 26 -177 29 -246 36 -32 4 -72 9 -89 11 -36
6 -581 15 -586 10z"/>
<path d="M3759 5886 c-2 -2 -35 -6 -74 -10 -328 -27 -699 -132 -993 -280 -289
-145 -516 -309 -748 -540 -365 -365 -612 -796 -743 -1296 -63 -241 -86 -431
-86 -710 1 -282 22 -462 85 -704 132 -509 383 -945 759 -1316 131 -129 158
-152 296 -254 382 -284 808 -462 1270 -532 28 -4 55 -8 60 -9 24 -5 158 -16
258 -21 l107 -5 0 249 0 248 -95 3 c-52 1 -102 3 -112 5 -10 2 -45 7 -78 10
-765 86 -1462 579 -1816 1286 -129 259 -213 558 -235 840 -12 148 -6 416 11
510 2 14 9 55 15 93 52 334 214 710 427 995 88 117 97 127 238 267 279 278
594 467 970 581 596 182 1250 112 1810 -194 189 -104 354 -230 527 -403 l137
-137 33 26 c18 15 44 37 58 48 28 25 115 98 145 123 119 97 134 113 125 131
-5 10 -65 74 -132 142 -108 110 -165 163 -235 218 -10 8 -39 31 -63 51 -254
204 -688 418 -1000 494 -71 17 -208 46 -238 51 -20 3 -44 7 -52 9 -8 2 -40 7
-70 10 -30 4 -68 8 -85 11 -36 6 -471 15 -476 10z"/>
<path d="M3837 4714 c-1 -1 -29 -4 -62 -7 -130 -13 -382 -73 -409 -98 -6 -5
-16 -9 -24 -9 -22 0 -196 -86 -274 -136 -386 -246 -655 -630 -749 -1067 -46
-215 -46 -473 1 -692 121 -575 548 -1051 1107 -1235 65 -21 134 -41 154 -44
20 -3 42 -8 50 -10 96 -33 403 -39 578 -11 330 52 631 201 889 439 23 22 42
43 42 48 0 6 -151 204 -288 377 -15 19 -32 41 -39 50 -10 14 -20 8 -72 -46
-162 -164 -405 -289 -625 -321 -82 -11 -295 -7 -371 7 -431 84 -768 404 -876
835 -24 92 -34 332 -18 427 56 349 282 659 594 817 181 91 320 122 530 117 77
-2 154 -6 170 -9 151 -32 310 -98 426 -177 77 -52 108 -78 173 -146 55 -57 58
-59 78 -40 7 6 102 86 210 177 l197 164 -102 101 c-276 273 -595 430 -977 481
-49 6 -307 13 -313 8z"/>
</g>
</svg>
