<?xml version="1.0" encoding="utf-8"?>
<!-- Generator: Adobe Illustrator 18.0.0, SVG Export Plug-In . SVG Version: 6.00 Build 0)  -->
<!DOCTYPE svg PUBLIC "-//W3C//DTD SVG 1.1//EN" "http://www.w3.org/Graphics/SVG/1.1/DTD/svg11.dtd">
<svg version="1.1" id="Слой_1" xmlns="http://www.w3.org/2000/svg" xmlns:xlink="http://www.w3.org/1999/xlink" x="0px" y="0px"
	 viewBox="0 0 1792 320" enable-background="new 0 0 1792 320" xml:space="preserve">
<g>
	<path fill="#0828BE" d="M196,308.7c58.2,13.8,126.6,20.7,182-13.4c40.3-24.8,70-52.2,70-161.9S342.5,0,294,0
		C203.6,0,170.5,66,98,93.3S0,151,0,186.7C0,257.9,118.2,290.2,196,308.7z"/>
	<g>
		<g>
			<path fill="#333333" d="M649.9,78v210h-52.2V78H512V30.7h223.5V78H649.9z"/>
			<path fill="#333333" d="M807.6,17.9c5.9,6,8.8,13.1,8.8,21.3c0,8.4-2.9,15.5-8.8,21.1s-13.2,8.4-21.9,8.4c-9,0-16.3-2.8-22.1-8.4
				s-8.6-12.7-8.6-21.1c0-8.2,2.9-15.3,8.8-21.3c5.9-6,13.2-9,21.9-9C794.4,8.8,801.7,11.8,807.6,17.9z M760.3,288V96.4H811V288
				H760.3z"/>
			<path fill="#333333" d="M1018.4,113.1c14.1,15,21.1,34.4,21.1,58.2V288h-50.7V182c0-13.6-3.5-24.4-10.6-32.6
				c-7-8.2-16.4-12.3-28.2-12.3c-31.7,0-47.6,22-47.6,66V288h-50.7V96.4h50.7v17.3c15.4-15.4,35.5-23,60.3-23
				C985.8,90.6,1004.4,98.1,1018.4,113.1z"/>
			<path fill="#333333" d="M1078.6,288V11.5h50.7V288H1078.6z"/>
			<path fill="#333333" d="M1366.7,288h-50.7v-15c-17.2,13.8-38.3,20.7-63.4,20.7c-25.3,0-47.4-9.6-66-28.8
				c-18.7-19.2-28-43.4-28-72.6c0-29.2,9.4-53.4,28.2-72.8s40.8-29,65.9-29c25.3,0,46.5,7,63.4,21.1V96.4h50.7V288z M1299.5,233.7
				c11-10.6,16.5-24.4,16.5-41.3c0-16.9-5.5-30.7-16.5-41.5s-23.7-16.1-38-16.1c-15.6,0-28.5,5.2-38.6,15.7
				c-10.1,10.5-15.2,24.4-15.2,41.9c0,17.4,5.1,31.3,15.2,41.7c10.1,10.4,23,15.6,38.6,15.6C1275.9,249.6,1288.5,244.3,1299.5,233.7
				z"/>
			<path fill="#333333" d="M1541.3,288l-75.3-74.9h-8.8V288h-50.7V11.5h50.7v151.7h9.2l68.7-66.8h63.7l-92.5,91.8l102.5,99.8H1541.3
				z"/>
			<path fill="#333333" d="M1792,205.8h-145.9c2.6,13.6,8.3,24.4,17.1,32.4c8.8,8.1,19.1,12.1,30.9,12.1c21.8,0,37.6-8.4,47.6-25.3
				l45.3,9.6c-8.2,19.5-20.4,34.2-36.5,44.2c-16.1,10-34.9,15-56.4,15c-27.6,0-50.9-9.5-69.9-28.4c-18.9-18.9-28.4-43.3-28.4-73
				c0-29.7,9.5-54.1,28.6-73.2s42.6-28.6,70.5-28.6c26.1,0,48.6,9.2,67.4,27.5c18.8,18.3,28.7,41.8,29.8,70.5V205.8z M1665.5,144
				c-9.1,6.1-15,14.8-17.9,26.1h92.5c-3.1-11.8-8.7-20.6-16.9-26.5c-8.2-5.9-17.7-8.8-28.4-8.8
				C1684.4,134.8,1674.6,137.9,1665.5,144z"/>
		</g>
	</g>
	<g>
		<path fill="#0828BE" d="M1523.6,10.4c17.7,0,29.4,10.9,29.4,26.8c0,15.9-11.7,26.8-29.4,26.8h-21.2V10.4H1523.6z M1523.1,52.6
			c10,0,16.6-6.1,16.6-15.4s-6.6-15.4-16.6-15.4h-7.5v30.7H1523.1z"/>
		<path fill="#0828BE" d="M1620.6,64h-41.8V10.4h41.5v11.4H1592v10.1h26v10.7h-26v10.1h28.6V64z"/>
		<path fill="#0828BE" d="M1709,64h-12.8V35.4l-15,28.6h-6.1L1660,35.3V64h-12.8V10.4h13l18,34l18-34h12.9V64z"/>
		<path fill="#0828BE" d="M1792,37.3c0,15.6-12.6,27.9-28.6,27.9s-28.6-12.3-28.6-27.9c0-15.7,12.6-28.1,28.6-28.1
			S1792,21.6,1792,37.3z M1778.8,37.3c0-9.2-6.6-16-15.4-16s-15.4,6.8-15.4,16c0,9.1,6.6,15.8,15.4,15.8S1778.8,46.4,1778.8,37.3z"
			/>
	</g>
	<g>
		<g>
			<path fill="#EEEEEE" d="M297.1,121v105h-26.1V121h-42.8V97.4h111.7V121H297.1z"/>
		</g>
	</g>
</g>
</svg>
