<svg width="689" height="91" viewBox="0 0 689 91" fill="none" xmlns="http://www.w3.org/2000/svg">
<path d="M15.8674 49.768C15.6434 49.4587 15.3394 49.208 14.9554 49.016C14.5714 48.8133 14.1394 48.712 13.6594 48.712C13.4034 48.712 13.142 48.7493 12.8754 48.824C12.6194 48.888 12.3847 49 12.1714 49.16C11.958 49.3093 11.782 49.5013 11.6434 49.736C11.5154 49.96 11.4514 50.232 11.4514 50.552C11.4514 50.8613 11.51 51.1227 11.6274 51.336C11.7554 51.5387 11.9207 51.7147 12.1234 51.864C12.3367 52.0027 12.582 52.1253 12.8594 52.232C13.1474 52.328 13.4514 52.4293 13.7714 52.536C14.1554 52.6533 14.5447 52.7867 14.9394 52.936C15.334 53.0853 15.6914 53.2827 16.0114 53.528C16.3314 53.7733 16.5927 54.0827 16.7954 54.456C16.998 54.8187 17.0994 55.2827 17.0994 55.848C17.0994 56.4347 16.9874 56.9467 16.7634 57.384C16.55 57.8107 16.262 58.168 15.8994 58.456C15.5367 58.7333 15.1154 58.9413 14.6354 59.08C14.166 59.2187 13.6807 59.288 13.1794 59.288C12.4647 59.288 11.7714 59.1493 11.0994 58.872C10.438 58.5947 9.88871 58.184 9.45138 57.64L10.6834 56.6C10.95 56.9947 11.3074 57.3147 11.7554 57.56C12.2034 57.8053 12.6887 57.928 13.2114 57.928C13.478 57.928 13.7447 57.8907 14.0114 57.816C14.278 57.7413 14.518 57.624 14.7314 57.464C14.9554 57.304 15.1367 57.1067 15.2754 56.872C15.414 56.6267 15.4834 56.3333 15.4834 55.992C15.4834 55.6507 15.4087 55.368 15.2594 55.144C15.1207 54.9093 14.9287 54.712 14.6834 54.552C14.438 54.392 14.15 54.2587 13.8194 54.152C13.4994 54.0347 13.158 53.9173 12.7954 53.8C12.4327 53.6933 12.0754 53.5653 11.7234 53.416C11.3714 53.256 11.0567 53.0587 10.7794 52.824C10.502 52.5787 10.278 52.28 10.1074 51.928C9.93671 51.576 9.85138 51.1387 9.85138 50.616C9.85138 50.0507 9.96338 49.5653 10.1874 49.16C10.422 48.7547 10.7207 48.4187 11.0834 48.152C11.4567 47.8853 11.8727 47.6933 12.3314 47.576C12.8007 47.448 13.27 47.384 13.7394 47.384C14.4007 47.384 15.0194 47.5013 15.5954 47.736C16.1714 47.9707 16.6354 48.2853 16.9874 48.68L15.8674 49.768ZM24.6088 59C24.5874 58.808 24.5714 58.5947 24.5608 58.36C24.5501 58.1147 24.5448 57.912 24.5448 57.752H24.5128C24.3208 58.1573 23.9954 58.504 23.5368 58.792C23.0888 59.0693 22.5874 59.208 22.0328 59.208C21.5421 59.208 21.1154 59.128 20.7528 58.968C20.4008 58.808 20.1074 58.5893 19.8728 58.312C19.6488 58.024 19.4781 57.6933 19.3608 57.32C19.2541 56.9467 19.2008 56.5467 19.2008 56.12V51.416H20.7048V55.608C20.7048 55.9173 20.7261 56.216 20.7688 56.504C20.8221 56.7813 20.9128 57.0267 21.0408 57.24C21.1688 57.4533 21.3448 57.624 21.5688 57.752C21.7928 57.88 22.0808 57.944 22.4328 57.944C23.0408 57.944 23.5314 57.72 23.9048 57.272C24.2781 56.8133 24.4648 56.2053 24.4648 55.448V51.416H25.9688V57.368C25.9688 57.5707 25.9741 57.832 25.9848 58.152C25.9954 58.472 26.0114 58.7547 26.0328 59H24.6088ZM30.0653 57.8V59H28.6093V46.904H30.1133V52.552H30.1613C30.4173 52.1787 30.7746 51.864 31.2333 51.608C31.6919 51.3413 32.2359 51.208 32.8653 51.208C33.4306 51.208 33.9426 51.3093 34.4013 51.512C34.8706 51.7147 35.2706 51.9973 35.6013 52.36C35.9426 52.7227 36.2039 53.1493 36.3853 53.64C36.5666 54.12 36.6573 54.6373 36.6573 55.192C36.6573 55.7467 36.5666 56.2693 36.3853 56.76C36.2039 57.2507 35.9479 57.6773 35.6173 58.04C35.2866 58.4027 34.8866 58.6907 34.4173 58.904C33.9479 59.1067 33.4199 59.208 32.8333 59.208C32.2893 59.208 31.7719 59.0907 31.2812 58.856C30.7906 58.6107 30.3959 58.2587 30.0973 57.8H30.0653ZM35.1053 55.192C35.1053 54.84 35.0519 54.4987 34.9453 54.168C34.8386 53.8373 34.6786 53.544 34.4653 53.288C34.2519 53.032 33.9853 52.8293 33.6653 52.68C33.3559 52.5307 32.9933 52.456 32.5773 52.456C32.1933 52.456 31.8413 52.5307 31.5213 52.68C31.2119 52.8293 30.9453 53.032 30.7213 53.288C30.4973 53.544 30.3213 53.8373 30.1933 54.168C30.0759 54.4987 30.0173 54.8453 30.0173 55.208C30.0173 55.5707 30.0759 55.9173 30.1933 56.248C30.3213 56.5787 30.4973 56.872 30.7213 57.128C30.9453 57.3733 31.2119 57.5707 31.5213 57.72C31.8413 57.8693 32.1933 57.944 32.5773 57.944C32.9933 57.944 33.3559 57.8693 33.6653 57.72C33.9853 57.56 34.2519 57.352 34.4653 57.096C34.6786 56.84 34.8386 56.5467 34.9453 56.216C35.0519 55.8853 35.1053 55.544 35.1053 55.192ZM40.2211 52.664C40.4131 52.2587 40.7171 51.9173 41.1331 51.64C41.5598 51.352 42.0611 51.208 42.6371 51.208C43.1491 51.208 43.6078 51.3253 44.0131 51.56C44.4291 51.7947 44.7545 52.184 44.9891 52.728C45.2451 52.2373 45.6025 51.864 46.0611 51.608C46.5198 51.3413 47.0211 51.208 47.5651 51.208C48.0558 51.208 48.4771 51.2933 48.8291 51.464C49.1811 51.624 49.4745 51.8427 49.7091 52.12C49.9438 52.3973 50.1145 52.7227 50.2211 53.096C50.3385 53.4693 50.3971 53.8693 50.3971 54.296V59H48.8931V54.792C48.8931 54.4827 48.8665 54.1893 48.8131 53.912C48.7598 53.6347 48.6691 53.3893 48.5411 53.176C48.4131 52.9627 48.2425 52.792 48.0291 52.664C47.8158 52.536 47.5438 52.472 47.2131 52.472C46.8718 52.472 46.5785 52.5467 46.3331 52.696C46.0878 52.8347 45.8851 53.0213 45.7251 53.256C45.5758 53.48 45.4638 53.736 45.3891 54.024C45.3251 54.312 45.2931 54.6053 45.2931 54.904V59H43.7891V54.488C43.7891 54.1893 43.7625 53.9173 43.7091 53.672C43.6558 53.4267 43.5651 53.2187 43.4371 53.048C43.3091 52.8667 43.1438 52.728 42.9411 52.632C42.7385 52.5253 42.4878 52.472 42.1891 52.472C41.6345 52.472 41.1705 52.7013 40.7971 53.16C40.4345 53.608 40.2531 54.2107 40.2531 54.968V59H38.7491V53.048C38.7491 52.8453 38.7438 52.584 38.7331 52.264C38.7225 51.944 38.7065 51.6613 38.6851 51.416H40.1091C40.1305 51.608 40.1465 51.8267 40.1571 52.072C40.1678 52.3067 40.1731 52.504 40.1731 52.664H40.2211ZM54.4566 59H52.9526V51.416H54.4566V59ZM54.7126 48.68C54.7126 48.9573 54.6113 49.1867 54.4086 49.368C54.2166 49.5493 53.982 49.64 53.7046 49.64C53.4273 49.64 53.1926 49.5493 53.0006 49.368C52.8086 49.176 52.7126 48.9467 52.7126 48.68C52.7126 48.4027 52.8086 48.1733 53.0006 47.992C53.1926 47.8 53.4273 47.704 53.7046 47.704C53.982 47.704 54.2166 47.8 54.4086 47.992C54.6113 48.1733 54.7126 48.4027 54.7126 48.68ZM60.7893 52.648H58.7733V56.6C58.7733 57.0587 58.8586 57.3893 59.0293 57.592C59.1999 57.784 59.4719 57.88 59.8453 57.88C59.9839 57.88 60.1333 57.864 60.2933 57.832C60.4533 57.8 60.5973 57.752 60.7253 57.688L60.7733 58.92C60.5919 58.984 60.3893 59.032 60.1653 59.064C59.9519 59.1067 59.7279 59.128 59.4933 59.128C58.7786 59.128 58.2293 58.9307 57.8453 58.536C57.4719 58.1413 57.2853 57.5493 57.2853 56.76V52.648H55.8293V51.416H57.2853V49.24H58.7733V51.416H60.7893V52.648ZM71.6549 53.336C71.4949 53.0907 71.2549 52.888 70.9349 52.728C70.6149 52.5573 70.2735 52.472 69.9109 52.472C69.5162 52.472 69.1642 52.5467 68.8549 52.696C68.5562 52.8453 68.3002 53.048 68.0869 53.304C67.8735 53.5493 67.7082 53.8373 67.5909 54.168C67.4842 54.4987 67.4309 54.8453 67.4309 55.208C67.4309 55.5707 67.4842 55.9173 67.5909 56.248C67.7082 56.5787 67.8735 56.872 68.0869 57.128C68.3002 57.3733 68.5615 57.5707 68.8709 57.72C69.1802 57.8693 69.5322 57.944 69.9269 57.944C70.3109 57.944 70.6575 57.8693 70.9669 57.72C71.2869 57.5707 71.5482 57.368 71.7509 57.112L72.7589 58.024C72.4389 58.3973 72.0389 58.6907 71.5589 58.904C71.0789 59.1067 70.5349 59.208 69.9269 59.208C69.3402 59.208 68.7962 59.112 68.2949 58.92C67.8042 58.728 67.3775 58.4613 67.0149 58.12C66.6522 57.768 66.3642 57.3467 66.1509 56.856C65.9482 56.3653 65.8469 55.816 65.8469 55.208C65.8469 54.6107 65.9482 54.0667 66.1509 53.576C66.3535 53.0853 66.6362 52.664 66.9989 52.312C67.3615 51.96 67.7882 51.688 68.2789 51.496C68.7802 51.304 69.3189 51.208 69.8949 51.208C70.4282 51.208 70.9562 51.3147 71.4789 51.528C72.0122 51.7413 72.4335 52.0507 72.7429 52.456L71.6549 53.336ZM81.9291 55.192C81.9291 55.7787 81.8225 56.3173 81.6091 56.808C81.4065 57.2987 81.1185 57.7253 80.7451 58.088C80.3825 58.44 79.9505 58.7173 79.4491 58.92C78.9478 59.112 78.4091 59.208 77.8331 59.208C77.2571 59.208 76.7185 59.112 76.2171 58.92C75.7158 58.7173 75.2838 58.44 74.9211 58.088C74.5585 57.7253 74.2705 57.2987 74.0571 56.808C73.8545 56.3173 73.7531 55.7787 73.7531 55.192C73.7531 54.6053 73.8545 54.072 74.0571 53.592C74.2705 53.1013 74.5585 52.68 74.9211 52.328C75.2838 51.976 75.7158 51.704 76.2171 51.512C76.7185 51.3093 77.2571 51.208 77.8331 51.208C78.4091 51.208 78.9478 51.3093 79.4491 51.512C79.9505 51.704 80.3825 51.976 80.7451 52.328C81.1185 52.68 81.4065 53.1013 81.6091 53.592C81.8225 54.072 81.9291 54.6053 81.9291 55.192ZM80.3611 55.192C80.3611 54.8293 80.3025 54.4827 80.1851 54.152C80.0785 53.8213 79.9185 53.5333 79.7051 53.288C79.4918 53.032 79.2251 52.8293 78.9051 52.68C78.5958 52.5307 78.2385 52.456 77.8331 52.456C77.4278 52.456 77.0651 52.5307 76.7451 52.68C76.4358 52.8293 76.1745 53.032 75.9611 53.288C75.7478 53.5333 75.5825 53.8213 75.4651 54.152C75.3585 54.4827 75.3051 54.8293 75.3051 55.192C75.3051 55.5547 75.3585 55.9013 75.4651 56.232C75.5825 56.5627 75.7478 56.856 75.9611 57.112C76.1745 57.368 76.4358 57.5707 76.7451 57.72C77.0651 57.8693 77.4278 57.944 77.8331 57.944C78.2385 57.944 78.5958 57.8693 78.9051 57.72C79.2251 57.5707 79.4918 57.368 79.7051 57.112C79.9185 56.856 80.0785 56.5627 80.1851 56.232C80.3025 55.9013 80.3611 55.5547 80.3611 55.192ZM85.3748 51.416C85.3961 51.608 85.4121 51.8267 85.4228 52.072C85.4334 52.3067 85.4388 52.504 85.4388 52.664H85.4868C85.5828 52.4613 85.7108 52.2747 85.8708 52.104C86.0414 51.9227 86.2334 51.768 86.4468 51.64C86.6601 51.5013 86.8948 51.3947 87.1508 51.32C87.4068 51.2453 87.6734 51.208 87.9508 51.208C88.4414 51.208 88.8628 51.2933 89.2148 51.464C89.5668 51.624 89.8601 51.8427 90.0948 52.12C90.3294 52.3973 90.5001 52.7227 90.6068 53.096C90.7241 53.4693 90.7828 53.8693 90.7828 54.296V59H89.2788V54.792C89.2788 54.4827 89.2521 54.1893 89.1988 53.912C89.1561 53.6347 89.0708 53.3893 88.9428 53.176C88.8148 52.9627 88.6388 52.792 88.4148 52.664C88.1908 52.536 87.9028 52.472 87.5508 52.472C86.9534 52.472 86.4628 52.7013 86.0788 53.16C85.7054 53.608 85.5188 54.2107 85.5188 54.968V59H84.0148V53.048C84.0148 52.8453 84.0094 52.584 83.9988 52.264C83.9881 51.944 83.9721 51.6613 83.9508 51.416H85.3748ZM97.0393 52.648H95.0233V56.6C95.0233 57.0587 95.1086 57.3893 95.2793 57.592C95.4499 57.784 95.7219 57.88 96.0953 57.88C96.2339 57.88 96.3833 57.864 96.5433 57.832C96.7033 57.8 96.8473 57.752 96.9753 57.688L97.0233 58.92C96.8419 58.984 96.6393 59.032 96.4153 59.064C96.2019 59.1067 95.9779 59.128 95.7433 59.128C95.0286 59.128 94.4793 58.9307 94.0953 58.536C93.7219 58.1413 93.5353 57.5493 93.5353 56.76V52.648H92.0793V51.416H93.5353V49.24H95.0233V51.416H97.0393V52.648ZM103.313 54.088C103.313 53.5227 103.142 53.1067 102.801 52.84C102.46 52.5627 102.006 52.424 101.441 52.424C101.014 52.424 100.609 52.5093 100.225 52.68C99.8515 52.84 99.5369 53.048 99.2809 53.304L98.4809 52.344C98.8542 51.992 99.3075 51.7147 99.8409 51.512C100.385 51.3093 100.966 51.208 101.585 51.208C102.129 51.208 102.598 51.288 102.993 51.448C103.398 51.5973 103.729 51.8053 103.985 52.072C104.241 52.3387 104.433 52.6533 104.561 53.016C104.689 53.3787 104.753 53.768 104.753 54.184V57.496C104.753 57.752 104.758 58.024 104.769 58.312C104.79 58.5893 104.822 58.8187 104.865 59H103.505C103.42 58.6373 103.377 58.2747 103.377 57.912H103.329C103.052 58.3173 102.7 58.632 102.273 58.856C101.857 59.08 101.361 59.192 100.785 59.192C100.486 59.192 100.172 59.1493 99.8409 59.064C99.5209 58.9893 99.2275 58.8613 98.9609 58.68C98.6942 58.4987 98.4702 58.2587 98.2889 57.96C98.1182 57.6613 98.0329 57.2933 98.0329 56.856C98.0329 56.28 98.1875 55.8267 98.4969 55.496C98.8062 55.1547 99.2115 54.8987 99.7129 54.728C100.214 54.5467 100.78 54.4293 101.409 54.376C102.038 54.3227 102.673 54.296 103.313 54.296V54.088ZM102.945 55.384C102.572 55.384 102.182 55.4 101.777 55.432C101.382 55.464 101.02 55.528 100.689 55.624C100.369 55.72 100.102 55.864 99.8889 56.056C99.6755 56.248 99.5689 56.504 99.5689 56.824C99.5689 57.048 99.6115 57.2347 99.6969 57.384C99.7929 57.5333 99.9155 57.656 100.065 57.752C100.214 57.848 100.38 57.9173 100.561 57.96C100.742 57.992 100.929 58.008 101.121 58.008C101.825 58.008 102.364 57.8 102.737 57.384C103.121 56.9573 103.313 56.424 103.313 55.784V55.384H102.945ZM112.577 53.336C112.417 53.0907 112.177 52.888 111.857 52.728C111.537 52.5573 111.195 52.472 110.833 52.472C110.438 52.472 110.086 52.5467 109.777 52.696C109.478 52.8453 109.222 53.048 109.009 53.304C108.795 53.5493 108.63 53.8373 108.513 54.168C108.406 54.4987 108.353 54.8453 108.353 55.208C108.353 55.5707 108.406 55.9173 108.513 56.248C108.63 56.5787 108.795 56.872 109.009 57.128C109.222 57.3733 109.483 57.5707 109.793 57.72C110.102 57.8693 110.454 57.944 110.849 57.944C111.233 57.944 111.579 57.8693 111.889 57.72C112.209 57.5707 112.47 57.368 112.673 57.112L113.681 58.024C113.361 58.3973 112.961 58.6907 112.481 58.904C112.001 59.1067 111.457 59.208 110.849 59.208C110.262 59.208 109.718 59.112 109.217 58.92C108.726 58.728 108.299 58.4613 107.937 58.12C107.574 57.768 107.286 57.3467 107.073 56.856C106.87 56.3653 106.769 55.816 106.769 55.208C106.769 54.6107 106.87 54.0667 107.073 53.576C107.275 53.0853 107.558 52.664 107.921 52.312C108.283 51.96 108.71 51.688 109.201 51.496C109.702 51.304 110.241 51.208 110.817 51.208C111.35 51.208 111.878 51.3147 112.401 51.528C112.934 51.7413 113.355 52.0507 113.665 52.456L112.577 53.336ZM118.883 52.648H116.867V56.6C116.867 57.0587 116.952 57.3893 117.123 57.592C117.294 57.784 117.566 57.88 117.939 57.88C118.078 57.88 118.227 57.864 118.387 57.832C118.547 57.8 118.691 57.752 118.819 57.688L118.867 58.92C118.686 58.984 118.483 59.032 118.259 59.064C118.046 59.1067 117.822 59.128 117.587 59.128C116.872 59.128 116.323 58.9307 115.939 58.536C115.566 58.1413 115.379 57.5493 115.379 56.76V52.648H113.923V51.416H115.379V49.24H116.867V51.416H118.883V52.648ZM24.2379 87H22.7339V79.416H24.2379V87ZM24.4939 76.68C24.4939 76.9573 24.3925 77.1867 24.1899 77.368C23.9979 77.5493 23.7632 77.64 23.4859 77.64C23.2085 77.64 22.9739 77.5493 22.7819 77.368C22.5899 77.176 22.4939 76.9467 22.4939 76.68C22.4939 76.4027 22.5899 76.1733 22.7819 75.992C22.9739 75.8 23.2085 75.704 23.4859 75.704C23.7632 75.704 23.9979 75.8 24.1899 75.992C24.3925 76.1733 24.4939 76.4027 24.4939 76.68ZM28.2185 79.416C28.2398 79.608 28.2558 79.8267 28.2665 80.072C28.2772 80.3067 28.2825 80.504 28.2825 80.664H28.3305C28.4265 80.4613 28.5545 80.2747 28.7145 80.104C28.8852 79.9227 29.0772 79.768 29.2905 79.64C29.5038 79.5013 29.7385 79.3947 29.9945 79.32C30.2505 79.2453 30.5172 79.208 30.7945 79.208C31.2852 79.208 31.7065 79.2933 32.0585 79.464C32.4105 79.624 32.7038 79.8427 32.9385 80.12C33.1732 80.3973 33.3438 80.7227 33.4505 81.096C33.5678 81.4693 33.6265 81.8693 33.6265 82.296V87H32.1225V82.792C32.1225 82.4827 32.0958 82.1893 32.0425 81.912C31.9998 81.6347 31.9145 81.3893 31.7865 81.176C31.6585 80.9627 31.4825 80.792 31.2585 80.664C31.0345 80.536 30.7465 80.472 30.3945 80.472C29.7972 80.472 29.3065 80.7013 28.9225 81.16C28.5492 81.608 28.3625 82.2107 28.3625 82.968V87H26.8585V81.048C26.8585 80.8453 26.8532 80.584 26.8425 80.264C26.8318 79.944 26.8158 79.6613 26.7945 79.416H28.2185ZM39.739 80.648H37.979V87H36.475V80.648H34.971V79.416H36.475V77.832C36.475 77.384 36.523 76.9733 36.619 76.6C36.7257 76.216 36.891 75.8853 37.115 75.608C37.3497 75.3307 37.643 75.112 37.995 74.952C38.3577 74.792 38.795 74.712 39.307 74.712C39.6697 74.712 39.9843 74.7493 40.251 74.824L40.075 76.12C39.9577 76.088 39.8403 76.0613 39.723 76.04C39.6057 76.0187 39.4723 76.008 39.323 76.008C39.035 76.008 38.8003 76.0613 38.619 76.168C38.4483 76.264 38.315 76.3973 38.219 76.568C38.123 76.7387 38.059 76.936 38.027 77.16C37.995 77.3733 37.979 77.5973 37.979 77.832V79.416H39.739V80.648ZM48.8041 83.192C48.8041 83.7787 48.6975 84.3173 48.4841 84.808C48.2815 85.2987 47.9935 85.7253 47.6201 86.088C47.2575 86.44 46.8255 86.7173 46.3241 86.92C45.8228 87.112 45.2841 87.208 44.7081 87.208C44.1321 87.208 43.5935 87.112 43.0921 86.92C42.5908 86.7173 42.1588 86.44 41.7961 86.088C41.4335 85.7253 41.1455 85.2987 40.9321 84.808C40.7295 84.3173 40.6281 83.7787 40.6281 83.192C40.6281 82.6053 40.7295 82.072 40.9321 81.592C41.1455 81.1013 41.4335 80.68 41.7961 80.328C42.1588 79.976 42.5908 79.704 43.0921 79.512C43.5935 79.3093 44.1321 79.208 44.7081 79.208C45.2841 79.208 45.8228 79.3093 46.3241 79.512C46.8255 79.704 47.2575 79.976 47.6201 80.328C47.9935 80.68 48.2815 81.1013 48.4841 81.592C48.6975 82.072 48.8041 82.6053 48.8041 83.192ZM47.2361 83.192C47.2361 82.8293 47.1775 82.4827 47.0601 82.152C46.9535 81.8213 46.7935 81.5333 46.5801 81.288C46.3668 81.032 46.1001 80.8293 45.7801 80.68C45.4708 80.5307 45.1135 80.456 44.7081 80.456C44.3028 80.456 43.9401 80.5307 43.6201 80.68C43.3108 80.8293 43.0495 81.032 42.8361 81.288C42.6228 81.5333 42.4575 81.8213 42.3401 82.152C42.2335 82.4827 42.1801 82.8293 42.1801 83.192C42.1801 83.5547 42.2335 83.9013 42.3401 84.232C42.4575 84.5627 42.6228 84.856 42.8361 85.112C43.0495 85.368 43.3108 85.5707 43.6201 85.72C43.9401 85.8693 44.3028 85.944 44.7081 85.944C45.1135 85.944 45.4708 85.8693 45.7801 85.72C46.1001 85.5707 46.3668 85.368 46.5801 85.112C46.7935 84.856 46.9535 84.5627 47.0601 84.232C47.1775 83.9013 47.2361 83.5547 47.2361 83.192ZM50.8898 81.048C50.8898 80.8453 50.8844 80.584 50.8738 80.264C50.8631 79.944 50.8471 79.6613 50.8258 79.416H52.2498C52.2711 79.608 52.2871 79.832 52.2978 80.088C52.3084 80.3333 52.3138 80.536 52.3138 80.696H52.3618C52.5751 80.248 52.8844 79.8907 53.2898 79.624C53.7058 79.3467 54.1698 79.208 54.6818 79.208C54.9164 79.208 55.1138 79.2293 55.2738 79.272L55.2098 80.664C54.9964 80.6107 54.7671 80.584 54.5218 80.584C54.1591 80.584 53.8444 80.6533 53.5778 80.792C53.3111 80.92 53.0871 81.096 52.9058 81.32C52.7351 81.544 52.6071 81.8053 52.5218 82.104C52.4364 82.392 52.3938 82.696 52.3938 83.016V87H50.8898V81.048ZM58.1586 80.664C58.3506 80.2587 58.6546 79.9173 59.0706 79.64C59.4973 79.352 59.9986 79.208 60.5746 79.208C61.0866 79.208 61.5453 79.3253 61.9506 79.56C62.3666 79.7947 62.692 80.184 62.9266 80.728C63.1826 80.2373 63.54 79.864 63.9986 79.608C64.4573 79.3413 64.9586 79.208 65.5026 79.208C65.9933 79.208 66.4146 79.2933 66.7666 79.464C67.1186 79.624 67.412 79.8427 67.6466 80.12C67.8813 80.3973 68.052 80.7227 68.1586 81.096C68.276 81.4693 68.3346 81.8693 68.3346 82.296V87H66.8306V82.792C66.8306 82.4827 66.804 82.1893 66.7506 81.912C66.6973 81.6347 66.6066 81.3893 66.4786 81.176C66.3506 80.9627 66.18 80.792 65.9666 80.664C65.7533 80.536 65.4813 80.472 65.1506 80.472C64.8093 80.472 64.516 80.5467 64.2706 80.696C64.0253 80.8347 63.8226 81.0213 63.6626 81.256C63.5133 81.48 63.4013 81.736 63.3266 82.024C63.2626 82.312 63.2306 82.6053 63.2306 82.904V87H61.7266V82.488C61.7266 82.1893 61.7 81.9173 61.6466 81.672C61.5933 81.4267 61.5026 81.2187 61.3746 81.048C61.2466 80.8667 61.0813 80.728 60.8786 80.632C60.676 80.5253 60.4253 80.472 60.1266 80.472C59.572 80.472 59.108 80.7013 58.7346 81.16C58.372 81.608 58.1906 82.2107 58.1906 82.968V87H56.6866V81.048C56.6866 80.8453 56.6813 80.584 56.6706 80.264C56.66 79.944 56.644 79.6613 56.6226 79.416H58.0466C58.068 79.608 58.084 79.8267 58.0946 80.072C58.1053 80.3067 58.1106 80.504 58.1106 80.664H58.1586ZM75.5941 82.088C75.5941 81.5227 75.4235 81.1067 75.0821 80.84C74.7408 80.5627 74.2875 80.424 73.7221 80.424C73.2955 80.424 72.8901 80.5093 72.5061 80.68C72.1328 80.84 71.8181 81.048 71.5621 81.304L70.7621 80.344C71.1355 79.992 71.5888 79.7147 72.1221 79.512C72.6661 79.3093 73.2475 79.208 73.8661 79.208C74.4101 79.208 74.8795 79.288 75.2741 79.448C75.6795 79.5973 76.0101 79.8053 76.2661 80.072C76.5221 80.3387 76.7141 80.6533 76.8421 81.016C76.9701 81.3787 77.0341 81.768 77.0341 82.184V85.496C77.0341 85.752 77.0395 86.024 77.0501 86.312C77.0715 86.5893 77.1035 86.8187 77.1461 87H75.7861C75.7008 86.6373 75.6581 86.2747 75.6581 85.912H75.6101C75.3328 86.3173 74.9808 86.632 74.5541 86.856C74.1381 87.08 73.6421 87.192 73.0661 87.192C72.7675 87.192 72.4528 87.1493 72.1221 87.064C71.8021 86.9893 71.5088 86.8613 71.2421 86.68C70.9755 86.4987 70.7515 86.2587 70.5701 85.96C70.3995 85.6613 70.3141 85.2933 70.3141 84.856C70.3141 84.28 70.4688 83.8267 70.7781 83.496C71.0875 83.1547 71.4928 82.8987 71.9941 82.728C72.4955 82.5467 73.0608 82.4293 73.6901 82.376C74.3195 82.3227 74.9541 82.296 75.5941 82.296V82.088ZM75.2261 83.384C74.8528 83.384 74.4635 83.4 74.0581 83.432C73.6635 83.464 73.3008 83.528 72.9701 83.624C72.6501 83.72 72.3835 83.864 72.1701 84.056C71.9568 84.248 71.8501 84.504 71.8501 84.824C71.8501 85.048 71.8928 85.2347 71.9781 85.384C72.0741 85.5333 72.1968 85.656 72.3461 85.752C72.4955 85.848 72.6608 85.9173 72.8421 85.96C73.0235 85.992 73.2101 86.008 73.4021 86.008C74.1061 86.008 74.6448 85.8 75.0181 85.384C75.4021 84.9573 75.5941 84.424 75.5941 83.784V83.384H75.2261ZM83.1018 80.648H81.0858V84.6C81.0858 85.0587 81.1711 85.3893 81.3418 85.592C81.5124 85.784 81.7844 85.88 82.1578 85.88C82.2964 85.88 82.4458 85.864 82.6058 85.832C82.7658 85.8 82.9098 85.752 83.0378 85.688L83.0858 86.92C82.9044 86.984 82.7018 87.032 82.4778 87.064C82.2644 87.1067 82.0404 87.128 81.8058 87.128C81.0911 87.128 80.5418 86.9307 80.1578 86.536C79.7844 86.1413 79.5978 85.5493 79.5978 84.76V80.648H78.1418V79.416H79.5978V77.24H81.0858V79.416H83.1018V80.648ZM86.1754 87H84.6714V79.416H86.1754V87ZM86.4314 76.68C86.4314 76.9573 86.33 77.1867 86.1274 77.368C85.9354 77.5493 85.7007 77.64 85.4234 77.64C85.146 77.64 84.9114 77.5493 84.7194 77.368C84.5274 77.176 84.4314 76.9467 84.4314 76.68C84.4314 76.4027 84.5274 76.1733 84.7194 75.992C84.9114 75.8 85.146 75.704 85.4234 75.704C85.7007 75.704 85.9354 75.8 86.1274 75.992C86.33 76.1733 86.4314 76.4027 86.4314 76.68ZM96.476 83.192C96.476 83.7787 96.3693 84.3173 96.156 84.808C95.9533 85.2987 95.6653 85.7253 95.292 86.088C94.9293 86.44 94.4973 86.7173 93.996 86.92C93.4947 87.112 92.956 87.208 92.38 87.208C91.804 87.208 91.2653 87.112 90.764 86.92C90.2627 86.7173 89.8307 86.44 89.468 86.088C89.1053 85.7253 88.8173 85.2987 88.604 84.808C88.4013 84.3173 88.3 83.7787 88.3 83.192C88.3 82.6053 88.4013 82.072 88.604 81.592C88.8173 81.1013 89.1053 80.68 89.468 80.328C89.8307 79.976 90.2627 79.704 90.764 79.512C91.2653 79.3093 91.804 79.208 92.38 79.208C92.956 79.208 93.4947 79.3093 93.996 79.512C94.4973 79.704 94.9293 79.976 95.292 80.328C95.6653 80.68 95.9533 81.1013 96.156 81.592C96.3693 82.072 96.476 82.6053 96.476 83.192ZM94.908 83.192C94.908 82.8293 94.8493 82.4827 94.732 82.152C94.6253 81.8213 94.4653 81.5333 94.252 81.288C94.0387 81.032 93.772 80.8293 93.452 80.68C93.1427 80.5307 92.7853 80.456 92.38 80.456C91.9747 80.456 91.612 80.5307 91.292 80.68C90.9827 80.8293 90.7213 81.032 90.508 81.288C90.2947 81.5333 90.1293 81.8213 90.012 82.152C89.9053 82.4827 89.852 82.8293 89.852 83.192C89.852 83.5547 89.9053 83.9013 90.012 84.232C90.1293 84.5627 90.2947 84.856 90.508 85.112C90.7213 85.368 90.9827 85.5707 91.292 85.72C91.612 85.8693 91.9747 85.944 92.38 85.944C92.7853 85.944 93.1427 85.8693 93.452 85.72C93.772 85.5707 94.0387 85.368 94.252 85.112C94.4653 84.856 94.6253 84.5627 94.732 84.232C94.8493 83.9013 94.908 83.5547 94.908 83.192ZM99.9216 79.416C99.943 79.608 99.959 79.8267 99.9696 80.072C99.9803 80.3067 99.9856 80.504 99.9856 80.664H100.034C100.13 80.4613 100.258 80.2747 100.418 80.104C100.588 79.9227 100.78 79.768 100.994 79.64C101.207 79.5013 101.442 79.3947 101.698 79.32C101.954 79.2453 102.22 79.208 102.498 79.208C102.988 79.208 103.41 79.2933 103.762 79.464C104.114 79.624 104.407 79.8427 104.642 80.12C104.876 80.3973 105.047 80.7227 105.154 81.096C105.271 81.4693 105.33 81.8693 105.33 82.296V87H103.826V82.792C103.826 82.4827 103.799 82.1893 103.746 81.912C103.703 81.6347 103.618 81.3893 103.49 81.176C103.362 80.9627 103.186 80.792 102.962 80.664C102.738 80.536 102.45 80.472 102.098 80.472C101.5 80.472 101.01 80.7013 100.626 81.16C100.252 81.608 100.066 82.2107 100.066 82.968V87H98.5616V81.048C98.5616 80.8453 98.5563 80.584 98.5456 80.264C98.535 79.944 98.519 79.6613 98.4976 79.416H99.9216Z" fill="black"/>
<path d="M64 22C69.5228 22 74 17.5228 74 12C74 6.47715 69.5228 2 64 2C58.4772 2 54 6.47715 54 12C54 17.5228 58.4772 22 64 22Z" stroke="black" stroke-width="2" stroke-linecap="round" stroke-linejoin="round"/>
<path d="M214.242 49.768C214.018 49.4587 213.714 49.208 213.33 49.016C212.946 48.8133 212.514 48.712 212.034 48.712C211.778 48.712 211.517 48.7493 211.25 48.824C210.994 48.888 210.76 49 210.546 49.16C210.333 49.3093 210.157 49.5013 210.018 49.736C209.89 49.96 209.826 50.232 209.826 50.552C209.826 50.8613 209.885 51.1227 210.002 51.336C210.13 51.5387 210.296 51.7147 210.498 51.864C210.712 52.0027 210.957 52.1253 211.234 52.232C211.522 52.328 211.826 52.4293 212.146 52.536C212.53 52.6533 212.92 52.7867 213.314 52.936C213.709 53.0853 214.066 53.2827 214.386 53.528C214.706 53.7733 214.968 54.0827 215.17 54.456C215.373 54.8187 215.474 55.2827 215.474 55.848C215.474 56.4347 215.362 56.9467 215.138 57.384C214.925 57.8107 214.637 58.168 214.274 58.456C213.912 58.7333 213.49 58.9413 213.01 59.08C212.541 59.2187 212.056 59.288 211.554 59.288C210.84 59.288 210.146 59.1493 209.474 58.872C208.813 58.5947 208.264 58.184 207.826 57.64L209.058 56.6C209.325 56.9947 209.682 57.3147 210.13 57.56C210.578 57.8053 211.064 57.928 211.586 57.928C211.853 57.928 212.12 57.8907 212.386 57.816C212.653 57.7413 212.893 57.624 213.106 57.464C213.33 57.304 213.512 57.1067 213.65 56.872C213.789 56.6267 213.858 56.3333 213.858 55.992C213.858 55.6507 213.784 55.368 213.634 55.144C213.496 54.9093 213.304 54.712 213.058 54.552C212.813 54.392 212.525 54.2587 212.194 54.152C211.874 54.0347 211.533 53.9173 211.17 53.8C210.808 53.6933 210.45 53.5653 210.098 53.416C209.746 53.256 209.432 53.0587 209.154 52.824C208.877 52.5787 208.653 52.28 208.482 51.928C208.312 51.576 208.226 51.1387 208.226 50.616C208.226 50.0507 208.338 49.5653 208.562 49.16C208.797 48.7547 209.096 48.4187 209.458 48.152C209.832 47.8853 210.248 47.6933 210.706 47.576C211.176 47.448 211.645 47.384 212.114 47.384C212.776 47.384 213.394 47.5013 213.97 47.736C214.546 47.9707 215.01 48.2853 215.362 48.68L214.242 49.768ZM222.984 59C222.962 58.808 222.946 58.5947 222.936 58.36C222.925 58.1147 222.92 57.912 222.92 57.752H222.888C222.696 58.1573 222.37 58.504 221.912 58.792C221.464 59.0693 220.962 59.208 220.408 59.208C219.917 59.208 219.49 59.128 219.128 58.968C218.776 58.808 218.482 58.5893 218.248 58.312C218.024 58.024 217.853 57.6933 217.736 57.32C217.629 56.9467 217.576 56.5467 217.576 56.12V51.416H219.08V55.608C219.08 55.9173 219.101 56.216 219.144 56.504C219.197 56.7813 219.288 57.0267 219.416 57.24C219.544 57.4533 219.72 57.624 219.944 57.752C220.168 57.88 220.456 57.944 220.808 57.944C221.416 57.944 221.906 57.72 222.28 57.272C222.653 56.8133 222.84 56.2053 222.84 55.448V51.416H224.344V57.368C224.344 57.5707 224.349 57.832 224.36 58.152C224.37 58.472 224.386 58.7547 224.408 59H222.984ZM228.44 57.8V59H226.984V46.904H228.488V52.552H228.536C228.792 52.1787 229.15 51.864 229.608 51.608C230.067 51.3413 230.611 51.208 231.24 51.208C231.806 51.208 232.318 51.3093 232.776 51.512C233.246 51.7147 233.646 51.9973 233.976 52.36C234.318 52.7227 234.579 53.1493 234.76 53.64C234.942 54.12 235.032 54.6373 235.032 55.192C235.032 55.7467 234.942 56.2693 234.76 56.76C234.579 57.2507 234.323 57.6773 233.992 58.04C233.662 58.4027 233.262 58.6907 232.792 58.904C232.323 59.1067 231.795 59.208 231.208 59.208C230.664 59.208 230.147 59.0907 229.656 58.856C229.166 58.6107 228.771 58.2587 228.472 57.8H228.44ZM233.48 55.192C233.48 54.84 233.427 54.4987 233.32 54.168C233.214 53.8373 233.054 53.544 232.84 53.288C232.627 53.032 232.36 52.8293 232.04 52.68C231.731 52.5307 231.368 52.456 230.952 52.456C230.568 52.456 230.216 52.5307 229.896 52.68C229.587 52.8293 229.32 53.032 229.096 53.288C228.872 53.544 228.696 53.8373 228.568 54.168C228.451 54.4987 228.392 54.8453 228.392 55.208C228.392 55.5707 228.451 55.9173 228.568 56.248C228.696 56.5787 228.872 56.872 229.096 57.128C229.32 57.3733 229.587 57.5707 229.896 57.72C230.216 57.8693 230.568 57.944 230.952 57.944C231.368 57.944 231.731 57.8693 232.04 57.72C232.36 57.56 232.627 57.352 232.84 57.096C233.054 56.84 233.214 56.5467 233.32 56.216C233.427 55.8853 233.48 55.544 233.48 55.192ZM238.596 52.664C238.788 52.2587 239.092 51.9173 239.508 51.64C239.935 51.352 240.436 51.208 241.012 51.208C241.524 51.208 241.983 51.3253 242.388 51.56C242.804 51.7947 243.129 52.184 243.364 52.728C243.62 52.2373 243.977 51.864 244.436 51.608C244.895 51.3413 245.396 51.208 245.94 51.208C246.431 51.208 246.852 51.2933 247.204 51.464C247.556 51.624 247.849 51.8427 248.084 52.12C248.319 52.3973 248.489 52.7227 248.596 53.096C248.713 53.4693 248.772 53.8693 248.772 54.296V59H247.268V54.792C247.268 54.4827 247.241 54.1893 247.188 53.912C247.135 53.6347 247.044 53.3893 246.916 53.176C246.788 52.9627 246.617 52.792 246.404 52.664C246.191 52.536 245.919 52.472 245.588 52.472C245.247 52.472 244.953 52.5467 244.708 52.696C244.463 52.8347 244.26 53.0213 244.1 53.256C243.951 53.48 243.839 53.736 243.764 54.024C243.7 54.312 243.668 54.6053 243.668 54.904V59H242.164V54.488C242.164 54.1893 242.137 53.9173 242.084 53.672C242.031 53.4267 241.94 53.2187 241.812 53.048C241.684 52.8667 241.519 52.728 241.316 52.632C241.113 52.5253 240.863 52.472 240.564 52.472C240.009 52.472 239.545 52.7013 239.172 53.16C238.809 53.608 238.628 54.2107 238.628 54.968V59H237.124V53.048C237.124 52.8453 237.119 52.584 237.108 52.264C237.097 51.944 237.081 51.6613 237.06 51.416H238.484C238.505 51.608 238.521 51.8267 238.532 52.072C238.543 52.3067 238.548 52.504 238.548 52.664H238.596ZM252.832 59H251.328V51.416H252.832V59ZM253.088 48.68C253.088 48.9573 252.986 49.1867 252.784 49.368C252.592 49.5493 252.357 49.64 252.08 49.64C251.802 49.64 251.568 49.5493 251.376 49.368C251.184 49.176 251.088 48.9467 251.088 48.68C251.088 48.4027 251.184 48.1733 251.376 47.992C251.568 47.8 251.802 47.704 252.08 47.704C252.357 47.704 252.592 47.8 252.784 47.992C252.986 48.1733 253.088 48.4027 253.088 48.68ZM259.164 52.648H257.148V56.6C257.148 57.0587 257.234 57.3893 257.404 57.592C257.575 57.784 257.847 57.88 258.22 57.88C258.359 57.88 258.508 57.864 258.668 57.832C258.828 57.8 258.972 57.752 259.1 57.688L259.148 58.92C258.967 58.984 258.764 59.032 258.54 59.064C258.327 59.1067 258.103 59.128 257.868 59.128C257.154 59.128 256.604 58.9307 256.22 58.536C255.847 58.1413 255.66 57.5493 255.66 56.76V52.648H254.204V51.416H255.66V49.24H257.148V51.416H259.164V52.648ZM266.382 52.664H266.414L271.47 47.672H273.662L268.158 52.856L273.998 59H271.726L266.414 53.144H266.382V59H264.798V47.672H266.382V52.664ZM279.667 59H278.067V54.104L273.827 47.672H275.779L278.915 52.792L282.067 47.672H283.907L279.667 54.104V59ZM294.526 57.24C294.078 57.848 293.496 58.344 292.782 58.728C292.067 59.1013 291.208 59.288 290.206 59.288C289.342 59.288 288.542 59.144 287.806 58.856C287.08 58.5573 286.451 58.1467 285.918 57.624C285.395 57.0907 284.984 56.4613 284.686 55.736C284.387 55 284.238 54.1947 284.238 53.32C284.238 52.4347 284.387 51.6293 284.686 50.904C284.995 50.168 285.416 49.544 285.95 49.032C286.494 48.5093 287.134 48.104 287.87 47.816C288.606 47.528 289.406 47.384 290.27 47.384C290.654 47.384 291.043 47.4213 291.438 47.496C291.832 47.5707 292.211 47.6827 292.574 47.832C292.936 47.9813 293.267 48.168 293.566 48.392C293.864 48.6053 294.12 48.856 294.334 49.144L293.086 50.104C292.808 49.72 292.414 49.4053 291.902 49.16C291.4 48.904 290.856 48.776 290.27 48.776C289.608 48.776 289.011 48.8987 288.478 49.144C287.955 49.3787 287.507 49.704 287.134 50.12C286.76 50.536 286.472 51.0213 286.27 51.576C286.067 52.12 285.966 52.7013 285.966 53.32C285.966 53.96 286.062 54.5573 286.254 55.112C286.456 55.6667 286.739 56.152 287.102 56.568C287.475 56.9733 287.923 57.2933 288.446 57.528C288.979 57.7627 289.571 57.88 290.222 57.88C290.862 57.88 291.443 57.752 291.966 57.496C292.488 57.24 292.92 56.8667 293.262 56.376L294.526 57.24ZM202.305 85.8C202.017 86.2587 201.622 86.6107 201.121 86.856C200.63 87.0907 200.113 87.208 199.569 87.208C198.982 87.208 198.454 87.1067 197.985 86.904C197.516 86.6907 197.116 86.4027 196.785 86.04C196.454 85.6773 196.198 85.2507 196.017 84.76C195.836 84.2693 195.745 83.7467 195.745 83.192C195.745 82.6373 195.836 82.12 196.017 81.64C196.198 81.1493 196.454 80.7227 196.785 80.36C197.126 79.9973 197.532 79.7147 198.001 79.512C198.47 79.3093 198.988 79.208 199.553 79.208C200.172 79.208 200.71 79.3413 201.169 79.608C201.628 79.864 201.99 80.1787 202.257 80.552H202.289V74.904H203.793V87H202.337V85.8H202.305ZM197.313 83.192C197.313 83.544 197.366 83.8853 197.473 84.216C197.58 84.5467 197.74 84.84 197.953 85.096C198.166 85.352 198.428 85.56 198.737 85.72C199.046 85.8693 199.409 85.944 199.825 85.944C200.209 85.944 200.556 85.8693 200.865 85.72C201.185 85.5707 201.457 85.3733 201.681 85.128C201.905 84.872 202.076 84.5787 202.193 84.248C202.321 83.9173 202.385 83.5707 202.385 83.208C202.385 82.8453 202.321 82.4987 202.193 82.168C202.076 81.8373 201.905 81.544 201.681 81.288C201.457 81.032 201.185 80.8293 200.865 80.68C200.556 80.5307 200.209 80.456 199.825 80.456C199.409 80.456 199.046 80.5307 198.737 80.68C198.428 80.8293 198.166 81.032 197.953 81.288C197.74 81.544 197.58 81.8373 197.473 82.168C197.366 82.4987 197.313 82.84 197.313 83.192ZM214.093 83.192C214.093 83.7787 213.987 84.3173 213.773 84.808C213.571 85.2987 213.283 85.7253 212.909 86.088C212.547 86.44 212.115 86.7173 211.613 86.92C211.112 87.112 210.573 87.208 209.997 87.208C209.421 87.208 208.883 87.112 208.381 86.92C207.88 86.7173 207.448 86.44 207.085 86.088C206.723 85.7253 206.435 85.2987 206.221 84.808C206.019 84.3173 205.917 83.7787 205.917 83.192C205.917 82.6053 206.019 82.072 206.221 81.592C206.435 81.1013 206.723 80.68 207.085 80.328C207.448 79.976 207.88 79.704 208.381 79.512C208.883 79.3093 209.421 79.208 209.997 79.208C210.573 79.208 211.112 79.3093 211.613 79.512C212.115 79.704 212.547 79.976 212.909 80.328C213.283 80.68 213.571 81.1013 213.773 81.592C213.987 82.072 214.093 82.6053 214.093 83.192ZM212.525 83.192C212.525 82.8293 212.467 82.4827 212.349 82.152C212.243 81.8213 212.083 81.5333 211.869 81.288C211.656 81.032 211.389 80.8293 211.069 80.68C210.76 80.5307 210.403 80.456 209.997 80.456C209.592 80.456 209.229 80.5307 208.909 80.68C208.6 80.8293 208.339 81.032 208.125 81.288C207.912 81.5333 207.747 81.8213 207.629 82.152C207.523 82.4827 207.469 82.8293 207.469 83.192C207.469 83.5547 207.523 83.9013 207.629 84.232C207.747 84.5627 207.912 84.856 208.125 85.112C208.339 85.368 208.6 85.5707 208.909 85.72C209.229 85.8693 209.592 85.944 209.997 85.944C210.403 85.944 210.76 85.8693 211.069 85.72C211.389 85.5707 211.656 85.368 211.869 85.112C212.083 84.856 212.243 84.5627 212.349 84.232C212.467 83.9013 212.525 83.5547 212.525 83.192ZM221.491 81.336C221.331 81.0907 221.091 80.888 220.771 80.728C220.451 80.5573 220.109 80.472 219.747 80.472C219.352 80.472 219 80.5467 218.691 80.696C218.392 80.8453 218.136 81.048 217.923 81.304C217.709 81.5493 217.544 81.8373 217.427 82.168C217.32 82.4987 217.267 82.8453 217.267 83.208C217.267 83.5707 217.32 83.9173 217.427 84.248C217.544 84.5787 217.709 84.872 217.923 85.128C218.136 85.3733 218.397 85.5707 218.707 85.72C219.016 85.8693 219.368 85.944 219.763 85.944C220.147 85.944 220.493 85.8693 220.803 85.72C221.123 85.5707 221.384 85.368 221.587 85.112L222.595 86.024C222.275 86.3973 221.875 86.6907 221.395 86.904C220.915 87.1067 220.371 87.208 219.763 87.208C219.176 87.208 218.632 87.112 218.131 86.92C217.64 86.728 217.213 86.4613 216.851 86.12C216.488 85.768 216.2 85.3467 215.987 84.856C215.784 84.3653 215.683 83.816 215.683 83.208C215.683 82.6107 215.784 82.0667 215.987 81.576C216.189 81.0853 216.472 80.664 216.835 80.312C217.197 79.96 217.624 79.688 218.115 79.496C218.616 79.304 219.155 79.208 219.731 79.208C220.264 79.208 220.792 79.3147 221.315 79.528C221.848 79.7413 222.269 80.0507 222.579 80.456L221.491 81.336ZM229.429 87C229.408 86.808 229.392 86.5947 229.381 86.36C229.37 86.1147 229.365 85.912 229.365 85.752H229.333C229.141 86.1573 228.816 86.504 228.357 86.792C227.909 87.0693 227.408 87.208 226.853 87.208C226.362 87.208 225.936 87.128 225.573 86.968C225.221 86.808 224.928 86.5893 224.693 86.312C224.469 86.024 224.298 85.6933 224.181 85.32C224.074 84.9467 224.021 84.5467 224.021 84.12V79.416H225.525V83.608C225.525 83.9173 225.546 84.216 225.589 84.504C225.642 84.7813 225.733 85.0267 225.861 85.24C225.989 85.4533 226.165 85.624 226.389 85.752C226.613 85.88 226.901 85.944 227.253 85.944C227.861 85.944 228.352 85.72 228.725 85.272C229.098 84.8133 229.285 84.2053 229.285 83.448V79.416H230.789V85.368C230.789 85.5707 230.794 85.832 230.805 86.152C230.816 86.472 230.832 86.7547 230.853 87H229.429ZM234.87 80.664C235.062 80.2587 235.366 79.9173 235.782 79.64C236.208 79.352 236.71 79.208 237.286 79.208C237.798 79.208 238.256 79.3253 238.662 79.56C239.078 79.7947 239.403 80.184 239.638 80.728C239.894 80.2373 240.251 79.864 240.71 79.608C241.168 79.3413 241.67 79.208 242.214 79.208C242.704 79.208 243.126 79.2933 243.478 79.464C243.83 79.624 244.123 79.8427 244.358 80.12C244.592 80.3973 244.763 80.7227 244.87 81.096C244.987 81.4693 245.046 81.8693 245.046 82.296V87H243.542V82.792C243.542 82.4827 243.515 82.1893 243.462 81.912C243.408 81.6347 243.318 81.3893 243.19 81.176C243.062 80.9627 242.891 80.792 242.678 80.664C242.464 80.536 242.192 80.472 241.862 80.472C241.52 80.472 241.227 80.5467 240.982 80.696C240.736 80.8347 240.534 81.0213 240.374 81.256C240.224 81.48 240.112 81.736 240.038 82.024C239.974 82.312 239.942 82.6053 239.942 82.904V87H238.438V82.488C238.438 82.1893 238.411 81.9173 238.358 81.672C238.304 81.4267 238.214 81.2187 238.086 81.048C237.958 80.8667 237.792 80.728 237.59 80.632C237.387 80.5253 237.136 80.472 236.838 80.472C236.283 80.472 235.819 80.7013 235.446 81.16C235.083 81.608 234.902 82.2107 234.902 82.968V87H233.398V81.048C233.398 80.8453 233.392 80.584 233.382 80.264C233.371 79.944 233.355 79.6613 233.334 79.416H234.758C234.779 79.608 234.795 79.8267 234.806 80.072C234.816 80.3067 234.822 80.504 234.822 80.664H234.87ZM253.137 82.536C253.126 82.2373 253.073 81.96 252.977 81.704C252.892 81.4373 252.758 81.208 252.577 81.016C252.406 80.824 252.188 80.6747 251.921 80.568C251.665 80.4507 251.361 80.392 251.009 80.392C250.689 80.392 250.385 80.4507 250.097 80.568C249.82 80.6747 249.574 80.824 249.361 81.016C249.158 81.208 248.988 81.4373 248.849 81.704C248.721 81.96 248.646 82.2373 248.625 82.536H253.137ZM254.657 83.144C254.657 83.2293 254.657 83.3147 254.657 83.4C254.657 83.4853 254.652 83.5707 254.641 83.656H248.625C248.636 83.976 248.705 84.28 248.833 84.568C248.972 84.8453 249.153 85.0907 249.377 85.304C249.601 85.5067 249.857 85.6667 250.145 85.784C250.444 85.9013 250.758 85.96 251.089 85.96C251.601 85.96 252.044 85.848 252.417 85.624C252.79 85.4 253.084 85.128 253.297 84.808L254.353 85.656C253.948 86.1893 253.468 86.584 252.913 86.84C252.369 87.0853 251.761 87.208 251.089 87.208C250.513 87.208 249.98 87.112 249.489 86.92C248.998 86.728 248.577 86.4613 248.225 86.12C247.873 85.768 247.596 85.3467 247.393 84.856C247.19 84.3653 247.089 83.8213 247.089 83.224C247.089 82.6373 247.185 82.0987 247.377 81.608C247.58 81.1067 247.857 80.68 248.209 80.328C248.561 79.976 248.977 79.704 249.457 79.512C249.937 79.3093 250.454 79.208 251.009 79.208C251.564 79.208 252.065 79.2987 252.513 79.48C252.972 79.6613 253.356 79.9227 253.665 80.264C253.985 80.6053 254.23 81.0213 254.401 81.512C254.572 81.992 254.657 82.536 254.657 83.144ZM258.117 79.416C258.138 79.608 258.154 79.8267 258.165 80.072C258.176 80.3067 258.181 80.504 258.181 80.664H258.229C258.325 80.4613 258.453 80.2747 258.613 80.104C258.784 79.9227 258.976 79.768 259.189 79.64C259.402 79.5013 259.637 79.3947 259.893 79.32C260.149 79.2453 260.416 79.208 260.693 79.208C261.184 79.208 261.605 79.2933 261.957 79.464C262.309 79.624 262.602 79.8427 262.837 80.12C263.072 80.3973 263.242 80.7227 263.349 81.096C263.466 81.4693 263.525 81.8693 263.525 82.296V87H262.021V82.792C262.021 82.4827 261.994 82.1893 261.941 81.912C261.898 81.6347 261.813 81.3893 261.685 81.176C261.557 80.9627 261.381 80.792 261.157 80.664C260.933 80.536 260.645 80.472 260.293 80.472C259.696 80.472 259.205 80.7013 258.821 81.16C258.448 81.608 258.261 82.2107 258.261 82.968V87H256.757V81.048C256.757 80.8453 256.752 80.584 256.741 80.264C256.73 79.944 256.714 79.6613 256.693 79.416H258.117ZM269.781 80.648H267.765V84.6C267.765 85.0587 267.851 85.3893 268.021 85.592C268.192 85.784 268.464 85.88 268.837 85.88C268.976 85.88 269.125 85.864 269.285 85.832C269.445 85.8 269.589 85.752 269.717 85.688L269.765 86.92C269.584 86.984 269.381 87.032 269.157 87.064C268.944 87.1067 268.72 87.128 268.485 87.128C267.771 87.128 267.221 86.9307 266.837 86.536C266.464 86.1413 266.277 85.5493 266.277 84.76V80.648H264.821V79.416H266.277V77.24H267.765V79.416H269.781V80.648ZM276.055 82.088C276.055 81.5227 275.884 81.1067 275.543 80.84C275.202 80.5627 274.748 80.424 274.183 80.424C273.756 80.424 273.351 80.5093 272.967 80.68C272.594 80.84 272.279 81.048 272.023 81.304L271.223 80.344C271.596 79.992 272.05 79.7147 272.583 79.512C273.127 79.3093 273.708 79.208 274.327 79.208C274.871 79.208 275.34 79.288 275.735 79.448C276.14 79.5973 276.471 79.8053 276.727 80.072C276.983 80.3387 277.175 80.6533 277.303 81.016C277.431 81.3787 277.495 81.768 277.495 82.184V85.496C277.495 85.752 277.5 86.024 277.511 86.312C277.532 86.5893 277.564 86.8187 277.607 87H276.247C276.162 86.6373 276.119 86.2747 276.119 85.912H276.071C275.794 86.3173 275.442 86.632 275.015 86.856C274.599 87.08 274.103 87.192 273.527 87.192C273.228 87.192 272.914 87.1493 272.583 87.064C272.263 86.9893 271.97 86.8613 271.703 86.68C271.436 86.4987 271.212 86.2587 271.031 85.96C270.86 85.6613 270.775 85.2933 270.775 84.856C270.775 84.28 270.93 83.8267 271.239 83.496C271.548 83.1547 271.954 82.8987 272.455 82.728C272.956 82.5467 273.522 82.4293 274.151 82.376C274.78 82.3227 275.415 82.296 276.055 82.296V82.088ZM275.687 83.384C275.314 83.384 274.924 83.4 274.519 83.432C274.124 83.464 273.762 83.528 273.431 83.624C273.111 83.72 272.844 83.864 272.631 84.056C272.418 84.248 272.311 84.504 272.311 84.824C272.311 85.048 272.354 85.2347 272.439 85.384C272.535 85.5333 272.658 85.656 272.807 85.752C272.956 85.848 273.122 85.9173 273.303 85.96C273.484 85.992 273.671 86.008 273.863 86.008C274.567 86.008 275.106 85.8 275.479 85.384C275.863 84.9573 276.055 84.424 276.055 83.784V83.384H275.687ZM283.563 80.648H281.547V84.6C281.547 85.0587 281.632 85.3893 281.803 85.592C281.973 85.784 282.245 85.88 282.619 85.88C282.757 85.88 282.907 85.864 283.067 85.832C283.227 85.8 283.371 85.752 283.499 85.688L283.547 86.92C283.365 86.984 283.163 87.032 282.939 87.064C282.725 87.1067 282.501 87.128 282.267 87.128C281.552 87.128 281.003 86.9307 280.619 86.536C280.245 86.1413 280.059 85.5493 280.059 84.76V80.648H278.603V79.416H280.059V77.24H281.547V79.416H283.563V80.648ZM286.636 87H285.132V79.416H286.636V87ZM286.892 76.68C286.892 76.9573 286.791 77.1867 286.588 77.368C286.396 77.5493 286.162 77.64 285.884 77.64C285.607 77.64 285.372 77.5493 285.18 77.368C284.988 77.176 284.892 76.9467 284.892 76.68C284.892 76.4027 284.988 76.1733 285.18 75.992C285.372 75.8 285.607 75.704 285.884 75.704C286.162 75.704 286.396 75.8 286.588 75.992C286.791 76.1733 286.892 76.4027 286.892 76.68ZM296.937 83.192C296.937 83.7787 296.83 84.3173 296.617 84.808C296.414 85.2987 296.126 85.7253 295.753 86.088C295.39 86.44 294.958 86.7173 294.457 86.92C293.956 87.112 293.417 87.208 292.841 87.208C292.265 87.208 291.726 87.112 291.225 86.92C290.724 86.7173 290.292 86.44 289.929 86.088C289.566 85.7253 289.278 85.2987 289.065 84.808C288.862 84.3173 288.761 83.7787 288.761 83.192C288.761 82.6053 288.862 82.072 289.065 81.592C289.278 81.1013 289.566 80.68 289.929 80.328C290.292 79.976 290.724 79.704 291.225 79.512C291.726 79.3093 292.265 79.208 292.841 79.208C293.417 79.208 293.956 79.3093 294.457 79.512C294.958 79.704 295.39 79.976 295.753 80.328C296.126 80.68 296.414 81.1013 296.617 81.592C296.83 82.072 296.937 82.6053 296.937 83.192ZM295.369 83.192C295.369 82.8293 295.31 82.4827 295.193 82.152C295.086 81.8213 294.926 81.5333 294.713 81.288C294.5 81.032 294.233 80.8293 293.913 80.68C293.604 80.5307 293.246 80.456 292.841 80.456C292.436 80.456 292.073 80.5307 291.753 80.68C291.444 80.8293 291.182 81.032 290.969 81.288C290.756 81.5333 290.59 81.8213 290.473 82.152C290.366 82.4827 290.313 82.8293 290.313 83.192C290.313 83.5547 290.366 83.9013 290.473 84.232C290.59 84.5627 290.756 84.856 290.969 85.112C291.182 85.368 291.444 85.5707 291.753 85.72C292.073 85.8693 292.436 85.944 292.841 85.944C293.246 85.944 293.604 85.8693 293.913 85.72C294.233 85.5707 294.5 85.368 294.713 85.112C294.926 84.856 295.086 84.5627 295.193 84.232C295.31 83.9013 295.369 83.5547 295.369 83.192ZM300.383 79.416C300.404 79.608 300.42 79.8267 300.431 80.072C300.441 80.3067 300.447 80.504 300.447 80.664H300.495C300.591 80.4613 300.719 80.2747 300.879 80.104C301.049 79.9227 301.241 79.768 301.455 79.64C301.668 79.5013 301.903 79.3947 302.159 79.32C302.415 79.2453 302.681 79.208 302.959 79.208C303.449 79.208 303.871 79.2933 304.223 79.464C304.575 79.624 304.868 79.8427 305.103 80.12C305.337 80.3973 305.508 80.7227 305.615 81.096C305.732 81.4693 305.791 81.8693 305.791 82.296V87H304.287V82.792C304.287 82.4827 304.26 82.1893 304.207 81.912C304.164 81.6347 304.079 81.3893 303.951 81.176C303.823 80.9627 303.647 80.792 303.423 80.664C303.199 80.536 302.911 80.472 302.559 80.472C301.961 80.472 301.471 80.7013 301.087 81.16C300.713 81.608 300.527 82.2107 300.527 82.968V87H299.023V81.048C299.023 80.8453 299.017 80.584 299.007 80.264C298.996 79.944 298.98 79.6613 298.959 79.416H300.383Z" fill="#BBBBBB"/>
<path d="M251 22C256.523 22 261 17.5228 261 12C261 6.47715 256.523 2 251 2C245.477 2 241 6.47715 241 12C241 17.5228 245.477 22 251 22Z" stroke="#BBBBBB" stroke-width="2" stroke-linecap="round" stroke-linejoin="round"/>
<path d="M416.803 50.008C416.461 49.6347 416.024 49.336 415.491 49.112C414.968 48.888 414.381 48.776 413.731 48.776C413.069 48.776 412.472 48.8987 411.939 49.144C411.405 49.3787 410.952 49.704 410.579 50.12C410.205 50.536 409.917 51.0213 409.715 51.576C409.512 52.12 409.411 52.7013 409.411 53.32C409.411 53.9493 409.512 54.5413 409.715 55.096C409.917 55.6507 410.205 56.136 410.579 56.552C410.952 56.9573 411.411 57.2773 411.955 57.512C412.499 57.7467 413.107 57.864 413.779 57.864C414.312 57.864 414.803 57.816 415.251 57.72C415.699 57.624 416.088 57.4853 416.419 57.304V54.152H413.907V52.808H417.987V58.296C417.389 58.616 416.739 58.8613 416.035 59.032C415.331 59.2027 414.563 59.288 413.731 59.288C412.845 59.288 412.029 59.144 411.283 58.856C410.547 58.5573 409.912 58.1467 409.379 57.624C408.845 57.0907 408.429 56.4613 408.131 55.736C407.832 55 407.683 54.1947 407.683 53.32C407.683 52.4347 407.832 51.6293 408.131 50.904C408.44 50.168 408.861 49.544 409.395 49.032C409.939 48.5093 410.579 48.104 411.315 47.816C412.051 47.528 412.851 47.384 413.715 47.384C414.621 47.384 415.427 47.5173 416.131 47.784C416.845 48.0507 417.437 48.408 417.907 48.856L416.803 50.008ZM426.184 54.536C426.173 54.2373 426.12 53.96 426.024 53.704C425.939 53.4373 425.805 53.208 425.624 53.016C425.453 52.824 425.235 52.6747 424.968 52.568C424.712 52.4507 424.408 52.392 424.056 52.392C423.736 52.392 423.432 52.4507 423.144 52.568C422.867 52.6747 422.621 52.824 422.408 53.016C422.205 53.208 422.035 53.4373 421.896 53.704C421.768 53.96 421.693 54.2373 421.672 54.536H426.184ZM427.704 55.144C427.704 55.2293 427.704 55.3147 427.704 55.4C427.704 55.4853 427.699 55.5707 427.688 55.656H421.672C421.683 55.976 421.752 56.28 421.88 56.568C422.019 56.8453 422.2 57.0907 422.424 57.304C422.648 57.5067 422.904 57.6667 423.192 57.784C423.491 57.9013 423.805 57.96 424.136 57.96C424.648 57.96 425.091 57.848 425.464 57.624C425.837 57.4 426.131 57.128 426.344 56.808L427.4 57.656C426.995 58.1893 426.515 58.584 425.96 58.84C425.416 59.0853 424.808 59.208 424.136 59.208C423.56 59.208 423.027 59.112 422.536 58.92C422.045 58.728 421.624 58.4613 421.272 58.12C420.92 57.768 420.643 57.3467 420.44 56.856C420.237 56.3653 420.136 55.8213 420.136 55.224C420.136 54.6373 420.232 54.0987 420.424 53.608C420.627 53.1067 420.904 52.68 421.256 52.328C421.608 51.976 422.024 51.704 422.504 51.512C422.984 51.3093 423.501 51.208 424.056 51.208C424.611 51.208 425.112 51.2987 425.56 51.48C426.019 51.6613 426.403 51.9227 426.712 52.264C427.032 52.6053 427.277 53.0213 427.448 53.512C427.619 53.992 427.704 54.536 427.704 55.144ZM433.516 52.648H431.5V56.6C431.5 57.0587 431.585 57.3893 431.756 57.592C431.926 57.784 432.198 57.88 432.572 57.88C432.71 57.88 432.86 57.864 433.02 57.832C433.18 57.8 433.324 57.752 433.452 57.688L433.5 58.92C433.318 58.984 433.116 59.032 432.892 59.064C432.678 59.1067 432.454 59.128 432.22 59.128C431.505 59.128 430.956 58.9307 430.572 58.536C430.198 58.1413 430.012 57.5493 430.012 56.76V52.648H428.556V51.416H430.012V49.24H431.5V51.416H433.516V52.648ZM440.733 52.664H440.765L445.821 47.672H448.013L442.509 52.856L448.349 59H446.077L440.765 53.144H440.733V59H439.149V47.672H440.733V52.664ZM454.019 59H452.419V54.104L448.179 47.672H450.131L453.267 52.792L456.419 47.672H458.259L454.019 54.104V59ZM468.877 57.24C468.429 57.848 467.848 58.344 467.133 58.728C466.418 59.1013 465.56 59.288 464.557 59.288C463.693 59.288 462.893 59.144 462.157 58.856C461.432 58.5573 460.802 58.1467 460.269 57.624C459.746 57.0907 459.336 56.4613 459.037 55.736C458.738 55 458.589 54.1947 458.589 53.32C458.589 52.4347 458.738 51.6293 459.037 50.904C459.346 50.168 459.768 49.544 460.301 49.032C460.845 48.5093 461.485 48.104 462.221 47.816C462.957 47.528 463.757 47.384 464.621 47.384C465.005 47.384 465.394 47.4213 465.789 47.496C466.184 47.5707 466.562 47.6827 466.925 47.832C467.288 47.9813 467.618 48.168 467.917 48.392C468.216 48.6053 468.472 48.856 468.685 49.144L467.437 50.104C467.16 49.72 466.765 49.4053 466.253 49.16C465.752 48.904 465.208 48.776 464.621 48.776C463.96 48.776 463.362 48.8987 462.829 49.144C462.306 49.3787 461.858 49.704 461.485 50.12C461.112 50.536 460.824 51.0213 460.621 51.576C460.418 52.12 460.317 52.7013 460.317 53.32C460.317 53.96 460.413 54.5573 460.605 55.112C460.808 55.6667 461.09 56.152 461.453 56.568C461.826 56.9733 462.274 57.2933 462.797 57.528C463.33 57.7627 463.922 57.88 464.573 57.88C465.213 57.88 465.794 57.752 466.317 57.496C466.84 57.24 467.272 56.8667 467.613 56.376L468.877 57.24ZM411.454 82.088C411.454 81.5227 411.283 81.1067 410.942 80.84C410.6 80.5627 410.147 80.424 409.582 80.424C409.155 80.424 408.75 80.5093 408.366 80.68C407.992 80.84 407.678 81.048 407.422 81.304L406.622 80.344C406.995 79.992 407.448 79.7147 407.982 79.512C408.526 79.3093 409.107 79.208 409.726 79.208C410.27 79.208 410.739 79.288 411.134 79.448C411.539 79.5973 411.87 79.8053 412.126 80.072C412.382 80.3387 412.574 80.6533 412.702 81.016C412.83 81.3787 412.894 81.768 412.894 82.184V85.496C412.894 85.752 412.899 86.024 412.91 86.312C412.931 86.5893 412.963 86.8187 413.006 87H411.646C411.56 86.6373 411.518 86.2747 411.518 85.912H411.47C411.192 86.3173 410.84 86.632 410.414 86.856C409.998 87.08 409.502 87.192 408.926 87.192C408.627 87.192 408.312 87.1493 407.982 87.064C407.662 86.9893 407.368 86.8613 407.102 86.68C406.835 86.4987 406.611 86.2587 406.43 85.96C406.259 85.6613 406.174 85.2933 406.174 84.856C406.174 84.28 406.328 83.8267 406.638 83.496C406.947 83.1547 407.352 82.8987 407.854 82.728C408.355 82.5467 408.92 82.4293 409.549 82.376C410.179 82.3227 410.814 82.296 411.454 82.296V82.088ZM411.086 83.384C410.712 83.384 410.323 83.4 409.918 83.432C409.523 83.464 409.16 83.528 408.83 83.624C408.51 83.72 408.243 83.864 408.03 84.056C407.816 84.248 407.71 84.504 407.71 84.824C407.71 85.048 407.752 85.2347 407.838 85.384C407.934 85.5333 408.056 85.656 408.206 85.752C408.355 85.848 408.52 85.9173 408.702 85.96C408.883 85.992 409.07 86.008 409.262 86.008C409.966 86.008 410.504 85.8 410.878 85.384C411.262 84.9573 411.454 84.424 411.454 83.784V83.384H411.086ZM416.909 90.84H415.405V79.416H416.877V80.6H416.925C417.171 80.1947 417.528 79.864 417.997 79.608C418.477 79.3413 419.032 79.208 419.661 79.208C420.227 79.208 420.739 79.3093 421.197 79.512C421.667 79.7147 422.067 79.9973 422.397 80.36C422.739 80.7227 423 81.1493 423.181 81.64C423.363 82.12 423.453 82.6373 423.453 83.192C423.453 83.7467 423.363 84.2693 423.181 84.76C423 85.2507 422.744 85.6773 422.413 86.04C422.083 86.4027 421.683 86.6907 421.213 86.904C420.744 87.1067 420.216 87.208 419.629 87.208C419.085 87.208 418.573 87.0907 418.093 86.856C417.613 86.6213 417.235 86.2907 416.957 85.864H416.909V90.84ZM421.901 83.192C421.901 82.84 421.848 82.4987 421.741 82.168C421.635 81.8373 421.475 81.544 421.261 81.288C421.048 81.032 420.781 80.8293 420.461 80.68C420.152 80.5307 419.789 80.456 419.373 80.456C418.989 80.456 418.637 80.5307 418.317 80.68C418.008 80.8293 417.741 81.032 417.517 81.288C417.293 81.544 417.117 81.8373 416.989 82.168C416.872 82.4987 416.813 82.8453 416.813 83.208C416.813 83.5707 416.872 83.9173 416.989 84.248C417.117 84.5787 417.293 84.872 417.517 85.128C417.741 85.3733 418.008 85.5707 418.317 85.72C418.637 85.8693 418.989 85.944 419.373 85.944C419.789 85.944 420.152 85.8693 420.461 85.72C420.781 85.56 421.048 85.352 421.261 85.096C421.475 84.84 421.635 84.5467 421.741 84.216C421.848 83.8853 421.901 83.544 421.901 83.192ZM427.05 90.84H425.546V79.416H427.018V80.6H427.066C427.311 80.1947 427.669 79.864 428.138 79.608C428.618 79.3413 429.173 79.208 429.802 79.208C430.367 79.208 430.879 79.3093 431.338 79.512C431.807 79.7147 432.207 79.9973 432.538 80.36C432.879 80.7227 433.141 81.1493 433.322 81.64C433.503 82.12 433.594 82.6373 433.594 83.192C433.594 83.7467 433.503 84.2693 433.322 84.76C433.141 85.2507 432.885 85.6773 432.554 86.04C432.223 86.4027 431.823 86.6907 431.354 86.904C430.885 87.1067 430.357 87.208 429.77 87.208C429.226 87.208 428.714 87.0907 428.234 86.856C427.754 86.6213 427.375 86.2907 427.098 85.864H427.05V90.84ZM432.042 83.192C432.042 82.84 431.989 82.4987 431.882 82.168C431.775 81.8373 431.615 81.544 431.402 81.288C431.189 81.032 430.922 80.8293 430.602 80.68C430.293 80.5307 429.93 80.456 429.514 80.456C429.13 80.456 428.778 80.5307 428.458 80.68C428.149 80.8293 427.882 81.032 427.658 81.288C427.434 81.544 427.258 81.8373 427.13 82.168C427.013 82.4987 426.954 82.8453 426.954 83.208C426.954 83.5707 427.013 83.9173 427.13 84.248C427.258 84.5787 427.434 84.872 427.658 85.128C427.882 85.3733 428.149 85.5707 428.458 85.72C428.778 85.8693 429.13 85.944 429.514 85.944C429.93 85.944 430.293 85.8693 430.602 85.72C430.922 85.56 431.189 85.352 431.402 85.096C431.615 84.84 431.775 84.5467 431.882 84.216C431.989 83.8853 432.042 83.544 432.042 83.192ZM435.687 81.048C435.687 80.8453 435.681 80.584 435.671 80.264C435.66 79.944 435.644 79.6613 435.623 79.416H437.047C437.068 79.608 437.084 79.832 437.095 80.088C437.105 80.3333 437.111 80.536 437.111 80.696H437.159C437.372 80.248 437.681 79.8907 438.087 79.624C438.503 79.3467 438.967 79.208 439.479 79.208C439.713 79.208 439.911 79.2293 440.071 79.272L440.007 80.664C439.793 80.6107 439.564 80.584 439.319 80.584C438.956 80.584 438.641 80.6533 438.375 80.792C438.108 80.92 437.884 81.096 437.703 81.32C437.532 81.544 437.404 81.8053 437.319 82.104C437.233 82.392 437.191 82.696 437.191 83.016V87H435.687V81.048ZM448.882 83.192C448.882 83.7787 448.776 84.3173 448.562 84.808C448.36 85.2987 448.072 85.7253 447.698 86.088C447.336 86.44 446.904 86.7173 446.402 86.92C445.901 87.112 445.362 87.208 444.786 87.208C444.21 87.208 443.672 87.112 443.17 86.92C442.669 86.7173 442.237 86.44 441.874 86.088C441.512 85.7253 441.224 85.2987 441.01 84.808C440.808 84.3173 440.706 83.7787 440.706 83.192C440.706 82.6053 440.808 82.072 441.01 81.592C441.224 81.1013 441.512 80.68 441.874 80.328C442.237 79.976 442.669 79.704 443.17 79.512C443.672 79.3093 444.21 79.208 444.786 79.208C445.362 79.208 445.901 79.3093 446.402 79.512C446.904 79.704 447.336 79.976 447.698 80.328C448.072 80.68 448.36 81.1013 448.562 81.592C448.776 82.072 448.882 82.6053 448.882 83.192ZM447.314 83.192C447.314 82.8293 447.256 82.4827 447.138 82.152C447.032 81.8213 446.872 81.5333 446.658 81.288C446.445 81.032 446.178 80.8293 445.858 80.68C445.549 80.5307 445.192 80.456 444.786 80.456C444.381 80.456 444.018 80.5307 443.698 80.68C443.389 80.8293 443.128 81.032 442.914 81.288C442.701 81.5333 442.536 81.8213 442.418 82.152C442.312 82.4827 442.258 82.8293 442.258 83.192C442.258 83.5547 442.312 83.9013 442.418 84.232C442.536 84.5627 442.701 84.856 442.914 85.112C443.128 85.368 443.389 85.5707 443.698 85.72C444.018 85.8693 444.381 85.944 444.786 85.944C445.192 85.944 445.549 85.8693 445.858 85.72C446.178 85.5707 446.445 85.368 446.658 85.112C446.872 84.856 447.032 84.5627 447.138 84.232C447.256 83.9013 447.314 83.5547 447.314 83.192ZM454.536 87H452.904L449.816 79.416H451.48L453.704 85.384H453.736L455.976 79.416H457.576L454.536 87ZM463.75 82.088C463.75 81.5227 463.58 81.1067 463.238 80.84C462.897 80.5627 462.444 80.424 461.878 80.424C461.452 80.424 461.046 80.5093 460.662 80.68C460.289 80.84 459.974 81.048 459.718 81.304L458.918 80.344C459.292 79.992 459.745 79.7147 460.278 79.512C460.822 79.3093 461.404 79.208 462.022 79.208C462.566 79.208 463.036 79.288 463.43 79.448C463.836 79.5973 464.166 79.8053 464.422 80.072C464.678 80.3387 464.87 80.6533 464.998 81.016C465.126 81.3787 465.19 81.768 465.19 82.184V85.496C465.19 85.752 465.196 86.024 465.206 86.312C465.228 86.5893 465.26 86.8187 465.302 87H463.942C463.857 86.6373 463.814 86.2747 463.814 85.912H463.766C463.489 86.3173 463.137 86.632 462.71 86.856C462.294 87.08 461.798 87.192 461.222 87.192C460.924 87.192 460.609 87.1493 460.278 87.064C459.958 86.9893 459.665 86.8613 459.398 86.68C459.132 86.4987 458.908 86.2587 458.726 85.96C458.556 85.6613 458.47 85.2933 458.47 84.856C458.47 84.28 458.625 83.8267 458.934 83.496C459.244 83.1547 459.649 82.8987 460.15 82.728C460.652 82.5467 461.217 82.4293 461.846 82.376C462.476 82.3227 463.11 82.296 463.75 82.296V82.088ZM463.382 83.384C463.009 83.384 462.62 83.4 462.214 83.432C461.82 83.464 461.457 83.528 461.126 83.624C460.806 83.72 460.54 83.864 460.326 84.056C460.113 84.248 460.006 84.504 460.006 84.824C460.006 85.048 460.049 85.2347 460.134 85.384C460.23 85.5333 460.353 85.656 460.502 85.752C460.652 85.848 460.817 85.9173 460.998 85.96C461.18 85.992 461.366 86.008 461.558 86.008C462.262 86.008 462.801 85.8 463.174 85.384C463.558 84.9573 463.75 84.424 463.75 83.784V83.384H463.382ZM469.238 87H467.734V74.904H469.238V87Z" fill="#BBBBBB"/>
<path d="M438 22C443.523 22 448 17.5228 448 12C448 6.47715 443.523 2 438 2C432.477 2 428 6.47715 428 12C428 17.5228 432.477 22 438 22Z" stroke="#BBBBBB" stroke-width="2" stroke-linecap="round" stroke-linejoin="round"/>
<path d="M579.781 49.768C579.557 49.4587 579.253 49.208 578.869 49.016C578.485 48.8133 578.053 48.712 577.573 48.712C577.317 48.712 577.056 48.7493 576.789 48.824C576.533 48.888 576.299 49 576.085 49.16C575.872 49.3093 575.696 49.5013 575.557 49.736C575.429 49.96 575.365 50.232 575.365 50.552C575.365 50.8613 575.424 51.1227 575.541 51.336C575.669 51.5387 575.835 51.7147 576.037 51.864C576.251 52.0027 576.496 52.1253 576.773 52.232C577.061 52.328 577.365 52.4293 577.685 52.536C578.069 52.6533 578.459 52.7867 578.853 52.936C579.248 53.0853 579.605 53.2827 579.925 53.528C580.245 53.7733 580.507 54.0827 580.709 54.456C580.912 54.8187 581.013 55.2827 581.013 55.848C581.013 56.4347 580.901 56.9467 580.677 57.384C580.464 57.8107 580.176 58.168 579.813 58.456C579.451 58.7333 579.029 58.9413 578.549 59.08C578.08 59.2187 577.595 59.288 577.093 59.288C576.379 59.288 575.685 59.1493 575.013 58.872C574.352 58.5947 573.803 58.184 573.365 57.64L574.597 56.6C574.864 56.9947 575.221 57.3147 575.669 57.56C576.117 57.8053 576.603 57.928 577.125 57.928C577.392 57.928 577.659 57.8907 577.925 57.816C578.192 57.7413 578.432 57.624 578.645 57.464C578.869 57.304 579.051 57.1067 579.189 56.872C579.328 56.6267 579.397 56.3333 579.397 55.992C579.397 55.6507 579.323 55.368 579.173 55.144C579.035 54.9093 578.843 54.712 578.597 54.552C578.352 54.392 578.064 54.2587 577.733 54.152C577.413 54.0347 577.072 53.9173 576.709 53.8C576.347 53.6933 575.989 53.5653 575.637 53.416C575.285 53.256 574.971 53.0587 574.693 52.824C574.416 52.5787 574.192 52.28 574.021 51.928C573.851 51.576 573.765 51.1387 573.765 50.616C573.765 50.0507 573.877 49.5653 574.101 49.16C574.336 48.7547 574.635 48.4187 574.997 48.152C575.371 47.8853 575.787 47.6933 576.245 47.576C576.715 47.448 577.184 47.384 577.653 47.384C578.315 47.384 578.933 47.5013 579.509 47.736C580.085 47.9707 580.549 48.2853 580.901 48.68L579.781 49.768ZM586.797 52.648H584.781V56.6C584.781 57.0587 584.866 57.3893 585.037 57.592C585.208 57.784 585.48 57.88 585.853 57.88C585.992 57.88 586.141 57.864 586.301 57.832C586.461 57.8 586.605 57.752 586.733 57.688L586.781 58.92C586.6 58.984 586.397 59.032 586.173 59.064C585.96 59.1067 585.736 59.128 585.501 59.128C584.786 59.128 584.237 58.9307 583.853 58.536C583.48 58.1413 583.293 57.5493 583.293 56.76V52.648H581.837V51.416H583.293V49.24H584.781V51.416H586.797V52.648ZM593.071 54.088C593.071 53.5227 592.9 53.1067 592.559 52.84C592.217 52.5627 591.764 52.424 591.199 52.424C590.772 52.424 590.367 52.5093 589.983 52.68C589.609 52.84 589.295 53.048 589.039 53.304L588.239 52.344C588.612 51.992 589.065 51.7147 589.599 51.512C590.143 51.3093 590.724 51.208 591.343 51.208C591.887 51.208 592.356 51.288 592.751 51.448C593.156 51.5973 593.487 51.8053 593.743 52.072C593.999 52.3387 594.191 52.6533 594.319 53.016C594.447 53.3787 594.511 53.768 594.511 54.184V57.496C594.511 57.752 594.516 58.024 594.527 58.312C594.548 58.5893 594.58 58.8187 594.623 59H593.263C593.177 58.6373 593.135 58.2747 593.135 57.912H593.087C592.809 58.3173 592.457 58.632 592.031 58.856C591.615 59.08 591.119 59.192 590.543 59.192C590.244 59.192 589.929 59.1493 589.599 59.064C589.279 58.9893 588.985 58.8613 588.719 58.68C588.452 58.4987 588.228 58.2587 588.047 57.96C587.876 57.6613 587.791 57.2933 587.791 56.856C587.791 56.28 587.945 55.8267 588.255 55.496C588.564 55.1547 588.969 54.8987 589.471 54.728C589.972 54.5467 590.537 54.4293 591.167 54.376C591.796 54.3227 592.431 54.296 593.071 54.296V54.088ZM592.703 55.384C592.329 55.384 591.94 55.4 591.535 55.432C591.14 55.464 590.777 55.528 590.447 55.624C590.127 55.72 589.86 55.864 589.647 56.056C589.433 56.248 589.327 56.504 589.327 56.824C589.327 57.048 589.369 57.2347 589.455 57.384C589.551 57.5333 589.673 57.656 589.823 57.752C589.972 57.848 590.137 57.9173 590.319 57.96C590.5 57.992 590.687 58.008 590.879 58.008C591.583 58.008 592.121 57.8 592.495 57.384C592.879 56.9573 593.071 56.424 593.071 55.784V55.384H592.703ZM597.023 53.048C597.023 52.8453 597.017 52.584 597.007 52.264C596.996 51.944 596.98 51.6613 596.959 51.416H598.383C598.404 51.608 598.42 51.832 598.431 52.088C598.441 52.3333 598.447 52.536 598.447 52.696H598.495C598.708 52.248 599.017 51.8907 599.423 51.624C599.839 51.3467 600.303 51.208 600.815 51.208C601.049 51.208 601.247 51.2293 601.407 51.272L601.343 52.664C601.129 52.6107 600.9 52.584 600.655 52.584C600.292 52.584 599.977 52.6533 599.711 52.792C599.444 52.92 599.22 53.096 599.039 53.32C598.868 53.544 598.74 53.8053 598.655 54.104C598.569 54.392 598.527 54.696 598.527 55.016V59H597.023V53.048ZM606.344 52.648H604.328V56.6C604.328 57.0587 604.413 57.3893 604.584 57.592C604.755 57.784 605.027 57.88 605.4 57.88C605.539 57.88 605.688 57.864 605.848 57.832C606.008 57.8 606.152 57.752 606.28 57.688L606.328 58.92C606.147 58.984 605.944 59.032 605.72 59.064C605.507 59.1067 605.283 59.128 605.048 59.128C604.333 59.128 603.784 58.9307 603.4 58.536C603.027 58.1413 602.84 57.5493 602.84 56.76V52.648H601.384V51.416H602.84V49.24H604.328V51.416H606.344V52.648ZM613.418 59H611.914V51.416H613.418V59ZM613.674 48.68C613.674 48.9573 613.572 49.1867 613.37 49.368C613.178 49.5493 612.943 49.64 612.666 49.64C612.388 49.64 612.154 49.5493 611.962 49.368C611.77 49.176 611.674 48.9467 611.674 48.68C611.674 48.4027 611.77 48.1733 611.962 47.992C612.154 47.8 612.388 47.704 612.666 47.704C612.943 47.704 613.178 47.8 613.37 47.992C613.572 48.1733 613.674 48.4027 613.674 48.68ZM617.398 51.416C617.42 51.608 617.436 51.8267 617.446 52.072C617.457 52.3067 617.462 52.504 617.462 52.664H617.51C617.606 52.4613 617.734 52.2747 617.894 52.104C618.065 51.9227 618.257 51.768 618.47 51.64C618.684 51.5013 618.918 51.3947 619.174 51.32C619.43 51.2453 619.697 51.208 619.974 51.208C620.465 51.208 620.886 51.2933 621.238 51.464C621.59 51.624 621.884 51.8427 622.118 52.12C622.353 52.3973 622.524 52.7227 622.63 53.096C622.748 53.4693 622.806 53.8693 622.806 54.296V59H621.302V54.792C621.302 54.4827 621.276 54.1893 621.222 53.912C621.18 53.6347 621.094 53.3893 620.966 53.176C620.838 52.9627 620.662 52.792 620.438 52.664C620.214 52.536 619.926 52.472 619.574 52.472C618.977 52.472 618.486 52.7013 618.102 53.16C617.729 53.608 617.542 54.2107 617.542 54.968V59H616.038V53.048C616.038 52.8453 616.033 52.584 616.022 52.264C616.012 51.944 615.996 51.6613 615.974 51.416H617.398ZM628.919 59H627.287L624.199 51.416H625.863L628.087 57.384H628.119L630.359 51.416H631.959L628.919 59ZM638.965 54.536C638.955 54.2373 638.901 53.96 638.805 53.704C638.72 53.4373 638.587 53.208 638.405 53.016C638.235 52.824 638.016 52.6747 637.749 52.568C637.493 52.4507 637.189 52.392 636.837 52.392C636.517 52.392 636.213 52.4507 635.925 52.568C635.648 52.6747 635.403 52.824 635.189 53.016C634.987 53.208 634.816 53.4373 634.677 53.704C634.549 53.96 634.475 54.2373 634.453 54.536H638.965ZM640.485 55.144C640.485 55.2293 640.485 55.3147 640.485 55.4C640.485 55.4853 640.48 55.5707 640.469 55.656H634.453C634.464 55.976 634.533 56.28 634.661 56.568C634.8 56.8453 634.981 57.0907 635.205 57.304C635.429 57.5067 635.685 57.6667 635.973 57.784C636.272 57.9013 636.587 57.96 636.917 57.96C637.429 57.96 637.872 57.848 638.245 57.624C638.619 57.4 638.912 57.128 639.125 56.808L640.181 57.656C639.776 58.1893 639.296 58.584 638.741 58.84C638.197 59.0853 637.589 59.208 636.917 59.208C636.341 59.208 635.808 59.112 635.317 58.92C634.827 58.728 634.405 58.4613 634.053 58.12C633.701 57.768 633.424 57.3467 633.221 56.856C633.019 56.3653 632.917 55.8213 632.917 55.224C632.917 54.6373 633.013 54.0987 633.205 53.608C633.408 53.1067 633.685 52.68 634.037 52.328C634.389 51.976 634.805 51.704 635.285 51.512C635.765 51.3093 636.283 51.208 636.837 51.208C637.392 51.208 637.893 51.2987 638.341 51.48C638.8 51.6613 639.184 51.9227 639.493 52.264C639.813 52.6053 640.059 53.0213 640.229 53.512C640.4 53.992 640.485 54.536 640.485 55.144ZM646.681 53.336C646.51 53.0587 646.27 52.8347 645.961 52.664C645.652 52.4827 645.305 52.392 644.921 52.392C644.75 52.392 644.58 52.4133 644.409 52.456C644.238 52.488 644.084 52.5467 643.945 52.632C643.817 52.7067 643.71 52.808 643.625 52.936C643.55 53.0533 643.513 53.2027 643.513 53.384C643.513 53.704 643.657 53.944 643.945 54.104C644.233 54.2533 644.665 54.392 645.241 54.52C645.604 54.6053 645.94 54.7067 646.249 54.824C646.558 54.9413 646.825 55.0907 647.049 55.272C647.284 55.4427 647.465 55.6507 647.593 55.896C647.721 56.1413 647.785 56.4293 647.785 56.76C647.785 57.208 647.7 57.5867 647.529 57.896C647.358 58.2053 647.129 58.4613 646.841 58.664C646.564 58.856 646.244 58.9947 645.881 59.08C645.518 59.1653 645.145 59.208 644.761 59.208C644.185 59.208 643.62 59.096 643.065 58.872C642.521 58.648 642.068 58.3067 641.705 57.848L642.777 56.936C642.98 57.2347 643.257 57.4853 643.609 57.688C643.972 57.8907 644.366 57.992 644.793 57.992C644.985 57.992 645.166 57.976 645.337 57.944C645.518 57.9013 645.678 57.8373 645.817 57.752C645.966 57.6667 646.084 57.5547 646.169 57.416C646.254 57.2773 646.297 57.1013 646.297 56.888C646.297 56.536 646.126 56.2747 645.785 56.104C645.454 55.9333 644.964 55.7733 644.313 55.624C644.057 55.56 643.796 55.4853 643.529 55.4C643.273 55.304 643.038 55.176 642.825 55.016C642.612 54.856 642.436 54.6587 642.297 54.424C642.169 54.1787 642.105 53.88 642.105 53.528C642.105 53.1227 642.185 52.776 642.345 52.488C642.516 52.1893 642.734 51.9493 643.001 51.768C643.268 51.576 643.572 51.4373 643.913 51.352C644.254 51.256 644.606 51.208 644.969 51.208C645.513 51.208 646.036 51.3147 646.537 51.528C647.049 51.7413 647.444 52.0507 647.721 52.456L646.681 53.336ZM653.406 52.648H651.39V56.6C651.39 57.0587 651.476 57.3893 651.646 57.592C651.817 57.784 652.089 57.88 652.462 57.88C652.601 57.88 652.75 57.864 652.91 57.832C653.07 57.8 653.214 57.752 653.342 57.688L653.39 58.92C653.209 58.984 653.006 59.032 652.782 59.064C652.569 59.1067 652.345 59.128 652.11 59.128C651.396 59.128 650.846 58.9307 650.462 58.536C650.089 58.1413 649.902 57.5493 649.902 56.76V52.648H648.446V51.416H649.902V49.24H651.39V51.416H653.406V52.648ZM656.48 59H654.976V51.416H656.48V59ZM656.736 48.68C656.736 48.9573 656.635 49.1867 656.432 49.368C656.24 49.5493 656.005 49.64 655.728 49.64C655.451 49.64 655.216 49.5493 655.024 49.368C654.832 49.176 654.736 48.9467 654.736 48.68C654.736 48.4027 654.832 48.1733 655.024 47.992C655.216 47.8 655.451 47.704 655.728 47.704C656.005 47.704 656.24 47.8 656.432 47.992C656.635 48.1733 656.736 48.4027 656.736 48.68ZM660.461 51.416C660.482 51.608 660.498 51.8267 660.509 52.072C660.519 52.3067 660.525 52.504 660.525 52.664H660.573C660.669 52.4613 660.797 52.2747 660.957 52.104C661.127 51.9227 661.319 51.768 661.533 51.64C661.746 51.5013 661.981 51.3947 662.237 51.32C662.493 51.2453 662.759 51.208 663.037 51.208C663.527 51.208 663.949 51.2933 664.301 51.464C664.653 51.624 664.946 51.8427 665.181 52.12C665.415 52.3973 665.586 52.7227 665.693 53.096C665.81 53.4693 665.869 53.8693 665.869 54.296V59H664.365V54.792C664.365 54.4827 664.338 54.1893 664.285 53.912C664.242 53.6347 664.157 53.3893 664.029 53.176C663.901 52.9627 663.725 52.792 663.501 52.664C663.277 52.536 662.989 52.472 662.637 52.472C662.039 52.472 661.549 52.7013 661.165 53.16C660.791 53.608 660.605 54.2107 660.605 54.968V59H659.101V53.048C659.101 52.8453 659.095 52.584 659.085 52.264C659.074 51.944 659.058 51.6613 659.037 51.416H660.461ZM669.005 60.296C669.336 60.6693 669.747 60.968 670.237 61.192C670.739 61.416 671.251 61.528 671.773 61.528C672.275 61.528 672.696 61.4533 673.037 61.304C673.379 61.1653 673.651 60.968 673.853 60.712C674.067 60.4667 674.216 60.1733 674.301 59.832C674.397 59.4907 674.445 59.1227 674.445 58.728V57.752H674.413C674.136 58.1787 673.757 58.504 673.277 58.728C672.797 58.952 672.285 59.064 671.741 59.064C671.165 59.064 670.637 58.9627 670.157 58.76C669.688 58.5573 669.288 58.28 668.957 57.928C668.627 57.576 668.371 57.1653 668.189 56.696C668.008 56.216 667.917 55.704 667.917 55.16C667.917 54.616 668.008 54.104 668.189 53.624C668.371 53.144 668.627 52.728 668.957 52.376C669.288 52.0133 669.688 51.7307 670.157 51.528C670.627 51.3147 671.149 51.208 671.725 51.208C672.269 51.208 672.787 51.3253 673.277 51.56C673.779 51.7947 674.173 52.152 674.461 52.632H674.493V51.416H675.949V58.616C675.949 59.1707 675.88 59.6987 675.741 60.2C675.603 60.712 675.368 61.16 675.037 61.544C674.707 61.9387 674.275 62.2533 673.741 62.488C673.208 62.7227 672.547 62.84 671.757 62.84C671.096 62.84 670.429 62.7173 669.757 62.472C669.096 62.2373 668.525 61.9013 668.045 61.464L669.005 60.296ZM669.469 55.128C669.469 55.48 669.523 55.816 669.629 56.136C669.747 56.456 669.912 56.7387 670.125 56.984C670.349 57.2293 670.616 57.4267 670.925 57.576C671.235 57.7253 671.587 57.8 671.981 57.8C672.365 57.8 672.717 57.7307 673.037 57.592C673.357 57.4533 673.629 57.2667 673.853 57.032C674.077 56.7867 674.248 56.504 674.365 56.184C674.493 55.8533 674.557 55.5013 674.557 55.128C674.557 54.7653 674.493 54.424 674.365 54.104C674.248 53.784 674.072 53.5013 673.837 53.256C673.613 53.0107 673.341 52.8187 673.021 52.68C672.712 52.5307 672.365 52.456 671.981 52.456C671.587 52.456 671.235 52.5307 670.925 52.68C670.616 52.8187 670.349 53.0107 670.125 53.256C669.912 53.4907 669.747 53.7733 669.629 54.104C669.523 54.424 669.469 54.7653 669.469 55.128Z" fill="#BBBBBB"/>
<path d="M625 22C630.523 22 635 17.5228 635 12C635 6.47715 630.523 2 625 2C619.477 2 615 6.47715 615 12C615 17.5228 619.477 22 625 22Z" stroke="#BBBBBB" stroke-width="2" stroke-linecap="round" stroke-linejoin="round"/>
<rect x="81" y="11" width="151" height="2" rx="1" fill="#BBBBBB"/>
<rect x="269" y="11" width="151" height="2" rx="1" fill="#BBBBBB"/>
<rect x="457" y="11" width="151" height="2" rx="1" fill="#BBBBBB"/>
</svg>
