<svg width="412" height="72" viewBox="0 0 412 72" fill="none" xmlns="http://www.w3.org/2000/svg">
<path d="M37.9338 36.768H42.3578V38H36.5478V28.088H37.9338V36.768ZM50.102 34.668C50.102 35.1813 50.0087 35.6527 49.822 36.082C49.6447 36.5113 49.3927 36.8847 49.066 37.202C48.7487 37.51 48.3707 37.7527 47.932 37.93C47.4934 38.098 47.022 38.182 46.518 38.182C46.014 38.182 45.5427 38.098 45.104 37.93C44.6654 37.7527 44.2874 37.51 43.97 37.202C43.6527 36.8847 43.4007 36.5113 43.214 36.082C43.0367 35.6527 42.948 35.1813 42.948 34.668C42.948 34.1547 43.0367 33.688 43.214 33.268C43.4007 32.8387 43.6527 32.47 43.97 32.162C44.2874 31.854 44.6654 31.616 45.104 31.448C45.5427 31.2707 46.014 31.182 46.518 31.182C47.022 31.182 47.4934 31.2707 47.932 31.448C48.3707 31.616 48.7487 31.854 49.066 32.162C49.3927 32.47 49.6447 32.8387 49.822 33.268C50.0087 33.688 50.102 34.1547 50.102 34.668ZM48.73 34.668C48.73 34.3507 48.6787 34.0473 48.576 33.758C48.4827 33.4687 48.3427 33.2167 48.156 33.002C47.9694 32.778 47.736 32.6007 47.456 32.47C47.1854 32.3393 46.8727 32.274 46.518 32.274C46.1634 32.274 45.846 32.3393 45.566 32.47C45.2954 32.6007 45.0667 32.778 44.88 33.002C44.6934 33.2167 44.5487 33.4687 44.446 33.758C44.3527 34.0473 44.306 34.3507 44.306 34.668C44.306 34.9853 44.3527 35.2887 44.446 35.578C44.5487 35.8673 44.6934 36.124 44.88 36.348C45.0667 36.572 45.2954 36.7493 45.566 36.88C45.846 37.0107 46.1634 37.076 46.518 37.076C46.8727 37.076 47.1854 37.0107 47.456 36.88C47.736 36.7493 47.9694 36.572 48.156 36.348C48.3427 36.124 48.4827 35.8673 48.576 35.578C48.6787 35.2887 48.73 34.9853 48.73 34.668ZM56.575 33.044C56.435 32.8293 56.225 32.652 55.945 32.512C55.665 32.3627 55.3663 32.288 55.049 32.288C54.7036 32.288 54.3956 32.3533 54.125 32.484C53.8636 32.6147 53.6396 32.792 53.453 33.016C53.2663 33.2307 53.1216 33.4827 53.019 33.772C52.9256 34.0613 52.879 34.3647 52.879 34.682C52.879 34.9993 52.9256 35.3027 53.019 35.592C53.1216 35.8813 53.2663 36.138 53.453 36.362C53.6396 36.5767 53.8683 36.7493 54.139 36.88C54.4096 37.0107 54.7176 37.076 55.063 37.076C55.399 37.076 55.7023 37.0107 55.973 36.88C56.253 36.7493 56.4816 36.572 56.659 36.348L57.541 37.146C57.261 37.4727 56.911 37.7293 56.491 37.916C56.071 38.0933 55.595 38.182 55.063 38.182C54.5496 38.182 54.0736 38.098 53.635 37.93C53.2056 37.762 52.8323 37.5287 52.515 37.23C52.1976 36.922 51.9456 36.5533 51.759 36.124C51.5816 35.6947 51.493 35.214 51.493 34.682C51.493 34.1593 51.5816 33.6833 51.759 33.254C51.9363 32.8247 52.1836 32.456 52.501 32.148C52.8183 31.84 53.1916 31.602 53.621 31.434C54.0596 31.266 54.531 31.182 55.035 31.182C55.5016 31.182 55.9636 31.2753 56.421 31.462C56.8876 31.6487 57.2563 31.9193 57.527 32.274L56.575 33.044ZM60.1889 34.248H60.2309L63.0169 31.364H64.7809L61.6729 34.374L65.0469 38H63.2269L60.2309 34.556H60.1889V38H58.8729V27.416H60.1889V34.248ZM69.7978 28.088H73.1998C73.8344 28.088 74.4691 28.1813 75.1038 28.368C75.7384 28.5547 76.3124 28.8487 76.8257 29.25C77.3391 29.6513 77.7544 30.1647 78.0718 30.79C78.3891 31.4153 78.5478 32.1667 78.5478 33.044C78.5478 33.8933 78.3891 34.6307 78.0718 35.256C77.7544 35.872 77.3391 36.3853 76.8257 36.796C76.3124 37.1973 75.7384 37.5007 75.1038 37.706C74.4691 37.902 73.8344 38 73.1998 38H69.7978V28.088ZM71.1838 36.782H72.9198C73.5171 36.782 74.0678 36.698 74.5718 36.53C75.0851 36.362 75.5238 36.1193 75.8878 35.802C76.2611 35.4847 76.5504 35.0927 76.7558 34.626C76.9611 34.1593 77.0638 33.632 77.0638 33.044C77.0638 32.428 76.9611 31.8867 76.7558 31.42C76.5504 30.9533 76.2611 30.566 75.8878 30.258C75.5238 29.9407 75.0851 29.7027 74.5718 29.544C74.0678 29.376 73.5171 29.292 72.9198 29.292H71.1838V36.782ZM80.5123 38H78.9723L83.2703 28.088H84.5303L88.7863 38H87.2183L86.2103 35.564H81.5063L80.5123 38ZM81.9963 34.346H85.7063L83.8583 29.698L81.9963 34.346ZM91.4455 38H90.0595V28.088H91.4455V38Z" fill="black"/>
<path d="M309.625 36.46C309.233 36.992 308.724 37.426 308.099 37.762C307.474 38.0887 306.722 38.252 305.845 38.252C305.089 38.252 304.389 38.126 303.745 37.874C303.11 37.6127 302.56 37.2533 302.093 36.796C301.636 36.3293 301.276 35.7787 301.015 35.144C300.754 34.5 300.623 33.7953 300.623 33.03C300.623 32.2553 300.754 31.5507 301.015 30.916C301.286 30.272 301.654 29.726 302.121 29.278C302.597 28.8207 303.157 28.466 303.801 28.214C304.445 27.962 305.145 27.836 305.901 27.836C306.237 27.836 306.578 27.8687 306.923 27.934C307.268 27.9993 307.6 28.0973 307.917 28.228C308.234 28.3587 308.524 28.522 308.785 28.718C309.046 28.9047 309.27 29.124 309.457 29.376L308.365 30.216C308.122 29.88 307.777 29.6047 307.329 29.39C306.89 29.166 306.414 29.054 305.901 29.054C305.322 29.054 304.8 29.1613 304.333 29.376C303.876 29.5813 303.484 29.866 303.157 30.23C302.83 30.594 302.578 31.0187 302.401 31.504C302.224 31.98 302.135 32.4887 302.135 33.03C302.135 33.59 302.219 34.1127 302.387 34.598C302.564 35.0833 302.812 35.508 303.129 35.872C303.456 36.2267 303.848 36.5067 304.305 36.712C304.772 36.9173 305.29 37.02 305.859 37.02C306.419 37.02 306.928 36.908 307.385 36.684C307.842 36.46 308.22 36.1333 308.519 35.704L309.625 36.46ZM317.525 34.668C317.525 35.1813 317.432 35.6527 317.245 36.082C317.068 36.5113 316.816 36.8847 316.489 37.202C316.172 37.51 315.794 37.7527 315.355 37.93C314.916 38.098 314.445 38.182 313.941 38.182C313.437 38.182 312.966 38.098 312.527 37.93C312.088 37.7527 311.71 37.51 311.393 37.202C311.076 36.8847 310.824 36.5113 310.637 36.082C310.46 35.6527 310.371 35.1813 310.371 34.668C310.371 34.1547 310.46 33.688 310.637 33.268C310.824 32.8387 311.076 32.47 311.393 32.162C311.71 31.854 312.088 31.616 312.527 31.448C312.966 31.2707 313.437 31.182 313.941 31.182C314.445 31.182 314.916 31.2707 315.355 31.448C315.794 31.616 316.172 31.854 316.489 32.162C316.816 32.47 317.068 32.8387 317.245 33.268C317.432 33.688 317.525 34.1547 317.525 34.668ZM316.153 34.668C316.153 34.3507 316.102 34.0473 315.999 33.758C315.906 33.4687 315.766 33.2167 315.579 33.002C315.392 32.778 315.159 32.6007 314.879 32.47C314.608 32.3393 314.296 32.274 313.941 32.274C313.586 32.274 313.269 32.3393 312.989 32.47C312.718 32.6007 312.49 32.778 312.303 33.002C312.116 33.2167 311.972 33.4687 311.869 33.758C311.776 34.0473 311.729 34.3507 311.729 34.668C311.729 34.9853 311.776 35.2887 311.869 35.578C311.972 35.8673 312.116 36.124 312.303 36.348C312.49 36.572 312.718 36.7493 312.989 36.88C313.269 37.0107 313.586 37.076 313.941 37.076C314.296 37.076 314.608 37.0107 314.879 36.88C315.159 36.7493 315.392 36.572 315.579 36.348C315.766 36.124 315.906 35.8673 315.999 35.578C316.102 35.2887 316.153 34.9853 316.153 34.668ZM320.694 38H319.378V27.416H320.694V38ZM324.331 38H323.015V27.416H324.331V38ZM331.481 34.094C331.472 33.8327 331.425 33.59 331.341 33.366C331.267 33.1327 331.15 32.932 330.991 32.764C330.842 32.596 330.651 32.4653 330.417 32.372C330.193 32.2693 329.927 32.218 329.619 32.218C329.339 32.218 329.073 32.2693 328.821 32.372C328.579 32.4653 328.364 32.596 328.177 32.764C328 32.932 327.851 33.1327 327.729 33.366C327.617 33.59 327.552 33.8327 327.533 34.094H331.481ZM332.811 34.626C332.811 34.7007 332.811 34.7753 332.811 34.85C332.811 34.9247 332.807 34.9993 332.797 35.074H327.533C327.543 35.354 327.603 35.62 327.715 35.872C327.837 36.1147 327.995 36.3293 328.191 36.516C328.387 36.6933 328.611 36.8333 328.863 36.936C329.125 37.0387 329.4 37.09 329.689 37.09C330.137 37.09 330.525 36.992 330.851 36.796C331.178 36.6 331.435 36.362 331.621 36.082L332.545 36.824C332.191 37.2907 331.771 37.636 331.285 37.86C330.809 38.0747 330.277 38.182 329.689 38.182C329.185 38.182 328.719 38.098 328.289 37.93C327.86 37.762 327.491 37.5287 327.183 37.23C326.875 36.922 326.633 36.5533 326.455 36.124C326.278 35.6947 326.189 35.2187 326.189 34.696C326.189 34.1827 326.273 33.7113 326.441 33.282C326.619 32.8433 326.861 32.47 327.169 32.162C327.477 31.854 327.841 31.616 328.261 31.448C328.681 31.2707 329.134 31.182 329.619 31.182C330.105 31.182 330.543 31.2613 330.935 31.42C331.337 31.5787 331.673 31.8073 331.943 32.106C332.223 32.4047 332.438 32.7687 332.587 33.198C332.737 33.618 332.811 34.094 332.811 34.626ZM339.297 33.044C339.157 32.8293 338.947 32.652 338.667 32.512C338.387 32.3627 338.088 32.288 337.771 32.288C337.425 32.288 337.117 32.3533 336.847 32.484C336.585 32.6147 336.361 32.792 336.175 33.016C335.988 33.2307 335.843 33.4827 335.741 33.772C335.647 34.0613 335.601 34.3647 335.601 34.682C335.601 34.9993 335.647 35.3027 335.741 35.592C335.843 35.8813 335.988 36.138 336.175 36.362C336.361 36.5767 336.59 36.7493 336.861 36.88C337.131 37.0107 337.439 37.076 337.785 37.076C338.121 37.076 338.424 37.0107 338.695 36.88C338.975 36.7493 339.203 36.572 339.381 36.348L340.263 37.146C339.983 37.4727 339.633 37.7293 339.213 37.916C338.793 38.0933 338.317 38.182 337.785 38.182C337.271 38.182 336.795 38.098 336.357 37.93C335.927 37.762 335.554 37.5287 335.237 37.23C334.919 36.922 334.667 36.5533 334.481 36.124C334.303 35.6947 334.215 35.214 334.215 34.682C334.215 34.1593 334.303 33.6833 334.481 33.254C334.658 32.8247 334.905 32.456 335.223 32.148C335.54 31.84 335.913 31.602 336.343 31.434C336.781 31.266 337.253 31.182 337.757 31.182C338.223 31.182 338.685 31.2753 339.143 31.462C339.609 31.6487 339.978 31.9193 340.249 32.274L339.297 33.044ZM344.815 32.442H343.051V35.9C343.051 36.3013 343.125 36.5907 343.275 36.768C343.424 36.936 343.662 37.02 343.989 37.02C344.11 37.02 344.241 37.006 344.381 36.978C344.521 36.95 344.647 36.908 344.759 36.852L344.801 37.93C344.642 37.986 344.465 38.028 344.269 38.056C344.082 38.0933 343.886 38.112 343.681 38.112C343.055 38.112 342.575 37.9393 342.239 37.594C341.912 37.2487 341.749 36.7307 341.749 36.04V32.442H340.475V31.364H341.749V29.46H343.051V31.364H344.815V32.442ZM352.874 38H351.488V29.306H348.31V28.088H356.052V29.306H352.874V38ZM366.945 33.03C366.945 33.7953 366.81 34.5 366.539 35.144C366.278 35.7787 365.914 36.3293 365.447 36.796C364.98 37.2533 364.425 37.6127 363.781 37.874C363.137 38.126 362.437 38.252 361.681 38.252C360.925 38.252 360.225 38.126 359.581 37.874C358.946 37.6127 358.396 37.2533 357.929 36.796C357.462 36.3293 357.098 35.7787 356.837 35.144C356.576 34.5 356.445 33.7953 356.445 33.03C356.445 32.2553 356.576 31.5507 356.837 30.916C357.098 30.272 357.462 29.726 357.929 29.278C358.396 28.8207 358.946 28.466 359.581 28.214C360.225 27.962 360.925 27.836 361.681 27.836C362.437 27.836 363.137 27.962 363.781 28.214C364.425 28.466 364.98 28.8207 365.447 29.278C365.914 29.726 366.278 30.272 366.539 30.916C366.81 31.5507 366.945 32.2553 366.945 33.03ZM365.447 33.03C365.447 32.4887 365.358 31.98 365.181 31.504C365.004 31.0187 364.752 30.594 364.425 30.23C364.098 29.866 363.702 29.5813 363.235 29.376C362.778 29.1613 362.26 29.054 361.681 29.054C361.112 29.054 360.594 29.1613 360.127 29.376C359.67 29.5813 359.278 29.866 358.951 30.23C358.634 30.594 358.386 31.0187 358.209 31.504C358.032 31.98 357.943 32.4887 357.943 33.03C357.943 33.5807 358.032 34.0987 358.209 34.584C358.386 35.0693 358.638 35.494 358.965 35.858C359.292 36.2127 359.684 36.4927 360.141 36.698C360.598 36.9033 361.112 37.006 361.681 37.006C362.25 37.006 362.768 36.9033 363.235 36.698C363.702 36.4927 364.098 36.2127 364.425 35.858C364.752 35.494 365.004 35.0693 365.181 34.584C365.358 34.0987 365.447 33.5807 365.447 33.03ZM370.216 32.456H370.244L374.668 28.088H376.586L371.77 32.624L376.88 38H374.892L370.244 32.876H370.216V38H368.83V28.088H370.216V32.456ZM379.444 36.768H384.624V38H378.058V28.088H384.414V29.306H379.444V32.274H384.12V33.464H379.444V36.768ZM393.453 36.012H393.481V28.088H394.867V38H393.117L387.881 29.908H387.853V38H386.467V28.088H388.273L393.453 36.012Z" fill="#BBBBBB"/>
<path d="M166.623 36.768H171.803V38H165.237V28.088H171.593V29.306H166.623V32.274H171.299V33.464H166.623V36.768ZM174.891 41.36H173.575V31.364H174.863V32.4H174.905C175.12 32.0453 175.433 31.756 175.843 31.532C176.263 31.2987 176.749 31.182 177.299 31.182C177.794 31.182 178.242 31.2707 178.643 31.448C179.054 31.6253 179.404 31.8727 179.693 32.19C179.992 32.5073 180.221 32.8807 180.379 33.31C180.538 33.73 180.617 34.1827 180.617 34.668C180.617 35.1533 180.538 35.6107 180.379 36.04C180.221 36.4693 179.997 36.8427 179.707 37.16C179.418 37.4773 179.068 37.7293 178.657 37.916C178.247 38.0933 177.785 38.182 177.271 38.182C176.795 38.182 176.347 38.0793 175.927 37.874C175.507 37.6687 175.176 37.3793 174.933 37.006H174.891V41.36ZM179.259 34.668C179.259 34.36 179.213 34.0613 179.119 33.772C179.026 33.4827 178.886 33.226 178.699 33.002C178.513 32.778 178.279 32.6007 177.999 32.47C177.729 32.3393 177.411 32.274 177.047 32.274C176.711 32.274 176.403 32.3393 176.123 32.47C175.853 32.6007 175.619 32.778 175.423 33.002C175.227 33.226 175.073 33.4827 174.961 33.772C174.859 34.0613 174.807 34.3647 174.807 34.682C174.807 34.9993 174.859 35.3027 174.961 35.592C175.073 35.8813 175.227 36.138 175.423 36.362C175.619 36.5767 175.853 36.7493 176.123 36.88C176.403 37.0107 176.711 37.076 177.047 37.076C177.411 37.076 177.729 37.0107 177.999 36.88C178.279 36.74 178.513 36.558 178.699 36.334C178.886 36.11 179.026 35.8533 179.119 35.564C179.213 35.2747 179.259 34.976 179.259 34.668ZM189.168 34.668C189.168 35.1813 189.075 35.6527 188.888 36.082C188.711 36.5113 188.459 36.8847 188.132 37.202C187.815 37.51 187.437 37.7527 186.998 37.93C186.56 38.098 186.088 38.182 185.584 38.182C185.08 38.182 184.609 38.098 184.17 37.93C183.732 37.7527 183.354 37.51 183.036 37.202C182.719 36.8847 182.467 36.5113 182.28 36.082C182.103 35.6527 182.014 35.1813 182.014 34.668C182.014 34.1547 182.103 33.688 182.28 33.268C182.467 32.8387 182.719 32.47 183.036 32.162C183.354 31.854 183.732 31.616 184.17 31.448C184.609 31.2707 185.08 31.182 185.584 31.182C186.088 31.182 186.56 31.2707 186.998 31.448C187.437 31.616 187.815 31.854 188.132 32.162C188.459 32.47 188.711 32.8387 188.888 33.268C189.075 33.688 189.168 34.1547 189.168 34.668ZM187.796 34.668C187.796 34.3507 187.745 34.0473 187.642 33.758C187.549 33.4687 187.409 33.2167 187.222 33.002C187.036 32.778 186.802 32.6007 186.522 32.47C186.252 32.3393 185.939 32.274 185.584 32.274C185.23 32.274 184.912 32.3393 184.632 32.47C184.362 32.6007 184.133 32.778 183.946 33.002C183.76 33.2167 183.615 33.4687 183.512 33.758C183.419 34.0473 183.372 34.3507 183.372 34.668C183.372 34.9853 183.419 35.2887 183.512 35.578C183.615 35.8673 183.76 36.124 183.946 36.348C184.133 36.572 184.362 36.7493 184.632 36.88C184.912 37.0107 185.23 37.076 185.584 37.076C185.939 37.076 186.252 37.0107 186.522 36.88C186.802 36.7493 187.036 36.572 187.222 36.348C187.409 36.124 187.549 35.8673 187.642 35.578C187.745 35.2887 187.796 34.9853 187.796 34.668ZM195.641 33.044C195.501 32.8293 195.291 32.652 195.011 32.512C194.731 32.3627 194.433 32.288 194.115 32.288C193.77 32.288 193.462 32.3533 193.191 32.484C192.93 32.6147 192.706 32.792 192.519 33.016C192.333 33.2307 192.188 33.4827 192.085 33.772C191.992 34.0613 191.945 34.3647 191.945 34.682C191.945 34.9993 191.992 35.3027 192.085 35.592C192.188 35.8813 192.333 36.138 192.519 36.362C192.706 36.5767 192.935 36.7493 193.205 36.88C193.476 37.0107 193.784 37.076 194.129 37.076C194.465 37.076 194.769 37.0107 195.039 36.88C195.319 36.7493 195.548 36.572 195.725 36.348L196.607 37.146C196.327 37.4727 195.977 37.7293 195.557 37.916C195.137 38.0933 194.661 38.182 194.129 38.182C193.616 38.182 193.14 38.098 192.701 37.93C192.272 37.762 191.899 37.5287 191.581 37.23C191.264 36.922 191.012 36.5533 190.825 36.124C190.648 35.6947 190.559 35.214 190.559 34.682C190.559 34.1593 190.648 33.6833 190.825 33.254C191.003 32.8247 191.25 32.456 191.567 32.148C191.885 31.84 192.258 31.602 192.687 31.434C193.126 31.266 193.597 31.182 194.101 31.182C194.568 31.182 195.03 31.2753 195.487 31.462C195.954 31.6487 196.323 31.9193 196.593 32.274L195.641 33.044ZM199.283 32.372C199.442 32.0453 199.713 31.7653 200.095 31.532C200.478 31.2987 200.907 31.182 201.383 31.182C201.813 31.182 202.181 31.2567 202.489 31.406C202.797 31.546 203.054 31.7373 203.259 31.98C203.465 32.2227 203.614 32.5073 203.707 32.834C203.81 33.1607 203.861 33.5107 203.861 33.884V38H202.545V34.332C202.545 34.0613 202.522 33.8047 202.475 33.562C202.438 33.3193 202.363 33.1047 202.251 32.918C202.139 32.7313 201.985 32.582 201.789 32.47C201.603 32.358 201.355 32.302 201.047 32.302C200.525 32.302 200.095 32.5027 199.759 32.904C199.423 33.296 199.255 33.8233 199.255 34.486V38H197.939V27.416H199.255V32.372H199.283ZM214.445 34.094C214.436 33.8327 214.389 33.59 214.305 33.366C214.23 33.1327 214.114 32.932 213.955 32.764C213.806 32.596 213.614 32.4653 213.381 32.372C213.157 32.2693 212.891 32.218 212.583 32.218C212.303 32.218 212.037 32.2693 211.785 32.372C211.542 32.4653 211.328 32.596 211.141 32.764C210.964 32.932 210.814 33.1327 210.693 33.366C210.581 33.59 210.516 33.8327 210.497 34.094H214.445ZM215.775 34.626C215.775 34.7007 215.775 34.7753 215.775 34.85C215.775 34.9247 215.77 34.9993 215.761 35.074H210.497C210.506 35.354 210.567 35.62 210.679 35.872C210.8 36.1147 210.959 36.3293 211.155 36.516C211.351 36.6933 211.575 36.8333 211.827 36.936C212.088 37.0387 212.364 37.09 212.653 37.09C213.101 37.09 213.488 36.992 213.815 36.796C214.142 36.6 214.398 36.362 214.585 36.082L215.509 36.824C215.154 37.2907 214.734 37.636 214.249 37.86C213.773 38.0747 213.241 38.182 212.653 38.182C212.149 38.182 211.682 38.098 211.253 37.93C210.824 37.762 210.455 37.5287 210.147 37.23C209.839 36.922 209.596 36.5533 209.419 36.124C209.242 35.6947 209.153 35.2187 209.153 34.696C209.153 34.1827 209.237 33.7113 209.405 33.282C209.582 32.8433 209.825 32.47 210.133 32.162C210.441 31.854 210.805 31.616 211.225 31.448C211.645 31.2707 212.098 31.182 212.583 31.182C213.068 31.182 213.507 31.2613 213.899 31.42C214.3 31.5787 214.636 31.8073 214.907 32.106C215.187 32.4047 215.402 32.7687 215.551 33.198C215.7 33.618 215.775 34.094 215.775 34.626ZM219.1 34.514L216.678 31.364H218.302L219.926 33.646L221.564 31.364H223.104L220.71 34.5L223.384 38H221.746L219.898 35.41L218.022 38H216.44L219.1 34.514ZM229.347 34.094C229.338 33.8327 229.291 33.59 229.207 33.366C229.133 33.1327 229.016 32.932 228.857 32.764C228.708 32.596 228.517 32.4653 228.283 32.372C228.059 32.2693 227.793 32.218 227.485 32.218C227.205 32.218 226.939 32.2693 226.687 32.372C226.445 32.4653 226.23 32.596 226.043 32.764C225.866 32.932 225.717 33.1327 225.595 33.366C225.483 33.59 225.418 33.8327 225.399 34.094H229.347ZM230.677 34.626C230.677 34.7007 230.677 34.7753 230.677 34.85C230.677 34.9247 230.673 34.9993 230.663 35.074H225.399C225.409 35.354 225.469 35.62 225.581 35.872C225.703 36.1147 225.861 36.3293 226.057 36.516C226.253 36.6933 226.477 36.8333 226.729 36.936C226.991 37.0387 227.266 37.09 227.555 37.09C228.003 37.09 228.391 36.992 228.717 36.796C229.044 36.6 229.301 36.362 229.487 36.082L230.411 36.824C230.057 37.2907 229.637 37.636 229.151 37.86C228.675 38.0747 228.143 38.182 227.555 38.182C227.051 38.182 226.585 38.098 226.155 37.93C225.726 37.762 225.357 37.5287 225.049 37.23C224.741 36.922 224.499 36.5533 224.321 36.124C224.144 35.6947 224.055 35.2187 224.055 34.696C224.055 34.1827 224.139 33.7113 224.307 33.282C224.485 32.8433 224.727 32.47 225.035 32.162C225.343 31.854 225.707 31.616 226.127 31.448C226.547 31.2707 227 31.182 227.485 31.182C227.971 31.182 228.409 31.2613 228.801 31.42C229.203 31.5787 229.539 31.8073 229.809 32.106C230.089 32.4047 230.304 32.7687 230.453 33.198C230.603 33.618 230.677 34.094 230.677 34.626ZM237.163 33.044C237.023 32.8293 236.813 32.652 236.533 32.512C236.253 32.3627 235.954 32.288 235.637 32.288C235.292 32.288 234.984 32.3533 234.713 32.484C234.452 32.6147 234.228 32.792 234.041 33.016C233.854 33.2307 233.71 33.4827 233.607 33.772C233.514 34.0613 233.467 34.3647 233.467 34.682C233.467 34.9993 233.514 35.3027 233.607 35.592C233.71 35.8813 233.854 36.138 234.041 36.362C234.228 36.5767 234.456 36.7493 234.727 36.88C234.998 37.0107 235.306 37.076 235.651 37.076C235.987 37.076 236.29 37.0107 236.561 36.88C236.841 36.7493 237.07 36.572 237.247 36.348L238.129 37.146C237.849 37.4727 237.499 37.7293 237.079 37.916C236.659 38.0933 236.183 38.182 235.651 38.182C235.138 38.182 234.662 38.098 234.223 37.93C233.794 37.762 233.42 37.5287 233.103 37.23C232.786 36.922 232.534 36.5533 232.347 36.124C232.17 35.6947 232.081 35.214 232.081 34.682C232.081 34.1593 232.17 33.6833 232.347 33.254C232.524 32.8247 232.772 32.456 233.089 32.148C233.406 31.84 233.78 31.602 234.209 31.434C234.648 31.266 235.119 31.182 235.623 31.182C236.09 31.182 236.552 31.2753 237.009 31.462C237.476 31.6487 237.844 31.9193 238.115 32.274L237.163 33.044ZM244.109 38C244.09 37.832 244.076 37.6453 244.067 37.44C244.057 37.2253 244.053 37.048 244.053 36.908H244.025C243.857 37.2627 243.572 37.566 243.171 37.818C242.779 38.0607 242.34 38.182 241.855 38.182C241.425 38.182 241.052 38.112 240.735 37.972C240.427 37.832 240.17 37.6407 239.965 37.398C239.769 37.146 239.619 36.8567 239.517 36.53C239.423 36.2033 239.377 35.8533 239.377 35.48V31.364H240.693V35.032C240.693 35.3027 240.711 35.564 240.749 35.816C240.795 36.0587 240.875 36.2733 240.987 36.46C241.099 36.6467 241.253 36.796 241.449 36.908C241.645 37.02 241.897 37.076 242.205 37.076C242.737 37.076 243.166 36.88 243.493 36.488C243.819 36.0867 243.983 35.5547 243.983 34.892V31.364H245.299V36.572C245.299 36.7493 245.303 36.978 245.313 37.258C245.322 37.538 245.336 37.7853 245.355 38H244.109ZM250.829 32.442H249.065V35.9C249.065 36.3013 249.14 36.5907 249.289 36.768C249.439 36.936 249.677 37.02 250.003 37.02C250.125 37.02 250.255 37.006 250.395 36.978C250.535 36.95 250.661 36.908 250.773 36.852L250.815 37.93C250.657 37.986 250.479 38.028 250.283 38.056C250.097 38.0933 249.901 38.112 249.695 38.112C249.07 38.112 248.589 37.9393 248.253 37.594C247.927 37.2487 247.763 36.7307 247.763 36.04V32.442H246.489V31.364H247.763V29.46H249.065V31.364H250.829V32.442ZM257.047 34.094C257.037 33.8327 256.991 33.59 256.907 33.366C256.832 33.1327 256.715 32.932 256.557 32.764C256.407 32.596 256.216 32.4653 255.983 32.372C255.759 32.2693 255.493 32.218 255.185 32.218C254.905 32.218 254.639 32.2693 254.387 32.372C254.144 32.4653 253.929 32.596 253.743 32.764C253.565 32.932 253.416 33.1327 253.295 33.366C253.183 33.59 253.117 33.8327 253.099 34.094H257.047ZM258.377 34.626C258.377 34.7007 258.377 34.7753 258.377 34.85C258.377 34.9247 258.372 34.9993 258.363 35.074H253.099C253.108 35.354 253.169 35.62 253.281 35.872C253.402 36.1147 253.561 36.3293 253.757 36.516C253.953 36.6933 254.177 36.8333 254.429 36.936C254.69 37.0387 254.965 37.09 255.255 37.09C255.703 37.09 256.09 36.992 256.417 36.796C256.743 36.6 257 36.362 257.187 36.082L258.111 36.824C257.756 37.2907 257.336 37.636 256.851 37.86C256.375 38.0747 255.843 38.182 255.255 38.182C254.751 38.182 254.284 38.098 253.855 37.93C253.425 37.762 253.057 37.5287 252.749 37.23C252.441 36.922 252.198 36.5533 252.021 36.124C251.843 35.6947 251.755 35.2187 251.755 34.696C251.755 34.1827 251.839 33.7113 252.007 33.282C252.184 32.8433 252.427 32.47 252.735 32.162C253.043 31.854 253.407 31.616 253.827 31.448C254.247 31.2707 254.699 31.182 255.185 31.182C255.67 31.182 256.109 31.2613 256.501 31.42C256.902 31.5787 257.238 31.8073 257.509 32.106C257.789 32.4047 258.003 32.7687 258.153 33.198C258.302 33.618 258.377 34.094 258.377 34.626ZM265.506 36.95C265.254 37.3513 264.909 37.6593 264.47 37.874C264.041 38.0793 263.588 38.182 263.112 38.182C262.599 38.182 262.137 38.0933 261.726 37.916C261.315 37.7293 260.965 37.4773 260.676 37.16C260.387 36.8427 260.163 36.4693 260.004 36.04C259.845 35.6107 259.766 35.1533 259.766 34.668C259.766 34.1827 259.845 33.73 260.004 33.31C260.163 32.8807 260.387 32.5073 260.676 32.19C260.975 31.8727 261.329 31.6253 261.74 31.448C262.151 31.2707 262.603 31.182 263.098 31.182C263.639 31.182 264.111 31.2987 264.512 31.532C264.913 31.756 265.231 32.0313 265.464 32.358H265.492V27.416H266.808V38H265.534V36.95H265.506ZM261.138 34.668C261.138 34.976 261.185 35.2747 261.278 35.564C261.371 35.8533 261.511 36.11 261.698 36.334C261.885 36.558 262.113 36.74 262.384 36.88C262.655 37.0107 262.972 37.076 263.336 37.076C263.672 37.076 263.975 37.0107 264.246 36.88C264.526 36.7493 264.764 36.5767 264.96 36.362C265.156 36.138 265.305 35.8813 265.408 35.592C265.52 35.3027 265.576 34.9993 265.576 34.682C265.576 34.3647 265.52 34.0613 265.408 33.772C265.305 33.4827 265.156 33.226 264.96 33.002C264.764 32.778 264.526 32.6007 264.246 32.47C263.975 32.3393 263.672 32.274 263.336 32.274C262.972 32.274 262.655 32.3393 262.384 32.47C262.113 32.6007 261.885 32.778 261.698 33.002C261.511 33.226 261.371 33.4827 261.278 33.772C261.185 34.0613 261.138 34.36 261.138 34.668Z" fill="black"/>
<path d="M352.001 70.6667C355.683 70.6667 358.667 67.6819 358.667 64C358.667 60.3181 355.683 57.3334 352.001 57.3334C348.319 57.3334 345.334 60.3181 345.334 64C345.334 67.6819 348.319 70.6667 352.001 70.6667Z" stroke="#BBBBBB" stroke-width="2" stroke-linecap="round" stroke-linejoin="round"/>
<path d="M213.667 57H204.333C203.597 57 203 57.597 203 58.3333V67.6667C203 68.403 203.597 69 204.333 69H213.667C214.403 69 215 68.403 215 67.6667V58.3333C215 57.597 214.403 57 213.667 57Z" stroke="black" stroke-width="2" stroke-linecap="round" stroke-linejoin="round"/>
<rect x="86" y="63" width="100" height="2" rx="1" fill="black"/>
<rect x="233" y="63" width="100" height="2" rx="1" fill="#BBBBBB"/>
<path d="M68.6673 63.3866V64C68.6665 65.4376 68.201 66.8364 67.3402 67.9878C66.4794 69.1392 65.2695 69.9816 63.8909 70.3892C62.5122 70.7968 61.0388 70.7479 59.6903 70.2496C58.3418 69.7514 57.1904 68.8307 56.408 67.6246C55.6255 66.4186 55.2538 64.992 55.3484 63.5575C55.443 62.123 55.9988 60.7575 56.9328 59.6647C57.8669 58.5718 59.1292 57.8102 60.5314 57.4934C61.9337 57.1766 63.4008 57.3215 64.714 57.9066" stroke="black" stroke-width="2" stroke-linecap="round" stroke-linejoin="round"/>
<path d="M68.6667 58.6666L62 65.34L60 63.34" stroke="black" stroke-width="2" stroke-linecap="round" stroke-linejoin="round"/>
</svg>
