<svg  viewBox="0 0 912 608" fill="none" xmlns="http://www.w3.org/2000/svg">
<rect width="608" height="608" fill="white"/>
<path fill-rule="evenodd" clip-rule="evenodd" d="M304 6.33333L912 0V608H304V6.33333Z" fill="white"/>
<path fill-rule="evenodd" clip-rule="evenodd" d="M304 582.667C457.903 582.667 582.667 457.904 582.667 304C582.667 150.097 457.903 25.3335 304 25.3335C150.097 25.3335 25.3334 150.097 25.3334 304C25.3334 457.904 150.097 582.667 304 582.667Z" fill="url(#paint0_linear)"/>
<path fill-rule="evenodd" clip-rule="evenodd" d="M573.167 568.58C645.59 585.725 730.643 594.273 799.583 551.915C849.667 521.138 886.667 487.053 886.667 350.841C886.667 214.626 755.461 185.25 695.083 185.25C582.601 185.25 541.455 267.188 451.25 301.164C361.045 335.136 329.333 372.795 329.333 417.077C329.333 505.513 476.366 545.662 573.167 568.58" fill="#0828BE"/>
<path fill-rule="evenodd" clip-rule="evenodd" d="M451.473 438.867V503.5H435.194V438.867H408.5V424.333H478.167V438.867H451.473Z" fill="#EEEEEE"/>
<mask id="mask0" mask-type="alpha" maskUnits="userSpaceOnUse" x="329" y="185" width="558" height="398">
<path fill-rule="evenodd" clip-rule="evenodd" d="M329.333 582.667H886.667V185.25H329.333V582.667Z" fill="white"/>
</mask>
<g mask="url(#mask0)">
<path fill-rule="evenodd" clip-rule="evenodd" d="M486.166 503.5H501.838V443.727H486.166V503.5ZM500.769 419.231C502.59 421.108 503.5 423.324 503.5 425.879C503.5 428.515 502.59 430.711 500.769 432.468C498.945 434.224 496.693 435.103 493.998 435.103C491.231 435.103 488.952 434.224 487.171 432.468C485.39 430.711 484.5 428.515 484.5 425.879C484.5 423.324 485.414 421.108 487.231 419.231C489.051 417.355 491.31 416.417 493.998 416.417C496.693 416.417 498.945 417.355 500.769 419.231V419.231Z" fill="#EEEEEE"/>
<path fill-rule="evenodd" clip-rule="evenodd" d="M566.577 448.778C570.97 453.463 573.167 459.53 573.167 466.979V503.5H557.353V470.342C557.353 466.098 556.254 462.694 554.058 460.131C551.862 457.568 548.927 456.286 545.253 456.286C535.349 456.286 530.397 463.174 530.397 476.95V503.5H514.583V443.552H530.397V448.958C535.189 444.153 541.459 441.75 549.206 441.75C556.394 441.75 562.185 444.093 566.577 448.778" fill="#EEEEEE"/>
<path fill-rule="evenodd" clip-rule="evenodd" d="M585.833 503.5H601.667V418H585.833V503.5Z" fill="#EEEEEE"/>
<path fill-rule="evenodd" clip-rule="evenodd" d="M653.54 486.347C656.973 483.034 658.69 478.744 658.69 473.477C658.69 468.209 656.973 463.899 653.54 460.546C650.106 457.194 646.154 455.518 641.682 455.518C636.812 455.518 632.799 457.154 629.645 460.427C626.491 463.699 624.914 468.049 624.914 473.477C624.914 478.904 626.491 483.234 629.645 486.466C632.799 489.699 636.812 491.315 641.682 491.315C646.154 491.315 650.106 489.659 653.54 486.347V486.347ZM674.5 503.287H658.69V498.618C653.34 502.928 646.753 505.083 638.928 505.083C631.023 505.083 624.156 502.09 618.327 496.104C612.498 490.118 609.583 482.575 609.583 473.477C609.583 464.378 612.518 456.815 618.387 450.789C624.255 444.763 631.102 441.75 638.928 441.75C646.832 441.75 653.42 443.945 658.69 448.335V443.546H674.5V503.287Z" fill="#EEEEEE"/>
<path fill-rule="evenodd" clip-rule="evenodd" d="M729.349 503.5L705.794 480.344H703.03V503.5H687.167V418H703.03V464.906H705.914L727.426 444.244H747.375L718.413 472.625L750.5 503.5H729.349Z" fill="#EEEEEE"/>
<path fill-rule="evenodd" clip-rule="evenodd" d="M767.683 458.391C764.823 460.307 762.95 463.021 762.064 466.533H791.186C790.22 462.861 788.447 460.107 785.869 458.272C783.291 456.436 780.311 455.518 776.927 455.518C773.624 455.518 770.543 456.476 767.683 458.391V458.391ZM807.5 477.667H761.58C762.386 481.897 764.178 485.269 766.958 487.783C769.737 490.298 772.98 491.555 776.685 491.555C783.533 491.555 788.528 488.921 791.67 483.653L805.929 486.646C803.351 492.712 799.524 497.301 794.449 500.414C789.374 503.527 783.453 505.083 776.685 505.083C767.985 505.083 760.654 502.13 754.692 496.224C748.731 490.318 745.75 482.735 745.75 473.477C745.75 464.218 748.751 456.616 754.753 450.669C760.754 444.723 768.146 441.75 776.927 441.75C785.144 441.75 792.214 444.603 798.135 450.31C804.056 456.017 807.178 463.34 807.5 472.279V477.667Z" fill="#EEEEEE"/>
</g>
<defs>
<linearGradient id="paint0_linear" x1="582.667" y1="582.667" x2="582.667" y2="25.3335" gradientUnits="userSpaceOnUse">
<stop stop-color="#FCBA59" stop-opacity="0.01"/>
<stop offset="1" stop-color="#FCBA59"/>
</linearGradient>
</defs>
</svg>
