<svg width="24" height="24" viewBox="0 0 24 24" fill="none" xmlns="http://www.w3.org/2000/svg">
<path d="M21.21 15.89C20.5738 17.3945 19.5788 18.7202 18.3119 19.7513C17.0449 20.7824 15.5447 21.4874 13.9424 21.8048C12.3401 22.1222 10.6844 22.0422 9.12012 21.5718C7.55585 21.1015 6.1306 20.2551 4.969 19.1067C3.80739 17.9583 2.94479 16.5428 2.45661 14.984C1.96843 13.4252 1.86954 11.7705 2.16857 10.1647C2.46761 8.5588 3.15547 7.05064 4.17202 5.77205C5.18857 4.49345 6.50286 3.48333 7.99998 2.83002" stroke="black" stroke-width="2" stroke-linecap="round" stroke-linejoin="round"/>
<path d="M22 12C22 10.6868 21.7413 9.38642 21.2388 8.17317C20.7362 6.95991 19.9997 5.85752 19.0711 4.92893C18.1425 4.00035 17.0401 3.26375 15.8268 2.7612C14.6136 2.25866 13.3132 2 12 2V12H22Z" stroke="black" stroke-width="2" stroke-linecap="round" stroke-linejoin="round"/>
</svg>
