<svg width="412" height="72" viewBox="0 0 412 72" fill="none" xmlns="http://www.w3.org/2000/svg">
<path d="M30.2365 36.768H34.6605V38H28.8505V28.088H30.2365V36.768ZM42.4048 34.668C42.4048 35.1813 42.3114 35.6527 42.1248 36.082C41.9474 36.5113 41.6954 36.8847 41.3688 37.202C41.0514 37.51 40.6734 37.7527 40.2348 37.93C39.7961 38.098 39.3248 38.182 38.8208 38.182C38.3168 38.182 37.8454 38.098 37.4068 37.93C36.9681 37.7527 36.5901 37.51 36.2728 37.202C35.9554 36.8847 35.7034 36.5113 35.5168 36.082C35.3394 35.6527 35.2508 35.1813 35.2508 34.668C35.2508 34.1547 35.3394 33.688 35.5168 33.268C35.7034 32.8387 35.9554 32.47 36.2728 32.162C36.5901 31.854 36.9681 31.616 37.4068 31.448C37.8454 31.2707 38.3168 31.182 38.8208 31.182C39.3248 31.182 39.7961 31.2707 40.2348 31.448C40.6734 31.616 41.0514 31.854 41.3688 32.162C41.6954 32.47 41.9474 32.8387 42.1248 33.268C42.3114 33.688 42.4048 34.1547 42.4048 34.668ZM41.0328 34.668C41.0328 34.3507 40.9814 34.0473 40.8788 33.758C40.7854 33.4687 40.6454 33.2167 40.4588 33.002C40.2721 32.778 40.0388 32.6007 39.7588 32.47C39.4881 32.3393 39.1754 32.274 38.8208 32.274C38.4661 32.274 38.1488 32.3393 37.8688 32.47C37.5981 32.6007 37.3694 32.778 37.1828 33.002C36.9961 33.2167 36.8514 33.4687 36.7488 33.758C36.6554 34.0473 36.6088 34.3507 36.6088 34.668C36.6088 34.9853 36.6554 35.2887 36.7488 35.578C36.8514 35.8673 36.9961 36.124 37.1828 36.348C37.3694 36.572 37.5981 36.7493 37.8688 36.88C38.1488 37.0107 38.4661 37.076 38.8208 37.076C39.1754 37.076 39.4881 37.0107 39.7588 36.88C40.0388 36.7493 40.2721 36.572 40.4588 36.348C40.6454 36.124 40.7854 35.8673 40.8788 35.578C40.9814 35.2887 41.0328 34.9853 41.0328 34.668ZM48.8777 33.044C48.7377 32.8293 48.5277 32.652 48.2477 32.512C47.9677 32.3627 47.669 32.288 47.3517 32.288C47.0064 32.288 46.6984 32.3533 46.4277 32.484C46.1664 32.6147 45.9424 32.792 45.7557 33.016C45.569 33.2307 45.4244 33.4827 45.3217 33.772C45.2284 34.0613 45.1817 34.3647 45.1817 34.682C45.1817 34.9993 45.2284 35.3027 45.3217 35.592C45.4244 35.8813 45.569 36.138 45.7557 36.362C45.9424 36.5767 46.171 36.7493 46.4417 36.88C46.7124 37.0107 47.0204 37.076 47.3657 37.076C47.7017 37.076 48.005 37.0107 48.2757 36.88C48.5557 36.7493 48.7844 36.572 48.9617 36.348L49.8437 37.146C49.5637 37.4727 49.2137 37.7293 48.7937 37.916C48.3737 38.0933 47.8977 38.182 47.3657 38.182C46.8524 38.182 46.3764 38.098 45.9377 37.93C45.5084 37.762 45.135 37.5287 44.8177 37.23C44.5004 36.922 44.2484 36.5533 44.0617 36.124C43.8844 35.6947 43.7957 35.214 43.7957 34.682C43.7957 34.1593 43.8844 33.6833 44.0617 33.254C44.239 32.8247 44.4864 32.456 44.8037 32.148C45.121 31.84 45.4944 31.602 45.9237 31.434C46.3624 31.266 46.8337 31.182 47.3377 31.182C47.8044 31.182 48.2664 31.2753 48.7237 31.462C49.1904 31.6487 49.559 31.9193 49.8297 32.274L48.8777 33.044ZM52.4917 34.248H52.5337L55.3197 31.364H57.0837L53.9757 34.374L57.3497 38H55.5297L52.5337 34.556H52.4917V38H51.1757V27.416H52.4917V34.248ZM62.1005 28.088H65.5025C66.1372 28.088 66.7718 28.1813 67.4065 28.368C68.0412 28.5547 68.6152 28.8487 69.1285 29.25C69.6418 29.6513 70.0572 30.1647 70.3745 30.79C70.6918 31.4153 70.8505 32.1667 70.8505 33.044C70.8505 33.8933 70.6918 34.6307 70.3745 35.256C70.0572 35.872 69.6418 36.3853 69.1285 36.796C68.6152 37.1973 68.0412 37.5007 67.4065 37.706C66.7718 37.902 66.1372 38 65.5025 38H62.1005V28.088ZM63.4865 36.782H65.2225C65.8198 36.782 66.3705 36.698 66.8745 36.53C67.3878 36.362 67.8265 36.1193 68.1905 35.802C68.5638 35.4847 68.8532 35.0927 69.0585 34.626C69.2638 34.1593 69.3665 33.632 69.3665 33.044C69.3665 32.428 69.2638 31.8867 69.0585 31.42C68.8532 30.9533 68.5638 30.566 68.1905 30.258C67.8265 29.9407 67.3878 29.7027 66.8745 29.544C66.3705 29.376 65.8198 29.292 65.2225 29.292H63.4865V36.782ZM74.1369 38H72.7509V28.088H75.9289C76.4049 28.088 76.8575 28.1393 77.2869 28.242C77.7162 28.3353 78.0895 28.4893 78.4069 28.704C78.7335 28.9187 78.9902 29.2033 79.1769 29.558C79.3635 29.9033 79.4569 30.328 79.4569 30.832C79.4569 31.56 79.2329 32.148 78.7849 32.596C78.3369 33.044 77.7582 33.3287 77.0489 33.45L79.8209 38H78.1409L75.6209 33.59H74.1369V38ZM74.1369 32.428H75.7329C76.0595 32.428 76.3629 32.4 76.6429 32.344C76.9229 32.288 77.1655 32.1993 77.3709 32.078C77.5855 31.9473 77.7535 31.784 77.8749 31.588C77.9962 31.3827 78.0569 31.1307 78.0569 30.832C78.0569 30.5333 77.9962 30.286 77.8749 30.09C77.7535 29.8847 77.5902 29.7213 77.3849 29.6C77.1889 29.4787 76.9555 29.3947 76.6849 29.348C76.4142 29.292 76.1295 29.264 75.8309 29.264H74.1369V32.428ZM91.3465 33.03C91.3465 33.7953 91.2112 34.5 90.9405 35.144C90.6792 35.7787 90.3152 36.3293 89.8485 36.796C89.3818 37.2533 88.8265 37.6127 88.1825 37.874C87.5385 38.126 86.8385 38.252 86.0825 38.252C85.3265 38.252 84.6265 38.126 83.9825 37.874C83.3478 37.6127 82.7972 37.2533 82.3305 36.796C81.8638 36.3293 81.4998 35.7787 81.2385 35.144C80.9772 34.5 80.8465 33.7953 80.8465 33.03C80.8465 32.2553 80.9772 31.5507 81.2385 30.916C81.4998 30.272 81.8638 29.726 82.3305 29.278C82.7972 28.8207 83.3478 28.466 83.9825 28.214C84.6265 27.962 85.3265 27.836 86.0825 27.836C86.8385 27.836 87.5385 27.962 88.1825 28.214C88.8265 28.466 89.3818 28.8207 89.8485 29.278C90.3152 29.726 90.6792 30.272 90.9405 30.916C91.2112 31.5507 91.3465 32.2553 91.3465 33.03ZM89.8485 33.03C89.8485 32.4887 89.7598 31.98 89.5825 31.504C89.4052 31.0187 89.1532 30.594 88.8265 30.23C88.4998 29.866 88.1032 29.5813 87.6365 29.376C87.1792 29.1613 86.6612 29.054 86.0825 29.054C85.5132 29.054 84.9952 29.1613 84.5285 29.376C84.0712 29.5813 83.6792 29.866 83.3525 30.23C83.0352 30.594 82.7878 31.0187 82.6105 31.504C82.4332 31.98 82.3445 32.4887 82.3445 33.03C82.3445 33.5807 82.4332 34.0987 82.6105 34.584C82.7878 35.0693 83.0398 35.494 83.3665 35.858C83.6932 36.2127 84.0852 36.4927 84.5425 36.698C84.9998 36.9033 85.5132 37.006 86.0825 37.006C86.6518 37.006 87.1698 36.9033 87.6365 36.698C88.1032 36.4927 88.4998 36.2127 88.8265 35.858C89.1532 35.494 89.4052 35.0693 89.5825 34.584C89.7598 34.0987 89.8485 33.5807 89.8485 33.03ZM93.2313 28.088H96.2553C96.7873 28.088 97.2727 28.144 97.7113 28.256C98.15 28.3587 98.5233 28.522 98.8313 28.746C99.1393 28.97 99.3773 29.2547 99.5453 29.6C99.7133 29.9453 99.7973 30.3607 99.7973 30.846C99.7973 31.3407 99.704 31.7653 99.5173 32.12C99.34 32.4747 99.088 32.764 98.7613 32.988C98.444 33.212 98.0613 33.38 97.6133 33.492C97.1747 33.5947 96.6987 33.646 96.1853 33.646H94.6173V38H93.2313V28.088ZM94.6173 32.47H96.0873C96.4233 32.47 96.7313 32.442 97.0113 32.386C97.3007 32.3207 97.548 32.2273 97.7533 32.106C97.9587 31.9753 98.1173 31.8073 98.2293 31.602C98.3413 31.3967 98.3973 31.1447 98.3973 30.846C98.3973 30.5473 98.3367 30.3 98.2153 30.104C98.1033 29.8987 97.9447 29.7353 97.7393 29.614C97.5433 29.4833 97.3053 29.3947 97.0253 29.348C96.7453 29.292 96.442 29.264 96.1153 29.264H94.6173V32.47Z" fill="black"/>
<path d="M321.362 36.46C320.97 36.992 320.461 37.426 319.836 37.762C319.211 38.0887 318.459 38.252 317.582 38.252C316.826 38.252 316.126 38.126 315.482 37.874C314.847 37.6127 314.297 37.2533 313.83 36.796C313.373 36.3293 313.013 35.7787 312.752 35.144C312.491 34.5 312.36 33.7953 312.36 33.03C312.36 32.2553 312.491 31.5507 312.752 30.916C313.023 30.272 313.391 29.726 313.858 29.278C314.334 28.8207 314.894 28.466 315.538 28.214C316.182 27.962 316.882 27.836 317.638 27.836C317.974 27.836 318.315 27.8687 318.66 27.934C319.005 27.9993 319.337 28.0973 319.654 28.228C319.971 28.3587 320.261 28.522 320.522 28.718C320.783 28.9047 321.007 29.124 321.194 29.376L320.102 30.216C319.859 29.88 319.514 29.6047 319.066 29.39C318.627 29.166 318.151 29.054 317.638 29.054C317.059 29.054 316.537 29.1613 316.07 29.376C315.613 29.5813 315.221 29.866 314.894 30.23C314.567 30.594 314.315 31.0187 314.138 31.504C313.961 31.98 313.872 32.4887 313.872 33.03C313.872 33.59 313.956 34.1127 314.124 34.598C314.301 35.0833 314.549 35.508 314.866 35.872C315.193 36.2267 315.585 36.5067 316.042 36.712C316.509 36.9173 317.027 37.02 317.596 37.02C318.156 37.02 318.665 36.908 319.122 36.684C319.579 36.46 319.957 36.1333 320.256 35.704L321.362 36.46ZM329.262 34.668C329.262 35.1813 329.169 35.6527 328.982 36.082C328.805 36.5113 328.553 36.8847 328.226 37.202C327.909 37.51 327.531 37.7527 327.092 37.93C326.654 38.098 326.182 38.182 325.678 38.182C325.174 38.182 324.703 38.098 324.264 37.93C323.826 37.7527 323.448 37.51 323.13 37.202C322.813 36.8847 322.561 36.5113 322.374 36.082C322.197 35.6527 322.108 35.1813 322.108 34.668C322.108 34.1547 322.197 33.688 322.374 33.268C322.561 32.8387 322.813 32.47 323.13 32.162C323.448 31.854 323.826 31.616 324.264 31.448C324.703 31.2707 325.174 31.182 325.678 31.182C326.182 31.182 326.654 31.2707 327.092 31.448C327.531 31.616 327.909 31.854 328.226 32.162C328.553 32.47 328.805 32.8387 328.982 33.268C329.169 33.688 329.262 34.1547 329.262 34.668ZM327.89 34.668C327.89 34.3507 327.839 34.0473 327.736 33.758C327.643 33.4687 327.503 33.2167 327.316 33.002C327.13 32.778 326.896 32.6007 326.616 32.47C326.346 32.3393 326.033 32.274 325.678 32.274C325.324 32.274 325.006 32.3393 324.726 32.47C324.456 32.6007 324.227 32.778 324.04 33.002C323.854 33.2167 323.709 33.4687 323.606 33.758C323.513 34.0473 323.466 34.3507 323.466 34.668C323.466 34.9853 323.513 35.2887 323.606 35.578C323.709 35.8673 323.854 36.124 324.04 36.348C324.227 36.572 324.456 36.7493 324.726 36.88C325.006 37.0107 325.324 37.076 325.678 37.076C326.033 37.076 326.346 37.0107 326.616 36.88C326.896 36.7493 327.13 36.572 327.316 36.348C327.503 36.124 327.643 35.8673 327.736 35.578C327.839 35.2887 327.89 34.9853 327.89 34.668ZM332.431 38H331.115V27.416H332.431V38ZM336.068 38H334.752V27.416H336.068V38ZM343.219 34.094C343.209 33.8327 343.163 33.59 343.079 33.366C343.004 33.1327 342.887 32.932 342.729 32.764C342.579 32.596 342.388 32.4653 342.155 32.372C341.931 32.2693 341.665 32.218 341.357 32.218C341.077 32.218 340.811 32.2693 340.559 32.372C340.316 32.4653 340.101 32.596 339.915 32.764C339.737 32.932 339.588 33.1327 339.467 33.366C339.355 33.59 339.289 33.8327 339.271 34.094H343.219ZM344.549 34.626C344.549 34.7007 344.549 34.7753 344.549 34.85C344.549 34.9247 344.544 34.9993 344.535 35.074H339.271C339.28 35.354 339.341 35.62 339.453 35.872C339.574 36.1147 339.733 36.3293 339.929 36.516C340.125 36.6933 340.349 36.8333 340.601 36.936C340.862 37.0387 341.137 37.09 341.427 37.09C341.875 37.09 342.262 36.992 342.589 36.796C342.915 36.6 343.172 36.362 343.359 36.082L344.283 36.824C343.928 37.2907 343.508 37.636 343.023 37.86C342.547 38.0747 342.015 38.182 341.427 38.182C340.923 38.182 340.456 38.098 340.027 37.93C339.597 37.762 339.229 37.5287 338.921 37.23C338.613 36.922 338.37 36.5533 338.193 36.124C338.015 35.6947 337.927 35.2187 337.927 34.696C337.927 34.1827 338.011 33.7113 338.179 33.282C338.356 32.8433 338.599 32.47 338.907 32.162C339.215 31.854 339.579 31.616 339.999 31.448C340.419 31.2707 340.871 31.182 341.357 31.182C341.842 31.182 342.281 31.2613 342.673 31.42C343.074 31.5787 343.41 31.8073 343.681 32.106C343.961 32.4047 344.175 32.7687 344.325 33.198C344.474 33.618 344.549 34.094 344.549 34.626ZM351.034 33.044C350.894 32.8293 350.684 32.652 350.404 32.512C350.124 32.3627 349.825 32.288 349.508 32.288C349.163 32.288 348.855 32.3533 348.584 32.484C348.323 32.6147 348.099 32.792 347.912 33.016C347.725 33.2307 347.581 33.4827 347.478 33.772C347.385 34.0613 347.338 34.3647 347.338 34.682C347.338 34.9993 347.385 35.3027 347.478 35.592C347.581 35.8813 347.725 36.138 347.912 36.362C348.099 36.5767 348.327 36.7493 348.598 36.88C348.869 37.0107 349.177 37.076 349.522 37.076C349.858 37.076 350.161 37.0107 350.432 36.88C350.712 36.7493 350.941 36.572 351.118 36.348L352 37.146C351.72 37.4727 351.37 37.7293 350.95 37.916C350.53 38.0933 350.054 38.182 349.522 38.182C349.009 38.182 348.533 38.098 348.094 37.93C347.665 37.762 347.291 37.5287 346.974 37.23C346.657 36.922 346.405 36.5533 346.218 36.124C346.041 35.6947 345.952 35.214 345.952 34.682C345.952 34.1593 346.041 33.6833 346.218 33.254C346.395 32.8247 346.643 32.456 346.96 32.148C347.277 31.84 347.651 31.602 348.08 31.434C348.519 31.266 348.99 31.182 349.494 31.182C349.961 31.182 350.423 31.2753 350.88 31.462C351.347 31.6487 351.715 31.9193 351.986 32.274L351.034 33.044ZM356.552 32.442H354.788V35.9C354.788 36.3013 354.863 36.5907 355.012 36.768C355.161 36.936 355.399 37.02 355.726 37.02C355.847 37.02 355.978 37.006 356.118 36.978C356.258 36.95 356.384 36.908 356.496 36.852L356.538 37.93C356.379 37.986 356.202 38.028 356.006 38.056C355.819 38.0933 355.623 38.112 355.418 38.112C354.793 38.112 354.312 37.9393 353.976 37.594C353.649 37.2487 353.486 36.7307 353.486 36.04V32.442H352.212V31.364H353.486V29.46H354.788V31.364H356.552V32.442ZM361.481 28.088H364.883C365.518 28.088 366.153 28.1813 366.787 28.368C367.422 28.5547 367.996 28.8487 368.509 29.25C369.023 29.6513 369.438 30.1647 369.755 30.79C370.073 31.4153 370.231 32.1667 370.231 33.044C370.231 33.8933 370.073 34.6307 369.755 35.256C369.438 35.872 369.023 36.3853 368.509 36.796C367.996 37.1973 367.422 37.5007 366.787 37.706C366.153 37.902 365.518 38 364.883 38H361.481V28.088ZM362.867 36.782H364.603C365.201 36.782 365.751 36.698 366.255 36.53C366.769 36.362 367.207 36.1193 367.571 35.802C367.945 35.4847 368.234 35.0927 368.439 34.626C368.645 34.1593 368.747 33.632 368.747 33.044C368.747 32.428 368.645 31.8867 368.439 31.42C368.234 30.9533 367.945 30.566 367.571 30.258C367.207 29.9407 366.769 29.7027 366.255 29.544C365.751 29.376 365.201 29.292 364.603 29.292H362.867V36.782ZM372.196 38H370.656L374.954 28.088H376.214L380.47 38H378.902L377.894 35.564H373.19L372.196 38ZM373.68 34.346H377.39L375.542 29.698L373.68 34.346ZM383.129 38H381.743V28.088H383.129V38Z" fill="#BBBBBB"/>
<path d="M166.623 36.768H171.803V38H165.237V28.088H171.593V29.306H166.623V32.274H171.299V33.464H166.623V36.768ZM174.891 41.36H173.575V31.364H174.863V32.4H174.905C175.12 32.0453 175.433 31.756 175.843 31.532C176.263 31.2987 176.749 31.182 177.299 31.182C177.794 31.182 178.242 31.2707 178.643 31.448C179.054 31.6253 179.404 31.8727 179.693 32.19C179.992 32.5073 180.221 32.8807 180.379 33.31C180.538 33.73 180.617 34.1827 180.617 34.668C180.617 35.1533 180.538 35.6107 180.379 36.04C180.221 36.4693 179.997 36.8427 179.707 37.16C179.418 37.4773 179.068 37.7293 178.657 37.916C178.247 38.0933 177.785 38.182 177.271 38.182C176.795 38.182 176.347 38.0793 175.927 37.874C175.507 37.6687 175.176 37.3793 174.933 37.006H174.891V41.36ZM179.259 34.668C179.259 34.36 179.213 34.0613 179.119 33.772C179.026 33.4827 178.886 33.226 178.699 33.002C178.513 32.778 178.279 32.6007 177.999 32.47C177.729 32.3393 177.411 32.274 177.047 32.274C176.711 32.274 176.403 32.3393 176.123 32.47C175.853 32.6007 175.619 32.778 175.423 33.002C175.227 33.226 175.073 33.4827 174.961 33.772C174.859 34.0613 174.807 34.3647 174.807 34.682C174.807 34.9993 174.859 35.3027 174.961 35.592C175.073 35.8813 175.227 36.138 175.423 36.362C175.619 36.5767 175.853 36.7493 176.123 36.88C176.403 37.0107 176.711 37.076 177.047 37.076C177.411 37.076 177.729 37.0107 177.999 36.88C178.279 36.74 178.513 36.558 178.699 36.334C178.886 36.11 179.026 35.8533 179.119 35.564C179.213 35.2747 179.259 34.976 179.259 34.668ZM189.168 34.668C189.168 35.1813 189.075 35.6527 188.888 36.082C188.711 36.5113 188.459 36.8847 188.132 37.202C187.815 37.51 187.437 37.7527 186.998 37.93C186.56 38.098 186.088 38.182 185.584 38.182C185.08 38.182 184.609 38.098 184.17 37.93C183.732 37.7527 183.354 37.51 183.036 37.202C182.719 36.8847 182.467 36.5113 182.28 36.082C182.103 35.6527 182.014 35.1813 182.014 34.668C182.014 34.1547 182.103 33.688 182.28 33.268C182.467 32.8387 182.719 32.47 183.036 32.162C183.354 31.854 183.732 31.616 184.17 31.448C184.609 31.2707 185.08 31.182 185.584 31.182C186.088 31.182 186.56 31.2707 186.998 31.448C187.437 31.616 187.815 31.854 188.132 32.162C188.459 32.47 188.711 32.8387 188.888 33.268C189.075 33.688 189.168 34.1547 189.168 34.668ZM187.796 34.668C187.796 34.3507 187.745 34.0473 187.642 33.758C187.549 33.4687 187.409 33.2167 187.222 33.002C187.036 32.778 186.802 32.6007 186.522 32.47C186.252 32.3393 185.939 32.274 185.584 32.274C185.23 32.274 184.912 32.3393 184.632 32.47C184.362 32.6007 184.133 32.778 183.946 33.002C183.76 33.2167 183.615 33.4687 183.512 33.758C183.419 34.0473 183.372 34.3507 183.372 34.668C183.372 34.9853 183.419 35.2887 183.512 35.578C183.615 35.8673 183.76 36.124 183.946 36.348C184.133 36.572 184.362 36.7493 184.632 36.88C184.912 37.0107 185.23 37.076 185.584 37.076C185.939 37.076 186.252 37.0107 186.522 36.88C186.802 36.7493 187.036 36.572 187.222 36.348C187.409 36.124 187.549 35.8673 187.642 35.578C187.745 35.2887 187.796 34.9853 187.796 34.668ZM195.641 33.044C195.501 32.8293 195.291 32.652 195.011 32.512C194.731 32.3627 194.433 32.288 194.115 32.288C193.77 32.288 193.462 32.3533 193.191 32.484C192.93 32.6147 192.706 32.792 192.519 33.016C192.333 33.2307 192.188 33.4827 192.085 33.772C191.992 34.0613 191.945 34.3647 191.945 34.682C191.945 34.9993 191.992 35.3027 192.085 35.592C192.188 35.8813 192.333 36.138 192.519 36.362C192.706 36.5767 192.935 36.7493 193.205 36.88C193.476 37.0107 193.784 37.076 194.129 37.076C194.465 37.076 194.769 37.0107 195.039 36.88C195.319 36.7493 195.548 36.572 195.725 36.348L196.607 37.146C196.327 37.4727 195.977 37.7293 195.557 37.916C195.137 38.0933 194.661 38.182 194.129 38.182C193.616 38.182 193.14 38.098 192.701 37.93C192.272 37.762 191.899 37.5287 191.581 37.23C191.264 36.922 191.012 36.5533 190.825 36.124C190.648 35.6947 190.559 35.214 190.559 34.682C190.559 34.1593 190.648 33.6833 190.825 33.254C191.003 32.8247 191.25 32.456 191.567 32.148C191.885 31.84 192.258 31.602 192.687 31.434C193.126 31.266 193.597 31.182 194.101 31.182C194.568 31.182 195.03 31.2753 195.487 31.462C195.954 31.6487 196.323 31.9193 196.593 32.274L195.641 33.044ZM199.283 32.372C199.442 32.0453 199.713 31.7653 200.095 31.532C200.478 31.2987 200.907 31.182 201.383 31.182C201.813 31.182 202.181 31.2567 202.489 31.406C202.797 31.546 203.054 31.7373 203.259 31.98C203.465 32.2227 203.614 32.5073 203.707 32.834C203.81 33.1607 203.861 33.5107 203.861 33.884V38H202.545V34.332C202.545 34.0613 202.522 33.8047 202.475 33.562C202.438 33.3193 202.363 33.1047 202.251 32.918C202.139 32.7313 201.985 32.582 201.789 32.47C201.603 32.358 201.355 32.302 201.047 32.302C200.525 32.302 200.095 32.5027 199.759 32.904C199.423 33.296 199.255 33.8233 199.255 34.486V38H197.939V27.416H199.255V32.372H199.283ZM214.445 34.094C214.436 33.8327 214.389 33.59 214.305 33.366C214.23 33.1327 214.114 32.932 213.955 32.764C213.806 32.596 213.614 32.4653 213.381 32.372C213.157 32.2693 212.891 32.218 212.583 32.218C212.303 32.218 212.037 32.2693 211.785 32.372C211.542 32.4653 211.328 32.596 211.141 32.764C210.964 32.932 210.814 33.1327 210.693 33.366C210.581 33.59 210.516 33.8327 210.497 34.094H214.445ZM215.775 34.626C215.775 34.7007 215.775 34.7753 215.775 34.85C215.775 34.9247 215.77 34.9993 215.761 35.074H210.497C210.506 35.354 210.567 35.62 210.679 35.872C210.8 36.1147 210.959 36.3293 211.155 36.516C211.351 36.6933 211.575 36.8333 211.827 36.936C212.088 37.0387 212.364 37.09 212.653 37.09C213.101 37.09 213.488 36.992 213.815 36.796C214.142 36.6 214.398 36.362 214.585 36.082L215.509 36.824C215.154 37.2907 214.734 37.636 214.249 37.86C213.773 38.0747 213.241 38.182 212.653 38.182C212.149 38.182 211.682 38.098 211.253 37.93C210.824 37.762 210.455 37.5287 210.147 37.23C209.839 36.922 209.596 36.5533 209.419 36.124C209.242 35.6947 209.153 35.2187 209.153 34.696C209.153 34.1827 209.237 33.7113 209.405 33.282C209.582 32.8433 209.825 32.47 210.133 32.162C210.441 31.854 210.805 31.616 211.225 31.448C211.645 31.2707 212.098 31.182 212.583 31.182C213.068 31.182 213.507 31.2613 213.899 31.42C214.3 31.5787 214.636 31.8073 214.907 32.106C215.187 32.4047 215.402 32.7687 215.551 33.198C215.7 33.618 215.775 34.094 215.775 34.626ZM219.1 34.514L216.678 31.364H218.302L219.926 33.646L221.564 31.364H223.104L220.71 34.5L223.384 38H221.746L219.898 35.41L218.022 38H216.44L219.1 34.514ZM229.347 34.094C229.338 33.8327 229.291 33.59 229.207 33.366C229.133 33.1327 229.016 32.932 228.857 32.764C228.708 32.596 228.517 32.4653 228.283 32.372C228.059 32.2693 227.793 32.218 227.485 32.218C227.205 32.218 226.939 32.2693 226.687 32.372C226.445 32.4653 226.23 32.596 226.043 32.764C225.866 32.932 225.717 33.1327 225.595 33.366C225.483 33.59 225.418 33.8327 225.399 34.094H229.347ZM230.677 34.626C230.677 34.7007 230.677 34.7753 230.677 34.85C230.677 34.9247 230.673 34.9993 230.663 35.074H225.399C225.409 35.354 225.469 35.62 225.581 35.872C225.703 36.1147 225.861 36.3293 226.057 36.516C226.253 36.6933 226.477 36.8333 226.729 36.936C226.991 37.0387 227.266 37.09 227.555 37.09C228.003 37.09 228.391 36.992 228.717 36.796C229.044 36.6 229.301 36.362 229.487 36.082L230.411 36.824C230.057 37.2907 229.637 37.636 229.151 37.86C228.675 38.0747 228.143 38.182 227.555 38.182C227.051 38.182 226.585 38.098 226.155 37.93C225.726 37.762 225.357 37.5287 225.049 37.23C224.741 36.922 224.499 36.5533 224.321 36.124C224.144 35.6947 224.055 35.2187 224.055 34.696C224.055 34.1827 224.139 33.7113 224.307 33.282C224.485 32.8433 224.727 32.47 225.035 32.162C225.343 31.854 225.707 31.616 226.127 31.448C226.547 31.2707 227 31.182 227.485 31.182C227.971 31.182 228.409 31.2613 228.801 31.42C229.203 31.5787 229.539 31.8073 229.809 32.106C230.089 32.4047 230.304 32.7687 230.453 33.198C230.603 33.618 230.677 34.094 230.677 34.626ZM237.163 33.044C237.023 32.8293 236.813 32.652 236.533 32.512C236.253 32.3627 235.954 32.288 235.637 32.288C235.292 32.288 234.984 32.3533 234.713 32.484C234.452 32.6147 234.228 32.792 234.041 33.016C233.854 33.2307 233.71 33.4827 233.607 33.772C233.514 34.0613 233.467 34.3647 233.467 34.682C233.467 34.9993 233.514 35.3027 233.607 35.592C233.71 35.8813 233.854 36.138 234.041 36.362C234.228 36.5767 234.456 36.7493 234.727 36.88C234.998 37.0107 235.306 37.076 235.651 37.076C235.987 37.076 236.29 37.0107 236.561 36.88C236.841 36.7493 237.07 36.572 237.247 36.348L238.129 37.146C237.849 37.4727 237.499 37.7293 237.079 37.916C236.659 38.0933 236.183 38.182 235.651 38.182C235.138 38.182 234.662 38.098 234.223 37.93C233.794 37.762 233.42 37.5287 233.103 37.23C232.786 36.922 232.534 36.5533 232.347 36.124C232.17 35.6947 232.081 35.214 232.081 34.682C232.081 34.1593 232.17 33.6833 232.347 33.254C232.524 32.8247 232.772 32.456 233.089 32.148C233.406 31.84 233.78 31.602 234.209 31.434C234.648 31.266 235.119 31.182 235.623 31.182C236.09 31.182 236.552 31.2753 237.009 31.462C237.476 31.6487 237.844 31.9193 238.115 32.274L237.163 33.044ZM244.109 38C244.09 37.832 244.076 37.6453 244.067 37.44C244.057 37.2253 244.053 37.048 244.053 36.908H244.025C243.857 37.2627 243.572 37.566 243.171 37.818C242.779 38.0607 242.34 38.182 241.855 38.182C241.425 38.182 241.052 38.112 240.735 37.972C240.427 37.832 240.17 37.6407 239.965 37.398C239.769 37.146 239.619 36.8567 239.517 36.53C239.423 36.2033 239.377 35.8533 239.377 35.48V31.364H240.693V35.032C240.693 35.3027 240.711 35.564 240.749 35.816C240.795 36.0587 240.875 36.2733 240.987 36.46C241.099 36.6467 241.253 36.796 241.449 36.908C241.645 37.02 241.897 37.076 242.205 37.076C242.737 37.076 243.166 36.88 243.493 36.488C243.819 36.0867 243.983 35.5547 243.983 34.892V31.364H245.299V36.572C245.299 36.7493 245.303 36.978 245.313 37.258C245.322 37.538 245.336 37.7853 245.355 38H244.109ZM250.829 32.442H249.065V35.9C249.065 36.3013 249.14 36.5907 249.289 36.768C249.439 36.936 249.677 37.02 250.003 37.02C250.125 37.02 250.255 37.006 250.395 36.978C250.535 36.95 250.661 36.908 250.773 36.852L250.815 37.93C250.657 37.986 250.479 38.028 250.283 38.056C250.097 38.0933 249.901 38.112 249.695 38.112C249.07 38.112 248.589 37.9393 248.253 37.594C247.927 37.2487 247.763 36.7307 247.763 36.04V32.442H246.489V31.364H247.763V29.46H249.065V31.364H250.829V32.442ZM257.047 34.094C257.037 33.8327 256.991 33.59 256.907 33.366C256.832 33.1327 256.715 32.932 256.557 32.764C256.407 32.596 256.216 32.4653 255.983 32.372C255.759 32.2693 255.493 32.218 255.185 32.218C254.905 32.218 254.639 32.2693 254.387 32.372C254.144 32.4653 253.929 32.596 253.743 32.764C253.565 32.932 253.416 33.1327 253.295 33.366C253.183 33.59 253.117 33.8327 253.099 34.094H257.047ZM258.377 34.626C258.377 34.7007 258.377 34.7753 258.377 34.85C258.377 34.9247 258.372 34.9993 258.363 35.074H253.099C253.108 35.354 253.169 35.62 253.281 35.872C253.402 36.1147 253.561 36.3293 253.757 36.516C253.953 36.6933 254.177 36.8333 254.429 36.936C254.69 37.0387 254.965 37.09 255.255 37.09C255.703 37.09 256.09 36.992 256.417 36.796C256.743 36.6 257 36.362 257.187 36.082L258.111 36.824C257.756 37.2907 257.336 37.636 256.851 37.86C256.375 38.0747 255.843 38.182 255.255 38.182C254.751 38.182 254.284 38.098 253.855 37.93C253.425 37.762 253.057 37.5287 252.749 37.23C252.441 36.922 252.198 36.5533 252.021 36.124C251.843 35.6947 251.755 35.2187 251.755 34.696C251.755 34.1827 251.839 33.7113 252.007 33.282C252.184 32.8433 252.427 32.47 252.735 32.162C253.043 31.854 253.407 31.616 253.827 31.448C254.247 31.2707 254.699 31.182 255.185 31.182C255.67 31.182 256.109 31.2613 256.501 31.42C256.902 31.5787 257.238 31.8073 257.509 32.106C257.789 32.4047 258.003 32.7687 258.153 33.198C258.302 33.618 258.377 34.094 258.377 34.626ZM265.506 36.95C265.254 37.3513 264.909 37.6593 264.47 37.874C264.041 38.0793 263.588 38.182 263.112 38.182C262.599 38.182 262.137 38.0933 261.726 37.916C261.315 37.7293 260.965 37.4773 260.676 37.16C260.387 36.8427 260.163 36.4693 260.004 36.04C259.845 35.6107 259.766 35.1533 259.766 34.668C259.766 34.1827 259.845 33.73 260.004 33.31C260.163 32.8807 260.387 32.5073 260.676 32.19C260.975 31.8727 261.329 31.6253 261.74 31.448C262.151 31.2707 262.603 31.182 263.098 31.182C263.639 31.182 264.111 31.2987 264.512 31.532C264.913 31.756 265.231 32.0313 265.464 32.358H265.492V27.416H266.808V38H265.534V36.95H265.506ZM261.138 34.668C261.138 34.976 261.185 35.2747 261.278 35.564C261.371 35.8533 261.511 36.11 261.698 36.334C261.885 36.558 262.113 36.74 262.384 36.88C262.655 37.0107 262.972 37.076 263.336 37.076C263.672 37.076 263.975 37.0107 264.246 36.88C264.526 36.7493 264.764 36.5767 264.96 36.362C265.156 36.138 265.305 35.8813 265.408 35.592C265.52 35.3027 265.576 34.9993 265.576 34.682C265.576 34.3647 265.52 34.0613 265.408 33.772C265.305 33.4827 265.156 33.226 264.96 33.002C264.764 32.778 264.526 32.6007 264.246 32.47C263.975 32.3393 263.672 32.274 263.336 32.274C262.972 32.274 262.655 32.3393 262.384 32.47C262.113 32.6007 261.885 32.778 261.698 33.002C261.511 33.226 261.371 33.4827 261.278 33.772C261.185 34.0613 261.138 34.36 261.138 34.668Z" fill="black"/>
<path d="M352.001 70.6667C355.683 70.6667 358.667 67.6819 358.667 64C358.667 60.3181 355.683 57.3334 352.001 57.3334C348.319 57.3334 345.334 60.3181 345.334 64C345.334 67.6819 348.319 70.6667 352.001 70.6667Z" stroke="#BBBBBB" stroke-width="2" stroke-linecap="round" stroke-linejoin="round"/>
<rect x="86" y="63" width="100" height="2" rx="1" fill="black"/>
<rect x="233" y="63" width="100" height="2" rx="1" fill="#BBBBBB"/>
<path d="M68.6673 63.3866V64C68.6665 65.4376 68.201 66.8364 67.3402 67.9878C66.4794 69.1392 65.2695 69.9816 63.8909 70.3892C62.5122 70.7968 61.0388 70.7479 59.6903 70.2496C58.3418 69.7514 57.1904 68.8307 56.408 67.6246C55.6255 66.4186 55.2538 64.992 55.3484 63.5575C55.443 62.123 55.9988 60.7575 56.9328 59.6647C57.8669 58.5718 59.1292 57.8102 60.5314 57.4934C61.9337 57.1766 63.4008 57.3215 64.714 57.9066" stroke="black" stroke-width="2" stroke-linecap="round" stroke-linejoin="round"/>
<path d="M68.6667 58.6666L62 65.34L60 63.34" stroke="black" stroke-width="2" stroke-linecap="round" stroke-linejoin="round"/>
<path d="M211.001 69.6667C214.683 69.6667 217.667 66.6819 217.667 63C217.667 59.3181 214.683 56.3334 211.001 56.3334C207.319 56.3334 204.334 59.3181 204.334 63C204.334 66.6819 207.319 69.6667 211.001 69.6667Z" stroke="black" stroke-width="2" stroke-linecap="round" stroke-linejoin="round"/>
</svg>
