<svg width="412" height="72" viewBox="0 0 412 72" fill="none" xmlns="http://www.w3.org/2000/svg">
<path d="M38.8429 36.768H43.2669V38H37.4569V28.088H38.8429V36.768ZM51.0112 34.668C51.0112 35.1813 50.9179 35.6527 50.7312 36.082C50.5539 36.5113 50.3019 36.8847 49.9752 37.202C49.6579 37.51 49.2799 37.7527 48.8412 37.93C48.4026 38.098 47.9312 38.182 47.4272 38.182C46.9232 38.182 46.4519 38.098 46.0132 37.93C45.5746 37.7527 45.1966 37.51 44.8792 37.202C44.5619 36.8847 44.3099 36.5113 44.1232 36.082C43.9459 35.6527 43.8572 35.1813 43.8572 34.668C43.8572 34.1547 43.9459 33.688 44.1232 33.268C44.3099 32.8387 44.5619 32.47 44.8792 32.162C45.1966 31.854 45.5746 31.616 46.0132 31.448C46.4519 31.2707 46.9232 31.182 47.4272 31.182C47.9312 31.182 48.4026 31.2707 48.8412 31.448C49.2799 31.616 49.6579 31.854 49.9752 32.162C50.3019 32.47 50.5539 32.8387 50.7312 33.268C50.9179 33.688 51.0112 34.1547 51.0112 34.668ZM49.6392 34.668C49.6392 34.3507 49.5879 34.0473 49.4852 33.758C49.3919 33.4687 49.2519 33.2167 49.0652 33.002C48.8786 32.778 48.6452 32.6007 48.3652 32.47C48.0946 32.3393 47.7819 32.274 47.4272 32.274C47.0726 32.274 46.7552 32.3393 46.4752 32.47C46.2046 32.6007 45.9759 32.778 45.7892 33.002C45.6026 33.2167 45.4579 33.4687 45.3552 33.758C45.2619 34.0473 45.2152 34.3507 45.2152 34.668C45.2152 34.9853 45.2619 35.2887 45.3552 35.578C45.4579 35.8673 45.6026 36.124 45.7892 36.348C45.9759 36.572 46.2046 36.7493 46.4752 36.88C46.7552 37.0107 47.0726 37.076 47.4272 37.076C47.7819 37.076 48.0946 37.0107 48.3652 36.88C48.6452 36.7493 48.8786 36.572 49.0652 36.348C49.2519 36.124 49.3919 35.8673 49.4852 35.578C49.5879 35.2887 49.6392 34.9853 49.6392 34.668ZM57.4841 33.044C57.3441 32.8293 57.1341 32.652 56.8541 32.512C56.5741 32.3627 56.2755 32.288 55.9581 32.288C55.6128 32.288 55.3048 32.3533 55.0341 32.484C54.7728 32.6147 54.5488 32.792 54.3621 33.016C54.1755 33.2307 54.0308 33.4827 53.9281 33.772C53.8348 34.0613 53.7881 34.3647 53.7881 34.682C53.7881 34.9993 53.8348 35.3027 53.9281 35.592C54.0308 35.8813 54.1755 36.138 54.3621 36.362C54.5488 36.5767 54.7775 36.7493 55.0481 36.88C55.3188 37.0107 55.6268 37.076 55.9721 37.076C56.3081 37.076 56.6115 37.0107 56.8821 36.88C57.1621 36.7493 57.3908 36.572 57.5681 36.348L58.4501 37.146C58.1701 37.4727 57.8201 37.7293 57.4001 37.916C56.9801 38.0933 56.5041 38.182 55.9721 38.182C55.4588 38.182 54.9828 38.098 54.5441 37.93C54.1148 37.762 53.7415 37.5287 53.4241 37.23C53.1068 36.922 52.8548 36.5533 52.6681 36.124C52.4908 35.6947 52.4021 35.214 52.4021 34.682C52.4021 34.1593 52.4908 33.6833 52.6681 33.254C52.8455 32.8247 53.0928 32.456 53.4101 32.148C53.7275 31.84 54.1008 31.602 54.5301 31.434C54.9688 31.266 55.4401 31.182 55.9441 31.182C56.4108 31.182 56.8728 31.2753 57.3301 31.462C57.7968 31.6487 58.1655 31.9193 58.4361 32.274L57.4841 33.044ZM61.0981 34.248H61.1401L63.9261 31.364H65.6901L62.5821 34.374L65.9561 38H64.1361L61.1401 34.556H61.0981V38H59.7821V27.416H61.0981V34.248ZM73.8371 38H72.4511V29.306H69.2731V28.088H77.0151V29.306H73.8371V38ZM79.7218 38H78.3358V28.088H79.7218V38ZM89.1226 36.012H89.1506V28.088H90.5366V38H88.7866L83.5506 29.908H83.5226V38H82.1366V28.088H83.9426L89.1226 36.012Z" fill="black"/>
<path d="M321.362 36.46C320.97 36.992 320.461 37.426 319.836 37.762C319.211 38.0887 318.459 38.252 317.582 38.252C316.826 38.252 316.126 38.126 315.482 37.874C314.847 37.6127 314.297 37.2533 313.83 36.796C313.373 36.3293 313.013 35.7787 312.752 35.144C312.491 34.5 312.36 33.7953 312.36 33.03C312.36 32.2553 312.491 31.5507 312.752 30.916C313.023 30.272 313.391 29.726 313.858 29.278C314.334 28.8207 314.894 28.466 315.538 28.214C316.182 27.962 316.882 27.836 317.638 27.836C317.974 27.836 318.315 27.8687 318.66 27.934C319.005 27.9993 319.337 28.0973 319.654 28.228C319.971 28.3587 320.261 28.522 320.522 28.718C320.783 28.9047 321.007 29.124 321.194 29.376L320.102 30.216C319.859 29.88 319.514 29.6047 319.066 29.39C318.627 29.166 318.151 29.054 317.638 29.054C317.059 29.054 316.537 29.1613 316.07 29.376C315.613 29.5813 315.221 29.866 314.894 30.23C314.567 30.594 314.315 31.0187 314.138 31.504C313.961 31.98 313.872 32.4887 313.872 33.03C313.872 33.59 313.956 34.1127 314.124 34.598C314.301 35.0833 314.549 35.508 314.866 35.872C315.193 36.2267 315.585 36.5067 316.042 36.712C316.509 36.9173 317.027 37.02 317.596 37.02C318.156 37.02 318.665 36.908 319.122 36.684C319.579 36.46 319.957 36.1333 320.256 35.704L321.362 36.46ZM329.262 34.668C329.262 35.1813 329.169 35.6527 328.982 36.082C328.805 36.5113 328.553 36.8847 328.226 37.202C327.909 37.51 327.531 37.7527 327.092 37.93C326.654 38.098 326.182 38.182 325.678 38.182C325.174 38.182 324.703 38.098 324.264 37.93C323.826 37.7527 323.448 37.51 323.13 37.202C322.813 36.8847 322.561 36.5113 322.374 36.082C322.197 35.6527 322.108 35.1813 322.108 34.668C322.108 34.1547 322.197 33.688 322.374 33.268C322.561 32.8387 322.813 32.47 323.13 32.162C323.448 31.854 323.826 31.616 324.264 31.448C324.703 31.2707 325.174 31.182 325.678 31.182C326.182 31.182 326.654 31.2707 327.092 31.448C327.531 31.616 327.909 31.854 328.226 32.162C328.553 32.47 328.805 32.8387 328.982 33.268C329.169 33.688 329.262 34.1547 329.262 34.668ZM327.89 34.668C327.89 34.3507 327.839 34.0473 327.736 33.758C327.643 33.4687 327.503 33.2167 327.316 33.002C327.13 32.778 326.896 32.6007 326.616 32.47C326.346 32.3393 326.033 32.274 325.678 32.274C325.324 32.274 325.006 32.3393 324.726 32.47C324.456 32.6007 324.227 32.778 324.04 33.002C323.854 33.2167 323.709 33.4687 323.606 33.758C323.513 34.0473 323.466 34.3507 323.466 34.668C323.466 34.9853 323.513 35.2887 323.606 35.578C323.709 35.8673 323.854 36.124 324.04 36.348C324.227 36.572 324.456 36.7493 324.726 36.88C325.006 37.0107 325.324 37.076 325.678 37.076C326.033 37.076 326.346 37.0107 326.616 36.88C326.896 36.7493 327.13 36.572 327.316 36.348C327.503 36.124 327.643 35.8673 327.736 35.578C327.839 35.2887 327.89 34.9853 327.89 34.668ZM332.431 38H331.115V27.416H332.431V38ZM336.068 38H334.752V27.416H336.068V38ZM343.219 34.094C343.209 33.8327 343.163 33.59 343.079 33.366C343.004 33.1327 342.887 32.932 342.729 32.764C342.579 32.596 342.388 32.4653 342.155 32.372C341.931 32.2693 341.665 32.218 341.357 32.218C341.077 32.218 340.811 32.2693 340.559 32.372C340.316 32.4653 340.101 32.596 339.915 32.764C339.737 32.932 339.588 33.1327 339.467 33.366C339.355 33.59 339.289 33.8327 339.271 34.094H343.219ZM344.549 34.626C344.549 34.7007 344.549 34.7753 344.549 34.85C344.549 34.9247 344.544 34.9993 344.535 35.074H339.271C339.28 35.354 339.341 35.62 339.453 35.872C339.574 36.1147 339.733 36.3293 339.929 36.516C340.125 36.6933 340.349 36.8333 340.601 36.936C340.862 37.0387 341.137 37.09 341.427 37.09C341.875 37.09 342.262 36.992 342.589 36.796C342.915 36.6 343.172 36.362 343.359 36.082L344.283 36.824C343.928 37.2907 343.508 37.636 343.023 37.86C342.547 38.0747 342.015 38.182 341.427 38.182C340.923 38.182 340.456 38.098 340.027 37.93C339.597 37.762 339.229 37.5287 338.921 37.23C338.613 36.922 338.37 36.5533 338.193 36.124C338.015 35.6947 337.927 35.2187 337.927 34.696C337.927 34.1827 338.011 33.7113 338.179 33.282C338.356 32.8433 338.599 32.47 338.907 32.162C339.215 31.854 339.579 31.616 339.999 31.448C340.419 31.2707 340.871 31.182 341.357 31.182C341.842 31.182 342.281 31.2613 342.673 31.42C343.074 31.5787 343.41 31.8073 343.681 32.106C343.961 32.4047 344.175 32.7687 344.325 33.198C344.474 33.618 344.549 34.094 344.549 34.626ZM351.034 33.044C350.894 32.8293 350.684 32.652 350.404 32.512C350.124 32.3627 349.825 32.288 349.508 32.288C349.163 32.288 348.855 32.3533 348.584 32.484C348.323 32.6147 348.099 32.792 347.912 33.016C347.725 33.2307 347.581 33.4827 347.478 33.772C347.385 34.0613 347.338 34.3647 347.338 34.682C347.338 34.9993 347.385 35.3027 347.478 35.592C347.581 35.8813 347.725 36.138 347.912 36.362C348.099 36.5767 348.327 36.7493 348.598 36.88C348.869 37.0107 349.177 37.076 349.522 37.076C349.858 37.076 350.161 37.0107 350.432 36.88C350.712 36.7493 350.941 36.572 351.118 36.348L352 37.146C351.72 37.4727 351.37 37.7293 350.95 37.916C350.53 38.0933 350.054 38.182 349.522 38.182C349.009 38.182 348.533 38.098 348.094 37.93C347.665 37.762 347.291 37.5287 346.974 37.23C346.657 36.922 346.405 36.5533 346.218 36.124C346.041 35.6947 345.952 35.214 345.952 34.682C345.952 34.1593 346.041 33.6833 346.218 33.254C346.395 32.8247 346.643 32.456 346.96 32.148C347.277 31.84 347.651 31.602 348.08 31.434C348.519 31.266 348.99 31.182 349.494 31.182C349.961 31.182 350.423 31.2753 350.88 31.462C351.347 31.6487 351.715 31.9193 351.986 32.274L351.034 33.044ZM356.552 32.442H354.788V35.9C354.788 36.3013 354.863 36.5907 355.012 36.768C355.161 36.936 355.399 37.02 355.726 37.02C355.847 37.02 355.978 37.006 356.118 36.978C356.258 36.95 356.384 36.908 356.496 36.852L356.538 37.93C356.379 37.986 356.202 38.028 356.006 38.056C355.819 38.0933 355.623 38.112 355.418 38.112C354.793 38.112 354.312 37.9393 353.976 37.594C353.649 37.2487 353.486 36.7307 353.486 36.04V32.442H352.212V31.364H353.486V29.46H354.788V31.364H356.552V32.442ZM361.481 28.088H364.883C365.518 28.088 366.153 28.1813 366.787 28.368C367.422 28.5547 367.996 28.8487 368.509 29.25C369.023 29.6513 369.438 30.1647 369.755 30.79C370.073 31.4153 370.231 32.1667 370.231 33.044C370.231 33.8933 370.073 34.6307 369.755 35.256C369.438 35.872 369.023 36.3853 368.509 36.796C367.996 37.1973 367.422 37.5007 366.787 37.706C366.153 37.902 365.518 38 364.883 38H361.481V28.088ZM362.867 36.782H364.603C365.201 36.782 365.751 36.698 366.255 36.53C366.769 36.362 367.207 36.1193 367.571 35.802C367.945 35.4847 368.234 35.0927 368.439 34.626C368.645 34.1593 368.747 33.632 368.747 33.044C368.747 32.428 368.645 31.8867 368.439 31.42C368.234 30.9533 367.945 30.566 367.571 30.258C367.207 29.9407 366.769 29.7027 366.255 29.544C365.751 29.376 365.201 29.292 364.603 29.292H362.867V36.782ZM372.196 38H370.656L374.954 28.088H376.214L380.47 38H378.902L377.894 35.564H373.19L372.196 38ZM373.68 34.346H377.39L375.542 29.698L373.68 34.346ZM383.129 38H381.743V28.088H383.129V38Z" fill="#BBBBBB"/>
<path d="M166.623 36.768H171.803V38H165.237V28.088H171.593V29.306H166.623V32.274H171.299V33.464H166.623V36.768ZM174.891 41.36H173.575V31.364H174.863V32.4H174.905C175.12 32.0453 175.433 31.756 175.843 31.532C176.263 31.2987 176.749 31.182 177.299 31.182C177.794 31.182 178.242 31.2707 178.643 31.448C179.054 31.6253 179.404 31.8727 179.693 32.19C179.992 32.5073 180.221 32.8807 180.379 33.31C180.538 33.73 180.617 34.1827 180.617 34.668C180.617 35.1533 180.538 35.6107 180.379 36.04C180.221 36.4693 179.997 36.8427 179.707 37.16C179.418 37.4773 179.068 37.7293 178.657 37.916C178.247 38.0933 177.785 38.182 177.271 38.182C176.795 38.182 176.347 38.0793 175.927 37.874C175.507 37.6687 175.176 37.3793 174.933 37.006H174.891V41.36ZM179.259 34.668C179.259 34.36 179.213 34.0613 179.119 33.772C179.026 33.4827 178.886 33.226 178.699 33.002C178.513 32.778 178.279 32.6007 177.999 32.47C177.729 32.3393 177.411 32.274 177.047 32.274C176.711 32.274 176.403 32.3393 176.123 32.47C175.853 32.6007 175.619 32.778 175.423 33.002C175.227 33.226 175.073 33.4827 174.961 33.772C174.859 34.0613 174.807 34.3647 174.807 34.682C174.807 34.9993 174.859 35.3027 174.961 35.592C175.073 35.8813 175.227 36.138 175.423 36.362C175.619 36.5767 175.853 36.7493 176.123 36.88C176.403 37.0107 176.711 37.076 177.047 37.076C177.411 37.076 177.729 37.0107 177.999 36.88C178.279 36.74 178.513 36.558 178.699 36.334C178.886 36.11 179.026 35.8533 179.119 35.564C179.213 35.2747 179.259 34.976 179.259 34.668ZM189.168 34.668C189.168 35.1813 189.075 35.6527 188.888 36.082C188.711 36.5113 188.459 36.8847 188.132 37.202C187.815 37.51 187.437 37.7527 186.998 37.93C186.56 38.098 186.088 38.182 185.584 38.182C185.08 38.182 184.609 38.098 184.17 37.93C183.732 37.7527 183.354 37.51 183.036 37.202C182.719 36.8847 182.467 36.5113 182.28 36.082C182.103 35.6527 182.014 35.1813 182.014 34.668C182.014 34.1547 182.103 33.688 182.28 33.268C182.467 32.8387 182.719 32.47 183.036 32.162C183.354 31.854 183.732 31.616 184.17 31.448C184.609 31.2707 185.08 31.182 185.584 31.182C186.088 31.182 186.56 31.2707 186.998 31.448C187.437 31.616 187.815 31.854 188.132 32.162C188.459 32.47 188.711 32.8387 188.888 33.268C189.075 33.688 189.168 34.1547 189.168 34.668ZM187.796 34.668C187.796 34.3507 187.745 34.0473 187.642 33.758C187.549 33.4687 187.409 33.2167 187.222 33.002C187.036 32.778 186.802 32.6007 186.522 32.47C186.252 32.3393 185.939 32.274 185.584 32.274C185.23 32.274 184.912 32.3393 184.632 32.47C184.362 32.6007 184.133 32.778 183.946 33.002C183.76 33.2167 183.615 33.4687 183.512 33.758C183.419 34.0473 183.372 34.3507 183.372 34.668C183.372 34.9853 183.419 35.2887 183.512 35.578C183.615 35.8673 183.76 36.124 183.946 36.348C184.133 36.572 184.362 36.7493 184.632 36.88C184.912 37.0107 185.23 37.076 185.584 37.076C185.939 37.076 186.252 37.0107 186.522 36.88C186.802 36.7493 187.036 36.572 187.222 36.348C187.409 36.124 187.549 35.8673 187.642 35.578C187.745 35.2887 187.796 34.9853 187.796 34.668ZM195.641 33.044C195.501 32.8293 195.291 32.652 195.011 32.512C194.731 32.3627 194.433 32.288 194.115 32.288C193.77 32.288 193.462 32.3533 193.191 32.484C192.93 32.6147 192.706 32.792 192.519 33.016C192.333 33.2307 192.188 33.4827 192.085 33.772C191.992 34.0613 191.945 34.3647 191.945 34.682C191.945 34.9993 191.992 35.3027 192.085 35.592C192.188 35.8813 192.333 36.138 192.519 36.362C192.706 36.5767 192.935 36.7493 193.205 36.88C193.476 37.0107 193.784 37.076 194.129 37.076C194.465 37.076 194.769 37.0107 195.039 36.88C195.319 36.7493 195.548 36.572 195.725 36.348L196.607 37.146C196.327 37.4727 195.977 37.7293 195.557 37.916C195.137 38.0933 194.661 38.182 194.129 38.182C193.616 38.182 193.14 38.098 192.701 37.93C192.272 37.762 191.899 37.5287 191.581 37.23C191.264 36.922 191.012 36.5533 190.825 36.124C190.648 35.6947 190.559 35.214 190.559 34.682C190.559 34.1593 190.648 33.6833 190.825 33.254C191.003 32.8247 191.25 32.456 191.567 32.148C191.885 31.84 192.258 31.602 192.687 31.434C193.126 31.266 193.597 31.182 194.101 31.182C194.568 31.182 195.03 31.2753 195.487 31.462C195.954 31.6487 196.323 31.9193 196.593 32.274L195.641 33.044ZM199.283 32.372C199.442 32.0453 199.713 31.7653 200.095 31.532C200.478 31.2987 200.907 31.182 201.383 31.182C201.813 31.182 202.181 31.2567 202.489 31.406C202.797 31.546 203.054 31.7373 203.259 31.98C203.465 32.2227 203.614 32.5073 203.707 32.834C203.81 33.1607 203.861 33.5107 203.861 33.884V38H202.545V34.332C202.545 34.0613 202.522 33.8047 202.475 33.562C202.438 33.3193 202.363 33.1047 202.251 32.918C202.139 32.7313 201.985 32.582 201.789 32.47C201.603 32.358 201.355 32.302 201.047 32.302C200.525 32.302 200.095 32.5027 199.759 32.904C199.423 33.296 199.255 33.8233 199.255 34.486V38H197.939V27.416H199.255V32.372H199.283ZM214.445 34.094C214.436 33.8327 214.389 33.59 214.305 33.366C214.23 33.1327 214.114 32.932 213.955 32.764C213.806 32.596 213.614 32.4653 213.381 32.372C213.157 32.2693 212.891 32.218 212.583 32.218C212.303 32.218 212.037 32.2693 211.785 32.372C211.542 32.4653 211.328 32.596 211.141 32.764C210.964 32.932 210.814 33.1327 210.693 33.366C210.581 33.59 210.516 33.8327 210.497 34.094H214.445ZM215.775 34.626C215.775 34.7007 215.775 34.7753 215.775 34.85C215.775 34.9247 215.77 34.9993 215.761 35.074H210.497C210.506 35.354 210.567 35.62 210.679 35.872C210.8 36.1147 210.959 36.3293 211.155 36.516C211.351 36.6933 211.575 36.8333 211.827 36.936C212.088 37.0387 212.364 37.09 212.653 37.09C213.101 37.09 213.488 36.992 213.815 36.796C214.142 36.6 214.398 36.362 214.585 36.082L215.509 36.824C215.154 37.2907 214.734 37.636 214.249 37.86C213.773 38.0747 213.241 38.182 212.653 38.182C212.149 38.182 211.682 38.098 211.253 37.93C210.824 37.762 210.455 37.5287 210.147 37.23C209.839 36.922 209.596 36.5533 209.419 36.124C209.242 35.6947 209.153 35.2187 209.153 34.696C209.153 34.1827 209.237 33.7113 209.405 33.282C209.582 32.8433 209.825 32.47 210.133 32.162C210.441 31.854 210.805 31.616 211.225 31.448C211.645 31.2707 212.098 31.182 212.583 31.182C213.068 31.182 213.507 31.2613 213.899 31.42C214.3 31.5787 214.636 31.8073 214.907 32.106C215.187 32.4047 215.402 32.7687 215.551 33.198C215.7 33.618 215.775 34.094 215.775 34.626ZM219.1 34.514L216.678 31.364H218.302L219.926 33.646L221.564 31.364H223.104L220.71 34.5L223.384 38H221.746L219.898 35.41L218.022 38H216.44L219.1 34.514ZM229.347 34.094C229.338 33.8327 229.291 33.59 229.207 33.366C229.133 33.1327 229.016 32.932 228.857 32.764C228.708 32.596 228.517 32.4653 228.283 32.372C228.059 32.2693 227.793 32.218 227.485 32.218C227.205 32.218 226.939 32.2693 226.687 32.372C226.445 32.4653 226.23 32.596 226.043 32.764C225.866 32.932 225.717 33.1327 225.595 33.366C225.483 33.59 225.418 33.8327 225.399 34.094H229.347ZM230.677 34.626C230.677 34.7007 230.677 34.7753 230.677 34.85C230.677 34.9247 230.673 34.9993 230.663 35.074H225.399C225.409 35.354 225.469 35.62 225.581 35.872C225.703 36.1147 225.861 36.3293 226.057 36.516C226.253 36.6933 226.477 36.8333 226.729 36.936C226.991 37.0387 227.266 37.09 227.555 37.09C228.003 37.09 228.391 36.992 228.717 36.796C229.044 36.6 229.301 36.362 229.487 36.082L230.411 36.824C230.057 37.2907 229.637 37.636 229.151 37.86C228.675 38.0747 228.143 38.182 227.555 38.182C227.051 38.182 226.585 38.098 226.155 37.93C225.726 37.762 225.357 37.5287 225.049 37.23C224.741 36.922 224.499 36.5533 224.321 36.124C224.144 35.6947 224.055 35.2187 224.055 34.696C224.055 34.1827 224.139 33.7113 224.307 33.282C224.485 32.8433 224.727 32.47 225.035 32.162C225.343 31.854 225.707 31.616 226.127 31.448C226.547 31.2707 227 31.182 227.485 31.182C227.971 31.182 228.409 31.2613 228.801 31.42C229.203 31.5787 229.539 31.8073 229.809 32.106C230.089 32.4047 230.304 32.7687 230.453 33.198C230.603 33.618 230.677 34.094 230.677 34.626ZM237.163 33.044C237.023 32.8293 236.813 32.652 236.533 32.512C236.253 32.3627 235.954 32.288 235.637 32.288C235.292 32.288 234.984 32.3533 234.713 32.484C234.452 32.6147 234.228 32.792 234.041 33.016C233.854 33.2307 233.71 33.4827 233.607 33.772C233.514 34.0613 233.467 34.3647 233.467 34.682C233.467 34.9993 233.514 35.3027 233.607 35.592C233.71 35.8813 233.854 36.138 234.041 36.362C234.228 36.5767 234.456 36.7493 234.727 36.88C234.998 37.0107 235.306 37.076 235.651 37.076C235.987 37.076 236.29 37.0107 236.561 36.88C236.841 36.7493 237.07 36.572 237.247 36.348L238.129 37.146C237.849 37.4727 237.499 37.7293 237.079 37.916C236.659 38.0933 236.183 38.182 235.651 38.182C235.138 38.182 234.662 38.098 234.223 37.93C233.794 37.762 233.42 37.5287 233.103 37.23C232.786 36.922 232.534 36.5533 232.347 36.124C232.17 35.6947 232.081 35.214 232.081 34.682C232.081 34.1593 232.17 33.6833 232.347 33.254C232.524 32.8247 232.772 32.456 233.089 32.148C233.406 31.84 233.78 31.602 234.209 31.434C234.648 31.266 235.119 31.182 235.623 31.182C236.09 31.182 236.552 31.2753 237.009 31.462C237.476 31.6487 237.844 31.9193 238.115 32.274L237.163 33.044ZM244.109 38C244.09 37.832 244.076 37.6453 244.067 37.44C244.057 37.2253 244.053 37.048 244.053 36.908H244.025C243.857 37.2627 243.572 37.566 243.171 37.818C242.779 38.0607 242.34 38.182 241.855 38.182C241.425 38.182 241.052 38.112 240.735 37.972C240.427 37.832 240.17 37.6407 239.965 37.398C239.769 37.146 239.619 36.8567 239.517 36.53C239.423 36.2033 239.377 35.8533 239.377 35.48V31.364H240.693V35.032C240.693 35.3027 240.711 35.564 240.749 35.816C240.795 36.0587 240.875 36.2733 240.987 36.46C241.099 36.6467 241.253 36.796 241.449 36.908C241.645 37.02 241.897 37.076 242.205 37.076C242.737 37.076 243.166 36.88 243.493 36.488C243.819 36.0867 243.983 35.5547 243.983 34.892V31.364H245.299V36.572C245.299 36.7493 245.303 36.978 245.313 37.258C245.322 37.538 245.336 37.7853 245.355 38H244.109ZM250.829 32.442H249.065V35.9C249.065 36.3013 249.14 36.5907 249.289 36.768C249.439 36.936 249.677 37.02 250.003 37.02C250.125 37.02 250.255 37.006 250.395 36.978C250.535 36.95 250.661 36.908 250.773 36.852L250.815 37.93C250.657 37.986 250.479 38.028 250.283 38.056C250.097 38.0933 249.901 38.112 249.695 38.112C249.07 38.112 248.589 37.9393 248.253 37.594C247.927 37.2487 247.763 36.7307 247.763 36.04V32.442H246.489V31.364H247.763V29.46H249.065V31.364H250.829V32.442ZM257.047 34.094C257.037 33.8327 256.991 33.59 256.907 33.366C256.832 33.1327 256.715 32.932 256.557 32.764C256.407 32.596 256.216 32.4653 255.983 32.372C255.759 32.2693 255.493 32.218 255.185 32.218C254.905 32.218 254.639 32.2693 254.387 32.372C254.144 32.4653 253.929 32.596 253.743 32.764C253.565 32.932 253.416 33.1327 253.295 33.366C253.183 33.59 253.117 33.8327 253.099 34.094H257.047ZM258.377 34.626C258.377 34.7007 258.377 34.7753 258.377 34.85C258.377 34.9247 258.372 34.9993 258.363 35.074H253.099C253.108 35.354 253.169 35.62 253.281 35.872C253.402 36.1147 253.561 36.3293 253.757 36.516C253.953 36.6933 254.177 36.8333 254.429 36.936C254.69 37.0387 254.965 37.09 255.255 37.09C255.703 37.09 256.09 36.992 256.417 36.796C256.743 36.6 257 36.362 257.187 36.082L258.111 36.824C257.756 37.2907 257.336 37.636 256.851 37.86C256.375 38.0747 255.843 38.182 255.255 38.182C254.751 38.182 254.284 38.098 253.855 37.93C253.425 37.762 253.057 37.5287 252.749 37.23C252.441 36.922 252.198 36.5533 252.021 36.124C251.843 35.6947 251.755 35.2187 251.755 34.696C251.755 34.1827 251.839 33.7113 252.007 33.282C252.184 32.8433 252.427 32.47 252.735 32.162C253.043 31.854 253.407 31.616 253.827 31.448C254.247 31.2707 254.699 31.182 255.185 31.182C255.67 31.182 256.109 31.2613 256.501 31.42C256.902 31.5787 257.238 31.8073 257.509 32.106C257.789 32.4047 258.003 32.7687 258.153 33.198C258.302 33.618 258.377 34.094 258.377 34.626ZM265.506 36.95C265.254 37.3513 264.909 37.6593 264.47 37.874C264.041 38.0793 263.588 38.182 263.112 38.182C262.599 38.182 262.137 38.0933 261.726 37.916C261.315 37.7293 260.965 37.4773 260.676 37.16C260.387 36.8427 260.163 36.4693 260.004 36.04C259.845 35.6107 259.766 35.1533 259.766 34.668C259.766 34.1827 259.845 33.73 260.004 33.31C260.163 32.8807 260.387 32.5073 260.676 32.19C260.975 31.8727 261.329 31.6253 261.74 31.448C262.151 31.2707 262.603 31.182 263.098 31.182C263.639 31.182 264.111 31.2987 264.512 31.532C264.913 31.756 265.231 32.0313 265.464 32.358H265.492V27.416H266.808V38H265.534V36.95H265.506ZM261.138 34.668C261.138 34.976 261.185 35.2747 261.278 35.564C261.371 35.8533 261.511 36.11 261.698 36.334C261.885 36.558 262.113 36.74 262.384 36.88C262.655 37.0107 262.972 37.076 263.336 37.076C263.672 37.076 263.975 37.0107 264.246 36.88C264.526 36.7493 264.764 36.5767 264.96 36.362C265.156 36.138 265.305 35.8813 265.408 35.592C265.52 35.3027 265.576 34.9993 265.576 34.682C265.576 34.3647 265.52 34.0613 265.408 33.772C265.305 33.4827 265.156 33.226 264.96 33.002C264.764 32.778 264.526 32.6007 264.246 32.47C263.975 32.3393 263.672 32.274 263.336 32.274C262.972 32.274 262.655 32.3393 262.384 32.47C262.113 32.6007 261.885 32.778 261.698 33.002C261.511 33.226 261.371 33.4827 261.278 33.772C261.185 34.0613 261.138 34.36 261.138 34.668Z" fill="black"/>
<path d="M352.001 70.6667C355.683 70.6667 358.667 67.6819 358.667 64C358.667 60.3181 355.683 57.3334 352.001 57.3334C348.319 57.3334 345.334 60.3181 345.334 64C345.334 67.6819 348.319 70.6667 352.001 70.6667Z" stroke="#BBBBBB" stroke-width="2" stroke-linecap="round" stroke-linejoin="round"/>
<rect x="86" y="63" width="100" height="2" rx="1" fill="black"/>
<rect x="233" y="63" width="100" height="2" rx="1" fill="#BBBBBB"/>
<path d="M68.6673 63.3866V64C68.6665 65.4376 68.201 66.8364 67.3402 67.9878C66.4794 69.1392 65.2695 69.9816 63.8909 70.3892C62.5122 70.7968 61.0388 70.7479 59.6903 70.2496C58.3418 69.7514 57.1904 68.8307 56.408 67.6246C55.6255 66.4186 55.2538 64.992 55.3484 63.5575C55.443 62.123 55.9988 60.7575 56.9328 59.6647C57.8669 58.5718 59.1292 57.8102 60.5314 57.4934C61.9337 57.1766 63.4008 57.3215 64.714 57.9066" stroke="black" stroke-width="2" stroke-linecap="round" stroke-linejoin="round"/>
<path d="M68.6667 58.6666L62 65.34L60 63.34" stroke="black" stroke-width="2" stroke-linecap="round" stroke-linejoin="round"/>
<path d="M211.001 69.6667C214.683 69.6667 217.667 66.6819 217.667 63C217.667 59.3181 214.683 56.3334 211.001 56.3334C207.319 56.3334 204.334 59.3181 204.334 63C204.334 66.6819 207.319 69.6667 211.001 69.6667Z" stroke="black" stroke-width="2" stroke-linecap="round" stroke-linejoin="round"/>
</svg>
