<svg width="412" height="72" viewBox="0 0 412 72" fill="none" xmlns="http://www.w3.org/2000/svg">
<path d="M37.9338 36.768H42.3578V38H36.5478V28.088H37.9338V36.768ZM50.102 34.668C50.102 35.1813 50.0087 35.6527 49.822 36.082C49.6447 36.5113 49.3927 36.8847 49.066 37.202C48.7487 37.51 48.3707 37.7527 47.932 37.93C47.4934 38.098 47.022 38.182 46.518 38.182C46.014 38.182 45.5427 38.098 45.104 37.93C44.6654 37.7527 44.2874 37.51 43.97 37.202C43.6527 36.8847 43.4007 36.5113 43.214 36.082C43.0367 35.6527 42.948 35.1813 42.948 34.668C42.948 34.1547 43.0367 33.688 43.214 33.268C43.4007 32.8387 43.6527 32.47 43.97 32.162C44.2874 31.854 44.6654 31.616 45.104 31.448C45.5427 31.2707 46.014 31.182 46.518 31.182C47.022 31.182 47.4934 31.2707 47.932 31.448C48.3707 31.616 48.7487 31.854 49.066 32.162C49.3927 32.47 49.6447 32.8387 49.822 33.268C50.0087 33.688 50.102 34.1547 50.102 34.668ZM48.73 34.668C48.73 34.3507 48.6787 34.0473 48.576 33.758C48.4827 33.4687 48.3427 33.2167 48.156 33.002C47.9694 32.778 47.736 32.6007 47.456 32.47C47.1854 32.3393 46.8727 32.274 46.518 32.274C46.1634 32.274 45.846 32.3393 45.566 32.47C45.2954 32.6007 45.0667 32.778 44.88 33.002C44.6934 33.2167 44.5487 33.4687 44.446 33.758C44.3527 34.0473 44.306 34.3507 44.306 34.668C44.306 34.9853 44.3527 35.2887 44.446 35.578C44.5487 35.8673 44.6934 36.124 44.88 36.348C45.0667 36.572 45.2954 36.7493 45.566 36.88C45.846 37.0107 46.1634 37.076 46.518 37.076C46.8727 37.076 47.1854 37.0107 47.456 36.88C47.736 36.7493 47.9694 36.572 48.156 36.348C48.3427 36.124 48.4827 35.8673 48.576 35.578C48.6787 35.2887 48.73 34.9853 48.73 34.668ZM56.575 33.044C56.435 32.8293 56.225 32.652 55.945 32.512C55.665 32.3627 55.3663 32.288 55.049 32.288C54.7036 32.288 54.3956 32.3533 54.125 32.484C53.8636 32.6147 53.6396 32.792 53.453 33.016C53.2663 33.2307 53.1216 33.4827 53.019 33.772C52.9256 34.0613 52.879 34.3647 52.879 34.682C52.879 34.9993 52.9256 35.3027 53.019 35.592C53.1216 35.8813 53.2663 36.138 53.453 36.362C53.6396 36.5767 53.8683 36.7493 54.139 36.88C54.4096 37.0107 54.7176 37.076 55.063 37.076C55.399 37.076 55.7023 37.0107 55.973 36.88C56.253 36.7493 56.4816 36.572 56.659 36.348L57.541 37.146C57.261 37.4727 56.911 37.7293 56.491 37.916C56.071 38.0933 55.595 38.182 55.063 38.182C54.5496 38.182 54.0736 38.098 53.635 37.93C53.2056 37.762 52.8323 37.5287 52.515 37.23C52.1976 36.922 51.9456 36.5533 51.759 36.124C51.5816 35.6947 51.493 35.214 51.493 34.682C51.493 34.1593 51.5816 33.6833 51.759 33.254C51.9363 32.8247 52.1836 32.456 52.501 32.148C52.8183 31.84 53.1916 31.602 53.621 31.434C54.0596 31.266 54.531 31.182 55.035 31.182C55.5016 31.182 55.9636 31.2753 56.421 31.462C56.8876 31.6487 57.2563 31.9193 57.527 32.274L56.575 33.044ZM60.1889 34.248H60.2309L63.0169 31.364H64.7809L61.6729 34.374L65.0469 38H63.2269L60.2309 34.556H60.1889V38H58.8729V27.416H60.1889V34.248ZM69.7978 28.088H73.1998C73.8344 28.088 74.4691 28.1813 75.1038 28.368C75.7384 28.5547 76.3124 28.8487 76.8257 29.25C77.3391 29.6513 77.7544 30.1647 78.0718 30.79C78.3891 31.4153 78.5478 32.1667 78.5478 33.044C78.5478 33.8933 78.3891 34.6307 78.0718 35.256C77.7544 35.872 77.3391 36.3853 76.8257 36.796C76.3124 37.1973 75.7384 37.5007 75.1038 37.706C74.4691 37.902 73.8344 38 73.1998 38H69.7978V28.088ZM71.1838 36.782H72.9198C73.5171 36.782 74.0678 36.698 74.5718 36.53C75.0851 36.362 75.5238 36.1193 75.8878 35.802C76.2611 35.4847 76.5504 35.0927 76.7558 34.626C76.9611 34.1593 77.0638 33.632 77.0638 33.044C77.0638 32.428 76.9611 31.8867 76.7558 31.42C76.5504 30.9533 76.2611 30.566 75.8878 30.258C75.5238 29.9407 75.0851 29.7027 74.5718 29.544C74.0678 29.376 73.5171 29.292 72.9198 29.292H71.1838V36.782ZM80.5123 38H78.9723L83.2703 28.088H84.5303L88.7863 38H87.2183L86.2103 35.564H81.5063L80.5123 38ZM81.9963 34.346H85.7063L83.8583 29.698L81.9963 34.346ZM91.4455 38H90.0595V28.088H91.4455V38Z" fill="black"/>
<path d="M313.665 36.46C313.273 36.992 312.764 37.426 312.139 37.762C311.514 38.0887 310.762 38.252 309.885 38.252C309.129 38.252 308.429 38.126 307.785 37.874C307.15 37.6127 306.6 37.2533 306.133 36.796C305.676 36.3293 305.316 35.7787 305.055 35.144C304.794 34.5 304.663 33.7953 304.663 33.03C304.663 32.2553 304.794 31.5507 305.055 30.916C305.326 30.272 305.694 29.726 306.161 29.278C306.637 28.8207 307.197 28.466 307.841 28.214C308.485 27.962 309.185 27.836 309.941 27.836C310.277 27.836 310.618 27.8687 310.963 27.934C311.308 27.9993 311.64 28.0973 311.957 28.228C312.274 28.3587 312.564 28.522 312.825 28.718C313.086 28.9047 313.31 29.124 313.497 29.376L312.405 30.216C312.162 29.88 311.817 29.6047 311.369 29.39C310.93 29.166 310.454 29.054 309.941 29.054C309.362 29.054 308.84 29.1613 308.373 29.376C307.916 29.5813 307.524 29.866 307.197 30.23C306.87 30.594 306.618 31.0187 306.441 31.504C306.264 31.98 306.175 32.4887 306.175 33.03C306.175 33.59 306.259 34.1127 306.427 34.598C306.604 35.0833 306.852 35.508 307.169 35.872C307.496 36.2267 307.888 36.5067 308.345 36.712C308.812 36.9173 309.33 37.02 309.899 37.02C310.459 37.02 310.968 36.908 311.425 36.684C311.882 36.46 312.26 36.1333 312.559 35.704L313.665 36.46ZM321.565 34.668C321.565 35.1813 321.472 35.6527 321.285 36.082C321.108 36.5113 320.856 36.8847 320.529 37.202C320.212 37.51 319.834 37.7527 319.395 37.93C318.956 38.098 318.485 38.182 317.981 38.182C317.477 38.182 317.006 38.098 316.567 37.93C316.128 37.7527 315.75 37.51 315.433 37.202C315.116 36.8847 314.864 36.5113 314.677 36.082C314.5 35.6527 314.411 35.1813 314.411 34.668C314.411 34.1547 314.5 33.688 314.677 33.268C314.864 32.8387 315.116 32.47 315.433 32.162C315.75 31.854 316.128 31.616 316.567 31.448C317.006 31.2707 317.477 31.182 317.981 31.182C318.485 31.182 318.956 31.2707 319.395 31.448C319.834 31.616 320.212 31.854 320.529 32.162C320.856 32.47 321.108 32.8387 321.285 33.268C321.472 33.688 321.565 34.1547 321.565 34.668ZM320.193 34.668C320.193 34.3507 320.142 34.0473 320.039 33.758C319.946 33.4687 319.806 33.2167 319.619 33.002C319.432 32.778 319.199 32.6007 318.919 32.47C318.648 32.3393 318.336 32.274 317.981 32.274C317.626 32.274 317.309 32.3393 317.029 32.47C316.758 32.6007 316.53 32.778 316.343 33.002C316.156 33.2167 316.012 33.4687 315.909 33.758C315.816 34.0473 315.769 34.3507 315.769 34.668C315.769 34.9853 315.816 35.2887 315.909 35.578C316.012 35.8673 316.156 36.124 316.343 36.348C316.53 36.572 316.758 36.7493 317.029 36.88C317.309 37.0107 317.626 37.076 317.981 37.076C318.336 37.076 318.648 37.0107 318.919 36.88C319.199 36.7493 319.432 36.572 319.619 36.348C319.806 36.124 319.946 35.8673 320.039 35.578C320.142 35.2887 320.193 34.9853 320.193 34.668ZM324.734 38H323.418V27.416H324.734V38ZM328.371 38H327.055V27.416H328.371V38ZM335.521 34.094C335.512 33.8327 335.465 33.59 335.381 33.366C335.307 33.1327 335.19 32.932 335.031 32.764C334.882 32.596 334.691 32.4653 334.457 32.372C334.233 32.2693 333.967 32.218 333.659 32.218C333.379 32.218 333.113 32.2693 332.861 32.372C332.619 32.4653 332.404 32.596 332.217 32.764C332.04 32.932 331.891 33.1327 331.769 33.366C331.657 33.59 331.592 33.8327 331.573 34.094H335.521ZM336.851 34.626C336.851 34.7007 336.851 34.7753 336.851 34.85C336.851 34.9247 336.847 34.9993 336.837 35.074H331.573C331.583 35.354 331.643 35.62 331.755 35.872C331.877 36.1147 332.035 36.3293 332.231 36.516C332.427 36.6933 332.651 36.8333 332.903 36.936C333.165 37.0387 333.44 37.09 333.729 37.09C334.177 37.09 334.565 36.992 334.891 36.796C335.218 36.6 335.475 36.362 335.661 36.082L336.585 36.824C336.231 37.2907 335.811 37.636 335.325 37.86C334.849 38.0747 334.317 38.182 333.729 38.182C333.225 38.182 332.759 38.098 332.329 37.93C331.9 37.762 331.531 37.5287 331.223 37.23C330.915 36.922 330.673 36.5533 330.495 36.124C330.318 35.6947 330.229 35.2187 330.229 34.696C330.229 34.1827 330.313 33.7113 330.481 33.282C330.659 32.8433 330.901 32.47 331.209 32.162C331.517 31.854 331.881 31.616 332.301 31.448C332.721 31.2707 333.174 31.182 333.659 31.182C334.145 31.182 334.583 31.2613 334.975 31.42C335.377 31.5787 335.713 31.8073 335.983 32.106C336.263 32.4047 336.478 32.7687 336.627 33.198C336.777 33.618 336.851 34.094 336.851 34.626ZM343.337 33.044C343.197 32.8293 342.987 32.652 342.707 32.512C342.427 32.3627 342.128 32.288 341.811 32.288C341.465 32.288 341.157 32.3533 340.887 32.484C340.625 32.6147 340.401 32.792 340.215 33.016C340.028 33.2307 339.883 33.4827 339.781 33.772C339.687 34.0613 339.641 34.3647 339.641 34.682C339.641 34.9993 339.687 35.3027 339.781 35.592C339.883 35.8813 340.028 36.138 340.215 36.362C340.401 36.5767 340.63 36.7493 340.901 36.88C341.171 37.0107 341.479 37.076 341.825 37.076C342.161 37.076 342.464 37.0107 342.735 36.88C343.015 36.7493 343.243 36.572 343.421 36.348L344.303 37.146C344.023 37.4727 343.673 37.7293 343.253 37.916C342.833 38.0933 342.357 38.182 341.825 38.182C341.311 38.182 340.835 38.098 340.397 37.93C339.967 37.762 339.594 37.5287 339.277 37.23C338.959 36.922 338.707 36.5533 338.521 36.124C338.343 35.6947 338.255 35.214 338.255 34.682C338.255 34.1593 338.343 33.6833 338.521 33.254C338.698 32.8247 338.945 32.456 339.263 32.148C339.58 31.84 339.953 31.602 340.383 31.434C340.821 31.266 341.293 31.182 341.797 31.182C342.263 31.182 342.725 31.2753 343.183 31.462C343.649 31.6487 344.018 31.9193 344.289 32.274L343.337 33.044ZM348.855 32.442H347.091V35.9C347.091 36.3013 347.165 36.5907 347.315 36.768C347.464 36.936 347.702 37.02 348.029 37.02C348.15 37.02 348.281 37.006 348.421 36.978C348.561 36.95 348.687 36.908 348.799 36.852L348.841 37.93C348.682 37.986 348.505 38.028 348.309 38.056C348.122 38.0933 347.926 38.112 347.721 38.112C347.095 38.112 346.615 37.9393 346.279 37.594C345.952 37.2487 345.789 36.7307 345.789 36.04V32.442H344.515V31.364H345.789V29.46H347.091V31.364H348.855V32.442ZM353.784 28.088H357.186C357.821 28.088 358.455 28.1813 359.09 28.368C359.725 28.5547 360.299 28.8487 360.812 29.25C361.325 29.6513 361.741 30.1647 362.058 30.79C362.375 31.4153 362.534 32.1667 362.534 33.044C362.534 33.8933 362.375 34.6307 362.058 35.256C361.741 35.872 361.325 36.3853 360.812 36.796C360.299 37.1973 359.725 37.5007 359.09 37.706C358.455 37.902 357.821 38 357.186 38H353.784V28.088ZM355.17 36.782H356.906C357.503 36.782 358.054 36.698 358.558 36.53C359.071 36.362 359.51 36.1193 359.874 35.802C360.247 35.4847 360.537 35.0927 360.742 34.626C360.947 34.1593 361.05 33.632 361.05 33.044C361.05 32.428 360.947 31.8867 360.742 31.42C360.537 30.9533 360.247 30.566 359.874 30.258C359.51 29.9407 359.071 29.7027 358.558 29.544C358.054 29.376 357.503 29.292 356.906 29.292H355.17V36.782ZM365.82 38H364.434V28.088H367.612C368.088 28.088 368.541 28.1393 368.97 28.242C369.4 28.3353 369.773 28.4893 370.09 28.704C370.417 28.9187 370.674 29.2033 370.86 29.558C371.047 29.9033 371.14 30.328 371.14 30.832C371.14 31.56 370.916 32.148 370.468 32.596C370.02 33.044 369.442 33.3287 368.732 33.45L371.504 38H369.824L367.304 33.59H365.82V38ZM365.82 32.428H367.416C367.743 32.428 368.046 32.4 368.326 32.344C368.606 32.288 368.849 32.1993 369.054 32.078C369.269 31.9473 369.437 31.784 369.558 31.588C369.68 31.3827 369.74 31.1307 369.74 30.832C369.74 30.5333 369.68 30.286 369.558 30.09C369.437 29.8847 369.274 29.7213 369.068 29.6C368.872 29.4787 368.639 29.3947 368.368 29.348C368.098 29.292 367.813 29.264 367.514 29.264H365.82V32.428ZM383.03 33.03C383.03 33.7953 382.895 34.5 382.624 35.144C382.363 35.7787 381.999 36.3293 381.532 36.796C381.065 37.2533 380.51 37.6127 379.866 37.874C379.222 38.126 378.522 38.252 377.766 38.252C377.01 38.252 376.31 38.126 375.666 37.874C375.031 37.6127 374.481 37.2533 374.014 36.796C373.547 36.3293 373.183 35.7787 372.922 35.144C372.661 34.5 372.53 33.7953 372.53 33.03C372.53 32.2553 372.661 31.5507 372.922 30.916C373.183 30.272 373.547 29.726 374.014 29.278C374.481 28.8207 375.031 28.466 375.666 28.214C376.31 27.962 377.01 27.836 377.766 27.836C378.522 27.836 379.222 27.962 379.866 28.214C380.51 28.466 381.065 28.8207 381.532 29.278C381.999 29.726 382.363 30.272 382.624 30.916C382.895 31.5507 383.03 32.2553 383.03 33.03ZM381.532 33.03C381.532 32.4887 381.443 31.98 381.266 31.504C381.089 31.0187 380.837 30.594 380.51 30.23C380.183 29.866 379.787 29.5813 379.32 29.376C378.863 29.1613 378.345 29.054 377.766 29.054C377.197 29.054 376.679 29.1613 376.212 29.376C375.755 29.5813 375.363 29.866 375.036 30.23C374.719 30.594 374.471 31.0187 374.294 31.504C374.117 31.98 374.028 32.4887 374.028 33.03C374.028 33.5807 374.117 34.0987 374.294 34.584C374.471 35.0693 374.723 35.494 375.05 35.858C375.377 36.2127 375.769 36.4927 376.226 36.698C376.683 36.9033 377.197 37.006 377.766 37.006C378.335 37.006 378.853 36.9033 379.32 36.698C379.787 36.4927 380.183 36.2127 380.51 35.858C380.837 35.494 381.089 35.0693 381.266 34.584C381.443 34.0987 381.532 33.5807 381.532 33.03ZM384.915 28.088H387.939C388.471 28.088 388.956 28.144 389.395 28.256C389.834 28.3587 390.207 28.522 390.515 28.746C390.823 28.97 391.061 29.2547 391.229 29.6C391.397 29.9453 391.481 30.3607 391.481 30.846C391.481 31.3407 391.388 31.7653 391.201 32.12C391.024 32.4747 390.772 32.764 390.445 32.988C390.128 33.212 389.745 33.38 389.297 33.492C388.858 33.5947 388.382 33.646 387.869 33.646H386.301V38H384.915V28.088ZM386.301 32.47H387.771C388.107 32.47 388.415 32.442 388.695 32.386C388.984 32.3207 389.232 32.2273 389.437 32.106C389.642 31.9753 389.801 31.8073 389.913 31.602C390.025 31.3967 390.081 31.1447 390.081 30.846C390.081 30.5473 390.02 30.3 389.899 30.104C389.787 29.8987 389.628 29.7353 389.423 29.614C389.227 29.4833 388.989 29.3947 388.709 29.348C388.429 29.292 388.126 29.264 387.799 29.264H386.301V32.47Z" fill="black"/>
<path d="M166.623 36.768H171.803V38H165.237V28.088H171.593V29.306H166.623V32.274H171.299V33.464H166.623V36.768ZM174.891 41.36H173.575V31.364H174.863V32.4H174.905C175.12 32.0453 175.433 31.756 175.843 31.532C176.263 31.2987 176.749 31.182 177.299 31.182C177.794 31.182 178.242 31.2707 178.643 31.448C179.054 31.6253 179.404 31.8727 179.693 32.19C179.992 32.5073 180.221 32.8807 180.379 33.31C180.538 33.73 180.617 34.1827 180.617 34.668C180.617 35.1533 180.538 35.6107 180.379 36.04C180.221 36.4693 179.997 36.8427 179.707 37.16C179.418 37.4773 179.068 37.7293 178.657 37.916C178.247 38.0933 177.785 38.182 177.271 38.182C176.795 38.182 176.347 38.0793 175.927 37.874C175.507 37.6687 175.176 37.3793 174.933 37.006H174.891V41.36ZM179.259 34.668C179.259 34.36 179.213 34.0613 179.119 33.772C179.026 33.4827 178.886 33.226 178.699 33.002C178.513 32.778 178.279 32.6007 177.999 32.47C177.729 32.3393 177.411 32.274 177.047 32.274C176.711 32.274 176.403 32.3393 176.123 32.47C175.853 32.6007 175.619 32.778 175.423 33.002C175.227 33.226 175.073 33.4827 174.961 33.772C174.859 34.0613 174.807 34.3647 174.807 34.682C174.807 34.9993 174.859 35.3027 174.961 35.592C175.073 35.8813 175.227 36.138 175.423 36.362C175.619 36.5767 175.853 36.7493 176.123 36.88C176.403 37.0107 176.711 37.076 177.047 37.076C177.411 37.076 177.729 37.0107 177.999 36.88C178.279 36.74 178.513 36.558 178.699 36.334C178.886 36.11 179.026 35.8533 179.119 35.564C179.213 35.2747 179.259 34.976 179.259 34.668ZM189.168 34.668C189.168 35.1813 189.075 35.6527 188.888 36.082C188.711 36.5113 188.459 36.8847 188.132 37.202C187.815 37.51 187.437 37.7527 186.998 37.93C186.56 38.098 186.088 38.182 185.584 38.182C185.08 38.182 184.609 38.098 184.17 37.93C183.732 37.7527 183.354 37.51 183.036 37.202C182.719 36.8847 182.467 36.5113 182.28 36.082C182.103 35.6527 182.014 35.1813 182.014 34.668C182.014 34.1547 182.103 33.688 182.28 33.268C182.467 32.8387 182.719 32.47 183.036 32.162C183.354 31.854 183.732 31.616 184.17 31.448C184.609 31.2707 185.08 31.182 185.584 31.182C186.088 31.182 186.56 31.2707 186.998 31.448C187.437 31.616 187.815 31.854 188.132 32.162C188.459 32.47 188.711 32.8387 188.888 33.268C189.075 33.688 189.168 34.1547 189.168 34.668ZM187.796 34.668C187.796 34.3507 187.745 34.0473 187.642 33.758C187.549 33.4687 187.409 33.2167 187.222 33.002C187.036 32.778 186.802 32.6007 186.522 32.47C186.252 32.3393 185.939 32.274 185.584 32.274C185.23 32.274 184.912 32.3393 184.632 32.47C184.362 32.6007 184.133 32.778 183.946 33.002C183.76 33.2167 183.615 33.4687 183.512 33.758C183.419 34.0473 183.372 34.3507 183.372 34.668C183.372 34.9853 183.419 35.2887 183.512 35.578C183.615 35.8673 183.76 36.124 183.946 36.348C184.133 36.572 184.362 36.7493 184.632 36.88C184.912 37.0107 185.23 37.076 185.584 37.076C185.939 37.076 186.252 37.0107 186.522 36.88C186.802 36.7493 187.036 36.572 187.222 36.348C187.409 36.124 187.549 35.8673 187.642 35.578C187.745 35.2887 187.796 34.9853 187.796 34.668ZM195.641 33.044C195.501 32.8293 195.291 32.652 195.011 32.512C194.731 32.3627 194.433 32.288 194.115 32.288C193.77 32.288 193.462 32.3533 193.191 32.484C192.93 32.6147 192.706 32.792 192.519 33.016C192.333 33.2307 192.188 33.4827 192.085 33.772C191.992 34.0613 191.945 34.3647 191.945 34.682C191.945 34.9993 191.992 35.3027 192.085 35.592C192.188 35.8813 192.333 36.138 192.519 36.362C192.706 36.5767 192.935 36.7493 193.205 36.88C193.476 37.0107 193.784 37.076 194.129 37.076C194.465 37.076 194.769 37.0107 195.039 36.88C195.319 36.7493 195.548 36.572 195.725 36.348L196.607 37.146C196.327 37.4727 195.977 37.7293 195.557 37.916C195.137 38.0933 194.661 38.182 194.129 38.182C193.616 38.182 193.14 38.098 192.701 37.93C192.272 37.762 191.899 37.5287 191.581 37.23C191.264 36.922 191.012 36.5533 190.825 36.124C190.648 35.6947 190.559 35.214 190.559 34.682C190.559 34.1593 190.648 33.6833 190.825 33.254C191.003 32.8247 191.25 32.456 191.567 32.148C191.885 31.84 192.258 31.602 192.687 31.434C193.126 31.266 193.597 31.182 194.101 31.182C194.568 31.182 195.03 31.2753 195.487 31.462C195.954 31.6487 196.323 31.9193 196.593 32.274L195.641 33.044ZM199.283 32.372C199.442 32.0453 199.713 31.7653 200.095 31.532C200.478 31.2987 200.907 31.182 201.383 31.182C201.813 31.182 202.181 31.2567 202.489 31.406C202.797 31.546 203.054 31.7373 203.259 31.98C203.465 32.2227 203.614 32.5073 203.707 32.834C203.81 33.1607 203.861 33.5107 203.861 33.884V38H202.545V34.332C202.545 34.0613 202.522 33.8047 202.475 33.562C202.438 33.3193 202.363 33.1047 202.251 32.918C202.139 32.7313 201.985 32.582 201.789 32.47C201.603 32.358 201.355 32.302 201.047 32.302C200.525 32.302 200.095 32.5027 199.759 32.904C199.423 33.296 199.255 33.8233 199.255 34.486V38H197.939V27.416H199.255V32.372H199.283ZM214.445 34.094C214.436 33.8327 214.389 33.59 214.305 33.366C214.23 33.1327 214.114 32.932 213.955 32.764C213.806 32.596 213.614 32.4653 213.381 32.372C213.157 32.2693 212.891 32.218 212.583 32.218C212.303 32.218 212.037 32.2693 211.785 32.372C211.542 32.4653 211.328 32.596 211.141 32.764C210.964 32.932 210.814 33.1327 210.693 33.366C210.581 33.59 210.516 33.8327 210.497 34.094H214.445ZM215.775 34.626C215.775 34.7007 215.775 34.7753 215.775 34.85C215.775 34.9247 215.77 34.9993 215.761 35.074H210.497C210.506 35.354 210.567 35.62 210.679 35.872C210.8 36.1147 210.959 36.3293 211.155 36.516C211.351 36.6933 211.575 36.8333 211.827 36.936C212.088 37.0387 212.364 37.09 212.653 37.09C213.101 37.09 213.488 36.992 213.815 36.796C214.142 36.6 214.398 36.362 214.585 36.082L215.509 36.824C215.154 37.2907 214.734 37.636 214.249 37.86C213.773 38.0747 213.241 38.182 212.653 38.182C212.149 38.182 211.682 38.098 211.253 37.93C210.824 37.762 210.455 37.5287 210.147 37.23C209.839 36.922 209.596 36.5533 209.419 36.124C209.242 35.6947 209.153 35.2187 209.153 34.696C209.153 34.1827 209.237 33.7113 209.405 33.282C209.582 32.8433 209.825 32.47 210.133 32.162C210.441 31.854 210.805 31.616 211.225 31.448C211.645 31.2707 212.098 31.182 212.583 31.182C213.068 31.182 213.507 31.2613 213.899 31.42C214.3 31.5787 214.636 31.8073 214.907 32.106C215.187 32.4047 215.402 32.7687 215.551 33.198C215.7 33.618 215.775 34.094 215.775 34.626ZM219.1 34.514L216.678 31.364H218.302L219.926 33.646L221.564 31.364H223.104L220.71 34.5L223.384 38H221.746L219.898 35.41L218.022 38H216.44L219.1 34.514ZM229.347 34.094C229.338 33.8327 229.291 33.59 229.207 33.366C229.133 33.1327 229.016 32.932 228.857 32.764C228.708 32.596 228.517 32.4653 228.283 32.372C228.059 32.2693 227.793 32.218 227.485 32.218C227.205 32.218 226.939 32.2693 226.687 32.372C226.445 32.4653 226.23 32.596 226.043 32.764C225.866 32.932 225.717 33.1327 225.595 33.366C225.483 33.59 225.418 33.8327 225.399 34.094H229.347ZM230.677 34.626C230.677 34.7007 230.677 34.7753 230.677 34.85C230.677 34.9247 230.673 34.9993 230.663 35.074H225.399C225.409 35.354 225.469 35.62 225.581 35.872C225.703 36.1147 225.861 36.3293 226.057 36.516C226.253 36.6933 226.477 36.8333 226.729 36.936C226.991 37.0387 227.266 37.09 227.555 37.09C228.003 37.09 228.391 36.992 228.717 36.796C229.044 36.6 229.301 36.362 229.487 36.082L230.411 36.824C230.057 37.2907 229.637 37.636 229.151 37.86C228.675 38.0747 228.143 38.182 227.555 38.182C227.051 38.182 226.585 38.098 226.155 37.93C225.726 37.762 225.357 37.5287 225.049 37.23C224.741 36.922 224.499 36.5533 224.321 36.124C224.144 35.6947 224.055 35.2187 224.055 34.696C224.055 34.1827 224.139 33.7113 224.307 33.282C224.485 32.8433 224.727 32.47 225.035 32.162C225.343 31.854 225.707 31.616 226.127 31.448C226.547 31.2707 227 31.182 227.485 31.182C227.971 31.182 228.409 31.2613 228.801 31.42C229.203 31.5787 229.539 31.8073 229.809 32.106C230.089 32.4047 230.304 32.7687 230.453 33.198C230.603 33.618 230.677 34.094 230.677 34.626ZM237.163 33.044C237.023 32.8293 236.813 32.652 236.533 32.512C236.253 32.3627 235.954 32.288 235.637 32.288C235.292 32.288 234.984 32.3533 234.713 32.484C234.452 32.6147 234.228 32.792 234.041 33.016C233.854 33.2307 233.71 33.4827 233.607 33.772C233.514 34.0613 233.467 34.3647 233.467 34.682C233.467 34.9993 233.514 35.3027 233.607 35.592C233.71 35.8813 233.854 36.138 234.041 36.362C234.228 36.5767 234.456 36.7493 234.727 36.88C234.998 37.0107 235.306 37.076 235.651 37.076C235.987 37.076 236.29 37.0107 236.561 36.88C236.841 36.7493 237.07 36.572 237.247 36.348L238.129 37.146C237.849 37.4727 237.499 37.7293 237.079 37.916C236.659 38.0933 236.183 38.182 235.651 38.182C235.138 38.182 234.662 38.098 234.223 37.93C233.794 37.762 233.42 37.5287 233.103 37.23C232.786 36.922 232.534 36.5533 232.347 36.124C232.17 35.6947 232.081 35.214 232.081 34.682C232.081 34.1593 232.17 33.6833 232.347 33.254C232.524 32.8247 232.772 32.456 233.089 32.148C233.406 31.84 233.78 31.602 234.209 31.434C234.648 31.266 235.119 31.182 235.623 31.182C236.09 31.182 236.552 31.2753 237.009 31.462C237.476 31.6487 237.844 31.9193 238.115 32.274L237.163 33.044ZM244.109 38C244.09 37.832 244.076 37.6453 244.067 37.44C244.057 37.2253 244.053 37.048 244.053 36.908H244.025C243.857 37.2627 243.572 37.566 243.171 37.818C242.779 38.0607 242.34 38.182 241.855 38.182C241.425 38.182 241.052 38.112 240.735 37.972C240.427 37.832 240.17 37.6407 239.965 37.398C239.769 37.146 239.619 36.8567 239.517 36.53C239.423 36.2033 239.377 35.8533 239.377 35.48V31.364H240.693V35.032C240.693 35.3027 240.711 35.564 240.749 35.816C240.795 36.0587 240.875 36.2733 240.987 36.46C241.099 36.6467 241.253 36.796 241.449 36.908C241.645 37.02 241.897 37.076 242.205 37.076C242.737 37.076 243.166 36.88 243.493 36.488C243.819 36.0867 243.983 35.5547 243.983 34.892V31.364H245.299V36.572C245.299 36.7493 245.303 36.978 245.313 37.258C245.322 37.538 245.336 37.7853 245.355 38H244.109ZM250.829 32.442H249.065V35.9C249.065 36.3013 249.14 36.5907 249.289 36.768C249.439 36.936 249.677 37.02 250.003 37.02C250.125 37.02 250.255 37.006 250.395 36.978C250.535 36.95 250.661 36.908 250.773 36.852L250.815 37.93C250.657 37.986 250.479 38.028 250.283 38.056C250.097 38.0933 249.901 38.112 249.695 38.112C249.07 38.112 248.589 37.9393 248.253 37.594C247.927 37.2487 247.763 36.7307 247.763 36.04V32.442H246.489V31.364H247.763V29.46H249.065V31.364H250.829V32.442ZM257.047 34.094C257.037 33.8327 256.991 33.59 256.907 33.366C256.832 33.1327 256.715 32.932 256.557 32.764C256.407 32.596 256.216 32.4653 255.983 32.372C255.759 32.2693 255.493 32.218 255.185 32.218C254.905 32.218 254.639 32.2693 254.387 32.372C254.144 32.4653 253.929 32.596 253.743 32.764C253.565 32.932 253.416 33.1327 253.295 33.366C253.183 33.59 253.117 33.8327 253.099 34.094H257.047ZM258.377 34.626C258.377 34.7007 258.377 34.7753 258.377 34.85C258.377 34.9247 258.372 34.9993 258.363 35.074H253.099C253.108 35.354 253.169 35.62 253.281 35.872C253.402 36.1147 253.561 36.3293 253.757 36.516C253.953 36.6933 254.177 36.8333 254.429 36.936C254.69 37.0387 254.965 37.09 255.255 37.09C255.703 37.09 256.09 36.992 256.417 36.796C256.743 36.6 257 36.362 257.187 36.082L258.111 36.824C257.756 37.2907 257.336 37.636 256.851 37.86C256.375 38.0747 255.843 38.182 255.255 38.182C254.751 38.182 254.284 38.098 253.855 37.93C253.425 37.762 253.057 37.5287 252.749 37.23C252.441 36.922 252.198 36.5533 252.021 36.124C251.843 35.6947 251.755 35.2187 251.755 34.696C251.755 34.1827 251.839 33.7113 252.007 33.282C252.184 32.8433 252.427 32.47 252.735 32.162C253.043 31.854 253.407 31.616 253.827 31.448C254.247 31.2707 254.699 31.182 255.185 31.182C255.67 31.182 256.109 31.2613 256.501 31.42C256.902 31.5787 257.238 31.8073 257.509 32.106C257.789 32.4047 258.003 32.7687 258.153 33.198C258.302 33.618 258.377 34.094 258.377 34.626ZM265.506 36.95C265.254 37.3513 264.909 37.6593 264.47 37.874C264.041 38.0793 263.588 38.182 263.112 38.182C262.599 38.182 262.137 38.0933 261.726 37.916C261.315 37.7293 260.965 37.4773 260.676 37.16C260.387 36.8427 260.163 36.4693 260.004 36.04C259.845 35.6107 259.766 35.1533 259.766 34.668C259.766 34.1827 259.845 33.73 260.004 33.31C260.163 32.8807 260.387 32.5073 260.676 32.19C260.975 31.8727 261.329 31.6253 261.74 31.448C262.151 31.2707 262.603 31.182 263.098 31.182C263.639 31.182 264.111 31.2987 264.512 31.532C264.913 31.756 265.231 32.0313 265.464 32.358H265.492V27.416H266.808V38H265.534V36.95H265.506ZM261.138 34.668C261.138 34.976 261.185 35.2747 261.278 35.564C261.371 35.8533 261.511 36.11 261.698 36.334C261.885 36.558 262.113 36.74 262.384 36.88C262.655 37.0107 262.972 37.076 263.336 37.076C263.672 37.076 263.975 37.0107 264.246 36.88C264.526 36.7493 264.764 36.5767 264.96 36.362C265.156 36.138 265.305 35.8813 265.408 35.592C265.52 35.3027 265.576 34.9993 265.576 34.682C265.576 34.3647 265.52 34.0613 265.408 33.772C265.305 33.4827 265.156 33.226 264.96 33.002C264.764 32.778 264.526 32.6007 264.246 32.47C263.975 32.3393 263.672 32.274 263.336 32.274C262.972 32.274 262.655 32.3393 262.384 32.47C262.113 32.6007 261.885 32.778 261.698 33.002C261.511 33.226 261.371 33.4827 261.278 33.772C261.185 34.0613 261.138 34.36 261.138 34.668Z" fill="black"/>
<path d="M352.001 70.6667C355.683 70.6667 358.667 67.6819 358.667 64C358.667 60.3181 355.683 57.3334 352.001 57.3334C348.319 57.3334 345.334 60.3181 345.334 64C345.334 67.6819 348.319 70.6667 352.001 70.6667Z" stroke="black" stroke-width="2" stroke-linecap="round" stroke-linejoin="round"/>
<rect x="86" y="63" width="100" height="2" rx="1" fill="black"/>
<rect x="233" y="63" width="100" height="2" rx="1" fill="black"/>
<path d="M68.6673 63.3866V64C68.6665 65.4376 68.201 66.8364 67.3402 67.9878C66.4794 69.1392 65.2695 69.9816 63.8909 70.3892C62.5122 70.7968 61.0388 70.7479 59.6903 70.2496C58.3418 69.7514 57.1904 68.8307 56.408 67.6246C55.6255 66.4186 55.2538 64.992 55.3484 63.5575C55.443 62.123 55.9988 60.7575 56.9328 59.6647C57.8669 58.5718 59.1292 57.8102 60.5314 57.4934C61.9337 57.1766 63.4008 57.3215 64.714 57.9066" stroke="black" stroke-width="2" stroke-linecap="round" stroke-linejoin="round"/>
<path d="M68.6667 58.6666L62 65.34L60 63.34" stroke="black" stroke-width="2" stroke-linecap="round" stroke-linejoin="round"/>
<path d="M214.667 62.3866V63C214.667 64.4376 214.201 65.8364 213.34 66.9878C212.479 68.1392 211.27 68.9816 209.891 69.3892C208.512 69.7968 207.039 69.7479 205.69 69.2496C204.342 68.7514 203.19 67.8307 202.408 66.6246C201.625 65.4186 201.254 63.992 201.348 62.5575C201.443 61.123 201.999 59.7575 202.933 58.6647C203.867 57.5718 205.129 56.8102 206.531 56.4934C207.934 56.1766 209.401 56.3215 210.714 56.9066" stroke="black" stroke-width="2" stroke-linecap="round" stroke-linejoin="round"/>
<path d="M214.667 57.6666L208 64.34L206 62.34" stroke="black" stroke-width="2" stroke-linecap="round" stroke-linejoin="round"/>
</svg>
