<?xml version="1.0" encoding="utf-8"?>
<!-- Generator: Adobe Illustrator 18.0.0, SVG Export Plug-In . SVG Version: 6.00 Build 0)  -->
<!DOCTYPE svg PUBLIC "-//W3C//DTD SVG 1.1//EN" "http://www.w3.org/Graphics/SVG/1.1/DTD/svg11.dtd">
<svg version="1.1" id="Слой_1" xmlns="http://www.w3.org/2000/svg" xmlns:xlink="http://www.w3.org/1999/xlink" x="0px" y="0px"
	 viewBox="0 0 1024 1024" enable-background="new 0 0 1024 1024" xml:space="preserve">
<path fill="#0828BE" d="M512,38.4c126.5,0,245.4,49.3,334.9,138.7c89.5,89.4,138.7,208.4,138.7,334.9s-49.3,245.4-138.7,334.9
	C757.4,936.3,638.5,985.6,512,985.6s-245.4-49.3-334.9-138.7C87.7,757.4,38.4,638.5,38.4,512s49.3-245.4,138.7-334.9
	C266.6,87.7,385.5,38.4,512,38.4 M512,0C229.2,0,0,229.2,0,512s229.2,512,512,512s512-229.2,512-512S794.8,0,512,0L512,0z"/>
<path fill="#0828BE" d="M512,716.8L512,716.8c-118.1,0-191.9-127.8-132.8-230.1l0,0L512,256.7l132.8,230.1l0,0
	C703.9,589,630.1,716.8,512,716.8L512,716.8z"/>
</svg>